<svg xmlns="http://www.w3.org/2000/svg" width="240" height="45" viewBox="0 0 682.249 125.183">
  <g id="logo_-_7" data-name="logo - 7" transform="translate(0 0)">
    <g id="组_862" data-name="组 862" transform="translate(151.113 18.245)">
      <path id="路径_58791" data-name="路径 58791" d="M3.954-15.01V-12.6H23.813V-15.01h-7.6v-9.475h8.939v-2.409H16.212v-8.19H11.5v8.19H2.562v2.409H11.5v9.475ZM33.93-24.271H26.543V2.547H46.617V-24.271H36.5a62.759,62.759,0,0,0,3.747-5.835h9.421v-2.409H25.151v2.409h9.8C34.733-28.393,34.359-26.145,33.93-24.271ZM42.12-16.3H31.04v-5.567H42.12Zm0,8.083H31.04v-5.674H42.12Zm-19.967.428H5.453V12.664h4.6V8.917h12.1ZM42.12.138H31.04V-5.8H42.12ZM17.657,6.508h-7.6V-5.375h7.6Zm1.606,6.8.749,1.766a39.168,39.168,0,0,0,15.952-8.19L31.682,3.725A30.635,30.635,0,0,1,19.263,13.307ZM38,3.778l-.91,1.713a118.956,118.956,0,0,1,9.957,9.368l3.319-4.389A47.97,47.97,0,0,0,38,3.778ZM82.268-28.875l1.766-3.747a57.643,57.643,0,0,0-12.74-3l-.535,1.874c2.623,1.231,6.584,3.212,9.582,4.871H55.663V-26.2h47.748v-2.676ZM94.258-23.2H65.406v10.117H94.258Zm-4.711,7.708H70.116v-5.3H89.548Zm3.319,5.139-2.3.589H61.445v2.409h28a39.677,39.677,0,0,1-7.119,4.6l-4.657-.91V8.061c0,2.837-1.178,3.319-9.9,2.034l-.535,1.82C76.647,16.572,82.7,14.966,82.7,9.72V-.825A55.61,55.61,0,0,0,96.935-6.767Zm38.541-18.735H136.6c-1.82,6.316-6.209,10.385-14.507,12.312l.535,1.82c7.815-.642,13.864-3.908,17.022-9.207,3.479,5.781,10.492,9.261,14.774,10.224l2.034-4.6c-5.674-.964-11.4-2.516-15.791-7.655a22.872,22.872,0,0,0,.964-2.891H148.7a27.945,27.945,0,0,1-3.051,5.406l1.231,1.285a30.24,30.24,0,0,0,7.387-7.387l-4.282-2.462-1.231.749h-15.9a23.593,23.593,0,0,0,1.392-3.158L129.8-35.887c-1.713,5.621-3.426,9.207-6.477,12.687l1.285,1.338A28.6,28.6,0,0,0,131.408-29.089Zm-8.137-1.659A46.654,46.654,0,0,0,112.4-34.335l-.642,1.82a78.366,78.366,0,0,1,8.832,5.888Zm-.375,6.477L121.5-25.449a74.073,74.073,0,0,1-11.669,8.832l2.837,3.854A61.739,61.739,0,0,0,122.9-24.271Zm-6.37,29.388h33.242V-14.368H116.527Zm4.711-17.076h23.821V-8.64H121.237Zm0,5.567h23.821v3.158H121.237Zm0,5.406h23.821V2.708H121.237Zm-11.295,13.6.482,1.874c8.136-.91,16.862-3.265,20.984-5.406l-3.961-3.8A57.269,57.269,0,0,1,109.942,12.611ZM136.011,7.74c5.246,1.766,13.7,4.871,18.254,7.066l2.141-5.192c-5.888-1.927-14.56-3.212-19.913-3.854ZM182.9-26.091h-9.261l2.784-1.981a37.177,37.177,0,0,0-7.655-7.387l-1.392,1.285c1.338,2.088,3.1,5.192,4.6,8.083H162.83v2.462H182.9ZM210.257-.772H208.33c.107,7.869-.054,9.582-1.178,8.779-1.178-.856-2.248-9.261-2.248-26.229V-31.979h-22.7v2.409h5.835v16.594h-5.781v2.409h5.781v25h4.818v-25h6.156v-2.409H192.86V-29.57h7.334v11.295c0,17.772.428,29.655,6.156,32.064C209.936,15.287,213.9,12.5,210.257-.772ZM164.65-15.813h16.487v-2.355H164.65Zm0,7.173h16.487V-11H164.65Zm0,22.857h4.122V10.523h8.137v2.891h4.229V-3.341H164.65ZM168.771-.932h8.083V8.061h-8.083Zm65.253,8.618v-40.9H219.2v19.057c0,13.489-.375,20.5-3.265,28l1.606,1.017c3.747-4.925,5.567-12.044,6.1-21.037h5.781V6.508c0,2.355-.589,2.623-6.852,1.713l-.482,1.766C229.688,13.521,234.024,12.4,234.024,7.686ZM244.516-27.75V-30.32h6.477v10.278c0,3.854.749,5.192,6.691,5.192,3.1,0,4.871-.161,6.584-1.766L262.341-20.1a4.455,4.455,0,0,1-3.747,1.231c-2.623,0-3-.482-3-2.088V-32.729H239.912V-28.5c0,6.905-.214,10.545-4.925,14.935L236-11.906C242.428-15.385,244.516-19.56,244.516-27.75Zm-15.1,7.441H223.8V-30.8h5.621Zm0,11.723h-5.674c.054-1.231.054-2.516.054-3.854v-5.514h5.621ZM264.643,8.543a36.339,36.339,0,0,1-12.365-4.5,37.692,37.692,0,0,0,7.6-14.292l-5.085-1.981-1.124,1.017H235.951V-8.8h4.175a31.193,31.193,0,0,0,6.209,13.275,35.818,35.818,0,0,1-14.185,8.19l.642,1.82c6.316-1.338,11.723-3.586,16.166-7.226a31.321,31.321,0,0,0,13.008,7.012ZM254.151-8.8a32.7,32.7,0,0,1-5.246,10.385,24.275,24.275,0,0,1-6.8-10.385Zm30.994-25.48-5.353-1.231C277.918-24.057,274.653-15.225,269.3-8l1.285,1.392a37.926,37.926,0,0,0,6.156-7.226V14.324h4.6V-22.344A63.508,63.508,0,0,0,285.145-34.281ZM305.379-33h-9.1v2.409h7.173a30.062,30.062,0,0,0,11.562,19.7L318.6-15.92C312.766-19.239,306.771-23.468,305.379-33Zm-9.849,3.319L290.6-31.23a45.38,45.38,0,0,1-8.458,19.806l1.392,1.338A39.914,39.914,0,0,0,295.529-29.678Zm-8.244,18.9h6.263c-.7,12.365-3.908,17.932-10.92,23.553l1.178,1.552c8.886-5.032,13.543-10.974,14.614-25.105h7.441A156.506,156.506,0,0,1,304.9,5.813c-.428,3.854-1.231,4.443-8.672,2.73l-.535,1.766c7.762,5.192,13.489,3.212,14.132-2.569.535-4.925,1.124-14.507,1.285-20.93H287.286Zm83.131-13.6v-2.944H344.83a66.205,66.205,0,0,0,2.355-7.6l-5.353-1.071a68.331,68.331,0,0,1-2.462,8.672H324.65v2.944h13.6A51.671,51.671,0,0,1,323.1-3.769l1.124,1.606a42.8,42.8,0,0,0,11.027-9.207V14.377h4.925V1.691H359.6V7.2c0,3.158-1.178,3.372-9.1,2.141l-.535,1.874c8.886,4.711,14.56,3.1,14.56-2.623V-17.687h-24.57a53.081,53.081,0,0,0,3.586-6.691ZM340.173-15.01H359.6v5.835H340.173Zm0,8.244H359.6V-.718H340.173ZM395.094-4.2c-.107-4.55-2.784-9.154-6.691-13.275a65.928,65.928,0,0,0,7.387-13.864l-4.925-2.088-1.285,1.017H383.8l-4.336-1.231V14.538h4.5v-44.7h6.156a65.536,65.536,0,0,1-3.533,12.847c2.784,4.443,3.961,8.565,3.961,11.937,0,4.443-.749,4.871-5.514,3.694L384.5.138C390.544,5.01,395.255,2.654,395.094-4.2ZM413.883.3a45.275,45.275,0,0,0,9.742-6.638L419.29-9.657a40.671,40.671,0,0,1-6.531,8.3,31.448,31.448,0,0,1-4.015-10.545h11.509V-32.086h-22.7V7.044c-2.141.321-4.175.535-5.942.642l1.178,5.406a75.328,75.328,0,0,0,18.254-6.8L410.4,4.528c-2.3.642-5.139,1.231-8.029,1.766v-18.2h4.282c1.981,15.9,9.582,23.178,14.507,26.711l4.122-5.139C421.217,7.311,417.1,4.635,413.883.3ZM402.375-29.678h13.061v6.424H402.375Zm0,8.832h13.061v6.531H402.375Zm47.32-9.1-5.674-2.248c-2.676,11.4-7.334,19.271-14.185,25.748l1.124,1.606C439.524-10.46,446.162-20.149,449.695-29.945Zm13.275-2.248h-10.6v2.409h8.618c1.82,11.937,7.012,19.752,13.757,24.838L479.136-11C471.481-14.9,464.736-21.434,462.97-32.193ZM461.311-6.017,459.7-4.679c1.713,2.676,3.319,5.514,4.764,8.3-5.674.8-13.275,1.392-20.341,1.713a85.638,85.638,0,0,0,12.258-19.859l-6.1-2.355C448.3-9.336,444.877-.557,441.076,5.491c-2.355.054-4.6.107-6.638.107l1.5,6.1c8.565-.856,20.823-3,29.655-5.942,1.338,2.784,2.516,5.46,3.426,7.869l5.728-3.1A75.4,75.4,0,0,0,461.311-6.017ZM486.469-32.14v2.409h35.918V5.813c0,4.282-1.445,4.978-10.706,2.944l-.642,1.82c11.348,6.584,16.273,3.372,16.273-3.1V-32.14Zm31.208,9.207H488.343v2.409h29.334ZM513.984,4.26V-14.207h-22.75V5.438h4.711V.834h13.329V4.26ZM495.944-1.574V-11.8h13.329V-1.574Z" transform="translate(0.336 35.994)" fill="#282d3c"/>
      <path id="路径_58792" data-name="路径 58792" d="M10.657-17.716h3.854v14.8a7.424,7.424,0,0,1-2.325,5.689A8.033,8.033,0,0,1,6.436,4.92a8.252,8.252,0,0,1-3.3-.673A7.266,7.266,0,0,1,.5,2.35L.288,2.136,2,.79,2.184,1A5.448,5.448,0,0,0,6.436,2.993a4.164,4.164,0,0,0,3.12-1.071q1.162-1.162,1.1-4.1V-17.716Zm8.442.031h3.915V4.736H19.1ZM31.7-7.1V2.717H43.785l-1.5,2.019H27.848V-17.685h16.3l-1.9,1.958H31.7v6.7h11.96L42.1-7.1ZM81.041-17.716h.306V4.736H77.432V-4.318H65.686V4.736H61.74V-17.716h3.946V-6.245H77.432L77.4-17.716h3.64ZM90.065-7.1V2.717h12.082l-1.5,2.019H86.211V-17.685h16.3l-1.9,1.958H90.065v6.7h11.96L100.465-7.1Zm32.974-10.584h1.927V4.736H122.55l-14.988-16.12-.031,16.12H105.6V-17.685h1.835l15.6,16.7Zm17.5,11.012h8.932V4.614h-3.915V3.176a7.487,7.487,0,0,1-5.292,1.866,11.428,11.428,0,0,1-4.4-.872,11.3,11.3,0,0,1-3.64-2.371,11.269,11.269,0,0,1-2.432-3.548,10.587,10.587,0,0,1-.9-4.313,13.391,13.391,0,0,1,.979-5.215,10.515,10.515,0,0,1,2.6-3.808,11.618,11.618,0,0,1,3.64-2.248,11.448,11.448,0,0,1,4.16-.78,10.354,10.354,0,0,1,4.466,1.009,10.762,10.762,0,0,1,3.7,2.875l.184.245-2.019,1.591-.184-.245a9.344,9.344,0,0,0-3.594-2.829A7.322,7.322,0,0,0,138.578-16a6.254,6.254,0,0,0-3.013,1.3,6.3,6.3,0,0,0-1.881,2.462,11.68,11.68,0,0,0-.826,2.982,12.629,12.629,0,0,0-.031,3.166,11.633,11.633,0,0,0,.7,2.952,11.469,11.469,0,0,0,1.422,2.661,9.368,9.368,0,0,0,1.973,2.034,6.22,6.22,0,0,0,5.016,1.376,5.328,5.328,0,0,0,2.279-.964A3.65,3.65,0,0,0,145.552.423V-4.746h-4.1Zm27.713-11.012h3.915V4.736h-3.915Zm26.184,0h1.927V4.736h-2.416l-14.988-16.12-.031,16.12H177V-17.685h1.835l15.6,16.7Zm24.5-.061-2.478,1.927H204.985V-6.7h7.249l-.367.489q-.765,1.071-.918,1.254a.593.593,0,0,1-.275.214h-5.689V4.736h-3.762V-17.746Zm9.177-.4a10.9,10.9,0,0,1,5.674,1.575,11.758,11.758,0,0,1,4.206,4.252,11.257,11.257,0,0,1,1.56,5.766,11.257,11.257,0,0,1-1.56,5.766,11.758,11.758,0,0,1-4.206,4.252,10.9,10.9,0,0,1-5.674,1.575,10.879,10.879,0,0,1-5.689-1.575,11.676,11.676,0,0,1-4.175-4.252A11.342,11.342,0,0,1,216.7-6.551a11.342,11.342,0,0,1,1.545-5.766,11.676,11.676,0,0,1,4.175-4.252A10.879,10.879,0,0,1,228.11-18.144ZM226.4-16.033a6.447,6.447,0,0,0-4.282,2.722,8.932,8.932,0,0,0-1.468,3.686,13.064,13.064,0,0,0,.031,4.451,10.784,10.784,0,0,0,3.3,6.362,6.672,6.672,0,0,0,5.812,1.744A6.507,6.507,0,0,0,234.136.148a9.526,9.526,0,0,0,1.529-3.778,12.274,12.274,0,0,0-.031-4.481,10.546,10.546,0,0,0-2.86-5.812,7.093,7.093,0,0,0-5.154-2.2A8.236,8.236,0,0,0,226.4-16.033ZM272,2.32l.214-.092,1.224,1.682-.336.153a15.95,15.95,0,0,1-6.424,1.315,23.538,23.538,0,0,1-9.146-1.652,12.908,12.908,0,0,1-5.965-4.68h-4.282V4.736h-3.854V-17.655h7.953a10.233,10.233,0,0,1,4.741,1.147,9.584,9.584,0,0,1,3.564,3.059,7.019,7.019,0,0,1,1.331,4.084v.122a6.486,6.486,0,0,1-.841,3.2,8.963,8.963,0,0,1-2.111,2.569,11.23,11.23,0,0,1-2.768,1.7,11.275,11.275,0,0,0,4.206,3.2,18.4,18.4,0,0,0,5.552,1.759A12.536,12.536,0,0,0,272,2.32ZM257.047-9.365a6.548,6.548,0,0,0-.7-3.1,5.04,5.04,0,0,0-1.988-2.065,5.875,5.875,0,0,0-2.967-.734h-4.1v11.96h4.1a5.4,5.4,0,0,0,4.1-1.636,5.97,5.97,0,0,0,1.56-4.3Zm26.612-8.32h3.365V4.736h-3.579V-13.28L274.574,2.84l-9.391-14.315V1.616h-1.958v-19.3h2.845l9.574,14.56Zm18.873.581,8.6,21.84h-4.252l-.214-.581L305.04.056h-11.1l-.275.612L292.04,4.736h-2.111l.459-1.193,8.6-21.2h3.334Zm1.774,15.233-.153-.4-4.619-11.746L294.7-1.871Zm3.885-15.875H328.5l-.612,1.927H320.3V4.736h-3.885V-15.819h-7.586Zm22.482.061h3.915V4.736h-3.915Zm19.148-.459a10.9,10.9,0,0,1,5.674,1.575,11.758,11.758,0,0,1,4.206,4.252,11.256,11.256,0,0,1,1.56,5.766A11.256,11.256,0,0,1,359.7-.785,11.758,11.758,0,0,1,355.5,3.467a10.9,10.9,0,0,1-5.674,1.575,10.879,10.879,0,0,1-5.689-1.575,11.676,11.676,0,0,1-4.175-4.252,11.342,11.342,0,0,1-1.545-5.766,11.342,11.342,0,0,1,1.545-5.766,11.676,11.676,0,0,1,4.175-4.252A10.879,10.879,0,0,1,349.821-18.144Zm-1.713,2.111a6.447,6.447,0,0,0-4.282,2.722,8.932,8.932,0,0,0-1.468,3.686,13.063,13.063,0,0,0,.031,4.451,10.784,10.784,0,0,0,3.3,6.362A6.672,6.672,0,0,0,351.5,2.931,6.507,6.507,0,0,0,355.847.148a9.526,9.526,0,0,0,1.529-3.778,12.274,12.274,0,0,0-.031-4.481,10.546,10.546,0,0,0-2.86-5.812,7.093,7.093,0,0,0-5.154-2.2A8.236,8.236,0,0,0,348.108-16.033Zm34.442-1.652h1.927V4.736h-2.416l-14.988-16.12-.031,16.12h-1.927V-17.685h1.835l15.6,16.7ZM419.96,1.769l.184-.122,1.407,1.438-.306.184a11.819,11.819,0,0,1-6.271,1.774,12.2,12.2,0,0,1-6.056-1.575,12.088,12.088,0,0,1-4.466-4.252A10.757,10.757,0,0,1,402.8-6.536a10.757,10.757,0,0,1,1.652-5.751,12.088,12.088,0,0,1,4.466-4.252,12.2,12.2,0,0,1,6.056-1.575,11.654,11.654,0,0,1,6.944,2.233l.275.184-1.774,1.835-.214-.153A8.694,8.694,0,0,0,413.139-16a7.174,7.174,0,0,0-4.986,3.059,8.63,8.63,0,0,0-1.468,3.564,11.248,11.248,0,0,0,.061,4.206,10.42,10.42,0,0,0,3.64,6.362,7.907,7.907,0,0,0,6.424,1.744A8.081,8.081,0,0,0,419.96,1.769Zm13.918-19.913a10.9,10.9,0,0,1,5.674,1.575,11.758,11.758,0,0,1,4.206,4.252,11.257,11.257,0,0,1,1.56,5.766,11.257,11.257,0,0,1-1.56,5.766,11.757,11.757,0,0,1-4.206,4.252,10.9,10.9,0,0,1-5.674,1.575,10.879,10.879,0,0,1-5.689-1.575,11.675,11.675,0,0,1-4.175-4.252,11.342,11.342,0,0,1-1.545-5.766,11.342,11.342,0,0,1,1.545-5.766,11.675,11.675,0,0,1,4.175-4.252A10.879,10.879,0,0,1,433.878-18.144Zm-1.713,2.111a6.447,6.447,0,0,0-4.282,2.722,8.932,8.932,0,0,0-1.468,3.686,13.062,13.062,0,0,0,.031,4.451,10.784,10.784,0,0,0,3.3,6.362,6.672,6.672,0,0,0,5.812,1.744A6.507,6.507,0,0,0,439.9.148a9.526,9.526,0,0,0,1.529-3.778,12.275,12.275,0,0,0-.031-4.481,10.546,10.546,0,0,0-2.86-5.812,7.093,7.093,0,0,0-5.154-2.2A8.236,8.236,0,0,0,432.165-16.033ZM447.184,1.922a1.893,1.893,0,0,1,1.3-.489,1.838,1.838,0,0,1,1.285.489,1.563,1.563,0,0,1,0,2.355,1.931,1.931,0,0,1-2.569,0,1.54,1.54,0,0,1-.535-1.178A1.56,1.56,0,0,1,447.184,1.922Zm6.057.428h2.569l-.061.336a.942.942,0,0,1-.061.184l-2.08,4.5h-2.569L451.1,7a.578.578,0,0,1,.031-.184Zm24.1.459h11.624l-.428.489q-1.162,1.315-1.193,1.346l-.092.092h-13.8V-17.685h3.885Zm7.494-20.555h20.311l-.612,1.927h-7.586V4.736h-3.885V-15.819H485.48ZM523.1-14.718a10.514,10.514,0,0,1,3.365,8.228,10.869,10.869,0,0,1-3.977,8.534,12.107,12.107,0,0,1-8.2,2.692h-7V-16.095q-.031-1.1-.015-1.3a.336.336,0,0,1,.2-.291l.184-.061.061.061h6.576A12.689,12.689,0,0,1,523.1-14.718Zm-.581,8.228q0-9.421-8.228-9.421h-3.181V2.931h3.181q4.129,0,6.179-2.325T522.523-6.49ZM528.3,1.922a1.893,1.893,0,0,1,1.3-.489,1.838,1.838,0,0,1,1.285.489,1.563,1.563,0,0,1,0,2.355,1.931,1.931,0,0,1-2.569,0,1.54,1.54,0,0,1-.535-1.178A1.56,1.56,0,0,1,528.3,1.922Z" transform="translate(-0.288 89.325)" fill="#7a8387"/>
    </g>
    <g id="组_863" data-name="组 863">
      <path id="路径_58793" data-name="路径 58793" d="M-830.637,1504.823c24.47-16.573,109.833,23.194,112.3,54.247s-44.3,73.189-97.881,66.291S-855.107,1521.4-830.637,1504.823Z" transform="translate(852.695 -1500.927)" fill="#282d3c"/>
      <g id="style006" transform="translate(27.819 24.341)">
        <g id="jieHeng" transform="translate(0 0)">
          <path id="Path_58784" data-name="Path 58784" d="M437.834,465.506c25.876-.254,38.22,12.347,38.157,37.868H459.249c-.769-10.309-2.548-18.056-11.085-20.61a19.472,19.472,0,0,0-8.188-.63l-4.661,1.26C437.144,478.415,437.658,472.045,437.834,465.506Z" transform="translate(-402.968 -430.35)" fill="#fff" fill-rule="evenodd"/>
          <path id="Path_58785" data-name="Path 58785" d="M199.078,180h16.079v26.288c0,9.776.208,19.377-2.209,26.685-4.1,12.389-16.658,19.786-32.732,19.788.089-.191.1-17.093,0-16.959,16.882-.048,18.863-12.865,18.862-30.273Z" transform="translate(-180.215 -180)" fill="#3cb1ff" fill-rule="evenodd"/>
        </g>
      </g>
    </g>
  </g>
</svg>
