<?xml version="1.0" encoding="utf-8"?>
<!-- Generator: Adobe Illustrator 22.0.0, SVG Export Plug-In . SVG Version: 6.00 Build 0)  -->
<svg version="1.1" id="bold" xmlns="http://www.w3.org/2000/svg" xmlns:xlink="http://www.w3.org/1999/xlink" x="0px" y="0px"
	 viewBox="0 0 512 512" style="enable-background:new 0 0 512 512;" width="30"  xml:space="preserve">
<style type="text/css">
	.st0{fill:#FFFFFF;}
</style>
<path class="st0" d="M62.3,193.5c0,11.9-3.2,23.5-9.8,34.1L4.1,311.5c-2.6,4.3-4.1,9.2-4.1,14.1C0,340.1,11.7,352,26.5,352H64v48.6
	c0,26.2,21.1,47.4,47.1,47.4c5.3,0,10.2-0.9,13.4-1.9l46.1-12.6V496c0,8.7,7.3,16,16,16H240V0.6C140.8,8.3,62.3,91.9,62.3,193.5
	L62.3,193.5z"/>
<path class="st0" d="M488.5,307.8v-0.2l-30.1-27.5c0.9-8.1,1.3-16.2,1.3-24.1c0-7.9-0.4-16-1.3-24.1l30.1-27.7
	c12.6-11.7,15.4-30.3,6.8-45.4l-35.2-61.2c-8.5-14.9-26.7-22-43.3-16.9L378,93c-13-10-27.1-18.1-41.6-24.3l-9.2-39.9
	C323.6,11.7,308.7,0,291.4,0H272v155.9c48.2,7.7,85.3,49.5,85.3,100.1s-37.1,92.4-85.3,100.1V512h19.4c17.3,0,32.2-11.7,35.8-28.8
	l9.2-39.9C350.9,437.1,365,429,378,419l38.8,12.4c16.6,5.1,34.8-1.9,43.1-16.6l35.6-61.7C503.9,338.1,501.1,319.6,488.5,307.8
	L488.5,307.8z"/>
</svg>
