<?xml version="1.0" encoding="utf-8"?>
<!-- Generator: Adobe Illustrator 22.0.0, SVG Export Plug-In . SVG Version: 6.00 Build 0)  -->
<svg version="1.1" id="圖層_1" xmlns="http://www.w3.org/2000/svg" xmlns:xlink="http://www.w3.org/1999/xlink" x="0px" y="0px"
	 viewBox="0 0 512 512"  width="30" style="enable-background:new 0 0 512 512;" xml:space="preserve">
<style type="text/css">
	.st0{fill:#FFFFFF;}
</style>
<path class="st0" d="M493.3,36H18.7C8.4,36,0,44.4,0,54.7v62.1h269.4l24.7-23c3.4-3.2,7.9-5,12.6-5L512,88.4V54.7
	C512,44.4,503.6,36,493.3,36z M78.8,76.4c-0.1,0.5-0.1,1-0.2,1.4c-0.1,0.5-0.2,1-0.4,1.4c-0.1,0.5-0.3,0.9-0.5,1.4
	c-0.2,0.5-0.4,0.9-0.6,1.3c-0.2,0.4-0.5,0.9-0.8,1.3c-0.3,0.4-0.6,0.8-0.9,1.2c-0.3,0.4-0.6,0.8-1,1.1c-0.4,0.4-0.7,0.7-1.1,1
	c-0.4,0.3-0.8,0.6-1.2,0.9s-0.8,0.5-1.3,0.8s-0.9,0.4-1.3,0.6c-0.4,0.2-0.9,0.4-1.4,0.5c-0.5,0.1-0.9,0.3-1.4,0.4
	c-0.5,0.1-1,0.2-1.4,0.2c-0.5,0.1-1,0.1-1.5,0.1c-0.5,0-1,0-1.5-0.1c-0.5-0.1-1-0.1-1.5-0.2c-0.5-0.1-0.9-0.2-1.4-0.4
	c-0.5-0.1-0.9-0.3-1.4-0.5c-0.4-0.2-0.9-0.4-1.3-0.6s-0.9-0.5-1.3-0.8c-0.4-0.3-0.8-0.6-1.2-0.9c-0.4-0.3-0.8-0.6-1.1-1
	c-0.3-0.3-0.7-0.7-1-1.1c-0.3-0.4-0.6-0.8-0.9-1.2c-0.3-0.4-0.5-0.8-0.8-1.3s-0.4-0.9-0.6-1.3c-0.2-0.4-0.3-0.9-0.5-1.4
	c-0.1-0.5-0.3-0.9-0.4-1.4c-0.1-0.5-0.2-1-0.2-1.4c-0.1-0.5-0.1-1-0.1-1.5c0-0.5,0-1,0.1-1.5c0-0.5,0.1-1,0.2-1.5
	c0.1-0.5,0.2-0.9,0.4-1.4c0.1-0.5,0.3-0.9,0.5-1.4c0.2-0.5,0.4-0.9,0.6-1.3s0.5-0.9,0.8-1.3c0.3-0.4,0.6-0.8,0.9-1.2
	c0.3-0.4,0.6-0.8,1-1.1c0.3-0.4,0.7-0.7,1.1-1c0.4-0.3,0.8-0.6,1.2-0.9c0.4-0.3,0.8-0.5,1.3-0.8s0.9-0.4,1.3-0.6
	c0.4-0.2,0.9-0.4,1.4-0.5c0.5-0.1,0.9-0.3,1.4-0.4c0.5-0.1,1-0.2,1.5-0.2c1-0.1,2-0.1,2.9,0c0.5,0.1,1,0.1,1.4,0.2
	c0.5,0.1,1,0.2,1.4,0.4c0.5,0.1,0.9,0.3,1.4,0.5c0.4,0.2,0.9,0.4,1.3,0.6s0.8,0.5,1.3,0.8s0.8,0.6,1.2,0.9c0.4,0.3,0.8,0.6,1.1,1
	c0.4,0.3,0.7,0.7,1,1.1c0.3,0.4,0.6,0.8,0.9,1.2c0.3,0.4,0.5,0.8,0.8,1.3c0.2,0.4,0.4,0.9,0.6,1.3c0.2,0.4,0.4,0.9,0.5,1.4
	c0.1,0.5,0.3,0.9,0.4,1.4c0.1,0.5,0.2,1,0.2,1.5c0.1,0.5,0.1,1,0.1,1.5C78.9,75.4,78.9,75.9,78.8,76.4z M126.8,76.4
	c-0.1,0.5-0.1,1-0.2,1.4s-0.2,1-0.4,1.4c-0.1,0.5-0.3,0.9-0.5,1.4c-0.2,0.5-0.4,0.9-0.6,1.3s-0.5,0.9-0.8,1.3
	c-0.3,0.4-0.6,0.8-0.9,1.2c-0.3,0.4-0.6,0.8-1,1.1c-0.3,0.4-0.7,0.7-1.1,1c-0.4,0.3-0.8,0.6-1.2,0.9s-0.8,0.5-1.3,0.8
	s-0.9,0.4-1.3,0.6c-0.4,0.2-0.9,0.4-1.4,0.5c-0.5,0.1-0.9,0.3-1.4,0.4c-0.5,0.1-1,0.2-1.4,0.2c-0.5,0.1-1,0.1-1.5,0.1
	c-0.5,0-1,0-1.5-0.1s-1-0.1-1.5-0.2c-0.5-0.1-0.9-0.2-1.4-0.4c-0.5-0.1-0.9-0.3-1.4-0.5c-0.5-0.2-0.9-0.4-1.3-0.6s-0.9-0.5-1.3-0.8
	c-0.4-0.3-0.8-0.6-1.2-0.9c-0.4-0.3-0.8-0.6-1.1-1c-0.4-0.3-0.7-0.7-1-1.1c-0.3-0.4-0.6-0.8-0.9-1.2c-0.3-0.4-0.5-0.8-0.8-1.3
	s-0.4-0.9-0.6-1.3c-0.2-0.4-0.4-0.9-0.5-1.4c-0.1-0.5-0.3-0.9-0.4-1.4c-0.1-0.5-0.2-1-0.2-1.4c-0.1-0.5-0.1-1-0.1-1.5
	c0-0.5,0-1,0.1-1.5c0.1-0.5,0.1-1,0.2-1.5c0.1-0.5,0.2-0.9,0.4-1.4c0.1-0.5,0.3-0.9,0.5-1.4c0.2-0.4,0.4-0.9,0.6-1.3
	s0.5-0.9,0.8-1.3c0.3-0.4,0.6-0.8,0.9-1.2c0.3-0.4,0.6-0.8,1-1.1c0.3-0.4,0.7-0.7,1.1-1c0.4-0.3,0.8-0.6,1.2-0.9
	c0.4-0.3,0.8-0.5,1.3-0.8s0.9-0.4,1.3-0.6c0.4-0.2,0.9-0.4,1.4-0.5c0.5-0.1,0.9-0.3,1.4-0.4c0.5-0.1,1-0.2,1.5-0.2
	c1-0.1,2-0.1,2.9,0c0.5,0.1,1,0.1,1.4,0.2c0.5,0.1,1,0.2,1.4,0.4c0.5,0.1,0.9,0.3,1.4,0.5c0.4,0.2,0.9,0.4,1.3,0.6s0.9,0.5,1.3,0.8
	s0.8,0.6,1.2,0.9c0.4,0.3,0.8,0.6,1.1,1c0.4,0.3,0.7,0.7,1,1.1c0.3,0.4,0.6,0.8,0.9,1.2c0.3,0.4,0.5,0.8,0.8,1.3s0.4,0.9,0.6,1.3
	c0.2,0.4,0.4,0.9,0.5,1.4c0.1,0.5,0.3,0.9,0.4,1.4s0.2,1,0.2,1.5c0.1,0.5,0.1,1,0.1,1.5C126.9,75.4,126.9,75.9,126.8,76.4z
	 M175.8,76.4c-0.1,0.5-0.1,1-0.2,1.4c-0.1,0.5-0.2,1-0.4,1.4s-0.3,0.9-0.5,1.4c-0.2,0.5-0.4,0.9-0.6,1.3c-0.2,0.4-0.5,0.9-0.8,1.3
	c-0.3,0.4-0.6,0.8-0.9,1.2c-0.3,0.4-0.6,0.8-1,1.1c-0.3,0.4-0.7,0.7-1.1,1c-0.4,0.3-0.8,0.6-1.2,0.9c-0.4,0.3-0.8,0.5-1.3,0.8
	s-0.9,0.4-1.3,0.6c-0.4,0.2-0.9,0.4-1.4,0.5c-0.5,0.1-0.9,0.3-1.4,0.4c-0.5,0.1-1,0.2-1.5,0.2c-0.5,0.1-1,0.1-1.5,0.1
	c-0.5,0-1,0-1.5-0.1c-0.5-0.1-1-0.1-1.5-0.2c-0.5-0.1-0.9-0.2-1.4-0.4c-0.5-0.1-0.9-0.3-1.4-0.5c-0.4-0.2-0.9-0.4-1.3-0.6
	c-0.4-0.2-0.9-0.5-1.3-0.8c-0.4-0.3-0.8-0.6-1.2-0.9c-0.4-0.3-0.8-0.6-1.1-1c-0.3-0.3-0.7-0.7-1-1.1c-0.3-0.4-0.6-0.8-0.9-1.2
	c-0.3-0.4-0.5-0.8-0.8-1.3c-0.2-0.4-0.4-0.9-0.6-1.3c-0.2-0.4-0.3-0.9-0.5-1.4c-0.2-0.5-0.3-0.9-0.4-1.4c-0.1-0.5-0.2-1-0.2-1.4
	c0-0.5-0.1-1-0.1-1.5c0-0.5,0-1,0.1-1.5c0.1-0.5,0.1-1,0.2-1.5c0.1-0.5,0.2-1,0.4-1.4c0.1-0.5,0.3-0.9,0.5-1.4
	c0.2-0.5,0.4-0.9,0.6-1.3c0.2-0.4,0.5-0.9,0.8-1.3c0.3-0.4,0.6-0.8,0.9-1.2c0.3-0.4,0.6-0.8,1-1.1c0.3-0.4,0.7-0.7,1.1-1
	c0.4-0.3,0.8-0.6,1.2-0.9c0.4-0.3,0.8-0.5,1.3-0.8c0.4-0.2,0.9-0.4,1.3-0.6c0.4-0.2,0.9-0.4,1.4-0.5c0.5-0.1,0.9-0.3,1.4-0.4
	c0.5-0.1,1-0.2,1.5-0.2c1-0.1,2-0.1,3,0c0.5,0,1,0.1,1.5,0.2c0.5,0.1,1,0.2,1.4,0.4c0.5,0.1,0.9,0.3,1.4,0.5
	c0.4,0.2,0.9,0.4,1.3,0.6s0.9,0.5,1.3,0.8c0.4,0.3,0.8,0.6,1.2,0.9c0.4,0.3,0.8,0.6,1.1,1c0.3,0.3,0.7,0.7,1,1.1
	c0.3,0.4,0.6,0.8,0.9,1.2c0.3,0.4,0.5,0.8,0.8,1.3c0.2,0.4,0.4,0.9,0.6,1.3c0.2,0.4,0.4,0.9,0.5,1.4c0.1,0.5,0.3,0.9,0.4,1.4
	c0.1,0.5,0.2,1,0.2,1.5c0,0.5,0.1,1,0.1,1.5C175.9,75.4,175.9,75.9,175.8,76.4z"/>
<path class="st0" d="M286.5,141.9c-3.4,3.2-7.9,5-12.6,5H0v309.6c0,10.3,8.4,18.7,18.7,18.7h474.6c10.3,0,18.7-8.4,18.7-18.7v-338
	l-200.8,0.4L286.5,141.9z M192.8,356c6,5.7,6.3,15.2,0.6,21.2c-3,3.1-6.9,4.7-10.9,4.7c-3.7,0-7.4-1.4-10.3-4.1l-63.2-59.6
	c-3.1-2.9-4.9-7.1-4.9-11.4c0-4.3,1.8-8.5,4.9-11.4l63.2-59.6c6-5.7,15.5-5.4,21.2,0.6c5.7,6,5.4,15.5-0.6,21.2l-52.2,49.2
	L192.8,356z M295.8,252.8L242.3,373c-2.5,5.6-8,8.9-13.7,8.9c-2,0-4.1-0.4-6.1-1.3c-7.6-3.4-11-12.2-7.6-19.8l53.5-120.2
	c3.4-7.6,12.2-11,19.8-7.6C295.8,236.3,299.2,245.2,295.8,252.8z M319.2,257.6c-6-5.7-6.3-15.2-0.6-21.2c5.7-6,15.2-6.3,21.2-0.6
	l63.2,59.6c3.1,3,4.9,7.1,4.9,11.4c0,4.3-1.8,8.5-4.9,11.4l-63.2,59.6c-2.9,2.7-6.6,4.1-10.3,4.1c-4,0-8-1.6-10.9-4.7
	c-5.7-6-5.4-15.5,0.6-21.2l52.2-49.2L319.2,257.6z"/>
</svg>
