<?xml version="1.0" encoding="utf-8"?>
<!-- Generator: Adobe Illustrator 22.0.0, SVG Export Plug-In . SVG Version: 6.00 Build 0)  -->
<svg version="1.1" id="Capa_1" xmlns="http://www.w3.org/2000/svg" xmlns:xlink="http://www.w3.org/1999/xlink" x="0px" y="0px"
	 viewBox="0 0 553 553" style="enable-background:new 0 0 553 553;" width="30"  xml:space="preserve">
<style type="text/css">
	.st0{fill:#FFFFFF;}
</style>
<g>
	<path class="st0" d="M144.8,281.2c6.1-6.1,9.2-13.5,9.2-22c0-8.5-3-15.8-9-21.8l-91.9-91.9c-6.1-6.1-13.5-9.2-22-9.2
		c-8.5,0-15.9,3.1-22,9.2C3,151.6-0.1,158.9,0,167.4c0.1,8.5,3.2,15.8,9.3,21.9l91.9,91.9c6,6,13.2,9,21.8,9
		C131.5,290.1,138.8,287.1,144.8,281.2z"/>
	<g>
		<path class="st0" d="M320.3,51.3l18.9-44.6c1.2-3,0.5-5-2.2-6.3c-2.9-1-5-0.2-6.3,2.6l-19.2,45c-21.4-7.1-43.5-9.5-66.3-7.3
			c-22.9,2.2-44.1,8.8-63.7,19.9L154,20c-1.8-2.4-4-2.9-6.7-1.3c-2.4,1.8-2.8,4-1,6.6l27.1,40.1c-22.1,14.1-39.1,32.5-50.8,55
			c-11.7,22.6-16.4,46.5-14,71.7l299.2-28.9c-2.4-25.2-11.6-47.8-27.4-67.7C364.5,75.7,344.5,61,320.3,51.3z M193.4,125.8
			c-2.2,2.7-5.1,4.3-8.5,4.6c-3.5,0.3-6.5-0.6-9.1-2.9c-2.6-2.2-4.1-5.1-4.4-8.5c-0.3-3.4,0.6-6.5,2.7-9.2c2.1-2.7,4.9-4.2,8.4-4.6
			c3.4-0.3,6.5,0.6,9.3,2.9c2.7,2.3,4.2,5.1,4.6,8.5C196.6,120,195.7,123,193.4,125.8z M329.8,112.6c-2.1,2.7-4.9,4.2-8.4,4.6
			c-3.5,0.3-6.5-0.6-9.3-2.9c-2.7-2.2-4.2-5.1-4.6-8.5c-0.3-3.4,0.6-6.5,2.9-9.3c2.2-2.7,5.1-4.2,8.5-4.6c3.4-0.3,6.5,0.6,9.1,2.9
			c2.6,2.3,4.1,5.1,4.4,8.5C332.8,106.8,331.9,109.9,329.8,112.6z"/>
		<path class="st0" d="M131.8,419.2c1,9.9,5.2,18,12.8,24.2c7.6,6.2,16.3,8.9,26.2,7.9l23.9-2.3l7.4,73.4c0.9,9.3,4.9,16.8,12,22.7
			c7.1,5.8,15.2,8.3,24.2,7.5c9.3-0.9,16.8-4.9,22.7-12c5.8-7.1,8.3-15.3,7.4-24.6l-7.1-73.4l44.6-4.3l7.1,73.4
			c0.9,9.3,4.9,16.8,12,22.7s15.3,8.3,24.5,7.4c9.3-0.9,16.8-4.9,22.7-12c5.8-7.1,8.3-15.3,7.4-24.6l-7.1-73.4l24.3-2.3
			c9.7-0.9,17.7-5.2,23.9-12.8c6.2-7.6,8.9-16.3,7.9-26.2l-20.8-215.4L111,203.7L131.8,419.2z"/>
		<path class="st0" d="M453.3,164.5c-9.1,0.9-16.5,4.8-22.4,11.8c-5.9,7-8.3,15.1-7.4,24.4l13.4,139.1c0.9,9.3,4.9,16.8,12,22.7
			c7.1,5.8,15.2,8.3,24.2,7.5c9.3-0.9,16.8-4.9,22.7-12s8.3-15.3,7.4-24.6l-13.4-139.1c-0.9-9.3-4.9-16.8-12-22.5
			C470.7,166,462.6,163.6,453.3,164.5z"/>
	</g>
</g>
<g>
	
		<image style="overflow:visible;opacity:0.33;" width="355" height="426" xlink:href="B084B065.png"  transform="matrix(1 0 0 1 207 140.048)">
	</image>
	<g>
		<g>
			<path class="st0" d="M335.2,553c-58.8-0.3-107.5-120.4-107.5-181.6c0-99.9,74.9-121.8,103.8-121.8c13,0,26.9,5.1,39.2,9.6
				c8.6,3.2,17.4,6.4,22.4,6.4c3,0,9.9-2.8,16-5.2c13.1-5.2,29.4-11.7,48.4-11.7c0,0,0.1,0,0.1,0c14.2,0,57.1,3.1,83,41.9l6.1,9.1
				l-8.7,6.6c-12.4,9.4-35.1,26.5-35.1,60.4c0,40.2,25.7,55.6,38.1,63c5.5,3.3,11.1,6.7,11.1,14.1c0,4.8-38.5,108.5-94.5,108.5
				c-13.7,0-23.4-4.1-31.9-7.7c-8.6-3.7-16.1-6.8-28.4-6.8c-6.2,0-14.1,3-22.5,6.1c-11.4,4.3-24.3,9.1-39,9.1H335.2z"/>
			<path class="st0" d="M463.5,157.8c1.5,52.6-36.1,89-73.7,86.7C383.6,202.6,427.3,157.8,463.5,157.8z"/>
		</g>
	</g>
</g>
</svg>
