<?xml version="1.0" encoding="utf-8"?>
<!-- Generator: Adobe Illustrator 22.0.0, SVG Export Plug-In . SVG Version: 6.00 Build 0)  -->
<svg version="1.1" id="Layer_1" xmlns="http://www.w3.org/2000/svg" xmlns:xlink="http://www.w3.org/1999/xlink" x="0px" y="0px"
	 viewBox="0 0 512 512" style="enable-background:new 0 0 512 512;" width="30"  xml:space="preserve">
<style type="text/css">
	.st0{fill:#FFFFFF;}
	.st1{fill:#1D4E89;}
</style>
<path class="st0" d="M256,0L256,0C161.9,0,85.6,76.3,85.6,170.4v171.1C85.6,435.7,161.9,512,256,512l0,0
	c94.1,0,170.4-76.3,170.4-170.4V170.4C426.4,76.3,350.1,0,256,0z"/>
<path class="st1" d="M279.3,256l68.9-71.5c6.2-6.4,6.2-16.6,0-23l-80-83.1c-4.7-4.9-11.9-6.4-18.2-3.9c-6.3,2.5-10.4,8.6-10.4,15.4
	v125l-52-54c-6.4-6.6-16.9-6.8-23.5-0.4c-6.6,6.4-6.8,16.9-0.4,23.5l69.5,72.1l-69.5,72.1c-6.4,6.6-6.2,17.1,0.4,23.5
	c3.2,3.1,7.4,4.6,11.5,4.6c4.4,0,8.7-1.7,12-5.1l52-54v125c0,6.8,4.1,12.9,10.4,15.4c2,0.8,4.1,1.2,6.2,1.2c4.4,0,8.8-1.8,12-5.1
	l80-83.1c6.2-6.4,6.2-16.6,0-23L279.3,256z M272.9,131l40.4,41.9l-40.4,41.9V131L272.9,131z M272.9,381v-83.8l40.4,41.9L272.9,381z"
	/>
</svg>
