<?xml version="1.0" encoding="utf-8"?>
<!-- Generator: Adobe Illustrator 22.0.0, SVG Export Plug-In . SVG Version: 6.00 Build 0)  -->
<svg version="1.1" id="圖層_1" xmlns="http://www.w3.org/2000/svg" xmlns:xlink="http://www.w3.org/1999/xlink" x="0px" y="0px"
	 viewBox="0 0 512 512" style="enable-background:new 0 0 512 512;" width="30"  xml:space="preserve">
<style type="text/css">
	.st0{fill:#FFFFFF;}
</style>
<path class="st0" d="M478.9,364.9l-121.6-60.8c-21.6,30.3-44.8,59.3-69.5,87.1c-15.7,17.5-42.7,19-60.3,3.3c-1.1-1-2.2-2.1-3.3-3.3
	c-24.7-27.7-47.9-56.8-69.5-87.1L33.1,364.9c-10.5,5.3-14.8,18.1-9.5,28.6c2.1,4.1,5.4,7.5,9.5,9.5l213.3,106.7c6,3,13.1,3,19.1,0
	l213.3-106.7c10.5-5.3,14.8-18.1,9.5-28.6C486.3,370.3,483,367,478.9,364.9L478.9,364.9z"/>
<path class="st0" d="M256,0c-82.4,0.1-149.2,66.9-149.3,149.3c0,76.6,119.8,212.4,133.5,227.6c7.9,8.8,21.4,9.5,30.1,1.6
	c0.6-0.5,1.1-1.1,1.6-1.6c13.7-15.2,133.5-150.9,133.5-227.6C405.2,66.9,338.4,0.1,256,0z M256,234.7c-47.1,0-85.3-38.2-85.3-85.3
	S208.9,64,256,64s85.3,38.2,85.3,85.3C341.3,196.4,303.1,234.6,256,234.7z"/>
</svg>
