<?xml version="1.0" encoding="utf-8"?>
<!-- Generator: Adobe Illustrator 22.0.0, SVG Export Plug-In . SVG Version: 6.00 Build 0)  -->
<svg version="1.1" id="Capa_1" xmlns="http://www.w3.org/2000/svg" xmlns:xlink="http://www.w3.org/1999/xlink" x="0px" y="0px"
	 viewBox="0 0 512 512" style="enable-background:new 0 0 512 512;" width="30"  xml:space="preserve">
<style type="text/css">
	.st0{fill:#FFFFFF;}
</style>
<g>
	<path class="st0" d="M280.3,197.2c49,0,96.5-37.6,96.5-100.7c0-53.2-43.3-96.5-96.5-96.5H96.6C47.3,0,0.1,37.9,0.1,100.6
		c0,48.1,35.4,88.1,81.5,95.4v64.1c0,13.7,17,20.3,26.2,10l65-73H280.3z M279.9,80c10.3,0,18.6,8.3,18.6,18.6s-8.3,18.6-18.6,18.6
		c-10.3,0-18.6-8.3-18.6-18.6S269.6,80,279.9,80z M97,117.2c-10.3,0-18.6-8.3-18.6-18.6S86.7,80,97,80c10.3,0,18.6,8.3,18.6,18.6
		S107.2,117.2,97,117.2z M188.4,80c10.3,0,18.6,8.3,18.6,18.6s-8.3,18.6-18.6,18.6s-18.6-8.3-18.6-18.6S178.2,80,188.4,80z"/>
	<path class="st0" d="M415.4,236.8H231.7c-53.2,0-96.5,43.3-96.5,96.5c0,62.2,46.8,100.6,96.5,100.6h107.5l65,73
		c9.1,10.2,26.2,3.8,26.2-10v-64.1c46.1-7.2,81.5-47.2,81.5-95.4C512,275.4,465.3,236.8,415.4,236.8L415.4,236.8z M232.1,354
		c-10.3,0-18.6-8.3-18.6-18.6c0-10.3,8.3-18.6,18.6-18.6c10.3,0,18.6,8.3,18.6,18.6C250.7,345.7,242.4,354,232.1,354z M323.6,354
		c-10.3,0-18.6-8.3-18.6-18.6c0-10.3,8.3-18.6,18.6-18.6s18.6,8.3,18.6,18.6C342.1,345.7,333.8,354,323.6,354z M415,354
		c-10.3,0-18.6-8.3-18.6-18.6c0-10.3,8.3-18.6,18.6-18.6c10.3,0,18.6,8.3,18.6,18.6C433.6,345.7,425.3,354,415,354z"/>
</g>
</svg>
