<?xml version="1.0" encoding="utf-8"?>
<!-- Generator: Adobe Illustrator 22.0.0, SVG Export Plug-In . SVG Version: 6.00 Build 0)  -->
<svg version="1.1" id="圖層_1" xmlns="http://www.w3.org/2000/svg" xmlns:xlink="http://www.w3.org/1999/xlink" x="0px" y="0px"
	 viewBox="0 0 820 715" style="enable-background:new 0 0 820 715;" width="750"  xml:space="preserve">
<style type="text/css">
	.st0{fill:none;}
	.st1{fill:#FFFFFF;}
	.st2{display:none;fill:#EEF3F9;}
	.st3{fill-rule:evenodd;clip-rule:evenodd;fill:#FFFFFF;}
	.st4{fill:#FFD124;}
	.st5{opacity:8.000000e-02;}
	.st6{opacity:0.2;}
	.st7{fill:#242449;}
	.st8{fill:#F17187;}
	.st9{fill:url(#Unnamed_Pattern);}
	.st10{fill:url(#SVGID_1_);}
	.st11{fill:#4A49CA;}
	.st12{fill:url(#SVGID_2_);}
	.st13{fill:url(#SVGID_3_);}
	.st14{fill:url(#SVGID_4_);}
	.st15{fill:none;stroke:#00AD9F;stroke-width:1.662;stroke-linecap:round;stroke-linejoin:round;stroke-miterlimit:10;}
	.st16{opacity:0.2238;fill:#E1EFFF;}
	.st17{fill:#3B62C1;}
	.st18{fill:url(#SVGID_5_);}
	.st19{fill:url(#SVGID_6_);}
	.st20{fill:url(#SVGID_7_);}
	.st21{opacity:0.2;fill:#5275A0;}
	.st22{fill:url(#SVGID_8_);}
	.st23{fill:#FAFAFA;}
	.st24{fill:#296EC1;}
	.st25{fill:#D2E2F5;}
	.st26{opacity:0.3417;fill:#D1EBFF;}
	.st27{fill:url(#SVGID_9_);}
	.st28{fill:#3CB1FF;}
	.st29{fill:#B6D0EF;}
	.st30{fill:url(#SVGID_10_);}
	.st31{fill:#DDDDDD;}
	.st32{fill:none;stroke:#A8A8A8;stroke-width:1.662;stroke-miterlimit:10;}
	.st33{fill:none;stroke:#3B2F7C;stroke-width:1.662;stroke-miterlimit:10;}
	.st34{fill:none;stroke:#3B2F7C;stroke-width:1.662;stroke-linecap:round;stroke-linejoin:round;stroke-miterlimit:10;}
	.st35{fill:url(#SVGID_11_);}
	.st36{fill:none;stroke:#FFDF68;stroke-width:1.662;stroke-miterlimit:10;}
	.st37{opacity:0.2412;fill:url(#SVGID_12_);}
	.st38{opacity:0.2412;fill:url(#SVGID_13_);}
	.st39{fill:none;stroke:#1D4E89;stroke-width:1.662;stroke-miterlimit:10;stroke-dasharray:6.648;}
	.st40{fill:#1D4E89;}
	.st41{fill:#D4EEFF;}
	.st42{fill:#FFF1BD;}
	.st43{fill:#282D3C;}
	.st44{fill:#B0B5B7;}
	.st45{fill:#333333;}
	.st46{fill:#555555;}
	.st47{fill:#515B79;}
	.st48{fill:#CACED0;}
	.st49{fill:#7A8387;}
	.st50{fill:#E5E7E8;}
	.st51{fill:#9ABEE9;}
	.st52{fill:#5275A0;}
	.st53{opacity:0.6;}
	.st54{display:none;opacity:0.2;}
	.st55{display:inline;}
	.st56{fill-rule:evenodd;clip-rule:evenodd;fill:none;stroke:#888888;stroke-width:0.75;stroke-miterlimit:10;}
	.st57{fill-rule:evenodd;clip-rule:evenodd;fill:#FFD124;}
	.st58{fill-rule:evenodd;clip-rule:evenodd;fill:#FFF1BD;}
	.st59{fill:#35D67C;}
	.st60{fill:#F7CC52;}
	.st61{fill:#FF5277;}
	.st62{fill-rule:evenodd;clip-rule:evenodd;fill:#888888;}
	.st63{fill:#888888;}
	.st64{font-family:'SegoeUI';}
	.st65{font-size:12px;}
	.st66{fill:#F56D46;}
	.st67{opacity:0.6;fill:#FFFFFF;}
	.st68{fill-rule:evenodd;clip-rule:evenodd;fill:url(#SVGID_14_);}
	.st69{fill-rule:evenodd;clip-rule:evenodd;fill:none;stroke:#B6D0EF;stroke-miterlimit:10;}
	.st70{fill:url(#SVGID_15_);}
	.st71{fill:url(#SVGID_16_);}
	.st72{fill:url(#SVGID_17_);}
	.st73{fill:url(#SVGID_18_);}
	.st74{fill:url(#SVGID_19_);}
</style>
<pattern  width="708.8" height="557.2" patternUnits="userSpaceOnUse" id="Unnamed_Pattern" viewBox="1.8 -563.6 708.8 557.2" style="overflow:visible;">
	<g>
		<rect x="1.8" y="-563.6" class="st0" width="708.8" height="557.2"/>
		<path class="st1" d="M331.2-538.6c47.5-22.6,102.8-33.1,153.1-17.8c61.3,18.6,105.2,71.1,145,121.3
			c28.2,35.5,56.6,72.1,71.6,114.9c15,42.8,14.3,93.7-12.9,130c-20,26.7-51.2,42.1-78.9,60.5C561.2-98,520.9-54.8,469.2-29.7
			C420.2-5.8,362.6,0,309.8-13.6c-48.6-12.5-91.6-40.2-135.7-64.2c-40.3-22-82.9-41.6-115.9-73.6C25.5-183,3.9-226.6,2-272
			C0-317.4,18.7-364,53.7-393c15.8-13.1,34.5-23.4,53.8-30.2C125.8-429.6,283.6-516.1,331.2-538.6z"/>
	</g>
</pattern>
<rect x="0.9" y="0" class="st2" width="820" height="715"/>
<g>
	<path class="st1" d="M586.6,187.7c0,1.9-1.5,3.3-3.3,3.3c-1.9,0-3.3-1.5-3.3-3.3c0-1.9,1.5-3.3,3.3-3.3
		C585.1,184.3,586.6,185.8,586.6,187.7z"/>
	<path class="st1" d="M609.6,187.7c0,1.9-1.5,3.3-3.3,3.3c-1.9,0-3.3-1.5-3.3-3.3c0-1.9,1.5-3.3,3.3-3.3
		C608.1,184.3,609.6,185.8,609.6,187.7z"/>
	<path class="st1" d="M631,187.7c0,1.9-1.5,3.3-3.4,3.3s-3.3-1.5-3.3-3.3c0-1.9,1.5-3.3,3.3-3.3S631,185.8,631,187.7z"/>
	<path class="st1" d="M653.2,187.7c0,1.9-1.5,3.3-3.3,3.3c-1.9,0-3.3-1.5-3.3-3.3c0-1.9,1.5-3.3,3.3-3.3
		C651.7,184.3,653.2,185.8,653.2,187.7z"/>
	<circle class="st1" cx="671.3" cy="187.7" r="3.3"/>
	<path class="st1" d="M696,187.7c0,1.9-1.5,3.3-3.3,3.3c-1.9,0-3.3-1.5-3.3-3.3c0-1.9,1.5-3.3,3.3-3.3
		C694.5,184.3,696,185.8,696,187.7z"/>
	<circle class="st1" cx="713.3" cy="187.7" r="3.3"/>
	<path class="st1" d="M737.2,187.7c0,1.9-1.5,3.3-3.3,3.3s-3.3-1.5-3.3-3.3c0-1.9,1.5-3.3,3.3-3.3S737.2,185.8,737.2,187.7z"/>
	<path class="st1" d="M758.6,166.2c0,1.9-1.5,3.3-3.3,3.3s-3.4-1.5-3.4-3.3c0-1.9,1.5-3.3,3.4-3.3S758.6,164.3,758.6,166.2z"/>
	<path class="st1" d="M780,166.2c0,1.9-1.5,3.3-3.3,3.3c-1.9,0-3.3-1.5-3.3-3.3c0-1.9,1.5-3.3,3.3-3.3
		C778.5,162.8,780,164.3,780,166.2z"/>
	<path class="st1" d="M737.2,187.6c0,1.9-1.5,3.3-3.3,3.3c-1.9,0-3.3-1.5-3.3-3.3c0-1.9,1.5-3.3,3.3-3.3
		C735.7,184.3,737.2,185.8,737.2,187.6z"/>
	<path class="st1" d="M758.6,187.6c0,1.9-1.5,3.3-3.3,3.3s-3.4-1.5-3.4-3.3c0-1.9,1.5-3.3,3.4-3.3S758.6,185.8,758.6,187.6z"/>
	<path class="st1" d="M780,187.6c0,1.9-1.5,3.3-3.3,3.3c-1.9,0-3.3-1.5-3.3-3.3c0-1.9,1.5-3.3,3.3-3.3
		C778.5,184.3,780,185.8,780,187.6z"/>
	<path class="st1" d="M586.6,76.5c0,1.9-1.5,3.3-3.3,3.3s-3.3-1.5-3.3-3.3c0-1.9,1.5-3.3,3.3-3.3S586.6,74.6,586.6,76.5z"/>
	<path class="st1" d="M609.6,76.5c0,1.9-1.5,3.3-3.3,3.3s-3.3-1.5-3.3-3.3c0-1.9,1.5-3.3,3.3-3.3S609.6,74.6,609.6,76.5z"/>
	<path class="st1" d="M631,76.5c0,1.9-1.5,3.3-3.3,3.3c-1.9,0-3.4-1.5-3.4-3.3c0-1.9,1.5-3.3,3.4-3.3C629.5,73.1,631,74.6,631,76.5z
		"/>
	<path class="st1" d="M653.2,76.5c0,1.9-1.5,3.3-3.3,3.3s-3.3-1.5-3.3-3.3c0-1.9,1.5-3.3,3.3-3.3S653.2,74.6,653.2,76.5z"/>
	<path class="st1" d="M674.6,76.5c0,1.9-1.5,3.3-3.3,3.3c-1.9,0-3.3-1.5-3.3-3.3c0-1.9,1.5-3.3,3.3-3.3
		C673.1,73.1,674.6,74.6,674.6,76.5z"/>
	<path class="st1" d="M696,76.5c0,1.9-1.5,3.3-3.3,3.3s-3.3-1.5-3.3-3.3c0-1.9,1.5-3.3,3.3-3.3S696,74.6,696,76.5z"/>
	<path class="st1" d="M716.6,76.5c0,1.9-1.5,3.3-3.3,3.3c-1.9,0-3.3-1.5-3.3-3.3c0-1.9,1.5-3.3,3.3-3.3
		C715.1,73.1,716.6,74.6,716.6,76.5z"/>
	<path class="st1" d="M737.2,76.5c0,1.9-1.5,3.3-3.3,3.3c-1.9,0-3.3-1.5-3.3-3.3c0-1.9,1.5-3.3,3.3-3.3
		C735.7,73.1,737.2,74.6,737.2,76.5z"/>
	<circle class="st1" cx="583.3" cy="98.7" r="3.3"/>
	<circle class="st1" cx="606.3" cy="98.7" r="3.3"/>
	<path class="st1" d="M631,98.7c0,1.9-1.5,3.3-3.3,3.3c-1.9,0-3.4-1.5-3.4-3.3c0-1.9,1.5-3.3,3.4-3.3C629.5,95.4,631,96.9,631,98.7z
		"/>
	<circle class="st1" cx="649.9" cy="98.7" r="3.3"/>
	<path class="st1" d="M674.6,98.7c0,1.9-1.5,3.3-3.3,3.3c-1.9,0-3.3-1.5-3.3-3.3c0-1.9,1.5-3.3,3.3-3.3
		C673.1,95.4,674.6,96.9,674.6,98.7z"/>
	<circle class="st1" cx="692.7" cy="98.7" r="3.3"/>
	<path class="st1" d="M716.6,98.7c0,1.9-1.5,3.3-3.3,3.3c-1.9,0-3.3-1.5-3.3-3.3c0-1.9,1.5-3.3,3.3-3.3
		C715.1,95.4,716.6,96.9,716.6,98.7z"/>
	<circle class="st1" cx="733.9" cy="98.7" r="3.3"/>
	<circle class="st1" cx="583.3" cy="120.2" r="3.3"/>
	<circle class="st1" cx="606.3" cy="120.2" r="3.3"/>
	<path class="st1" d="M631,120.2c0,1.9-1.5,3.3-3.3,3.3c-1.9,0-3.4-1.5-3.4-3.3c0-1.9,1.5-3.3,3.4-3.3
		C629.5,116.8,631,118.3,631,120.2z"/>
	<circle class="st1" cx="649.9" cy="120.2" r="3.3"/>
	<path class="st1" d="M674.6,120.2c0,1.9-1.5,3.3-3.3,3.3c-1.9,0-3.3-1.5-3.3-3.3c0-1.9,1.5-3.3,3.3-3.3
		C673.1,116.8,674.6,118.3,674.6,120.2z"/>
	<circle class="st1" cx="692.7" cy="120.2" r="3.3"/>
	<path class="st1" d="M716.6,120.2c0,1.9-1.5,3.3-3.3,3.3c-1.9,0-3.3-1.5-3.3-3.3c0-1.9,1.5-3.3,3.3-3.3
		C715.1,116.8,716.6,118.3,716.6,120.2z"/>
	<circle class="st1" cx="733.9" cy="120.2" r="3.3"/>
	<path class="st1" d="M586.6,143.2c0,1.9-1.5,3.3-3.3,3.3s-3.3-1.5-3.3-3.3c0-1.9,1.5-3.4,3.3-3.4S586.6,141.3,586.6,143.2z"/>
	<path class="st1" d="M609.6,143.2c0,1.9-1.5,3.3-3.3,3.3s-3.3-1.5-3.3-3.3c0-1.9,1.5-3.4,3.3-3.4S609.6,141.3,609.6,143.2z"/>
	<path class="st1" d="M631,143.2c0,1.9-1.5,3.3-3.3,3.3c-1.9,0-3.4-1.5-3.4-3.3c0-1.9,1.5-3.4,3.4-3.4
		C629.5,139.8,631,141.3,631,143.2z"/>
	<path class="st1" d="M653.2,143.2c0,1.9-1.5,3.3-3.3,3.3s-3.3-1.5-3.3-3.3c0-1.9,1.5-3.4,3.3-3.4S653.2,141.3,653.2,143.2z"/>
	<path class="st1" d="M674.6,143.2c0,1.9-1.5,3.3-3.3,3.3c-1.9,0-3.3-1.5-3.3-3.3c0-1.9,1.5-3.4,3.3-3.4
		C673.1,139.8,674.6,141.3,674.6,143.2z"/>
	<path class="st1" d="M696,143.2c0,1.9-1.5,3.3-3.3,3.3s-3.3-1.5-3.3-3.3c0-1.9,1.5-3.4,3.3-3.4S696,141.3,696,143.2z"/>
	<path class="st1" d="M716.6,143.2c0,1.9-1.5,3.3-3.3,3.3c-1.9,0-3.3-1.5-3.3-3.3c0-1.9,1.5-3.4,3.3-3.4
		C715.1,139.8,716.6,141.3,716.6,143.2z"/>
	<path class="st1" d="M737.2,143.2c0,1.9-1.5,3.3-3.3,3.3c-1.9,0-3.3-1.5-3.3-3.3c0-1.9,1.5-3.4,3.3-3.4
		C735.7,139.8,737.2,141.3,737.2,143.2z"/>
	<circle class="st1" cx="583.3" cy="166.2" r="3.3"/>
	<circle class="st1" cx="606.3" cy="166.2" r="3.3"/>
	<path class="st1" d="M631,166.2c0,1.9-1.5,3.3-3.3,3.3c-1.9,0-3.4-1.5-3.4-3.3c0-1.9,1.5-3.3,3.4-3.3
		C629.5,162.9,631,164.4,631,166.2z"/>
	<circle class="st1" cx="649.9" cy="166.2" r="3.3"/>
	<path class="st1" d="M674.6,166.2c0,1.9-1.5,3.3-3.3,3.3c-1.9,0-3.3-1.5-3.3-3.3c0-1.9,1.5-3.3,3.3-3.3
		C673.1,162.9,674.6,164.4,674.6,166.2z"/>
	<circle class="st1" cx="692.7" cy="166.2" r="3.3"/>
	<path class="st1" d="M716.6,166.2c0,1.9-1.5,3.3-3.3,3.3c-1.9,0-3.4-1.5-3.4-3.3c0-1.9,1.5-3.3,3.4-3.3
		C715.1,162.9,716.6,164.4,716.6,166.2z"/>
	<circle class="st1" cx="733.9" cy="166.2" r="3.3"/>
	<path class="st1" d="M737.2,76.5c0,1.9-1.5,3.3-3.3,3.3c-1.9,0-3.4-1.5-3.4-3.3c0-1.9,1.5-3.4,3.4-3.4
		C735.7,73.1,737.2,74.6,737.2,76.5z"/>
	<path class="st1" d="M758.6,76.5c0,1.9-1.5,3.3-3.3,3.3c-1.9,0-3.3-1.5-3.3-3.3c0-1.9,1.5-3.4,3.3-3.4
		C757.1,73.1,758.6,74.6,758.6,76.5z"/>
	<path class="st1" d="M780,76.5c0,1.9-1.5,3.3-3.4,3.3c-1.9,0-3.3-1.5-3.3-3.3c0-1.9,1.5-3.4,3.3-3.4C778.5,73.1,780,74.6,780,76.5z
		"/>
	<path class="st1" d="M737.2,98.7c0,1.9-1.5,3.3-3.3,3.3c-1.9,0-3.4-1.5-3.4-3.3s1.5-3.3,3.4-3.3C735.7,95.3,737.2,96.8,737.2,98.7z
		"/>
	<path class="st1" d="M758.6,98.7c0,1.9-1.5,3.3-3.3,3.3c-1.9,0-3.3-1.5-3.3-3.3s1.5-3.3,3.3-3.3C757.1,95.3,758.6,96.8,758.6,98.7z
		"/>
	<path class="st1" d="M780,98.7c0,1.9-1.5,3.3-3.4,3.3c-1.9,0-3.3-1.5-3.3-3.3s1.5-3.3,3.3-3.3C778.5,95.3,780,96.8,780,98.7z"/>
	<path class="st1" d="M737.2,120.1c0,1.9-1.5,3.3-3.3,3.3c-1.9,0-3.4-1.5-3.4-3.3s1.5-3.3,3.4-3.3
		C735.7,116.8,737.2,118.3,737.2,120.1z"/>
	<circle class="st1" cx="755.3" cy="120.1" r="3.3"/>
	<path class="st1" d="M780,120.1c0,1.9-1.5,3.3-3.4,3.3c-1.9,0-3.3-1.5-3.3-3.3s1.5-3.3,3.3-3.3C778.5,116.8,780,118.3,780,120.1z"
		/>
	<path class="st1" d="M758.6,143.2c0,1.9-1.5,3.3-3.3,3.3c-1.9,0-3.3-1.5-3.3-3.3s1.5-3.4,3.3-3.4
		C757.1,139.8,758.6,141.3,758.6,143.2z"/>
	<path class="st1" d="M780,143.2c0,1.9-1.5,3.3-3.4,3.3c-1.9,0-3.3-1.5-3.3-3.3s1.5-3.4,3.3-3.4C778.5,139.8,780,141.3,780,143.2z"
		/>
	<path class="st1" d="M737.2,166.2c0,1.9-1.5,3.3-3.3,3.3c-1.9,0-3.4-1.5-3.4-3.3c0-1.9,1.5-3.3,3.4-3.3
		C735.7,162.8,737.2,164.3,737.2,166.2z"/>
	<path class="st1" d="M758.6,166.2c0,1.9-1.5,3.3-3.3,3.3c-1.9,0-3.3-1.5-3.3-3.3c0-1.9,1.5-3.3,3.3-3.3
		C757.1,162.8,758.6,164.3,758.6,166.2z"/>
	<path class="st1" d="M780,166.2c0,1.9-1.5,3.3-3.4,3.3c-1.9,0-3.3-1.5-3.3-3.3c0-1.9,1.5-3.3,3.3-3.3
		C778.5,162.8,780,164.3,780,166.2z"/>
</g>
<g>
	<path class="st3" d="M49,237.6L49,237.6c2.6,0,4.8,2.2,4.8,4.8v22.8c0,2.6-2.2,4.8-4.8,4.8h0c-2.6,0-4.8-2.2-4.8-4.8v-22.8
		C44.2,239.7,46.4,237.6,49,237.6z"/>
	<path class="st3" d="M65.2,253.8L65.2,253.8c0,2.6-2.2,4.8-4.8,4.8H37.6c-2.6,0-4.8-2.2-4.8-4.8v0c0-2.6,2.2-4.8,4.8-4.8h22.8
		C63.1,248.9,65.2,251.1,65.2,253.8z"/>
</g>
<path class="st9" d="M369.3,128.8c47.5-22.6,102.8-33.1,153.1-17.8c61.3,18.6,105.2,71.1,145,121.3c28.2,35.5,56.6,72.1,71.6,114.9
	c15,42.8,14.3,93.7-12.9,130c-20,26.7-51.2,42.1-78.9,60.5c-47.8,31.8-88.2,74.9-139.8,100.1c-49,23.9-106.6,29.7-159.4,16.1
	c-48.6-12.5-91.6-40.2-135.7-64.2c-40.3-22-82.9-41.6-115.9-73.6C63.7,484.5,42,440.8,40.1,395.4c-2-45.4,16.7-92,51.8-120.9
	c15.8-13.1,34.5-23.4,53.8-30.2C163.9,237.9,321.7,151.4,369.3,128.8z"/>
<g>
	<linearGradient id="SVGID_1_" gradientUnits="userSpaceOnUse" x1="174.9814" y1="145.7674" x2="105.9814" y2="277.0174">
		<stop  offset="0" style="stop-color:#3DDDCB"/>
		<stop  offset="5.434127e-02" style="stop-color:#3AD8C6"/>
		<stop  offset="0.4534" style="stop-color:#29B6A6"/>
		<stop  offset="0.7827" style="stop-color:#1FA192"/>
		<stop  offset="0.9995" style="stop-color:#1B998B"/>
	</linearGradient>
	<path class="st10" d="M119.3,253.8c1.5-0.5,10-11.4,13.4-15.3c0.9-1.1,1.9-2.2,2.4-3.5c0.5-1.3,0.4-3-0.5-4.1
		c-1.2-1.3-2.8-2.6-5.9-1.7c-5.3,1.5-6.7,3.8-8.5,7.2C114.1,247.6,119.3,253.8,119.3,253.8z"/>
	<path class="st11" d="M176.2,272.3c5.2,0.8,10.8,1.5,15.7-0.6c1.9-0.8,3.8-2.3,3.9-4.3c0.1-1.8-1.2-3.4-2.8-4.1
		c-1.6-0.8-3.4-0.8-5.2-0.8c-6.6,0.2-15.1,3.5-20.8,6.9C167.2,269.4,173.1,271.9,176.2,272.3z"/>
	<linearGradient id="SVGID_2_" gradientUnits="userSpaceOnUse" x1="208.72" y1="163.5042" x2="139.72" y2="294.7542">
		<stop  offset="0" style="stop-color:#3DDDCB"/>
		<stop  offset="5.434127e-02" style="stop-color:#3AD8C6"/>
		<stop  offset="0.4534" style="stop-color:#29B6A6"/>
		<stop  offset="0.7827" style="stop-color:#1FA192"/>
		<stop  offset="0.9995" style="stop-color:#1B998B"/>
	</linearGradient>
	<path class="st12" d="M187.7,194.9c-2.4-0.7-5.2-1.8-5.9-4.3c-0.7-2.5,1.4-5.1,3.8-5.8c2.5-0.7,5.1,0,7.4,1.1
		c9.8,4.7,11,12.8,11,12.8S190.4,195.8,187.7,194.9z"/>
	<linearGradient id="SVGID_3_" gradientUnits="userSpaceOnUse" x1="197.8711" y1="157.8008" x2="128.8711" y2="289.0508">
		<stop  offset="0" style="stop-color:#3DDDCB"/>
		<stop  offset="5.434127e-02" style="stop-color:#3AD8C6"/>
		<stop  offset="0.4534" style="stop-color:#29B6A6"/>
		<stop  offset="0.7827" style="stop-color:#1FA192"/>
		<stop  offset="0.9995" style="stop-color:#1B998B"/>
	</linearGradient>
	<path class="st13" d="M188,172.2c-2-0.3-4.2-0.7-5.7-2.1c-0.7-0.7-1.3-1.6-1.3-2.6c0.1-1.7,0.7-3.3,4.7-3.7
		c12.8-1.2,17.8,6.4,17.8,6.4S191.6,172.7,188,172.2z"/>
	<linearGradient id="SVGID_4_" gradientUnits="userSpaceOnUse" x1="231.1257" y1="175.2832" x2="162.1257" y2="306.5332">
		<stop  offset="0" style="stop-color:#3DDDCB"/>
		<stop  offset="5.434127e-02" style="stop-color:#3AD8C6"/>
		<stop  offset="0.4534" style="stop-color:#29B6A6"/>
		<stop  offset="0.7827" style="stop-color:#1FA192"/>
		<stop  offset="0.9995" style="stop-color:#1B998B"/>
	</linearGradient>
	<path class="st14" d="M228.8,180.7c4.8-1.8,9.1-5.6,11.1-10.3c0.8-1.8,1.4-3.6,1.3-5.6c-0.1-1.9-1.1-3.9-2.8-4.7
		c-2.1-1-4.8,0-6.3,1.8c-1.5,1.8-2.2,4.1-2.6,6.4C228.9,171.4,228.8,180.7,228.8,180.7z"/>
	<path class="st15" d="M191.4,383c-14.7-7.1-29.5-14.2-44.2-21.4c-7.8-3.8-15.9-7.7-21.9-14c-13-13.5-13.8-35.5-6.1-52.6
		c7.7-17.1,22.4-30,37.8-40.7c15.4-10.7,32-19.8,46-32.2c8.8-7.8,17-18,16.7-29.7c-0.2-7.1-3.6-14-9.2-18.4
		c-5.6-4.4-13.1-6.1-20-4.6"/>
	<path class="st15" d="M233.9,167.1c-0.5,10.8-11.4,20.4-14.7,30.6"/>
	<path class="st15" d="M191.9,191.1c3.2,1.9,6.8,3.3,9.7,5.5c6.3,4.8,9.4,14.6,4.4,22.6"/>
	<path class="st15" d="M143.8,264.4c12.7,5.1,27.9,6.7,41.2,3.5"/>
	<path class="st15" d="M124,285.7c-8.8-12.8-8.3-31.2,1.2-43.6"/>
</g>
<path class="st16" d="M425.8,132.3c51.2-11.9,107.5-10.5,153.4,15.1c55.9,31.2,87.7,91.9,115.9,149.4c20,40.7,40,82.5,45.5,127.5
	c5.5,45-5.9,94.6-40.2,124.3c-25.2,21.8-58.9,30.2-90,42.3c-53.5,20.9-102.1,54.5-157.9,68c-53,12.9-110.5,6.3-159.2-18.2
	c-44.9-22.5-81-58.8-119-91.6c-34.7-30-72.2-58.3-97.6-96.5c-25.2-37.8-37-85.1-29.3-129.8c7.7-44.8,35.9-86.3,76.3-107.2
	c18.2-9.4,38.7-15.5,59-18C201.9,195.2,374.5,144.2,425.8,132.3z"/>
<g>
	<path class="st17" d="M577.6,174.7h3.8c0.5,0,0.9-0.4,0.9-0.9V165c0-0.5-0.4-0.9-0.9-0.9h-3.8c-0.1-0.5-0.2-0.9-0.4-1.4l3.3-1.9
		c0.4-0.3,0.6-0.8,0.3-1.2l-4.4-7.7c-0.3-0.4-0.8-0.6-1.2-0.3l-3.3,1.9c-0.3-0.3-0.7-0.7-1-1c0,0,0,0,0,0l1.9-3.3
		c0.3-0.4,0.1-1-0.3-1.2l-7.7-4.4c-0.4-0.3-1-0.1-1.2,0.3l-1.9,3.3c-0.5-0.1-0.9-0.3-1.4-0.4c0,0,0,0,0,0v-3.8
		c0-0.5-0.4-0.9-0.9-0.9h-8.9c-0.5,0-0.9,0.4-0.9,0.9v3.8c0,0,0,0,0,0c-0.5,0.1-0.9,0.2-1.4,0.4l-1.9-3.3c-0.3-0.4-0.8-0.6-1.2-0.3
		l-7.7,4.4c-0.4,0.3-0.6,0.8-0.3,1.2l1.9,3.3c0,0,0,0,0,0c-0.3,0.3-0.7,0.7-1,1l-3.3-1.9c-0.4-0.3-1-0.1-1.2,0.3l-4.4,7.7
		c-0.3,0.4-0.1,1,0.3,1.2l3.3,1.9c-0.1,0.5-0.3,0.9-0.4,1.4h-3.8c-0.5,0-0.9,0.4-0.9,0.9v8.9c0,0.5,0.4,0.9,0.9,0.9h3.8
		c0.1,0.5,0.2,0.9,0.4,1.4c0,0,0,0,0,0l-3.3,1.9c-0.4,0.3-0.6,0.8-0.3,1.2l4.4,7.7c0.3,0.4,0.8,0.6,1.2,0.3l3.3-1.9
		c0.3,0.3,0.7,0.7,1,1c0,0,0,0,0,0l-1.9,3.3c-0.3,0.4-0.1,1,0.3,1.2l7.7,4.4c0.4,0.3,1,0.1,1.2-0.3l1.9-3.3c0.5,0.1,0.9,0.3,1.4,0.4
		c0,0,0,0,0,0v3.8c0,0.5,0.4,0.9,0.9,0.9h8.9c0.5,0,0.9-0.4,0.9-0.9v-3.8c0,0,0,0,0,0c0.5-0.1,0.9-0.2,1.4-0.4l1.9,3.3
		c0.3,0.4,0.8,0.6,1.2,0.3l7.7-4.4c0.4-0.3,0.6-0.8,0.3-1.2l-1.9-3.3c0,0,0,0,0,0c0.3-0.3,0.7-0.7,1-1l3.3,1.9
		c0.4,0.3,1,0.1,1.2-0.3l4.4-7.7c0.3-0.4,0.1-1-0.3-1.2l-3.3-1.9c0,0,0,0,0,0C577.4,175.7,577.5,175.2,577.6,174.7z M557.5,182.1
		c-9.1,1.8-17.1-6.2-15.2-15.2c1-5.1,5.1-9.1,10.2-10.2c9-1.8,17,6.2,15.2,15.2C566.6,177,562.6,181.1,557.5,182.1z"/>
</g>
<g>
	<g>
		<linearGradient id="SVGID_5_" gradientUnits="userSpaceOnUse" x1="104.2458" y1="356.5019" x2="143.5792" y2="473.1685">
			<stop  offset="0" style="stop-color:#3DDDCB"/>
			<stop  offset="5.434127e-02" style="stop-color:#3AD8C6"/>
			<stop  offset="0.4534" style="stop-color:#29B6A6"/>
			<stop  offset="0.7827" style="stop-color:#1FA192"/>
			<stop  offset="0.9995" style="stop-color:#1B998B"/>
		</linearGradient>
		<path class="st18" d="M134.9,439.8c-9.1-8.1-18.3-16.2-25.1-26.4c-5.9-8.8-9.7-18.9-14.8-28.1c-3.3-6-7.2-11.8-9.1-18.4
			c-1.9-6.6-1.5-14.4,3.2-19.4c4.9-5.2,13.3-6,19.9-3.3c6.6,2.7,11.7,8.3,15.6,14.3c5.1,8,8.6,17.1,10,26.5c1.3,8.5,1,17.2,2.3,25.7
			c1.2,7.9,3.9,15.5,7.3,22.8c3,6.6,10.8,18.3,12.7,25.1C151.4,461.3,138.8,443.3,134.9,439.8z"/>
		<path class="st15" d="M103.1,356.2c8.7,3.8,12.1,14.1,13.9,23.4c2.1,10.6,1.6,22,6.5,31.7c9.1,18.1,21,38.8,29.9,44.9"/>
	</g>
	<g>
		<linearGradient id="SVGID_6_" gradientUnits="userSpaceOnUse" x1="75.3452" y1="425.4486" x2="163.3452" y2="478.1153">
			<stop  offset="4.200120e-07" style="stop-color:#319188"/>
			<stop  offset="1" style="stop-color:#287870"/>
		</linearGradient>
		<path class="st19" d="M90.1,415c-7.6-3-17.7-4.2-22.5,2.3c-4.1,5.5-2,13.2,0.8,19.4c2.4,5.2,5.4,10.6,10.4,13.4
			c3.4,1.9,7.4,2.5,11.3,3c10.9,1.3,21.8,1.9,32.8,1.9c12.7,0,28.1,5.2,38.6,13.1C148,443.1,115.5,425.1,90.1,415z"/>
		<path class="st15" d="M76.8,431.3c9.6,0.4,19.4,1.1,28.6,3.8c9.5,2.8,45.8,19.5,51.5,26.6"/>
	</g>
</g>
<g>
	<linearGradient id="SVGID_7_" gradientUnits="userSpaceOnUse" x1="755.4932" y1="330.5038" x2="637.8265" y2="513.1705">
		<stop  offset="0" style="stop-color:#3DDDCB"/>
		<stop  offset="5.434127e-02" style="stop-color:#3AD8C6"/>
		<stop  offset="0.4534" style="stop-color:#29B6A6"/>
		<stop  offset="0.7827" style="stop-color:#1FA192"/>
		<stop  offset="0.9995" style="stop-color:#1B998B"/>
	</linearGradient>
	<path class="st20" d="M659.5,467.6c9.1-15,4.4-34.2,7.6-51.4c2.4-13.2,9.8-25.5,20.3-33.9c6.6-5.3,15.9-9,23.4-5.1
		c6.4,3.4,7.2-6.4,7.4-10.4c0.6-11.4-1.2-21.7,8.8-29.6c8.2-6.4,21.5-10.8,31.9-9.8c3.1,0.3,6.2,1.5,8.3,3.8
		c3.3,3.6,3.5,9.1,1.9,13.6c-4.7,13.1-18.5,22.1-25.8,33.7c-3.4,5.3-6.3,11.7-4.4,18.1c1,3.3,4.3,5.6,4.6,8.9
		c0.5,5-5.1,9.5-9.1,11.4c-5.1,2.4-10.6,3.9-16.1,4.5c-10.8,1-14,5.1-11.8,16c1.6,8.1-0.4,13.4-6.3,19.1c-6,5.7-12.5,10.9-19.4,15.3
		c-5.6,3.6-11.6,6.8-16.6,11.3c-5,4.5-9,10.5-9.4,17.2c-3.2-5-4.2-11.7-3.5-17.7C651.9,476.7,656.4,472.7,659.5,467.6z"/>
	<path class="st15" d="M655.4,491.6c0.9-4.3,1.4-8,3.5-12c2-4,4.6-7.7,6.9-11.5c6.3-10.5,9.9-22.5,13.3-34.3
		c3.2-11,11.3-22.3,19-30.6c6-6.4,13.3-11.5,19.4-17.8c4.3-4.5,8-9.6,10.9-15.2c1.6-3,2.9-6.2,5.1-8.8c2.5-3.1,6-5.4,9-8.1
		c4.1-3.6,7.3-8.1,9.5-13.1"/>
</g>
<g>
	<path class="st21" d="M763.3,461.5c-2.5,1.4-5.2,2.7-7.9,3.8c-10.4,4.4-21.6,6.8-32.9,7.3c-16.4,0.6-33.3-3-49.1,1.7
		c-7.2,2.1-13.9,6-19.4,11.2c-0.5,0.3-1.1,0.6-1.6,0.9c-1.3-11.1,26.4-25.6,34.8-29.4c15.2-6.8,32.2-9.8,48.8-8.5
		c7.3,0.6,14.7,2,20.7,6.1C759.5,456.4,761.8,458.8,763.3,461.5z"/>
	<linearGradient id="SVGID_8_" gradientUnits="userSpaceOnUse" x1="652.5074" y1="474.9268" x2="766.0251" y2="474.9268">
		<stop  offset="4.200120e-07" style="stop-color:#319188"/>
		<stop  offset="1" style="stop-color:#287870"/>
	</linearGradient>
	<path class="st22" d="M736.2,455.1c7.3,0.6,14.7,2,20.7,6.1c6,4.1,10.2,11.5,8.8,18.7c-1.6,8.3-10.3,13.8-18.7,14.8
		c-8.4,1-16.9-1.3-25.2-3c-18.4-3.8-37.4-4.7-56.1-2.6c-4.7,0.5-9.1,1.4-13.2,3.8c-1.3-11.1,26.4-25.6,34.8-29.4
		C702.6,456.8,719.6,453.8,736.2,455.1z"/>
	<path class="st15" d="M659.8,486c13.8-12.1,49.1-20.3,74.1-17.7c7.5,0.8,15.1,3,20.9,7.9"/>
</g>
<path class="st21" d="M650.7,572.3l-508.1,1c-6.8,0-12.3-5.5-12.3-12.2l-0.7-336.6c0-6.8,5.5-12.3,12.2-12.3l508.1-1
	c6.8,0,12.3,5.5,12.3,12.2l0.7,336.6C663,566.8,657.5,572.3,650.7,572.3z"/>
<path class="st23" d="M674,549L674,549c0,6.8-5.5,12.3-12.2,12.3l-325.1,0.7l-183,0.4c-6.8,0-12.3-5.5-12.3-12.2l-0.7-336.6
	c0-6.8,5.5-12.3,12.2-12.3l508.1-1c6.8,0,12.3,5.5,12.3,12.2l0,13.1L674,549z"/>
<path class="st24" d="M660.1,199l-505.9,1c-7.4,0-13.3,6-13.3,13.4l0,11.6l532.7-1.1l0-11.6C673.5,205,667.5,199,660.1,199z"/>
<path class="st1" d="M218.7,539.5l-59.6,0.1c-2.4,0-4.4-1.9-4.4-4.3l0-1.3c0-2.4,1.9-4.4,4.3-4.4l59.6-0.1c2.4,0,4.4,1.9,4.4,4.3
	l0,1.3C223.1,537.6,221.1,539.5,218.7,539.5z"/>
<path class="st25" d="M309,464.8H153.9c-2.9,0-5.2-2.3-5.2-5.2v-38.8c0-2.9,2.3-5.2,5.2-5.2H309c2.9,0,5.2,2.3,5.2,5.2v38.8
	C314.2,462.5,311.9,464.8,309,464.8z"/>
<path class="st26" d="M318.8,451.7H163.7c-2.9,0-5.2-2.3-5.2-5.2v-38.8c0-2.9,2.3-5.2,5.2-5.2h155.1c2.9,0,5.2,2.3,5.2,5.2v38.8
	C323.9,449.4,321.6,451.7,318.8,451.7z"/>
<path class="st1" d="M170.1,216.3c0,2.4-1.9,4.3-4.3,4.3c-2.4,0-4.3-1.9-4.3-4.3c0-2.4,1.9-4.3,4.3-4.3
	C168.1,212,170.1,213.9,170.1,216.3z"/>
<path class="st1" d="M188.3,216.3c0,2.4-1.9,4.3-4.3,4.3c-2.4,0-4.3-1.9-4.3-4.3c0-2.4,1.9-4.3,4.3-4.3
	C186.4,212,188.3,213.9,188.3,216.3z"/>
<path class="st1" d="M206.5,216.2c0,2.4-1.9,4.3-4.3,4.3c-2.4,0-4.3-1.9-4.3-4.3c0-2.4,1.9-4.3,4.3-4.3
	C204.6,211.9,206.5,213.8,206.5,216.2z"/>
<path class="st21" d="M301,493.6H112.8c-2.9,0-5.2-2.3-5.2-5.2v-36.3c0-2.9,2.3-5.2,5.2-5.2H301c2.9,0,5.2,2.3,5.2,5.2v36.3
	C306.1,491.3,303.8,493.6,301,493.6z"/>
<linearGradient id="SVGID_9_" gradientUnits="userSpaceOnUse" x1="156.2177" y1="484.9683" x2="272.9528" y2="436.8207">
	<stop  offset="0" style="stop-color:#F56D46"/>
	<stop  offset="1" style="stop-color:#F24716"/>
</linearGradient>
<path class="st27" d="M297.6,488.8H109.5c-2.9,0-5.2-2.3-5.2-5.2v-36.3c0-2.9,2.3-5.2,5.2-5.2h188.1c2.9,0,5.2,2.3,5.2,5.2v36.3
	C302.8,486.4,300.5,488.8,297.6,488.8z"/>
<path class="st26" d="M614.6,489.5H426.4c-2.9,0-5.2-2.3-5.2-5.2v-98.6c0-2.9,2.3-5.2,5.2-5.2h188.1c2.9,0,5.2,2.3,5.2,5.2v98.6
	C619.7,487.2,617.4,489.5,614.6,489.5z"/>
<path class="st28" d="M631.6,500.3H443.4c-2.9,0-5.2-2.3-5.2-5.2V385.4c0-2.9,2.3-5.2,5.2-5.2h188.1c2.9,0,5.2,2.3,5.2,5.2v109.7
	C636.7,498,634.4,500.3,631.6,500.3z"/>
<path class="st29" d="M210.4,299.4l-45.2,0.1c-2,0-3.7-1.6-3.7-3.6l0-1.1c0-2,1.6-3.7,3.6-3.7l45.2-0.1c2,0,3.7,1.6,3.7,3.6l0,1.1
	C214,297.7,212.4,299.4,210.4,299.4z"/>
<linearGradient id="SVGID_10_" gradientUnits="userSpaceOnUse" x1="161.4575" y1="370.2815" x2="194.609" y2="370.2815">
	<stop  offset="0" style="stop-color:#F56D46"/>
	<stop  offset="1" style="stop-color:#F24716"/>
</linearGradient>
<path class="st30" d="M191,374.5l-25.8,0.1c-2,0-3.7-1.6-3.7-3.6l0-1.1c0-2,1.6-3.7,3.6-3.7l25.8-0.1c2,0,3.7,1.6,3.7,3.6l0,1.1
	C194.6,372.8,193,374.5,191,374.5z"/>
<path class="st29" d="M268.6,314.1l-103.5,0.2c-2,0-3.7-1.6-3.7-3.6l0-1.1c0-2,1.6-3.7,3.6-3.7l103.5-0.2c2,0,3.7,1.6,3.7,3.6l0,1.1
	C272.2,312.4,270.6,314,268.6,314.1z"/>
<g>
	<path class="st31" d="M301.4,335.3l-138.6,0.3c-0.7,0-1.3-0.6-1.3-1.3l0-0.4c0-0.7,0.6-1.3,1.3-1.3l138.6-0.3
		c0.7,0,1.3,0.6,1.3,1.3l0,0.4C302.7,334.7,302.1,335.3,301.4,335.3z"/>
	<path class="st31" d="M301.4,328.6l-138.6,0.3c-0.7,0-1.3-0.6-1.3-1.3l0-0.4c0-0.7,0.6-1.3,1.3-1.3l138.6-0.3
		c0.7,0,1.3,0.6,1.3,1.3l0,0.4C302.7,328,302.1,328.6,301.4,328.6z"/>
	<path class="st31" d="M301.4,342l-138.6,0.3c-0.7,0-1.3-0.6-1.3-1.3l0-0.4c0-0.7,0.6-1.3,1.3-1.3l138.6-0.3c0.7,0,1.3,0.6,1.3,1.3
		l0,0.4C302.7,341.4,302.1,342,301.4,342z"/>
	<path class="st31" d="M301.4,348.8l-138.6,0.3c-0.7,0-1.3-0.6-1.3-1.3l0-0.4c0-0.7,0.6-1.3,1.3-1.3l138.6-0.3
		c0.7,0,1.3,0.6,1.3,1.3l0,0.4C302.7,348.2,302.1,348.8,301.4,348.8z"/>
	<path class="st31" d="M269.1,355.5l-106.3,0.2c-0.7,0-1.3-0.6-1.3-1.3l0-0.4c0-0.7,0.6-1.3,1.3-1.3l106.3-0.2
		c0.7,0,1.3,0.6,1.3,1.3l0,0.4C270.5,354.9,269.9,355.5,269.1,355.5z"/>
</g>
<g>
	<path class="st31" d="M432.4,528.9l-89,0.2c-0.7,0-1.3-0.6-1.3-1.3l0-0.4c0-0.7,0.6-1.3,1.3-1.3l89-0.2c0.7,0,1.3,0.6,1.3,1.3
		l0,0.4C433.8,528.3,433.2,528.9,432.4,528.9z"/>
	<path class="st31" d="M432.4,522.2l-89,0.2c-0.7,0-1.3-0.6-1.3-1.3l0-0.4c0-0.7,0.6-1.3,1.3-1.3l89-0.2c0.7,0,1.3,0.6,1.3,1.3
		l0,0.4C433.8,521.6,433.2,522.2,432.4,522.2z"/>
	<path class="st31" d="M432.5,535.6l-89,0.2c-0.7,0-1.3-0.6-1.3-1.3l0-0.4c0-0.7,0.6-1.3,1.3-1.3l89-0.2c0.7,0,1.3,0.6,1.3,1.3
		l0,0.4C433.8,535,433.2,535.6,432.5,535.6z"/>
	<path class="st31" d="M432.5,542.4l-89,0.2c-0.7,0-1.3-0.6-1.3-1.3l0-0.4c0-0.7,0.6-1.3,1.3-1.3l89-0.2c0.7,0,1.3,0.6,1.3,1.3
		l0,0.4C433.8,541.8,433.2,542.4,432.5,542.4z"/>
	<path class="st31" d="M411.5,549.1l-68,0.1c-0.7,0-1.3-0.6-1.3-1.3l0-0.4c0-0.7,0.6-1.3,1.3-1.3l68-0.1c0.7,0,1.3,0.6,1.3,1.3
		l0,0.4C412.9,548.5,412.3,549.1,411.5,549.1z"/>
</g>
<g>
	<path class="st31" d="M534.8,529l-89,0.2c-0.7,0-1.3-0.6-1.3-1.3l0-0.4c0-0.7,0.6-1.3,1.3-1.3l89-0.2c0.7,0,1.3,0.6,1.3,1.3l0,0.4
		C536.1,528.4,535.5,529,534.8,529z"/>
	<path class="st31" d="M534.8,522.2l-89,0.2c-0.7,0-1.3-0.6-1.3-1.3l0-0.4c0-0.7,0.6-1.3,1.3-1.3l89-0.2c0.7,0,1.3,0.6,1.3,1.3
		l0,0.4C536.1,521.6,535.5,522.2,534.8,522.2z"/>
	<path class="st31" d="M534.8,535.7l-89,0.2c-0.7,0-1.3-0.6-1.3-1.3l0-0.4c0-0.7,0.6-1.3,1.3-1.3l89-0.2c0.7,0,1.3,0.6,1.3,1.3
		l0,0.4C536.1,535.1,535.6,535.7,534.8,535.7z"/>
	<path class="st31" d="M534.8,542.4l-89,0.2c-0.7,0-1.3-0.6-1.3-1.3l0-0.4c0-0.7,0.6-1.3,1.3-1.3l89-0.2c0.7,0,1.3,0.6,1.3,1.3
		l0,0.4C536.2,541.8,535.6,542.4,534.8,542.4z"/>
	<path class="st31" d="M513.9,549.1l-68,0.1c-0.7,0-1.3-0.6-1.3-1.3l0-0.4c0-0.7,0.6-1.3,1.3-1.3l68-0.1c0.7,0,1.3,0.6,1.3,1.3
		l0,0.4C515.2,548.5,514.6,549.1,513.9,549.1z"/>
</g>
<g>
	<path class="st31" d="M637.2,529l-89,0.2c-0.7,0-1.3-0.6-1.3-1.3l0-0.4c0-0.7,0.6-1.3,1.3-1.3l89-0.2c0.7,0,1.3,0.6,1.3,1.3l0,0.4
		C638.5,528.4,637.9,529,637.2,529z"/>
	<path class="st31" d="M637.2,522.2l-89,0.2c-0.7,0-1.3-0.6-1.3-1.3l0-0.4c0-0.7,0.6-1.3,1.3-1.3l89-0.2c0.7,0,1.3,0.6,1.3,1.3
		l0,0.4C638.5,521.6,637.9,522.2,637.2,522.2z"/>
	<path class="st31" d="M637.2,535.7l-89,0.2c-0.7,0-1.3-0.6-1.3-1.3l0-0.4c0-0.7,0.6-1.3,1.3-1.3l89-0.2c0.7,0,1.3,0.6,1.3,1.3
		l0,0.4C638.5,535.1,637.9,535.7,637.2,535.7z"/>
	<path class="st31" d="M637.2,542.4l-89,0.2c-0.7,0-1.3-0.6-1.3-1.3l0-0.4c0-0.7,0.6-1.3,1.3-1.3l89-0.2c0.7,0,1.3,0.6,1.3,1.3
		l0,0.4C638.5,541.8,637.9,542.4,637.2,542.4z"/>
	<path class="st31" d="M616.3,549.1l-68,0.1c-0.7,0-1.3-0.6-1.3-1.3l0-0.4c0-0.7,0.6-1.3,1.3-1.3l68-0.1c0.7,0,1.3,0.6,1.3,1.3
		l0,0.4C617.6,548.5,617,549.1,616.3,549.1z"/>
</g>
<g>
	<path class="st31" d="M191.3,547.1l-28.5,0.1c-0.7,0-1.3-0.6-1.3-1.3l0-0.4c0-0.7,0.6-1.3,1.3-1.3l28.5-0.1c0.7,0,1.3,0.6,1.3,1.3
		l0,0.4C192.7,546.5,192.1,547.1,191.3,547.1z"/>
	<path class="st31" d="M234.3,547.1l-28.5,0.1c-0.7,0-1.3-0.6-1.3-1.3l0-0.4c0-0.7,0.6-1.3,1.3-1.3l28.5-0.1c0.7,0,1.3,0.6,1.3,1.3
		l0,0.4C235.6,546.5,235,547.1,234.3,547.1z"/>
	<path class="st31" d="M277.3,547.1l-28.5,0.1c-0.7,0-1.3-0.6-1.3-1.3l0-0.4c0-0.7,0.6-1.3,1.3-1.3l28.5-0.1c0.7,0,1.3,0.6,1.3,1.3
		l0,0.4C278.6,546.5,278,547.1,277.3,547.1z"/>
	<path class="st31" d="M320.2,547.1l-28.5,0.1c-0.7,0-1.3-0.6-1.3-1.3l0-0.4c0-0.7,0.6-1.3,1.3-1.3l28.5-0.1c0.7,0,1.3,0.6,1.3,1.3
		l0,0.4C321.5,546.5,321,547.1,320.2,547.1z"/>
</g>
<g>
	<path class="st1" d="M279.2,473.4H127.9c-4.4,0-8-3.6-8-8l0,0c0-4.4,3.6-8,8-8h151.3c4.4,0,8,3.6,8,8l0,0
		C287.2,469.8,283.6,473.4,279.2,473.4z"/>
	
		<ellipse transform="matrix(0.2308 -0.973 0.973 0.2308 -245.559 620.265)" class="st1" cx="269.5" cy="465.4" rx="17.6" ry="17.6"/>
	<line class="st32" x1="129.2" y1="461.8" x2="129.2" y2="469.2"/>
	<g>
		<path class="st33" d="M274.2,464.6c0,3.2-2.6,5.7-5.7,5.7s-5.7-2.6-5.7-5.7c0-3.2,2.6-5.7,5.7-5.7S274.2,461.4,274.2,464.6z"/>
		<line class="st34" x1="276.3" y1="472" x2="272.4" y2="468.7"/>
	</g>
</g>
<path class="st21" d="M568,421.4L568,421.4c0,3-2.2,5.4-5,5.4L430.4,427l-74.6,0.2c-2.8,0-5-2.4-5-5.3l-0.3-146.7
	c0-2.9,2.2-5.4,5-5.4l207.3-0.5c2.8,0,5,2.4,5,5.3l0,5.7L568,421.4z"/>
<linearGradient id="SVGID_11_" gradientUnits="userSpaceOnUse" x1="345" y1="339.8338" x2="561.0257" y2="339.8338">
	<stop  offset="1.801890e-02" style="stop-color:#FFEA9B"/>
	<stop  offset="0.9712" style="stop-color:#FFF1BD"/>
</linearGradient>
<path class="st35" d="M561.1,412.9L561.1,412.9c0,3-2.2,5.4-5,5.4l-132.6,0.3l-74.6,0.2c-2.8,0-5-2.4-5-5.3l-0.3-146.7
	c0-2.9,2.2-5.4,5-5.4l207.3-0.5c2.8,0,5,2.4,5,5.3l0,5.7L561.1,412.9z"/>
<polyline class="st36" points="546.1,405.5 358.5,405.5 358.5,278.4 "/>
<linearGradient id="SVGID_12_" gradientUnits="userSpaceOnUse" x1="358.4938" y1="349.7048" x2="544.421" y2="349.7048">
	<stop  offset="0" style="stop-color:#FFFFFF"/>
	<stop  offset="1" style="stop-color:#FFFFFF;stop-opacity:0"/>
</linearGradient>
<polygon class="st37" points="358.5,369.3 406.2,319.5 418.4,339.2 436.5,294 449.3,331.6 464.8,307 486.3,352.5 526.4,306.7 
	544.4,344.8 544.4,405.4 358.5,405.4 "/>
<linearGradient id="SVGID_13_" gradientUnits="userSpaceOnUse" x1="451.4574" y1="316.9902" x2="451.4574" y2="404.4418">
	<stop  offset="0" style="stop-color:#FFFFFF"/>
	<stop  offset="1" style="stop-color:#FFFFFF;stop-opacity:0"/>
</linearGradient>
<polygon class="st38" points="358.5,353.5 411.3,376.8 450.6,297 472,353.5 507.3,316.7 544.4,356.9 544.4,405.4 358.5,405.4 "/>
<line class="st36" x1="516" y1="276.3" x2="543" y2="276.3"/>
<line class="st36" x1="516" y1="280.8" x2="543" y2="280.8"/>
<line class="st36" x1="516" y1="285.2" x2="543" y2="285.2"/>
<line class="st36" x1="498.5" y1="276.3" x2="510.7" y2="276.3"/>
<line class="st36" x1="498.5" y1="280.8" x2="510.7" y2="280.8"/>
<line class="st36" x1="498.5" y1="285.2" x2="510.7" y2="285.2"/>
<path class="st36" d="M369.6,332.4c7.4,3.7,12,11.2,15.5,18.7s6.4,15.5,11.9,21.6c5.5,6.1,14.7,10,22.2,6.5
	c6.6-3.1,9.8-10.5,12.2-17.4c7-20.1,12.1-40.8,15.5-61.8c0.5-3.1,1-6.3,2.5-9.1c1.5-2.8,4.3-5.1,7.4-5.2c3.7-0.1,6.7,2.9,9.1,5.7
	c15.7,19.2,22.5,44.1,35.9,65c2.6,4.1,6.1,8.4,10.9,8.9c3.9,0.4,7.5-1.8,10.7-4c9.4-6.7,17.7-15,24.4-24.3"/>
<g>
	<path class="st1" d="M371.1,331.7c0,0.8-0.6,1.4-1.4,1.4c-0.8,0-1.4-0.6-1.4-1.4c0-0.8,0.6-1.4,1.4-1.4
		C370.4,330.3,371.1,330.9,371.1,331.7z"/>
	<path class="st1" d="M393.7,366.3c0,0.8-0.6,1.4-1.4,1.4c-0.8,0-1.4-0.6-1.4-1.4c0-0.8,0.6-1.4,1.4-1.4
		C393.1,364.8,393.7,365.5,393.7,366.3z"/>
	<circle class="st1" cx="443.8" cy="316.2" r="1.4"/>
	<path class="st1" d="M441.4,332.4c0,0.8-0.6,1.4-1.4,1.4c-0.8,0-1.4-0.6-1.4-1.4c0-0.8,0.6-1.4,1.4-1.4
		C440.8,331,441.4,331.6,441.4,332.4z"/>
	<path class="st1" d="M549.1,337.4c0,0.8-0.6,1.4-1.4,1.4c-0.8,0-1.4-0.6-1.4-1.4c0-0.8,0.6-1.4,1.4-1.4
		C548.5,335.9,549.1,336.6,549.1,337.4z"/>
	<path class="st1" d="M538.9,349c0,0.8-0.6,1.4-1.4,1.4c-0.8,0-1.4-0.6-1.4-1.4c0-0.8,0.6-1.4,1.4-1.4
		C538.3,347.6,538.9,348.2,538.9,349z"/>
	<path class="st1" d="M437.1,348.3c0,0.8-0.6,1.4-1.4,1.4c-0.8,0-1.4-0.6-1.4-1.4c0-0.8,0.6-1.4,1.4-1.4
		C436.4,346.8,437.1,347.5,437.1,348.3z"/>
	<path class="st1" d="M491.6,335.3c0,0.8-0.6,1.4-1.4,1.4c-0.8,0-1.4-0.6-1.4-1.4c0-0.8,0.6-1.4,1.4-1.4
		C491,333.9,491.6,334.5,491.6,335.3z"/>
</g>
<line class="st39" x1="454" y1="260.9" x2="454" y2="96"/>
<circle class="st25" cx="377" cy="467.8" r="30.2"/>
<circle class="st1" cx="377" cy="467.8" r="13"/>
<polygon class="st1" points="388,434.9 376.1,467.8 414.3,458.8 "/>
<g class="st6">
	<g>
		<g>
			<path class="st52" d="M637.1,375.8c-2.9,0-6.5,0-10.7,0c-1.1,0-2.2-0.1-3.2,0.3c-1,0.4-2,1.2-2.5,2.3c-0.3,0.5-0.5,1.1-0.6,1.7
				c-0.1,0.6-0.1,1.2-0.1,1.9c0,0.6,0,1.3,0,2c0,0.7,0,1.4-0.1,2c-0.3,1.4-1.1,2.7-2.4,3.4c-0.6,0.4-1.3,0.7-2.1,0.7
				c-0.8,0.1-1.5,0-2.3,0c-3,0-6.2,0-9.6,0c-6.7,0-13.9,0-21.7,0c-1.9,0-3.9,0-5.9,0c-0.5,0-1,0-1.5,0c-0.5,0-1,0-1.6-0.2
				c-1-0.3-2-0.8-2.7-1.6c-0.7-0.8-1.2-1.8-1.3-2.9c-0.1-0.5-0.1-1.1-0.1-1.6c0-0.5,0-1.1,0-1.6c0-1.1,0.1-2.2-0.3-3.2
				c-0.3-1-1-1.9-1.9-2.5c-0.9-0.6-2-0.9-3.1-0.8c-1.1,0-2.2,0-3.4,0c-2.3,0-4.6,0-6.9,0c-4.7,0-9.5,0-14.4,0
				c-2.4,0-4.9,0.3-7.2,1.4c-2.3,1-4.3,2.5-6,4.5c-1.6,1.9-2.8,4.3-3.4,6.8c-0.2,0.6-0.2,1.3-0.3,1.9c0,0.5-0.1,1.1-0.1,1.6v107.1
				c0,1.4,0,2.8,0,4.3c0,4.3,0,8.7,0,13.1v139.1c0,1.8,0.1,3.5,0.7,5.2c1.1,3.5,3.3,6.7,6.4,8.8c3.1,2.1,6.8,3.1,10.5,2.9
				c3.7,0,7.4,0,11.1,0c7.4,0,14.7,0,22,0c14.6,0,29,0,43.1,0c7.1,0,14.1,0,21,0c3.5,0,6.9,0.1,10.3,0c3.4-0.2,6.7-1.5,9.3-3.6
				c1.3-1.1,2.4-2.3,3.3-3.7c0.9-1.4,1.6-2.9,2-4.5c0.5-1.6,0.6-3.2,0.6-4.9c0-1.7,0-3.3,0-5c0-6.6,0-13.2,0-19.7
				c0-51.9,0.1-98.6,0.1-137.8c0-39.2,0.1-71,0.1-92.9c0-2.7,0-5.3,0-7.8c0-2.4-0.4-4.7-1.2-6.6c-0.8-2-1.9-3.6-3.1-4.9
				c-1.2-1.3-2.5-2.3-3.7-3c-2.5-1.5-4.7-2-6.1-2.2c-0.7-0.1-1.3-0.1-1.7-0.2c-0.4,0-0.6,0-0.6,0s-0.8,0-2.2,0
				C642.2,375.8,640,375.8,637.1,375.8z"/>
		</g>
	</g>
</g>
<g>
	<g>
		<g>
			<path class="st23" d="M633.1,371.8c-2.9,0-6.5,0-10.7,0c-1.1,0-2.2-0.1-3.2,0.3c-1,0.4-2,1.2-2.5,2.3c-0.3,0.5-0.5,1.1-0.6,1.7
				c-0.1,0.6-0.1,1.2-0.1,1.9c0,0.6,0,1.3,0,2c0,0.7,0,1.4-0.1,2c-0.3,1.4-1.1,2.7-2.4,3.4c-0.6,0.4-1.3,0.7-2.1,0.7
				c-0.8,0.1-1.5,0-2.3,0c-3,0-6.2,0-9.6,0c-6.7,0-13.9,0-21.7,0c-1.9,0-3.9,0-5.9,0c-0.5,0-1,0-1.5,0c-0.5,0-1,0-1.6-0.2
				c-1-0.3-2-0.8-2.7-1.6c-0.7-0.8-1.2-1.8-1.3-2.9c-0.1-0.5-0.1-1.1-0.1-1.6c0-0.5,0-1.1,0-1.6c0-1.1,0.1-2.2-0.3-3.2
				c-0.3-1-1-1.9-1.9-2.5c-0.9-0.6-2-0.9-3.1-0.8c-1.1,0-2.2,0-3.4,0c-2.3,0-4.6,0-6.9,0c-4.7,0-9.5,0-14.4,0
				c-2.4,0-4.9,0.3-7.2,1.4c-2.3,1-4.3,2.5-6,4.5c-1.6,1.9-2.8,4.3-3.4,6.8c-0.2,0.6-0.2,1.3-0.3,1.9c0,0.5-0.1,1.1-0.1,1.6v107.1
				c0,1.4,0,2.8,0,4.3c0,4.3,0,8.7,0,13.1v139.1c0,1.8,0.1,3.5,0.7,5.2c1.1,3.5,3.3,6.7,6.4,8.8c3.1,2.1,6.8,3.1,10.5,2.9
				c3.7,0,7.4,0,11.1,0c7.4,0,14.7,0,22,0c14.6,0,29,0,43.1,0c7.1,0,14.1,0,21,0c3.5,0,6.9,0.1,10.3,0c3.4-0.2,6.7-1.5,9.3-3.6
				c1.3-1.1,2.4-2.3,3.3-3.7c0.9-1.4,1.6-2.9,2-4.5c0.5-1.6,0.6-3.2,0.6-4.9c0-1.7,0-3.3,0-5c0-6.6,0-13.2,0-19.7
				c0-51.9,0.1-98.6,0.1-137.8c0-39.2,0.1-71,0.1-92.9c0-2.7,0-5.3,0-7.8c0-2.4-0.4-4.7-1.2-6.6c-0.8-2-1.9-3.6-3.1-4.9
				c-1.2-1.3-2.5-2.3-3.7-3c-2.5-1.5-4.7-2-6.1-2.2c-0.7-0.1-1.3-0.1-1.7-0.2c-0.4,0-0.6,0-0.6,0s-0.8,0-2.2,0
				C638.2,371.8,636,371.8,633.1,371.8z"/>
		</g>
	</g>
</g>
<g>
	<g>
		<g>
			<g>
				
					<rect x="534.3" y="461.3" transform="matrix(5.572870e-03 -1 1 5.572870e-03 66.1511 1019.7279)" class="st28" width="22.9" height="30.5"/>
			</g>
		</g>
	</g>
	<g class="st53">
		<g>
			<g>
				<path class="st1" d="M530.5,488l10.1-13.3c0.3-0.4,1-0.4,1.3,0l5.3,7.2c0.3,0.4,0.9,0.5,1.3,0.1l3.2-3.3c0.3-0.4,0.9-0.3,1.2,0
					l8.1,9.5L530.5,488z"/>
			</g>
		</g>
	</g>
	<g class="st54">
		<g class="st55">
			<g>
				<g>
					<g>
						<path class="st1" d="M550.6,472.1c0,1.3-1.1,2.4-2.4,2.4c-1.3,0-2.4-1.1-2.4-2.4c0-1.3,1.1-2.4,2.4-2.4
							C549.6,469.7,550.6,470.8,550.6,472.1z"/>
					</g>
				</g>
			</g>
		</g>
	</g>
</g>
<g>
	<line class="st56" x1="633.6" y1="398.5" x2="642.9" y2="398.5"/>
	<line class="st56" x1="633.6" y1="402.1" x2="642.9" y2="402.1"/>
	<line class="st56" x1="633.6" y1="405.6" x2="642.9" y2="405.6"/>
</g>
<path class="st3" d="M195.1,633.9c-10.7,13.9-8.2,33.8,5.7,44.6c13.9,10.7,33.8,8.2,44.6-5.7c10.7-13.9,8.2-33.8-5.7-44.6
	C225.8,617.4,205.9,620,195.1,633.9z"/>
<path class="st62" d="M631.6,431.4c0.3-0.3,0.7-0.6,1.2-0.8c0.4-0.2,0.9-0.3,1.4-0.3c0.5,0,0.9,0.1,1.4,0.3c0.4,0.2,0.8,0.4,1.2,0.8
	s0.6,0.7,0.8,1.2l0,0c0.2,0.4,0.3,0.9,0.3,1.4c0,0.5-0.1,0.9-0.3,1.4c-0.1,0.4-0.4,0.7-0.6,1l0.3,0.3c0.2,0,0.4,0,0.5,0.1l1.2,1.2
	c0.2,0.2,0.2,0.5,0,0.7c-0.2,0.2-0.5,0.2-0.7,0l-1.2-1.2c-0.1-0.1-0.2-0.3-0.1-0.5l-0.3-0.3c-0.3,0.3-0.6,0.5-1,0.6l0,0
	c-0.4,0.2-0.9,0.3-1.4,0.3c-0.5,0-0.9-0.1-1.4-0.3c-0.4-0.2-0.8-0.4-1.2-0.8c-0.3-0.3-0.6-0.7-0.8-1.2c-0.2-0.4-0.3-0.9-0.3-1.4
	c0-0.5,0.1-0.9,0.3-1.4C631,432.1,631.2,431.7,631.6,431.4L631.6,431.4z M634.1,431c-0.4,0-0.8,0.1-1.1,0.2l0,0
	c-0.3,0.1-0.7,0.4-1,0.6c-0.3,0.3-0.5,0.6-0.6,1c-0.1,0.4-0.2,0.7-0.2,1.1c0,0.4,0.1,0.8,0.2,1.1l0,0c0.1,0.3,0.4,0.7,0.6,1
	c0.3,0.3,0.6,0.5,1,0.6c0.4,0.2,0.7,0.2,1.1,0.2s0.8-0.1,1.1-0.2l0,0c0.3-0.1,0.7-0.4,1-0.6c0.3-0.3,0.5-0.6,0.6-1
	c0.1-0.4,0.2-0.7,0.2-1.1c0-0.4-0.1-0.8-0.2-1.1l0,0c-0.1-0.3-0.4-0.7-0.6-1c-0.3-0.3-0.6-0.5-1-0.6
	C634.9,431.1,634.5,431,634.1,431z"/>
<path class="st56" d="M635.6,446h-96.2c-5.2,0-9.4-4.2-9.4-9.4v-3.2c0-5.2,4.2-9.4,9.4-9.4h96.2c5.2,0,9.4,4.2,9.4,9.4v3.2
	C645,441.8,640.8,446,635.6,446z"/>
<path class="st63" d="M540.7,400.8C540.7,400.8,540.7,400.8,540.7,400.8l-4.5-4.5c-0.2-0.2-0.4-0.3-0.7-0.3c-0.3,0-0.5,0.1-0.7,0.3
	l-4.5,4.5c0,0,0,0,0,0c-0.4,0.4-0.4,1,0,1.4c0.2,0.2,0.4,0.3,0.7,0.3c0,0,0,0,0,0h0.2v3.3c0,0.7,0.5,1.2,1.2,1.2h1.8
	c0.2,0,0.3-0.1,0.3-0.3v-2.6c0-0.3,0.2-0.5,0.5-0.5h1c0.3,0,0.5,0.2,0.5,0.5v2.6c0,0.2,0.1,0.3,0.3,0.3h1.8c0.7,0,1.2-0.5,1.2-1.2
	v-3.3h0.2c0.3,0,0.5-0.1,0.7-0.3C541.1,401.8,541.1,401.2,540.7,400.8z M540.2,401.8c-0.1,0.1-0.2,0.1-0.3,0.1h-0.5
	c-0.2,0-0.3,0.1-0.3,0.3v3.6c0,0.3-0.2,0.5-0.5,0.5h-1.4v-2.3c0-0.7-0.5-1.2-1.2-1.2h-1c-0.7,0-1.2,0.5-1.2,1.2v2.3h-1.4
	c-0.3,0-0.5-0.2-0.5-0.5v-3.6c0-0.2-0.1-0.3-0.3-0.3H531c0,0,0,0,0,0c-0.1,0-0.2,0-0.3-0.1c-0.1-0.1-0.1-0.4,0-0.5c0,0,0,0,0,0l0,0
	l4.5-4.5c0.1-0.1,0.2-0.1,0.3-0.1c0.1,0,0.2,0,0.3,0.1l4.5,4.5c0,0,0,0,0,0C540.4,401.4,540.4,401.6,540.2,401.8z"/>
<text transform="matrix(1 0 0 1 540.667 439)" class="st63 st64 st65">text</text>
<rect x="571" y="465" class="st66" width="37" height="1"/>
<rect x="571" y="472" class="st63" width="74" height="1"/>
<rect x="571" y="477" class="st63" width="46.7" height="1"/>
<rect x="571" y="483" class="st63" width="62.8" height="1"/>
<circle class="st67" cx="549.4" cy="471.3" r="2.3"/>
<g>
	<g>
		<g>
			<g>
				
					<rect x="534.3" y="461.3" transform="matrix(5.572870e-03 -1 1 5.572870e-03 66.1511 1019.7279)" class="st28" width="22.9" height="30.5"/>
			</g>
		</g>
	</g>
	<g class="st53">
		<g>
			<g>
				<path class="st1" d="M530.5,488l10.1-13.3c0.3-0.4,1-0.4,1.3,0l5.3,7.2c0.3,0.4,0.9,0.5,1.3,0.1l3.2-3.3c0.3-0.4,0.9-0.3,1.2,0
					l8.1,9.5L530.5,488z"/>
			</g>
		</g>
	</g>
	<g class="st54">
		<g class="st55">
			<g>
				<g>
					<g>
						<path class="st1" d="M550.6,472.1c0,1.3-1.1,2.4-2.4,2.4c-1.3,0-2.4-1.1-2.4-2.4c0-1.3,1.1-2.4,2.4-2.4
							C549.6,469.7,550.6,470.8,550.6,472.1z"/>
					</g>
				</g>
			</g>
		</g>
	</g>
</g>
<rect x="571" y="465" class="st66" width="37" height="1"/>
<rect x="571" y="472" class="st63" width="74" height="1"/>
<rect x="571" y="477" class="st63" width="46.7" height="1"/>
<rect x="571" y="483" class="st63" width="62.8" height="1"/>
<circle class="st67" cx="549.4" cy="471.3" r="2.3"/>
<g>
	<g>
		<g>
			<g>
				
					<rect x="534.3" y="501.8" transform="matrix(5.572870e-03 -1 1 5.572870e-03 25.7434 1059.911)" class="st28" width="22.9" height="30.5"/>
			</g>
		</g>
	</g>
	<g class="st53">
		<g>
			<g>
				<path class="st1" d="M530.5,528.4l10.1-13.3c0.3-0.4,1-0.4,1.3,0l5.3,7.2c0.3,0.4,0.9,0.5,1.3,0.1l3.2-3.3
					c0.3-0.4,0.9-0.3,1.2,0l8.1,9.5L530.5,528.4z"/>
			</g>
		</g>
	</g>
	<g class="st54">
		<g class="st55">
			<g>
				<g>
					<g>
						<path class="st1" d="M550.6,512.5c0,1.3-1.1,2.4-2.4,2.4c-1.3,0-2.4-1.1-2.4-2.4c0-1.3,1.1-2.4,2.4-2.4
							C549.6,510.1,550.6,511.2,550.6,512.5z"/>
					</g>
				</g>
			</g>
		</g>
	</g>
</g>
<rect x="571" y="505.4" class="st66" width="37" height="1"/>
<rect x="571" y="512.4" class="st63" width="74" height="1"/>
<rect x="571" y="517.4" class="st63" width="46.7" height="1"/>
<rect x="571" y="523.4" class="st63" width="62.8" height="1"/>
<circle class="st67" cx="549.4" cy="511.7" r="2.3"/>
<g>
	<g>
		<g>
			<g>
				
					<rect x="534.3" y="542.2" transform="matrix(5.572870e-03 -1 1 5.572870e-03 -14.6643 1100.0942)" class="st28" width="22.9" height="30.5"/>
			</g>
		</g>
	</g>
	<g class="st53">
		<g>
			<g>
				<path class="st1" d="M530.5,568.8l10.1-13.3c0.3-0.4,1-0.4,1.3,0l5.3,7.2c0.3,0.4,0.9,0.5,1.3,0.1l3.2-3.3
					c0.3-0.4,0.9-0.3,1.2,0l8.1,9.5L530.5,568.8z"/>
			</g>
		</g>
	</g>
	<g class="st54">
		<g class="st55">
			<g>
				<g>
					<g>
						<path class="st1" d="M550.6,552.9c0,1.3-1.1,2.4-2.4,2.4c-1.3,0-2.4-1.1-2.4-2.4c0-1.3,1.1-2.4,2.4-2.4
							C549.6,550.5,550.6,551.6,550.6,552.9z"/>
					</g>
				</g>
			</g>
		</g>
	</g>
</g>
<rect x="571" y="545.8" class="st66" width="37" height="1"/>
<rect x="571" y="552.8" class="st63" width="74" height="1"/>
<rect x="571" y="557.8" class="st63" width="46.7" height="1"/>
<rect x="571" y="563.8" class="st63" width="62.8" height="1"/>
<circle class="st67" cx="549.4" cy="552.1" r="2.3"/>
<g>
	<g>
		<g>
			<g>
				
					<rect x="534.3" y="582.6" transform="matrix(5.572870e-03 -1 1 5.572870e-03 -55.0721 1140.2773)" class="st28" width="22.9" height="30.5"/>
			</g>
		</g>
	</g>
	<g class="st53">
		<g>
			<g>
				<path class="st1" d="M530.5,609.2l10.1-13.3c0.3-0.4,1-0.4,1.3,0l5.3,7.2c0.3,0.4,0.9,0.5,1.3,0.1l3.2-3.3
					c0.3-0.4,0.9-0.3,1.2,0l8.1,9.5L530.5,609.2z"/>
			</g>
		</g>
	</g>
	<g class="st54">
		<g class="st55">
			<g>
				<g>
					<g>
						<path class="st1" d="M550.6,593.3c0,1.3-1.1,2.4-2.4,2.4c-1.3,0-2.4-1.1-2.4-2.4c0-1.3,1.1-2.4,2.4-2.4
							C549.6,590.9,550.6,592,550.6,593.3z"/>
					</g>
				</g>
			</g>
		</g>
	</g>
</g>
<circle class="st67" cx="549.4" cy="592.5" r="2.3"/>
<g>
	<g>
		<g>
			<g>
				
					<rect x="534.3" y="623" transform="matrix(5.572870e-03 -1 1 5.572870e-03 -95.4798 1180.4606)" class="st28" width="22.9" height="30.5"/>
			</g>
		</g>
	</g>
	<g class="st53">
		<g>
			<g>
				<path class="st1" d="M530.5,649.6l10.1-13.3c0.3-0.4,1-0.4,1.3,0l5.3,7.2c0.3,0.4,0.9,0.5,1.3,0.1l3.2-3.3
					c0.3-0.4,0.9-0.3,1.2,0l8.1,9.5L530.5,649.6z"/>
			</g>
		</g>
	</g>
	<g class="st54">
		<g class="st55">
			<g>
				<g>
					<g>
						<path class="st1" d="M550.6,633.7c0,1.3-1.1,2.4-2.4,2.4c-1.3,0-2.4-1.1-2.4-2.4c0-1.3,1.1-2.4,2.4-2.4
							C549.6,631.3,550.6,632.4,550.6,633.7z"/>
					</g>
				</g>
			</g>
		</g>
	</g>
</g>
<rect x="571" y="626.6" class="st66" width="37" height="1"/>
<rect x="571" y="633.6" class="st63" width="74" height="1"/>
<rect x="571" y="638.6" class="st63" width="46.7" height="1"/>
<rect x="571" y="644.6" class="st63" width="62.8" height="1"/>
<circle class="st67" cx="549.4" cy="632.9" r="2.3"/>
<g>
	<path class="st3" d="M622,501h135.5c3.7,0,6.7,3,6.7,6.7v34.8c0,3.7-3,6.7-6.7,6.7H622c-3.7,0-6.7-3-6.7-6.7v-34.8
		C615.3,504,618.3,501,622,501z"/>
	<g>
		<linearGradient id="SVGID_14_" gradientUnits="userSpaceOnUse" x1="724.1079" y1="525.1387" x2="755.7924" y2="525.1387">
			<stop  offset="0" style="stop-color:#F56D46"/>
			<stop  offset="1" style="stop-color:#F24716"/>
		</linearGradient>
		<path class="st68" d="M740,541c8.7,0,15.8-7.1,15.8-15.8c0-8.7-7.1-15.8-15.8-15.8c-8.7,0-15.8,7.1-15.8,15.8
			C724.1,533.9,731.2,541,740,541z"/>
		<path class="st3" d="M731.9,527.9c-0.6-0.6-0.6-1.7,0-2.3c0.7-0.7,1.7-0.7,2.4,0l3.5,3.5l7.7-11.3c0.5-0.8,1.5-1,2.3-0.4
			c0.8,0.5,1,1.5,0.4,2.3l-8.8,12.9c-0.1,0.1-0.2,0.2-0.3,0.3c-0.7,0.6-1.7,0.6-2.4,0L731.9,527.9z"/>
	</g>
	<g>
		<line class="st69" x1="710.9" y1="519.3" x2="629.7" y2="519.3"/>
		<line class="st69" x1="710.9" y1="531" x2="658.3" y2="531"/>
		<line class="st69" x1="650.1" y1="531" x2="644.4" y2="531"/>
	</g>
</g>
<g>
	<linearGradient id="SVGID_15_" gradientUnits="userSpaceOnUse" x1="727.7166" y1="558.2451" x2="660.7166" y2="670.9951">
		<stop  offset="0" style="stop-color:#3DDDCB"/>
		<stop  offset="5.434127e-02" style="stop-color:#3AD8C6"/>
		<stop  offset="0.4534" style="stop-color:#29B6A6"/>
		<stop  offset="0.7827" style="stop-color:#1FA192"/>
		<stop  offset="0.9995" style="stop-color:#1B998B"/>
	</linearGradient>
	<path class="st70" d="M727,561.5c1,0,2,0.4,2.5,1.2c0.4,0.7,0.3,1.6-0.2,2.2c-3.9,4.4-11.8,1.2-11.8,1.2S719.8,561.5,727,561.5z"/>
	<linearGradient id="SVGID_16_" gradientUnits="userSpaceOnUse" x1="714.8407" y1="550.5938" x2="647.8407" y2="663.3438">
		<stop  offset="0" style="stop-color:#3DDDCB"/>
		<stop  offset="5.434127e-02" style="stop-color:#3AD8C6"/>
		<stop  offset="0.4534" style="stop-color:#29B6A6"/>
		<stop  offset="0.7827" style="stop-color:#1FA192"/>
		<stop  offset="0.9995" style="stop-color:#1B998B"/>
	</linearGradient>
	<path class="st71" d="M712,556.5c-4.9-5.3-8.3,6.7-6.2,12.1C705.8,568.6,716.3,561,712,556.5z"/>
	<linearGradient id="SVGID_17_" gradientUnits="userSpaceOnUse" x1="731.2112" y1="560.3217" x2="664.2112" y2="673.0717">
		<stop  offset="0" style="stop-color:#3DDDCB"/>
		<stop  offset="5.434127e-02" style="stop-color:#3AD8C6"/>
		<stop  offset="0.4534" style="stop-color:#29B6A6"/>
		<stop  offset="0.7827" style="stop-color:#1FA192"/>
		<stop  offset="0.9995" style="stop-color:#1B998B"/>
	</linearGradient>
	<path class="st72" d="M721.7,576.2c1.4-0.4,3.1-0.2,3.9,1c0.6,0.9,0.4,2.1-0.1,3.1c-0.5,0.9-1.9,2.1-2.9,2.5
		c-6.1,2.3-10.3-1.1-10.3-1.1S719.5,576.9,721.7,576.2z"/>
	<linearGradient id="SVGID_18_" gradientUnits="userSpaceOnUse" x1="726.8106" y1="557.7067" x2="659.8106" y2="670.4567">
		<stop  offset="0" style="stop-color:#3DDDCB"/>
		<stop  offset="5.434127e-02" style="stop-color:#3AD8C6"/>
		<stop  offset="0.4534" style="stop-color:#29B6A6"/>
		<stop  offset="0.7827" style="stop-color:#1FA192"/>
		<stop  offset="0.9995" style="stop-color:#1B998B"/>
	</linearGradient>
	<path class="st73" d="M691.5,618.4c1,0,2.2,0.5,2.6,1.4c0.3,0.6,0.2,1.3,0,1.9c-0.2,0.6-0.7,1.1-1.1,1.6c-0.9,1-2.2,1.7-3.6,1.8
		c-3.5,0.5-6.9-1.7-6.9-1.7S688.9,618.4,691.5,618.4z"/>
	<linearGradient id="SVGID_19_" gradientUnits="userSpaceOnUse" x1="711.3016" y1="548.4908" x2="644.3016" y2="661.2408">
		<stop  offset="0" style="stop-color:#3DDDCB"/>
		<stop  offset="5.434127e-02" style="stop-color:#3AD8C6"/>
		<stop  offset="0.4534" style="stop-color:#29B6A6"/>
		<stop  offset="0.7827" style="stop-color:#1FA192"/>
		<stop  offset="0.9995" style="stop-color:#1B998B"/>
	</linearGradient>
	<path class="st74" d="M685.3,600c2.5-1.5,4.1-4.5,3.8-7.4c-0.1-0.7-0.3-1.5-0.7-2.1c-1-1.4-3-1.6-4.6-1.1c-1.6,0.6-2.8,1.8-4,3
		c-2.1,2.2-3.6,6.3-5.3,8.8C674.6,601.3,680.2,603.1,685.3,600z"/>
	<path class="st15" d="M724.5,564.8c-6.3-0.1-12.2,3.4-16.3,8.2c-4.1,4.7-6.7,10.6-9,16.4c-2.3,5.8-4.5,11.8-7.9,17
		c-3.3,5.1-8.3,9.7-14.4,10.4c-7.4,0.8-14.3-4.3-18.7-10.3c-4.4-6-7.3-13-11.8-18.9c-2.1-2.7-4.7-5.3-8.1-5.9
		c-4.5-0.9-8.8,1.7-12.6,4.2"/>
	<path class="st15" d="M722.2,579.2c-5.6,2.5-13.5,3.5-19.6,2.3"/>
	<path class="st15" d="M709.6,560.4c-1.3,2.1-2.7,4.2-3.4,6.5c-0.8,2.3-0.4,5.5,0.7,7.7"/>
	<path class="st15" d="M689.9,622.2c-2.7,1.5-6,1.8-9,1c-3-0.8-6-3.6-7.6-6.3"/>
	<path class="st15" d="M683.8,595.7c-5.3,3-9.6,5.6-14.4,9.2c-2.2,1.7-5.5,5.3-5.6,7.3"/>
</g>
<rect x="621" y="569" class="st23" width="37.3" height="60"/>
<rect x="571" y="586.2" class="st66" width="37" height="1"/>
<rect x="571" y="593.2" class="st63" width="74" height="1"/>
<rect x="571" y="598.2" class="st63" width="46.7" height="1"/>
<rect x="571" y="604.2" class="st63" width="62.8" height="1"/>
</svg>
