<?xml version="1.0" encoding="utf-8"?>
<!-- Generator: Adobe Illustrator 22.0.0, SVG Export Plug-In . SVG Version: 6.00 Build 0)  -->
<svg version="1.1" id="圖層_1" xmlns="http://www.w3.org/2000/svg" xmlns:xlink="http://www.w3.org/1999/xlink" x="0px" y="0px"
	 viewBox="0 0 750 715" style="enable-background:new 0 0 750 715;" xml:space="preserve" width="750">
<style type="text/css">
	.st0{fill:none;}
	.st1{fill:#FFFFFF;}
	.st2{fill:#FFD124;}
	.st3{opacity:8.000000e-02;}
	.st4{opacity:0.2;}
	.st5{fill:#242449;}
	.st6{fill:#F17187;}
	.st7{display:none;fill:#EEF3F9;}
	.st8{fill:url(#SVGID_1_);}
	.st9{fill:url(#SVGID_2_);}
	.st10{fill:#4A49CA;}
	.st11{fill:url(#SVGID_3_);}
	.st12{fill:url(#SVGID_4_);}
	.st13{fill:url(#SVGID_5_);}
	.st14{fill:none;stroke:#00AD9F;stroke-width:1.662;stroke-linecap:round;stroke-linejoin:round;stroke-miterlimit:10;}
	.st15{opacity:0.2238;fill:#E1EFFF;enable-background:new    ;}
	.st16{fill:#3B62C1;}
	.st17{fill:url(#SVGID_6_);}
	.st18{fill:url(#SVGID_7_);}
	.st19{fill:url(#SVGID_8_);}
	.st20{opacity:0.2;fill:#5275A0;enable-background:new    ;}
	.st21{fill:url(#SVGID_9_);}
	.st22{fill:#FAFAFA;}
	.st23{fill:#296EC1;}
	.st24{fill:#D2E2F5;}
	.st25{opacity:0.3417;fill:#D1EBFF;enable-background:new    ;}
	.st26{fill:url(#SVGID_10_);}
	.st27{fill:#3CB1FF;}
	.st28{fill:#B6D0EF;}
	.st29{fill:url(#SVGID_11_);}
	.st30{fill:#DDDDDD;}
	.st31{fill:none;stroke:#A8A8A8;stroke-width:1.662;stroke-miterlimit:10;}
	.st32{fill:none;stroke:#3B2F7C;stroke-width:1.662;stroke-miterlimit:10;}
	.st33{fill:none;stroke:#3B2F7C;stroke-width:1.662;stroke-linecap:round;stroke-linejoin:round;stroke-miterlimit:10;}
	.st34{fill:url(#SVGID_12_);}
	.st35{fill:none;stroke:#FFDF68;stroke-width:1.662;stroke-miterlimit:10;}
	.st36{opacity:0.2412;fill:url(#SVGID_13_);enable-background:new    ;}
	.st37{opacity:0.2412;fill:url(#SVGID_14_);enable-background:new    ;}
	.st38{fill:none;stroke:#1D4E89;stroke-width:1.662;stroke-miterlimit:10;stroke-dasharray:6.648;}
	.st39{fill:#5275A0;}
	.st40{opacity:0.6;}
	.st41{display:none;opacity:0.2;}
	.st42{display:inline;}
	.st43{fill:none;stroke:#888888;stroke-width:0.75;stroke-miterlimit:10;}
	.st44{fill:#888888;}
	.st45{font-family:'SegoeUI';}
	.st46{font-size:10.9756px;}
	.st47{fill:#F56D46;}
	.st48{opacity:0.6;fill:#FFFFFF;enable-background:new    ;}
	.st49{fill:url(#SVGID_15_);}
	.st50{fill:none;stroke:#B6D0EF;stroke-miterlimit:10;}
	.st51{fill:url(#SVGID_16_);}
	.st52{fill:url(#SVGID_17_);}
	.st53{fill:url(#SVGID_18_);}
	.st54{fill:url(#SVGID_19_);}
	.st55{fill:url(#SVGID_20_);}
	.st56{fill:#35D67C;}
	.st57{fill:#F7CC52;}
	.st58{fill:#FF5277;}
	.st59{fill:#FFF1BD;}
</style>
<pattern  y="715" width="648.3" height="509.6" patternUnits="userSpaceOnUse" id="Unnamed_Pattern" viewBox="0 -509.6 648.3 509.6" style="overflow:visible;">
	<g>
		<rect y="-509.6" class="st0" width="648.3" height="509.6"/>
		<g>
			<rect x="0" y="-509.6" class="st0" width="648.3" height="509.6"/>
			<path class="st1" d="M301.3-22.9c43.4,20.7,94,30.3,140,16.3c56.1-17,96.2-65,132.6-110.9c25.8-32.5,51.8-65.9,65.5-105.1
				c13.7-39.1,13.1-85.7-11.8-118.9c-18.3-24.4-46.8-38.5-72.2-55.3c-43.8-29-80.7-68.5-128-91.5c-44.8-21.9-97.5-27.2-145.8-14.7
				c-44.5,11.4-83.8,36.8-124.1,58.7c-36.9,20.1-75.8,38-106,67.3C21.7-348.1,1.9-308.2,0.2-266.7c-1.8,41.5,15.3,84.1,47.3,110.7
				c14.5,12,31.6,21.4,49.2,27.6C113.4-122.6,257.7-43.5,301.3-22.9z"/>
		</g>
	</g>
</pattern>
<g>
	<path class="st2" d="M602.4,280.3l18.4-6.2c0,0,17.8-25.3,16.6-31.8s-9.3-18.7-6.3-21.5c3.1-2.8,10.4-6.7,17.9,0.3
		c5.4,5,9.4,28,12.2,28.8c1.6,0.4,12.5-2.8,20.2-5.2c5.2-1.6,10.8-0.2,14.7,3.5l0,0c2.6,2.6,3.1,6.7,1.1,9.8l-3.1,4.9l4.6,3.3
		c3.4,2.5,4.3,7.3,1.9,11l-2.4,3.6l3.1,2c3.9,2.5,5,7.8,2.2,11.5l-2.2,3l0.8,0.7c2.9,2.8,3.2,7.5,0.7,10.6l-2.5,2.6l-49.4,16.6
		c-4.7,1.6-9.6,2.1-14.4,1.6l-18.3,2.9c-2,0.3-3.9-0.9-4.5-2.8l-14.2-44.2C599.1,283.2,600.3,281,602.4,280.3z"/>
</g>
<g>
	<g>
		<g>
			<g>
				<g>
					<g>
						<ellipse class="st2" cx="98.3" cy="180.2" rx="68.9" ry="68.9"/>
					</g>
				</g>
				<g class="st3">
					<g>
						<path d="M111.5,112.4c10.2,7.6,18.4,18.2,23.2,30.9c13.4,35.6-4.6,75.3-40.2,88.7c-12.4,4.7-25.3,5.5-37.3,3.1
							c18.2,13.6,42.7,17.9,65.6,9.3c35.6-13.4,53.7-53.2,40.2-88.7C154.1,132.6,134.2,116.9,111.5,112.4z"/>
					</g>
				</g>
				<g class="st4">
					<g>
						<path class="st1" d="M45.3,208c-12.4-33.1,4.3-69.9,37.3-82.4c19.4-7.2,39.9-4.6,56.2,5.5c-17.1-14.1-40.9-18.8-63.2-10.5
							C42.5,133,25.8,169.9,38.3,203c5.2,13.7,14.6,24.7,26.1,31.8C56.1,227.9,49.4,218.8,45.3,208z"/>
					</g>
				</g>
			</g>
			<g>
				<g>
					<path class="st5" d="M76,203.7c6.7,13.2,22.4,19.5,36.6,14.2c14.2-5.3,21.8-20.5,18.2-34.8L76,203.7z"/>
				</g>
				<g>
					<path class="st6" d="M90.8,217.5c6.7,2.8,14.4,3.1,21.8,0.4c7-2.6,12.4-7.7,15.6-13.8l-0.5-0.5C106,201.5,91,217.2,90.8,217.5z
						"/>
				</g>
			</g>
		</g>
		<g>
			<g>
				<path class="st5" d="M110.4,163.6c0.1-5.3,3.4-9.9,8.3-11.7c4.8-1.8,10.2-0.6,13.7,3.1c0.7,0.7,0.7,1.8,0.2,2.5
					c-0.6,0.8-1.6,1.1-2.5,0.7c-4.9-2.2-11.5-2.8-15.8,6.1c-0.2,0.5-0.6,0.8-1.1,1.1c-0.4,0.1-0.8,0.1-1.2,0.1
					C111.1,165.4,110.4,164.5,110.4,163.6z"/>
			</g>
			<g>
				<path class="st5" d="M55,184.4c0.1-5.3,3.4-9.9,8.3-11.7c4.8-1.8,10.2-0.6,13.7,3.1c0.7,0.7,0.7,1.8,0.2,2.5
					c-0.6,0.8-1.6,1.1-2.5,0.7c-4.9-2.2-11.5-2.8-15.8,6.1c-0.2,0.5-0.6,0.8-1.1,1.1c-0.4,0.1-0.8,0.1-1.2,0.1
					C55.6,186.2,55,185.3,55,184.4z"/>
			</g>
		</g>
	</g>
	<g>
		<ellipse class="st6" cx="66.6" cy="203.9" rx="12" ry="12"/>
	</g>
	<g>
		<ellipse class="st6" cx="145" cy="173.8" rx="12" ry="12"/>
	</g>
</g>
<rect x="0.8" y="30.5" class="st7" width="750" height="654"/>
<g>
	<path class="st1" d="M536.5,202.2c0,1.7-1.4,3-3,3c-1.7,0-3-1.4-3-3c0-1.7,1.4-3,3-3C535.2,199.1,536.5,200.5,536.5,202.2z"/>
	<path class="st1" d="M557.6,202.2c0,1.7-1.4,3-3,3c-1.7,0-3-1.4-3-3c0-1.7,1.4-3,3-3C556.2,199.1,557.6,200.5,557.6,202.2z"/>
	<path class="st1" d="M577.1,202.2c0,1.7-1.4,3-3.1,3c-1.7,0-3-1.4-3-3c0-1.7,1.4-3,3-3C575.7,199.2,577.1,200.5,577.1,202.2z"/>
	<path class="st1" d="M597.4,202.2c0,1.7-1.4,3-3,3c-1.7,0-3-1.4-3-3c0-1.7,1.4-3,3-3C596.1,199.1,597.4,200.5,597.4,202.2z"/>
	<circle class="st1" cx="614" cy="202.2" r="3"/>
	<path class="st1" d="M636.6,202.2c0,1.7-1.4,3-3,3c-1.7,0-3-1.4-3-3c0-1.7,1.4-3,3-3C635.2,199.1,636.6,200.5,636.6,202.2z"/>
	<circle class="st1" cx="652.4" cy="202.2" r="3"/>
	<path class="st1" d="M674.3,202.2c0,1.7-1.4,3-3,3c-1.6,0-3-1.4-3-3c0-1.7,1.4-3,3-3C672.9,199.2,674.3,200.5,674.3,202.2z"/>
	<path class="st1" d="M693.8,182.5c0,1.7-1.4,3-3,3c-1.6,0-3.1-1.4-3.1-3c0-1.7,1.4-3,3.1-3C692.6,179.5,693.8,180.8,693.8,182.5z"
		/>
	<path class="st1" d="M713.4,182.5c0,1.7-1.4,3-3,3c-1.7,0-3-1.4-3-3c0-1.7,1.4-3,3-3C712,179.4,713.4,180.8,713.4,182.5z"/>
	<path class="st1" d="M674.3,202.1c0,1.7-1.4,3-3,3c-1.7,0-3-1.4-3-3c0-1.7,1.4-3,3-3C672.9,199.1,674.3,200.5,674.3,202.1z"/>
	<path class="st1" d="M693.8,202.1c0,1.7-1.4,3-3,3c-1.6,0-3.1-1.4-3.1-3c0-1.7,1.4-3,3.1-3C692.6,199.1,693.8,200.5,693.8,202.1z"
		/>
	<path class="st1" d="M713.4,202.1c0,1.7-1.4,3-3,3c-1.7,0-3-1.4-3-3c0-1.7,1.4-3,3-3C712,199.1,713.4,200.5,713.4,202.1z"/>
	<path class="st1" d="M536.5,100.5c0,1.7-1.4,3-3,3c-1.6,0-3-1.4-3-3c0-1.7,1.4-3,3-3C535.2,97.5,536.5,98.7,536.5,100.5z"/>
	<path class="st1" d="M557.6,100.5c0,1.7-1.4,3-3,3c-1.6,0-3-1.4-3-3c0-1.7,1.4-3,3-3C556.2,97.5,557.6,98.7,557.6,100.5z"/>
	<path class="st1" d="M577.1,100.5c0,1.7-1.4,3-3,3c-1.7,0-3.1-1.4-3.1-3c0-1.7,1.4-3,3.1-3C575.8,97.4,577.1,98.7,577.1,100.5z"/>
	<path class="st1" d="M597.4,100.5c0,1.7-1.4,3-3,3c-1.6,0-3-1.4-3-3c0-1.7,1.4-3,3-3C596.1,97.5,597.4,98.7,597.4,100.5z"/>
	<path class="st1" d="M617,100.5c0,1.7-1.4,3-3,3c-1.7,0-3-1.4-3-3c0-1.7,1.4-3,3-3C615.6,97.4,617,98.7,617,100.5z"/>
	<path class="st1" d="M636.6,100.5c0,1.7-1.4,3-3,3c-1.6,0-3-1.4-3-3c0-1.7,1.4-3,3-3C635.2,97.5,636.6,98.7,636.6,100.5z"/>
	<path class="st1" d="M655.4,100.5c0,1.7-1.4,3-3,3c-1.7,0-3-1.4-3-3c0-1.7,1.4-3,3-3C654.1,97.4,655.4,98.7,655.4,100.5z"/>
	<path class="st1" d="M674.3,100.5c0,1.7-1.4,3-3,3c-1.7,0-3-1.4-3-3c0-1.7,1.4-3,3-3C672.9,97.4,674.3,98.7,674.3,100.5z"/>
	<circle class="st1" cx="533.5" cy="120.8" r="3"/>
	<circle class="st1" cx="554.5" cy="120.8" r="3"/>
	<path class="st1" d="M577.1,120.8c0,1.7-1.4,3-3,3c-1.7,0-3.1-1.4-3.1-3c0-1.7,1.4-3,3.1-3C575.8,117.8,577.1,119.1,577.1,120.8z"
		/>
	<circle class="st1" cx="594.4" cy="120.8" r="3"/>
	<path class="st1" d="M617,120.8c0,1.7-1.4,3-3,3c-1.7,0-3-1.4-3-3c0-1.7,1.4-3,3-3C615.6,117.8,617,119.1,617,120.8z"/>
	<circle class="st1" cx="633.6" cy="120.8" r="3"/>
	<path class="st1" d="M655.4,120.8c0,1.7-1.4,3-3,3c-1.7,0-3-1.4-3-3c0-1.7,1.4-3,3-3C654.1,117.8,655.4,119.1,655.4,120.8z"/>
	<circle class="st1" cx="671.3" cy="120.8" r="3"/>
	<circle class="st1" cx="533.5" cy="140.5" r="3"/>
	<circle class="st1" cx="554.5" cy="140.5" r="3"/>
	<path class="st1" d="M577.1,140.5c0,1.7-1.4,3-3,3c-1.7,0-3.1-1.4-3.1-3c0-1.7,1.4-3,3.1-3C575.8,137.3,577.1,138.7,577.1,140.5z"
		/>
	<circle class="st1" cx="594.4" cy="140.5" r="3"/>
	<path class="st1" d="M617,140.5c0,1.7-1.4,3-3,3c-1.7,0-3-1.4-3-3c0-1.7,1.4-3,3-3C615.6,137.3,617,138.7,617,140.5z"/>
	<circle class="st1" cx="633.6" cy="140.5" r="3"/>
	<path class="st1" d="M655.4,140.5c0,1.7-1.4,3-3,3c-1.7,0-3-1.4-3-3c0-1.7,1.4-3,3-3C654.1,137.3,655.4,138.7,655.4,140.5z"/>
	<circle class="st1" cx="671.3" cy="140.5" r="3"/>
	<path class="st1" d="M536.5,161.5c0,1.7-1.4,3-3,3c-1.6,0-3-1.4-3-3c0-1.7,1.4-3.1,3-3.1C535.2,158.4,536.5,159.8,536.5,161.5z"/>
	<path class="st1" d="M557.6,161.5c0,1.7-1.4,3-3,3c-1.6,0-3-1.4-3-3c0-1.7,1.4-3.1,3-3.1C556.2,158.4,557.6,159.8,557.6,161.5z"/>
	<path class="st1" d="M577.1,161.5c0,1.7-1.4,3-3,3c-1.7,0-3.1-1.4-3.1-3c0-1.7,1.4-3.1,3.1-3.1
		C575.8,158.4,577.1,159.8,577.1,161.5z"/>
	<path class="st1" d="M597.4,161.5c0,1.7-1.4,3-3,3c-1.6,0-3-1.4-3-3c0-1.7,1.4-3.1,3-3.1C596.1,158.4,597.4,159.8,597.4,161.5z"/>
	<path class="st1" d="M617,161.5c0,1.7-1.4,3-3,3c-1.7,0-3-1.4-3-3c0-1.7,1.4-3.1,3-3.1C615.6,158.4,617,159.8,617,161.5z"/>
	<path class="st1" d="M636.6,161.5c0,1.7-1.4,3-3,3c-1.6,0-3-1.4-3-3c0-1.7,1.4-3.1,3-3.1C635.2,158.4,636.6,159.8,636.6,161.5z"/>
	<path class="st1" d="M655.4,161.5c0,1.7-1.4,3-3,3c-1.7,0-3-1.4-3-3c0-1.7,1.4-3.1,3-3.1C654.1,158.4,655.4,159.8,655.4,161.5z"/>
	<path class="st1" d="M674.3,161.5c0,1.7-1.4,3-3,3c-1.7,0-3-1.4-3-3c0-1.7,1.4-3.1,3-3.1C672.9,158.4,674.3,159.8,674.3,161.5z"/>
	<circle class="st1" cx="533.5" cy="182.5" r="3"/>
	<circle class="st1" cx="554.5" cy="182.5" r="3"/>
	<path class="st1" d="M577.1,182.5c0,1.7-1.4,3-3,3c-1.7,0-3.1-1.4-3.1-3c0-1.7,1.4-3,3.1-3C575.8,179.5,577.1,180.9,577.1,182.5z"
		/>
	<circle class="st1" cx="594.4" cy="182.5" r="3"/>
	<path class="st1" d="M617,182.5c0,1.7-1.4,3-3,3c-1.7,0-3-1.4-3-3c0-1.7,1.4-3,3-3C615.6,179.5,617,180.9,617,182.5z"/>
	<circle class="st1" cx="633.6" cy="182.5" r="3"/>
	<path class="st1" d="M655.4,182.5c0,1.7-1.4,3-3,3c-1.7,0-3.1-1.4-3.1-3c0-1.7,1.4-3,3.1-3C654.1,179.5,655.4,180.9,655.4,182.5z"
		/>
	<circle class="st1" cx="671.3" cy="182.5" r="3"/>
	<path class="st1" d="M674.3,100.5c0,1.7-1.4,3-3,3c-1.7,0-3.1-1.4-3.1-3c0-1.7,1.4-3.1,3.1-3.1C672.9,97.4,674.3,98.7,674.3,100.5z
		"/>
	<path class="st1" d="M693.8,100.5c0,1.7-1.4,3-3,3c-1.7,0-3-1.4-3-3c0-1.7,1.4-3.1,3-3.1C692.5,97.4,693.8,98.7,693.8,100.5z"/>
	<path class="st1" d="M713.4,100.5c0,1.7-1.4,3-3.1,3s-3-1.4-3-3c0-1.7,1.4-3.1,3-3.1C712,97.4,713.4,98.7,713.4,100.5z"/>
	<path class="st1" d="M674.3,120.8c0,1.7-1.4,3-3,3c-1.7,0-3.1-1.4-3.1-3c0-1.6,1.4-3,3.1-3C672.9,117.7,674.3,119.1,674.3,120.8z"
		/>
	<path class="st1" d="M693.8,120.8c0,1.7-1.4,3-3,3c-1.7,0-3-1.4-3-3c0-1.6,1.4-3,3-3C692.5,117.7,693.8,119.1,693.8,120.8z"/>
	<path class="st1" d="M713.4,120.8c0,1.7-1.4,3-3.1,3s-3-1.4-3-3c0-1.6,1.4-3,3-3C712,117.7,713.4,119.1,713.4,120.8z"/>
	<path class="st1" d="M674.3,140.4c0,1.7-1.4,3-3,3c-1.7,0-3.1-1.4-3.1-3s1.4-3,3.1-3C672.9,137.3,674.3,138.7,674.3,140.4z"/>
	<circle class="st1" cx="690.8" cy="140.4" r="3"/>
	<path class="st1" d="M713.4,140.4c0,1.7-1.4,3-3.1,3s-3-1.4-3-3s1.4-3,3-3C712,137.3,713.4,138.7,713.4,140.4z"/>
	<path class="st1" d="M693.8,161.5c0,1.7-1.4,3-3,3c-1.7,0-3-1.4-3-3c0-1.6,1.4-3.1,3-3.1C692.5,158.4,693.8,159.8,693.8,161.5z"/>
	<path class="st1" d="M713.4,161.5c0,1.7-1.4,3-3.1,3s-3-1.4-3-3c0-1.6,1.4-3.1,3-3.1C712,158.4,713.4,159.8,713.4,161.5z"/>
	<path class="st1" d="M674.3,182.5c0,1.7-1.4,3-3,3c-1.7,0-3.1-1.4-3.1-3c0-1.7,1.4-3,3.1-3C672.9,179.4,674.3,180.8,674.3,182.5z"
		/>
	<path class="st1" d="M693.8,182.5c0,1.7-1.4,3-3,3c-1.7,0-3-1.4-3-3c0-1.7,1.4-3,3-3C692.5,179.4,693.8,180.8,693.8,182.5z"/>
	<path class="st1" d="M713.4,182.5c0,1.7-1.4,3-3.1,3s-3-1.4-3-3c0-1.7,1.4-3,3-3C712,179.4,713.4,180.8,713.4,182.5z"/>
</g>
<g>
	<path class="st1" d="M44.8,247.8L44.8,247.8c2.4,0,4.4,2,4.4,4.4v20.9c0,2.4-2,4.4-4.4,4.4l0,0c-2.4,0-4.4-2-4.4-4.4v-20.9
		C40.4,249.8,42.4,247.8,44.8,247.8z"/>
	<path class="st1" d="M59.6,262.7L59.6,262.7c0,2.4-2,4.4-4.4,4.4H34.4c-2.4,0-4.4-2-4.4-4.4l0,0c0-2.4,2-4.4,4.4-4.4h20.9
		C57.7,258.2,59.6,260.2,59.6,262.7z"/>
</g>
<pattern  id="SVGID_1_" xlink:href="#Unnamed_Pattern" patternTransform="matrix(0.9146 0 0 -0.9146 -84.8657 -17159.998)">
</pattern>
<path class="st8" d="M337.8,148.3c43.4-20.7,94-30.3,140-16.3c56.1,17,96.2,65,132.6,110.9c25.8,32.5,51.8,65.9,65.5,105.1
	c13.7,39.1,13.1,85.7-11.8,118.9c-18.3,24.4-46.8,38.5-72.2,55.3c-43.7,29.1-80.7,68.5-127.9,91.6c-44.8,21.9-97.5,27.2-145.8,14.7
	c-44.5-11.4-83.8-36.8-124.1-58.7c-36.9-20.1-75.8-38-106-67.3c-29.9-28.9-49.8-68.9-51.5-110.4C34.8,350.6,52,308,84.1,281.6
	c14.5-12,31.6-21.4,49.2-27.6C149.9,248.1,294.2,169,337.8,148.3z"/>
<g>
	
		<linearGradient id="SVGID_2_" gradientUnits="userSpaceOnUse" x1="229.4628" y1="568.7792" x2="160.4628" y2="437.5292" gradientTransform="matrix(0.9146 0 0 -0.9146 -49.8536 684.0549)">
		<stop  offset="0" style="stop-color:#3DDDCB"/>
		<stop  offset="5.434127e-02" style="stop-color:#3AD8C6"/>
		<stop  offset="0.4534" style="stop-color:#29B6A6"/>
		<stop  offset="0.7827" style="stop-color:#1FA192"/>
		<stop  offset="0.9995" style="stop-color:#1B998B"/>
	</linearGradient>
	<path class="st9" d="M109.1,262.7c1.4-0.5,9.1-10.4,12.3-14c0.8-1,1.7-2,2.2-3.2c0.5-1.2,0.4-2.7-0.5-3.8c-1.1-1.2-2.6-2.4-5.4-1.6
		c-4.8,1.4-6.1,3.5-7.8,6.6C104.4,257,109.1,262.7,109.1,262.7z"/>
	<path class="st10" d="M161.2,279.6c4.8,0.7,9.9,1.4,14.4-0.5c1.7-0.7,3.5-2.1,3.6-3.9c0.1-1.6-1.1-3.1-2.6-3.8
		c-1.5-0.7-3.1-0.7-4.8-0.7c-6,0.2-13.8,3.2-19,6.3C152.9,276.9,158.3,279.2,161.2,279.6z"/>
	
		<linearGradient id="SVGID_3_" gradientUnits="userSpaceOnUse" x1="263.1936" y1="551.0465" x2="194.1936" y2="419.7965" gradientTransform="matrix(0.9146 0 0 -0.9146 -49.8536 684.0549)">
		<stop  offset="0" style="stop-color:#3DDDCB"/>
		<stop  offset="5.434127e-02" style="stop-color:#3AD8C6"/>
		<stop  offset="0.4534" style="stop-color:#29B6A6"/>
		<stop  offset="0.7827" style="stop-color:#1FA192"/>
		<stop  offset="0.9995" style="stop-color:#1B998B"/>
	</linearGradient>
	<path class="st11" d="M171.7,208.8c-2.2-0.6-4.8-1.6-5.4-3.9c-0.6-2.3,1.3-4.7,3.5-5.3c2.3-0.6,4.7,0,6.8,1
		c9,4.3,10.1,11.7,10.1,11.7S174.1,209.6,171.7,208.8z"/>
	
		<linearGradient id="SVGID_4_" gradientUnits="userSpaceOnUse" x1="252.3362" y1="556.7544" x2="183.3362" y2="425.5044" gradientTransform="matrix(0.9146 0 0 -0.9146 -49.8536 684.0549)">
		<stop  offset="0" style="stop-color:#3DDDCB"/>
		<stop  offset="5.434127e-02" style="stop-color:#3AD8C6"/>
		<stop  offset="0.4534" style="stop-color:#29B6A6"/>
		<stop  offset="0.7827" style="stop-color:#1FA192"/>
		<stop  offset="0.9995" style="stop-color:#1B998B"/>
	</linearGradient>
	<path class="st12" d="M172,188c-1.8-0.3-3.8-0.6-5.2-1.9c-0.6-0.6-1.2-1.5-1.2-2.4c0.1-1.6,0.6-3,4.3-3.4
		c11.7-1.1,16.3,5.9,16.3,5.9S175.2,188.5,172,188z"/>
	
		<linearGradient id="SVGID_5_" gradientUnits="userSpaceOnUse" x1="285.6223" y1="539.2554" x2="216.6223" y2="408.0054" gradientTransform="matrix(0.9146 0 0 -0.9146 -49.8536 684.0549)">
		<stop  offset="0" style="stop-color:#3DDDCB"/>
		<stop  offset="5.434127e-02" style="stop-color:#3AD8C6"/>
		<stop  offset="0.4534" style="stop-color:#29B6A6"/>
		<stop  offset="0.7827" style="stop-color:#1FA192"/>
		<stop  offset="0.9995" style="stop-color:#1B998B"/>
	</linearGradient>
	<path class="st13" d="M209.3,195.8c4.4-1.6,8.3-5.1,10.2-9.4c0.7-1.6,1.3-3.3,1.2-5.1c-0.1-1.7-1-3.6-2.6-4.3
		c-1.9-0.9-4.4,0-5.8,1.6c-1.4,1.6-2,3.8-2.4,5.9C209.4,187.3,209.3,195.8,209.3,195.8z"/>
	<path class="st14" d="M175.1,380.8c-13.4-6.5-27-13-40.4-19.6c-7.1-3.5-14.5-7-20-12.8c-11.9-12.3-12.6-32.5-5.6-48.1
		c7-15.6,20.5-27.4,34.6-37.2c14.1-9.8,29.3-18.1,42.1-29.5c8-7.1,15.5-16.5,15.3-27.2c-0.2-6.5-3.3-12.8-8.4-16.8s-12-5.6-18.3-4.2
		"/>
	<path class="st14" d="M213.9,183.4c-0.5,9.9-10.4,18.7-13.4,28"/>
	<path class="st14" d="M175.5,205.3c2.9,1.7,6.2,3,8.9,5c5.8,4.4,8.6,13.4,4,20.7"/>
	<path class="st14" d="M131.5,272.3c11.6,4.7,25.5,6.1,37.7,3.2"/>
	<path class="st14" d="M113.4,291.8c-8-11.7-7.6-28.5,1.1-39.9"/>
</g>
<path class="st15" d="M389.5,151.5c46.8-10.9,98.3-9.6,140.3,13.8c51.1,28.5,80.2,84.1,106,136.6c18.3,37.2,36.6,75.5,41.6,116.6
	c5,41.2-5.4,86.5-36.8,113.7c-23,19.9-53.9,27.6-82.3,38.7c-48.9,19.1-93.4,49.8-144.4,62.2c-48.5,11.8-101.1,5.8-145.6-16.6
	c-41.1-20.6-74.1-53.8-108.8-83.8c-31.7-27.4-66-53.3-89.3-88.3c-23-34.6-33.8-77.8-26.8-118.7c7-41,32.8-78.9,69.8-98
	c16.6-8.6,35.4-14.2,54-16.5C184.7,209.1,342.5,162.4,389.5,151.5z"/>
<g>
	<path class="st16" d="M528.3,190.3h3.5c0.5,0,0.8-0.4,0.8-0.8v-8c0-0.5-0.4-0.8-0.8-0.8h-3.5c-0.1-0.5-0.2-0.8-0.4-1.3l3-1.7
		c0.4-0.3,0.5-0.7,0.3-1.1l-4-7c-0.3-0.4-0.7-0.5-1.1-0.3l-3,1.7c-0.3-0.3-0.6-0.6-0.9-0.9l0,0l1.7-3c0.3-0.4,0.1-0.9-0.3-1.1l-7-4
		c-0.4-0.3-0.9-0.1-1.1,0.3l-1.7,3c-0.5-0.1-0.8-0.3-1.3-0.4l0,0v-3.5c0-0.5-0.4-0.8-0.8-0.8h-8.1c-0.5,0-0.8,0.4-0.8,0.8v3.5l0,0
		c-0.5,0.1-0.8,0.2-1.3,0.4l-1.7-3c-0.3-0.4-0.7-0.5-1.1-0.3l-7,4c-0.4,0.3-0.5,0.7-0.3,1.1l1.7,3l0,0c-0.3,0.3-0.6,0.6-0.9,0.9
		l-3-1.7c-0.4-0.3-0.9-0.1-1.1,0.3l-4,7c-0.3,0.4-0.1,0.9,0.3,1.1l3,1.7c-0.1,0.5-0.3,0.8-0.4,1.3h-3.5c-0.5,0-0.8,0.4-0.8,0.8v8.1
		c0,0.5,0.4,0.8,0.8,0.8h3.5c0.1,0.5,0.2,0.8,0.4,1.3l0,0l-3,1.7c-0.4,0.3-0.5,0.7-0.3,1.1l4,7c0.3,0.4,0.7,0.5,1.1,0.3l3-1.7
		c0.3,0.3,0.6,0.6,0.9,0.9l0,0l-1.7,3c-0.3,0.4-0.1,0.9,0.3,1.1l7,4c0.4,0.3,0.9,0.1,1.1-0.3l1.7-3c0.5,0.1,0.8,0.3,1.3,0.4l0,0v3.5
		c0,0.5,0.4,0.8,0.8,0.8h8.1c0.5,0,0.8-0.4,0.8-0.8v-3.5l0,0c0.5-0.1,0.8-0.2,1.3-0.4l1.7,3c0.3,0.4,0.7,0.5,1.1,0.3l7-4
		c0.4-0.3,0.5-0.7,0.3-1.1l-1.7-3l0,0c0.3-0.3,0.6-0.6,0.9-0.9l3,1.7c0.4,0.3,0.9,0.1,1.1-0.3l4-7c0.3-0.4,0.1-0.9-0.3-1.1l-3-1.7
		l0,0C528.1,191.2,528.2,190.8,528.3,190.3z M509.9,197.1c-8.3,1.6-15.6-5.7-13.9-13.9c0.9-4.7,4.7-8.3,9.3-9.3
		c8.2-1.6,15.5,5.7,13.9,13.9C518.2,192.4,514.6,196.2,509.9,197.1z"/>
</g>
<g>
	<g>
		
			<linearGradient id="SVGID_6_" gradientUnits="userSpaceOnUse" x1="158.7258" y1="358.0225" x2="198.0592" y2="241.3559" gradientTransform="matrix(0.9146 0 0 -0.9146 -49.8536 684.0549)">
			<stop  offset="0" style="stop-color:#3DDDCB"/>
			<stop  offset="5.434127e-02" style="stop-color:#3AD8C6"/>
			<stop  offset="0.4534" style="stop-color:#29B6A6"/>
			<stop  offset="0.7827" style="stop-color:#1FA192"/>
			<stop  offset="0.9995" style="stop-color:#1B998B"/>
		</linearGradient>
		<path class="st17" d="M123.4,432.8c-8.3-7.4-16.7-14.8-23-24.1c-5.4-8-8.9-17.3-13.5-25.7c-3-5.5-6.6-10.8-8.3-16.8
			s-1.4-13.2,2.9-17.7c4.5-4.8,12.2-5.5,18.2-3c6,2.5,10.7,7.6,14.3,13.1c4.7,7.3,7.9,15.6,9.1,24.2c1.2,7.8,0.9,15.7,2.1,23.5
			c1.1,7.2,3.6,14.2,6.7,20.9c2.7,6,9.9,16.7,11.6,23C138.5,452.4,127,436,123.4,432.8z"/>
		<path class="st14" d="M94.3,356.3c8,3.5,11.1,12.9,12.7,21.4c1.9,9.7,1.5,20.1,5.9,29c8.3,16.6,19.2,35.5,27.3,41.1"/>
	</g>
	<g>
		
			<linearGradient id="SVGID_7_" gradientUnits="userSpaceOnUse" x1="129.8778" y1="289.1281" x2="217.8778" y2="236.4614" gradientTransform="matrix(0.9146 0 0 -0.9146 -49.8536 684.0549)">
			<stop  offset="4.200120e-07" style="stop-color:#319188"/>
			<stop  offset="1" style="stop-color:#287870"/>
		</linearGradient>
		<path class="st18" d="M82.4,410.1c-7-2.7-16.2-3.8-20.6,2.1c-3.8,5-1.8,12.1,0.7,17.7c2.2,4.8,4.9,9.7,9.5,12.3
			c3.1,1.7,6.8,2.3,10.3,2.7c10,1.2,19.9,1.7,30,1.7c11.6,0,25.7,4.8,35.3,12C135.4,435.8,105.6,419.3,82.4,410.1z"/>
		<path class="st14" d="M70.2,425c8.8,0.4,17.7,1,26.2,3.5c8.7,2.6,41.9,17.8,47.1,24.3"/>
	</g>
</g>
<g>
	
		<linearGradient id="SVGID_8_" gradientUnits="userSpaceOnUse" x1="809.9798" y1="384.0425" x2="692.313" y2="201.3758" gradientTransform="matrix(0.9146 0 0 -0.9146 -49.8536 684.0549)">
		<stop  offset="0" style="stop-color:#3DDDCB"/>
		<stop  offset="5.434127e-02" style="stop-color:#3AD8C6"/>
		<stop  offset="0.4534" style="stop-color:#29B6A6"/>
		<stop  offset="0.7827" style="stop-color:#1FA192"/>
		<stop  offset="0.9995" style="stop-color:#1B998B"/>
	</linearGradient>
	<path class="st19" d="M603.2,458.2c8.3-13.7,4-31.3,7-47c2.2-12.1,9-23.3,18.6-31c6-4.8,14.5-8.2,21.4-4.7c5.9,3.1,6.6-5.9,6.8-9.5
		c0.5-10.4-1.1-19.8,8-27.1c7.5-5.9,19.7-9.9,29.2-9c2.8,0.3,5.7,1.4,7.6,3.5c3,3.3,3.2,8.3,1.7,12.4c-4.3,12-16.9,20.2-23.6,30.8
		c-3.1,4.8-5.8,10.7-4,16.6c0.9,3,3.9,5.1,4.2,8.1c0.5,4.6-4.7,8.7-8.3,10.4c-4.7,2.2-9.7,3.6-14.7,4.1c-9.9,0.9-12.8,4.7-10.8,14.6
		c1.5,7.4-0.4,12.3-5.8,17.5c-5.5,5.2-11.4,10-17.7,14c-5.1,3.3-10.6,6.2-15.2,10.3c-4.6,4.1-8.2,9.6-8.6,15.7
		c-2.9-4.6-3.8-10.7-3.2-16.2C596.3,466.5,600.4,462.9,603.2,458.2z"/>
	<path class="st14" d="M599.5,480.2c0.8-3.9,1.3-7.3,3.2-11c1.8-3.7,4.2-7,6.3-10.5c5.8-9.6,9.1-20.6,12.2-31.4
		c2.9-10.1,10.3-20.4,17.4-28c5.5-5.9,12.2-10.5,17.7-16.3c3.9-4.1,7.3-8.8,10-13.9c1.5-2.7,2.7-5.7,4.7-8c2.3-2.8,5.5-4.9,8.2-7.4
		c3.8-3.3,6.7-7.4,8.7-12"/>
</g>
<g>
	<path class="st20" d="M698.1,452.6c-2.3,1.3-4.8,2.5-7.2,3.5c-9.5,4-19.8,6.2-30.1,6.7c-15,0.5-30.5-2.7-44.9,1.6
		c-6.6,1.9-12.7,5.5-17.7,10.2c-0.5,0.3-1,0.5-1.5,0.8c-1.2-10.2,24.1-23.4,31.8-26.9c13.9-6.2,29.5-9,44.6-7.8
		c6.7,0.5,13.4,1.8,18.9,5.6C694.7,448,696.8,450.2,698.1,452.6z"/>
	
		<linearGradient id="SVGID_9_" gradientUnits="userSpaceOnUse" x1="706.9624" y1="239.6602" x2="820.4771" y2="239.6602" gradientTransform="matrix(0.9146 0 0 -0.9146 -49.8536 684.0549)">
		<stop  offset="4.200120e-07" style="stop-color:#319188"/>
		<stop  offset="1" style="stop-color:#287870"/>
	</linearGradient>
	<path class="st21" d="M673.4,446.8c6.7,0.5,13.4,1.8,18.9,5.6s9.3,10.5,8,17.1c-1.5,7.6-9.4,12.6-17.1,13.5
		c-7.7,0.9-15.5-1.2-23-2.7c-16.8-3.5-34.2-4.3-51.3-2.4c-4.3,0.5-8.3,1.3-12.1,3.5c-1.2-10.2,24.1-23.4,31.8-26.9
		C642.6,448.3,658.2,445.6,673.4,446.8z"/>
	<path class="st14" d="M603.5,475c12.6-11.1,44.9-18.6,67.8-16.2c6.9,0.7,13.8,2.7,19.1,7.2"/>
</g>
<path class="st20" d="M595.2,554l-464.7,0.9c-6.2,0-11.3-5-11.3-11.2l-0.6-307.9c0-6.2,5-11.3,11.2-11.3l464.7-0.9
	c6.2,0,11.3,5,11.3,11.2l0.6,307.9C606.4,548.9,601.4,554,595.2,554z"/>
<path class="st22" d="M616.5,532.7L616.5,532.7c0,6.2-5,11.2-11.2,11.2L308,544.5l-167.4,0.4c-6.2,0-11.3-5-11.3-11.2l-0.6-307.9
	c0-6.2,5-11.3,11.2-11.3l464.7-0.9c6.2,0,11.3,5,11.3,11.2v12L616.5,532.7z"/>
<path class="st23" d="M603.8,212.5L141,213.4c-6.8,0-12.2,5.5-12.2,12.3v10.6l487.2-1v-10.6C616,218,610.5,212.5,603.8,212.5z"/>
<path class="st1" d="M200,524l-54.5,0.1c-2.2,0-4-1.7-4-3.9v-1.2c0-2.2,1.7-4,3.9-4l54.5-0.1c2.2,0,4,1.7,4,3.9v1.2
	C204.1,522.2,202.2,524,200,524z"/>
<path class="st24" d="M282.6,455.6H140.8c-2.7,0-4.8-2.1-4.8-4.8v-35.5c0-2.7,2.1-4.8,4.8-4.8h141.9c2.7,0,4.8,2.1,4.8,4.8v35.5
	C287.4,453.5,285.3,455.6,282.6,455.6z"/>
<path class="st25" d="M291.6,443.7H149.7c-2.7,0-4.8-2.1-4.8-4.8v-35.5c0-2.7,2.1-4.8,4.8-4.8h141.9c2.7,0,4.8,2.1,4.8,4.8v35.5
	C296.3,441.6,294.1,443.7,291.6,443.7z"/>
<path class="st1" d="M155.6,228.4c0,2.2-1.7,3.9-3.9,3.9c-2.2,0-3.9-1.7-3.9-3.9c0-2.2,1.7-3.9,3.9-3.9
	C153.8,224.4,155.6,226.2,155.6,228.4z"/>
<path class="st1" d="M172.2,228.4c0,2.2-1.7,3.9-3.9,3.9s-3.9-1.7-3.9-3.9c0-2.2,1.7-3.9,3.9-3.9
	C170.5,224.4,172.2,226.2,172.2,228.4z"/>
<path class="st1" d="M188.9,228.3c0,2.2-1.7,3.9-3.9,3.9c-2.2,0-3.9-1.7-3.9-3.9s1.7-3.9,3.9-3.9S188.9,226.1,188.9,228.3z"/>
<path class="st20" d="M275.3,482H103.2c-2.7,0-4.8-2.1-4.8-4.8V444c0-2.7,2.1-4.8,4.8-4.8h172.1c2.7,0,4.8,2.1,4.8,4.8v33.2
	C280,479.9,277.9,482,275.3,482z"/>
<linearGradient id="SVGID_10_" gradientUnits="userSpaceOnUse" x1="210.7234" y1="229.5674" x2="327.4585" y2="277.715" gradientTransform="matrix(0.9146 0 0 -0.9146 -49.8536 684.0549)">
	<stop  offset="0" style="stop-color:#F56D46"/>
	<stop  offset="1" style="stop-color:#F24716"/>
</linearGradient>
<path class="st26" d="M272.2,477.6h-172c-2.7,0-4.8-2.1-4.8-4.8v-33.2c0-2.7,2.1-4.8,4.8-4.8h172c2.7,0,4.8,2.1,4.8,4.8v33.2
	C277,475.4,274.8,477.6,272.2,477.6z"/>
<path class="st25" d="M562.1,478.2H390c-2.7,0-4.8-2.1-4.8-4.8v-90.2c0-2.7,2.1-4.8,4.8-4.8h172c2.7,0,4.8,2.1,4.8,4.8v90.2
	C566.8,476.1,564.7,478.2,562.1,478.2z"/>
<path class="st27" d="M577.7,488.1H405.5c-2.7,0-4.8-2.1-4.8-4.8V383c0-2.7,2.1-4.8,4.8-4.8h172c2.7,0,4.8,2.1,4.8,4.8v100.3
	C582.3,486,580.2,488.1,577.7,488.1z"/>
<path class="st28" d="M192.4,304.4l-41.3,0.1c-1.8,0-3.4-1.5-3.4-3.3v-1c0-1.8,1.5-3.4,3.3-3.4l41.3-0.1c1.8,0,3.4,1.5,3.4,3.3v1
	C195.7,302.8,194.3,304.4,192.4,304.4z"/>
<linearGradient id="SVGID_11_" gradientUnits="userSpaceOnUse" x1="215.9642" y1="344.1833" x2="249.1156" y2="344.1833" gradientTransform="matrix(0.9146 0 0 -0.9146 -49.8536 684.0549)">
	<stop  offset="0" style="stop-color:#F56D46"/>
	<stop  offset="1" style="stop-color:#F24716"/>
</linearGradient>
<path class="st29" d="M174.7,373l-23.6,0.1c-1.8,0-3.4-1.5-3.4-3.3v-1c0-1.8,1.5-3.4,3.3-3.4l23.6-0.1c1.8,0,3.4,1.5,3.4,3.3v1
	C178,371.5,176.5,373,174.7,373z"/>
<path class="st28" d="M245.7,317.8L151,318c-1.8,0-3.4-1.5-3.4-3.3v-1c0-1.8,1.5-3.4,3.3-3.4l94.7-0.2c1.8,0,3.4,1.5,3.4,3.3v1
	C249,316.3,247.5,317.7,245.7,317.8z"/>
<g>
	<path class="st30" d="M275.7,337.2l-126.8,0.3c-0.6,0-1.2-0.5-1.2-1.2v-0.4c0-0.6,0.5-1.2,1.2-1.2l126.8-0.3c0.6,0,1.2,0.5,1.2,1.2
		v0.4C276.9,336.6,276.3,337.2,275.7,337.2z"/>
	<path class="st30" d="M275.7,331.1l-126.8,0.3c-0.6,0-1.2-0.5-1.2-1.2v-0.4c0-0.6,0.5-1.2,1.2-1.2l126.8-0.3c0.6,0,1.2,0.5,1.2,1.2
		v0.4C276.9,330.5,276.3,331.1,275.7,331.1z"/>
	<path class="st30" d="M275.7,343.3l-126.8,0.3c-0.6,0-1.2-0.5-1.2-1.2V342c0-0.6,0.5-1.2,1.2-1.2l126.8-0.3c0.6,0,1.2,0.5,1.2,1.2
		v0.4C276.9,342.8,276.3,343.3,275.7,343.3z"/>
	<path class="st30" d="M275.7,349.5l-126.8,0.3c-0.6,0-1.2-0.5-1.2-1.2v-0.4c0-0.6,0.5-1.2,1.2-1.2l126.8-0.3c0.6,0,1.2,0.5,1.2,1.2
		v0.4C276.9,349,276.3,349.5,275.7,349.5z"/>
	<path class="st30" d="M246.1,355.7l-97.2,0.2c-0.6,0-1.2-0.5-1.2-1.2v-0.4c0-0.6,0.5-1.2,1.2-1.2l97.2-0.2c0.6,0,1.2,0.5,1.2,1.2
		v0.4C247.4,355.1,246.9,355.7,246.1,355.7z"/>
</g>
<g>
	<path class="st30" d="M395.5,514.3l-81.4,0.2c-0.6,0-1.2-0.5-1.2-1.2v-0.4c0-0.6,0.5-1.2,1.2-1.2l81.4-0.2c0.6,0,1.2,0.5,1.2,1.2
		v0.4C396.8,513.7,396.2,514.3,395.5,514.3z"/>
	<path class="st30" d="M395.5,508.1l-81.4,0.2c-0.6,0-1.2-0.5-1.2-1.2v-0.4c0-0.6,0.5-1.2,1.2-1.2l81.4-0.2c0.6,0,1.2,0.5,1.2,1.2
		v0.4C396.8,507.6,396.2,508.1,395.5,508.1z"/>
	<path class="st30" d="M395.6,520.4l-81.4,0.2c-0.6,0-1.2-0.5-1.2-1.2V519c0-0.6,0.5-1.2,1.2-1.2l81.4-0.2c0.6,0,1.2,0.5,1.2,1.2
		v0.4C396.8,519.8,396.2,520.4,395.6,520.4z"/>
	<path class="st30" d="M395.6,526.6l-81.4,0.2c-0.6,0-1.2-0.5-1.2-1.2v-0.4c0-0.6,0.5-1.2,1.2-1.2l81.4-0.2c0.6,0,1.2,0.5,1.2,1.2
		v0.4C396.8,526.1,396.2,526.6,395.6,526.6z"/>
	<path class="st30" d="M376.4,532.7l-62.2,0.1c-0.6,0-1.2-0.5-1.2-1.2v-0.4c0-0.6,0.5-1.2,1.2-1.2l62.2-0.1c0.6,0,1.2,0.5,1.2,1.2
		v0.4C377.7,532.2,377.1,532.7,376.4,532.7z"/>
</g>
<g>
	<path class="st30" d="M489.1,514.4l-81.4,0.2c-0.6,0-1.2-0.5-1.2-1.2V513c0-0.6,0.5-1.2,1.2-1.2l81.4-0.2c0.6,0,1.2,0.5,1.2,1.2
		v0.4C490.3,513.8,489.8,514.4,489.1,514.4z"/>
	<path class="st30" d="M489.1,508.1l-81.4,0.2c-0.6,0-1.2-0.5-1.2-1.2v-0.4c0-0.6,0.5-1.2,1.2-1.2l81.4-0.2c0.6,0,1.2,0.5,1.2,1.2
		v0.4C490.3,507.6,489.8,508.1,489.1,508.1z"/>
	<path class="st30" d="M489.1,520.5l-81.4,0.2c-0.6,0-1.2-0.5-1.2-1.2v-0.4c0-0.6,0.5-1.2,1.2-1.2l81.4-0.2c0.6,0,1.2,0.5,1.2,1.2
		v0.4C490.3,519.9,489.9,520.5,489.1,520.5z"/>
	<path class="st30" d="M489.1,526.6l-81.4,0.2c-0.6,0-1.2-0.5-1.2-1.2v-0.4c0-0.6,0.5-1.2,1.2-1.2l81.4-0.2c0.6,0,1.2,0.5,1.2,1.2
		v0.4C490.4,526.1,489.9,526.6,489.1,526.6z"/>
	<path class="st30" d="M470,532.7l-62.2,0.1c-0.6,0-1.2-0.5-1.2-1.2v-0.4c0-0.6,0.5-1.2,1.2-1.2L470,530c0.6,0,1.2,0.5,1.2,1.2v0.4
		C471.2,532.2,470.7,532.7,470,532.7z"/>
</g>
<g>
	<path class="st30" d="M582.8,514.4l-81.4,0.2c-0.6,0-1.2-0.5-1.2-1.2V513c0-0.6,0.5-1.2,1.2-1.2l81.4-0.2c0.6,0,1.2,0.5,1.2,1.2
		v0.4C584,513.8,583.4,514.4,582.8,514.4z"/>
	<path class="st30" d="M582.8,508.1l-81.4,0.2c-0.6,0-1.2-0.5-1.2-1.2v-0.4c0-0.6,0.5-1.2,1.2-1.2l81.4-0.2c0.6,0,1.2,0.5,1.2,1.2
		v0.4C584,507.6,583.4,508.1,582.8,508.1z"/>
	<path class="st30" d="M582.8,520.5l-81.4,0.2c-0.6,0-1.2-0.5-1.2-1.2v-0.4c0-0.6,0.5-1.2,1.2-1.2l81.4-0.2c0.6,0,1.2,0.5,1.2,1.2
		v0.4C584,519.9,583.4,520.5,582.8,520.5z"/>
	<path class="st30" d="M582.8,526.6l-81.4,0.2c-0.6,0-1.2-0.5-1.2-1.2v-0.4c0-0.6,0.5-1.2,1.2-1.2l81.4-0.2c0.6,0,1.2,0.5,1.2,1.2
		v0.4C584,526.1,583.4,526.6,582.8,526.6z"/>
	<path class="st30" d="M563.7,532.7l-62.2,0.1c-0.6,0-1.2-0.5-1.2-1.2v-0.4c0-0.6,0.5-1.2,1.2-1.2l62.2-0.1c0.6,0,1.2,0.5,1.2,1.2
		v0.4C564.9,532.2,564.3,532.7,563.7,532.7z"/>
</g>
<g>
	<path class="st30" d="M175,530.9l-26.1,0.1c-0.6,0-1.2-0.5-1.2-1.2v-0.4c0-0.6,0.5-1.2,1.2-1.2l26.1-0.1c0.6,0,1.2,0.5,1.2,1.2v0.4
		C176.3,530.4,175.7,530.9,175,530.9z"/>
	<path class="st30" d="M214.3,530.9l-26.1,0.1c-0.6,0-1.2-0.5-1.2-1.2v-0.4c0-0.6,0.5-1.2,1.2-1.2l26.1-0.1c0.6,0,1.2,0.5,1.2,1.2
		v0.4C215.5,530.4,214.9,530.9,214.3,530.9z"/>
	<path class="st30" d="M253.6,530.9l-26.1,0.1c-0.6,0-1.2-0.5-1.2-1.2v-0.4c0-0.6,0.5-1.2,1.2-1.2l26.1-0.1c0.6,0,1.2,0.5,1.2,1.2
		v0.4C254.8,530.4,254.3,530.9,253.6,530.9z"/>
	<path class="st30" d="M292.9,530.9l-26.1,0.1c-0.6,0-1.2-0.5-1.2-1.2v-0.4c0-0.6,0.5-1.2,1.2-1.2l26.1-0.1c0.6,0,1.2,0.5,1.2,1.2
		v0.4C294.1,530.4,293.6,530.9,292.9,530.9z"/>
</g>
<g>
	<path class="st1" d="M255.4,463.5H117c-4,0-7.3-3.3-7.3-7.3l0,0c0-4,3.3-7.3,7.3-7.3h138.4c4,0,7.3,3.3,7.3,7.3l0,0
		C262.7,460.2,259.4,463.5,255.4,463.5z"/>
	<ellipse class="st1" cx="246.5" cy="456.2" rx="16.1" ry="16.1"/>
	<line class="st31" x1="118.2" y1="452.9" x2="118.2" y2="459.7"/>
	<g>
		<path class="st32" d="M250.8,455.5c0,2.9-2.4,5.2-5.2,5.2s-5.2-2.4-5.2-5.2c0-2.9,2.4-5.2,5.2-5.2S250.8,452.5,250.8,455.5z"/>
		<line class="st33" x1="252.7" y1="462.2" x2="249.1" y2="459.2"/>
	</g>
</g>
<path class="st20" d="M519.5,415.9L519.5,415.9c0,2.7-2,4.9-4.6,4.9l-121.3,0.2l-68.2,0.2c-2.6,0-4.6-2.2-4.6-4.8l-0.3-134.2
	c0-2.7,2-4.9,4.6-4.9l189.6-0.5c2.6,0,4.6,2.2,4.6,4.8v5.2L519.5,415.9z"/>
<linearGradient id="SVGID_12_" gradientUnits="userSpaceOnUse" x1="399.5067" y1="374.6833" x2="615.5323" y2="374.6833" gradientTransform="matrix(0.9146 0 0 -0.9146 -49.8536 684.0549)">
	<stop  offset="1.801890e-02" style="stop-color:#FFEA9B"/>
	<stop  offset="0.9712" style="stop-color:#FFF1BD"/>
</linearGradient>
<path class="st34" d="M513.2,408.2L513.2,408.2c0,2.7-2,4.9-4.6,4.9l-121.3,0.3l-68.2,0.2c-2.6,0-4.6-2.2-4.6-4.8l-0.3-134.2
	c0-2.7,2-4.9,4.6-4.9l189.6-0.5c2.6,0,4.6,2.2,4.6,4.8v5.2L513.2,408.2z"/>
<polyline class="st35" points="499.5,401.4 327.9,401.4 327.9,285.2 "/>
<linearGradient id="SVGID_13_" gradientUnits="userSpaceOnUse" x1="413.0067" y1="364.8333" x2="598.9067" y2="364.8333" gradientTransform="matrix(0.9146 0 0 -0.9146 -49.8536 684.0549)">
	<stop  offset="0" style="stop-color:#FFFFFF"/>
	<stop  offset="1" style="stop-color:#FFFFFF;stop-opacity:0"/>
</linearGradient>
<polygon class="st36" points="327.9,368.3 371.5,322.7 382.7,340.8 399.2,299.4 410.9,333.8 425.1,311.3 444.8,352.9 481.5,311 
	497.9,345.9 497.9,401.3 327.9,401.3 "/>
<linearGradient id="SVGID_14_" gradientUnits="userSpaceOnUse" x1="505.9567" y1="397.5431" x2="505.9567" y2="310.0915" gradientTransform="matrix(0.9146 0 0 -0.9146 -49.8536 684.0549)">
	<stop  offset="0" style="stop-color:#FFFFFF"/>
	<stop  offset="1" style="stop-color:#FFFFFF;stop-opacity:0"/>
</linearGradient>
<polygon class="st37" points="327.9,353.8 376.2,375.2 412.1,302.2 431.7,353.8 464,320.2 497.9,357 497.9,401.3 327.9,401.3 "/>
<line class="st35" x1="472" y1="283.2" x2="496.6" y2="283.2"/>
<line class="st35" x1="472" y1="287.3" x2="496.6" y2="287.3"/>
<line class="st35" x1="472" y1="291.4" x2="496.6" y2="291.4"/>
<line class="st35" x1="455.9" y1="283.2" x2="467.1" y2="283.2"/>
<line class="st35" x1="455.9" y1="287.3" x2="467.1" y2="287.3"/>
<line class="st35" x1="455.9" y1="291.4" x2="467.1" y2="291.4"/>
<path class="st35" d="M338,334.5c6.8,3.4,11,10.2,14.2,17.1c3.2,6.9,5.9,14.2,10.9,19.8c5,5.6,13.4,9.1,20.3,5.9
	c6-2.8,9-9.6,11.2-15.9c6.4-18.4,11.1-37.3,14.2-56.5c0.5-2.8,0.9-5.8,2.3-8.3s3.9-4.7,6.8-4.8c3.4-0.1,6.1,2.7,8.3,5.2
	c14.4,17.6,20.6,40.3,32.8,59.5c2.4,3.8,5.6,7.7,10,8.1c3.6,0.4,6.9-1.6,9.8-3.7c8.6-6.1,16.2-13.7,22.3-22.2"/>
<g>
	<path class="st1" d="M339.4,333.9c0,0.7-0.5,1.3-1.3,1.3s-1.3-0.5-1.3-1.3c0-0.7,0.5-1.3,1.3-1.3
		C338.8,332.6,339.4,333.2,339.4,333.9z"/>
	<path class="st1" d="M360.1,365.5c0,0.7-0.5,1.3-1.3,1.3s-1.3-0.5-1.3-1.3s0.5-1.3,1.3-1.3C359.5,364.2,360.1,364.8,360.1,365.5z"
		/>
	<circle class="st1" cx="405.9" cy="319.7" r="1.3"/>
	<path class="st1" d="M403.7,334.5c0,0.7-0.5,1.3-1.3,1.3s-1.3-0.5-1.3-1.3s0.5-1.3,1.3-1.3S403.7,333.8,403.7,334.5z"/>
	<path class="st1" d="M502.2,339.1c0,0.7-0.5,1.3-1.3,1.3c-0.7,0-1.3-0.5-1.3-1.3s0.5-1.3,1.3-1.3
		C501.7,337.7,502.2,338.4,502.2,339.1z"/>
	<path class="st1" d="M492.9,349.7c0,0.7-0.5,1.3-1.3,1.3c-0.7,0-1.3-0.5-1.3-1.3c0-0.7,0.5-1.3,1.3-1.3
		C492.3,348.4,492.9,349,492.9,349.7z"/>
	<path class="st1" d="M399.8,349.1c0,0.7-0.5,1.3-1.3,1.3c-0.7,0-1.3-0.5-1.3-1.3s0.5-1.3,1.3-1.3
		C399.1,347.7,399.8,348.4,399.8,349.1z"/>
	<path class="st1" d="M449.6,337.2c0,0.7-0.5,1.3-1.3,1.3c-0.7,0-1.3-0.5-1.3-1.3s0.5-1.3,1.3-1.3
		C449.1,335.9,449.6,336.5,449.6,337.2z"/>
</g>
<line class="st38" x1="415.2" y1="269.1" x2="415.2" y2="118.3"/>
<circle class="st24" cx="344.8" cy="458.4" r="27.6"/>
<circle class="st1" cx="344.8" cy="458.4" r="11.9"/>
<polygon class="st1" points="354.9,428.3 344,458.4 378.9,450.2 "/>
<g class="st4">
	<g>
		<g>
			<path class="st39" d="M582.7,374.2c-2.7,0-5.9,0-9.8,0c-1,0-2-0.1-2.9,0.3c-0.9,0.4-1.8,1.1-2.3,2.1c-0.3,0.5-0.5,1-0.5,1.6
				c-0.1,0.5-0.1,1.1-0.1,1.7c0,0.5,0,1.2,0,1.8s0,1.3-0.1,1.8c-0.3,1.3-1,2.5-2.2,3.1c-0.5,0.4-1.2,0.6-1.9,0.6
				c-0.7,0.1-1.4,0-2.1,0c-2.7,0-5.7,0-8.8,0c-6.1,0-12.7,0-19.8,0c-1.7,0-3.6,0-5.4,0c-0.5,0-0.9,0-1.4,0c-0.5,0-0.9,0-1.5-0.2
				c-0.9-0.3-1.8-0.7-2.5-1.5c-0.6-0.7-1.1-1.6-1.2-2.7c-0.1-0.5-0.1-1-0.1-1.5c0-0.5,0-1,0-1.5c0-1,0.1-2-0.3-2.9
				c-0.3-0.9-0.9-1.7-1.7-2.3s-1.8-0.8-2.8-0.7c-1,0-2,0-3.1,0c-2.1,0-4.2,0-6.3,0c-4.3,0-8.7,0-13.2,0c-2.2,0-4.5,0.3-6.6,1.3
				c-2.1,0.9-3.9,2.3-5.5,4.1c-1.5,1.7-2.6,3.9-3.1,6.2c-0.2,0.5-0.2,1.2-0.3,1.7c0,0.5-0.1,1-0.1,1.5v98c0,1.3,0,2.6,0,3.9
				c0,3.9,0,8,0,12v127.2c0,1.6,0.1,3.2,0.6,4.8c1,3.2,3,6.1,5.9,8c2.8,1.9,6.2,2.8,9.6,2.7c3.4,0,6.8,0,10.2,0c6.8,0,13.4,0,20.1,0
				c13.4,0,26.5,0,39.4,0c6.5,0,12.9,0,19.2,0c3.2,0,6.3,0.1,9.4,0c3.1-0.2,6.1-1.4,8.5-3.3c1.2-1,2.2-2.1,3-3.4
				c0.8-1.3,1.5-2.7,1.8-4.1c0.5-1.5,0.5-2.9,0.5-4.5c0-1.6,0-3,0-4.6c0-6,0-12.1,0-18c0-47.5,0.1-90.2,0.1-126s0.1-64.9,0.1-85
				c0-2.5,0-4.8,0-7.1c0-2.2-0.4-4.3-1.1-6c-0.7-1.8-1.7-3.3-2.8-4.5c-1.1-1.2-2.3-2.1-3.4-2.7c-2.3-1.4-4.3-1.8-5.6-2
				c-0.6-0.1-1.2-0.1-1.6-0.2c-0.4,0-0.5,0-0.5,0s-0.7,0-2,0C587.4,374.2,585.4,374.2,582.7,374.2z"/>
		</g>
	</g>
</g>
<g>
	<g>
		<g>
			<path class="st22" d="M579.1,370.6c-2.7,0-5.9,0-9.8,0c-1,0-2-0.1-2.9,0.3s-1.8,1.1-2.3,2.1c-0.3,0.5-0.5,1-0.5,1.6
				c-0.1,0.5-0.1,1.1-0.1,1.7c0,0.5,0,1.2,0,1.8c0,0.6,0,1.3-0.1,1.8c-0.3,1.3-1,2.5-2.2,3.1c-0.5,0.4-1.2,0.6-1.9,0.6
				c-0.7,0.1-1.4,0-2.1,0c-2.7,0-5.7,0-8.8,0c-6.1,0-12.7,0-19.8,0c-1.7,0-3.6,0-5.4,0c-0.5,0-0.9,0-1.4,0c-0.5,0-0.9,0-1.5-0.2
				c-0.9-0.3-1.8-0.7-2.5-1.5c-0.6-0.7-1.1-1.6-1.2-2.7c-0.1-0.5-0.1-1-0.1-1.5s0-1,0-1.5c0-1,0.1-2-0.3-2.9
				c-0.3-0.9-0.9-1.7-1.7-2.3c-0.8-0.5-1.8-0.8-2.8-0.7c-1,0-2,0-3.1,0c-2.1,0-4.2,0-6.3,0c-4.3,0-8.7,0-13.2,0
				c-2.2,0-4.5,0.3-6.6,1.3c-2.1,0.9-3.9,2.3-5.5,4.1c-1.5,1.7-2.6,3.9-3.1,6.2c-0.2,0.5-0.2,1.2-0.3,1.7c0,0.5-0.1,1-0.1,1.5v98
				c0,1.3,0,2.6,0,3.9c0,3.9,0,8,0,12v127.2c0,1.6,0.1,3.2,0.6,4.8c1,3.2,3,6.1,5.9,8c2.8,1.9,6.2,2.8,9.6,2.7c3.4,0,6.8,0,10.2,0
				c6.8,0,13.4,0,20.1,0c13.4,0,26.5,0,39.4,0c6.5,0,12.9,0,19.2,0c3.2,0,6.3,0.1,9.4,0c3.1-0.2,6.1-1.4,8.5-3.3
				c1.2-1,2.2-2.1,3-3.4c0.8-1.3,1.5-2.7,1.8-4.1c0.5-1.5,0.5-2.9,0.5-4.5s0-3,0-4.6c0-6,0-12.1,0-18c0-47.5,0.1-90.2,0.1-126
				s0.1-64.9,0.1-85c0-2.5,0-4.8,0-7.1c0-2.2-0.4-4.3-1.1-6c-0.7-1.8-1.7-3.3-2.8-4.5c-1.1-1.2-2.3-2.1-3.4-2.7
				c-2.3-1.4-4.3-1.8-5.6-2c-0.6-0.1-1.2-0.1-1.6-0.2c-0.4,0-0.5,0-0.5,0s-0.7,0-2,0C583.7,370.6,581.7,370.6,579.1,370.6z"/>
		</g>
	</g>
</g>
<g>
	<g>
		<g>
			<g>
				
					<rect x="488.7" y="452.5" transform="matrix(5.572783e-03 -1 1 5.572783e-03 29.9166 963.0112)" class="st27" width="20.9" height="27.9"/>
			</g>
		</g>
	</g>
	<g class="st40">
		<g>
			<g>
				<path class="st1" d="M485.2,476.9l9.2-12.2c0.3-0.4,0.9-0.4,1.2,0l4.8,6.6c0.3,0.4,0.8,0.5,1.2,0.1l2.9-3c0.3-0.4,0.8-0.3,1.1,0
					l7.4,8.7L485.2,476.9z"/>
			</g>
		</g>
	</g>
	<g class="st41">
		<g class="st42">
			<g>
				<g>
					<g>
						<path class="st1" d="M503.6,462.3c0,1.2-1,2.2-2.2,2.2c-1.2,0-2.2-1-2.2-2.2s1-2.2,2.2-2.2
							C502.7,460.1,503.6,461.1,503.6,462.3z"/>
					</g>
				</g>
			</g>
		</g>
	</g>
</g>
<g>
	<line class="st43" x1="579.5" y1="395" x2="588" y2="395"/>
	<line class="st43" x1="579.5" y1="398.3" x2="588" y2="398.3"/>
	<line class="st43" x1="579.5" y1="401.5" x2="588" y2="401.5"/>
</g>
<path class="st1" d="M178.4,610.3c-9.8,12.7-7.5,30.9,5.2,40.8c12.7,9.8,30.9,7.5,40.8-5.2c9.8-12.7,7.5-30.9-5.2-40.8
	S188.3,597.6,178.4,610.3z"/>
<path class="st44" d="M577.7,425.1c0.3-0.3,0.6-0.5,1.1-0.7c0.4-0.2,0.8-0.3,1.3-0.3c0.5,0,0.8,0.1,1.3,0.3c0.4,0.2,0.7,0.4,1.1,0.7
	c0.4,0.4,0.5,0.6,0.7,1.1l0,0c0.2,0.4,0.3,0.8,0.3,1.3s-0.1,0.8-0.3,1.3c-0.1,0.4-0.4,0.6-0.5,0.9l0.3,0.3c0.2,0,0.4,0,0.5,0.1
	l1.1,1.1c0.2,0.2,0.2,0.5,0,0.6c-0.2,0.2-0.5,0.2-0.6,0l-1.1-1.1c-0.1-0.1-0.2-0.3-0.1-0.5l-0.3-0.3c-0.3,0.3-0.5,0.5-0.9,0.5l0,0
	c-0.4,0.2-0.8,0.3-1.3,0.3c-0.5,0-0.8-0.1-1.3-0.3c-0.4-0.2-0.7-0.4-1.1-0.7c-0.3-0.3-0.5-0.6-0.7-1.1c-0.2-0.4-0.3-0.8-0.3-1.3
	c0-0.5,0.1-0.8,0.3-1.3C577.1,425.7,577.3,425.4,577.7,425.1L577.7,425.1z M580,424.7c-0.4,0-0.7,0.1-1,0.2l0,0
	c-0.3,0.1-0.6,0.4-0.9,0.5c-0.3,0.3-0.5,0.5-0.5,0.9c-0.1,0.4-0.2,0.6-0.2,1c0,0.4,0.1,0.7,0.2,1l0,0c0.1,0.3,0.4,0.6,0.5,0.9
	c0.3,0.3,0.5,0.5,0.9,0.5c0.4,0.2,0.6,0.2,1,0.2c0.4,0,0.7-0.1,1-0.2l0,0c0.3-0.1,0.6-0.4,0.9-0.5c0.3-0.3,0.5-0.5,0.5-0.9
	c0.1-0.4,0.2-0.6,0.2-1c0-0.4-0.1-0.7-0.2-1l0,0c-0.1-0.3-0.4-0.6-0.5-0.9c-0.3-0.3-0.5-0.5-0.9-0.5
	C580.7,424.8,580.3,424.7,580,424.7z"/>
<path class="st43" d="M581.3,438.4h-88c-4.8,0-8.6-3.8-8.6-8.6v-2.9c0-4.8,3.8-8.6,8.6-8.6h88c4.8,0,8.6,3.8,8.6,8.6v2.9
	C589.9,434.6,586.1,438.4,581.3,438.4z"/>
<path class="st44" d="M494.5,397.1L494.5,397.1l-4.1-4.1c-0.2-0.2-0.4-0.3-0.6-0.3s-0.5,0.1-0.6,0.3l-4.1,4.1l0,0
	c-0.4,0.4-0.4,0.9,0,1.3c0.2,0.2,0.4,0.3,0.6,0.3l0,0h0.2v3c0,0.6,0.5,1.1,1.1,1.1h1.6c0.2,0,0.3-0.1,0.3-0.3v-2.4
	c0-0.3,0.2-0.5,0.5-0.5h0.9c0.3,0,0.5,0.2,0.5,0.5v2.4c0,0.2,0.1,0.3,0.3,0.3h1.6c0.6,0,1.1-0.5,1.1-1.1v-3h0.2
	c0.3,0,0.5-0.1,0.6-0.3C494.9,398,494.9,397.5,494.5,397.1z M494.1,398c-0.1,0.1-0.2,0.1-0.3,0.1h-0.5c-0.2,0-0.3,0.1-0.3,0.3v3.3
	c0,0.3-0.2,0.5-0.5,0.5h-1.3V400c0-0.6-0.5-1.1-1.1-1.1h-0.9c-0.6,0-1.1,0.5-1.1,1.1v2.1H487c-0.3,0-0.5-0.2-0.5-0.5v-3.3
	c0-0.2-0.1-0.3-0.3-0.3h-0.5l0,0c-0.1,0-0.2,0-0.3-0.1s-0.1-0.4,0-0.5l0,0l0,0l4.1-4.1c0.1-0.1,0.2-0.1,0.3-0.1c0.1,0,0.2,0,0.3,0.1
	l4.1,4.1l0,0C494.3,397.7,494.3,397.8,494.1,398z"/>
<text transform="matrix(1 0 0 1 494.5127 432.043)" class="st44 st45 st46">text</text>
<rect x="522.3" y="455.8" class="st47" width="33.8" height="0.9"/>
<rect x="522.3" y="462.2" class="st44" width="67.7" height="0.9"/>
<rect x="522.3" y="466.8" class="st44" width="42.7" height="0.9"/>
<rect x="522.3" y="472.3" class="st44" width="57.4" height="0.9"/>
<circle class="st48" cx="502.5" cy="461.6" r="2.1"/>
<g>
	<g>
		<g>
			<g>
				
					<rect x="488.7" y="452.5" transform="matrix(5.572783e-03 -1 1 5.572783e-03 29.9166 963.0112)" class="st27" width="20.9" height="27.9"/>
			</g>
		</g>
	</g>
	<g class="st40">
		<g>
			<g>
				<path class="st1" d="M485.2,476.9l9.2-12.2c0.3-0.4,0.9-0.4,1.2,0l4.8,6.6c0.3,0.4,0.8,0.5,1.2,0.1l2.9-3c0.3-0.4,0.8-0.3,1.1,0
					l7.4,8.7L485.2,476.9z"/>
			</g>
		</g>
	</g>
	<g class="st41">
		<g class="st42">
			<g>
				<g>
					<g>
						<path class="st1" d="M503.6,462.3c0,1.2-1,2.2-2.2,2.2c-1.2,0-2.2-1-2.2-2.2s1-2.2,2.2-2.2
							C502.7,460.1,503.6,461.1,503.6,462.3z"/>
					</g>
				</g>
			</g>
		</g>
	</g>
</g>
<rect x="522.3" y="455.8" class="st47" width="33.8" height="0.9"/>
<rect x="522.3" y="462.2" class="st44" width="67.7" height="0.9"/>
<rect x="522.3" y="466.8" class="st44" width="42.7" height="0.9"/>
<rect x="522.3" y="472.3" class="st44" width="57.4" height="0.9"/>
<circle class="st48" cx="502.5" cy="461.6" r="2.1"/>
<g>
	<g>
		<g>
			<g>
				
					<rect x="488.8" y="489.5" transform="matrix(5.572783e-03 -1 1 5.572783e-03 -6.9582 999.8489)" class="st27" width="20.9" height="27.9"/>
			</g>
		</g>
	</g>
	<g class="st40">
		<g>
			<g>
				<path class="st1" d="M485.2,513.8l9.2-12.2c0.3-0.4,0.9-0.4,1.2,0l4.8,6.6c0.3,0.4,0.8,0.5,1.2,0.1l2.9-3c0.3-0.4,0.8-0.3,1.1,0
					l7.4,8.7L485.2,513.8z"/>
			</g>
		</g>
	</g>
	<g class="st41">
		<g class="st42">
			<g>
				<g>
					<g>
						<path class="st1" d="M503.6,499.3c0,1.2-1,2.2-2.2,2.2c-1.2,0-2.2-1-2.2-2.2c0-1.2,1-2.2,2.2-2.2
							C502.7,497.1,503.6,498.1,503.6,499.3z"/>
					</g>
				</g>
			</g>
		</g>
	</g>
</g>
<rect x="522.3" y="492.8" class="st47" width="33.8" height="0.9"/>
<rect x="522.3" y="499.2" class="st44" width="67.7" height="0.9"/>
<rect x="522.3" y="503.8" class="st44" width="42.7" height="0.9"/>
<rect x="522.3" y="509.2" class="st44" width="57.4" height="0.9"/>
<circle class="st48" cx="502.5" cy="498.5" r="2.1"/>
<g>
	<g>
		<g>
			<g>
				
					<rect x="488.8" y="526.4" transform="matrix(5.572783e-03 -1 1 5.572783e-03 -43.9235 1036.5948)" class="st27" width="20.9" height="27.9"/>
			</g>
		</g>
	</g>
	<g class="st40">
		<g>
			<g>
				<path class="st1" d="M485.2,550.8l9.2-12.2c0.3-0.4,0.9-0.4,1.2,0l4.8,6.6c0.3,0.4,0.8,0.5,1.2,0.1l2.9-3c0.3-0.4,0.8-0.3,1.1,0
					l7.4,8.7L485.2,550.8z"/>
			</g>
		</g>
	</g>
	<g class="st41">
		<g class="st42">
			<g>
				<g>
					<g>
						<path class="st1" d="M503.6,536.2c0,1.2-1,2.2-2.2,2.2c-1.2,0-2.2-1-2.2-2.2c0-1.2,1-2.2,2.2-2.2
							C502.7,534,503.6,535,503.6,536.2z"/>
					</g>
				</g>
			</g>
		</g>
	</g>
</g>
<rect x="522.3" y="529.7" class="st47" width="33.8" height="0.9"/>
<rect x="522.3" y="536.1" class="st44" width="67.7" height="0.9"/>
<rect x="522.3" y="540.7" class="st44" width="42.7" height="0.9"/>
<rect x="522.3" y="546.2" class="st44" width="57.4" height="0.9"/>
<circle class="st48" cx="502.5" cy="535.5" r="2.1"/>
<g>
	<g>
		<g>
			<g>
				
					<rect x="488.8" y="563.4" transform="matrix(5.572783e-03 -1 1 5.572783e-03 -80.8888 1073.3405)" class="st27" width="20.9" height="27.9"/>
			</g>
		</g>
	</g>
	<g class="st40">
		<g>
			<g>
				<path class="st1" d="M485.2,587.7l9.2-12.2c0.3-0.4,0.9-0.4,1.2,0l4.8,6.6c0.3,0.4,0.8,0.5,1.2,0.1l2.9-3c0.3-0.4,0.8-0.3,1.1,0
					l7.4,8.7L485.2,587.7z"/>
			</g>
		</g>
	</g>
	<g class="st41">
		<g class="st42">
			<g>
				<g>
					<g>
						<path class="st1" d="M503.6,573.2c0,1.2-1,2.2-2.2,2.2c-1.2,0-2.2-1-2.2-2.2c0-1.2,1-2.2,2.2-2.2
							C502.7,571,503.6,572,503.6,573.2z"/>
					</g>
				</g>
			</g>
		</g>
	</g>
</g>
<circle class="st48" cx="502.5" cy="572.4" r="2.1"/>
<g>
	<g>
		<g>
			<g>
				
					<rect x="488.7" y="600.4" transform="matrix(5.572783e-03 -1 1 5.572783e-03 -117.8541 1110.0863)" class="st27" width="20.9" height="27.9"/>
			</g>
		</g>
	</g>
	<g class="st40">
		<g>
			<g>
				<path class="st1" d="M485.2,624.7l9.2-12.2c0.3-0.4,0.9-0.4,1.2,0l4.8,6.6c0.3,0.4,0.8,0.5,1.2,0.1l2.9-3c0.3-0.4,0.8-0.3,1.1,0
					l7.4,8.7L485.2,624.7z"/>
			</g>
		</g>
	</g>
	<g class="st41">
		<g class="st42">
			<g>
				<g>
					<g>
						<path class="st1" d="M503.6,610.1c0,1.2-1,2.2-2.2,2.2c-1.2,0-2.2-1-2.2-2.2c0-1.2,1-2.2,2.2-2.2
							C502.7,607.9,503.6,608.9,503.6,610.1z"/>
					</g>
				</g>
			</g>
		</g>
	</g>
</g>
<rect x="522.3" y="603.6" class="st47" width="33.8" height="0.9"/>
<rect x="522.3" y="610" class="st44" width="67.7" height="0.9"/>
<rect x="522.3" y="614.6" class="st44" width="42.7" height="0.9"/>
<rect x="522.3" y="620.1" class="st44" width="57.4" height="0.9"/>
<circle class="st48" cx="502.5" cy="609.4" r="2.1"/>
<g>
	<path class="st1" d="M568.9,488.8h123.9c3.4,0,6.1,2.7,6.1,6.1v31.8c0,3.4-2.7,6.1-6.1,6.1H568.9c-3.4,0-6.1-2.7-6.1-6.1v-31.8
		C562.8,491.5,565.5,488.8,568.9,488.8z"/>
	<g>
		
			<linearGradient id="SVGID_15_" gradientUnits="userSpaceOnUse" x1="778.6146" y1="189.3333" x2="810.2991" y2="189.3333" gradientTransform="matrix(0.9146 0 0 -0.9146 -49.8536 684.0549)">
			<stop  offset="0" style="stop-color:#F56D46"/>
			<stop  offset="1" style="stop-color:#F24716"/>
		</linearGradient>
		<path class="st49" d="M676.8,525.3c8,0,14.5-6.5,14.5-14.5s-6.5-14.5-14.5-14.5s-14.5,6.5-14.5,14.5
			C662.3,518.8,668.8,525.3,676.8,525.3z"/>
		<path class="st1" d="M669.4,513.4c-0.5-0.5-0.5-1.6,0-2.1c0.6-0.6,1.6-0.6,2.2,0l3.2,3.2l7-10.3c0.5-0.7,1.4-0.9,2.1-0.4
			c0.7,0.5,0.9,1.4,0.4,2.1l-8,11.8c-0.1,0.1-0.2,0.2-0.3,0.3c-0.6,0.5-1.6,0.5-2.2,0L669.4,513.4z"/>
	</g>
	<g>
		<line class="st50" x1="650.2" y1="505.5" x2="575.9" y2="505.5"/>
		<line class="st50" x1="650.2" y1="516.2" x2="602.1" y2="516.2"/>
		<line class="st50" x1="594.6" y1="516.2" x2="589.4" y2="516.2"/>
	</g>
</g>
<g>
	
		<linearGradient id="SVGID_16_" gradientUnits="userSpaceOnUse" x1="782.2274" y1="156.2858" x2="715.2274" y2="43.5358" gradientTransform="matrix(0.9146 0 0 -0.9146 -49.8536 684.0549)">
		<stop  offset="0" style="stop-color:#3DDDCB"/>
		<stop  offset="5.434127e-02" style="stop-color:#3AD8C6"/>
		<stop  offset="0.4534" style="stop-color:#29B6A6"/>
		<stop  offset="0.7827" style="stop-color:#1FA192"/>
		<stop  offset="0.9995" style="stop-color:#1B998B"/>
	</linearGradient>
	<path class="st51" d="M664.9,544.1c0.9,0,1.8,0.4,2.3,1.1c0.4,0.6,0.3,1.5-0.2,2c-3.6,4-10.8,1.1-10.8,1.1S658.4,544.1,664.9,544.1
		z"/>
	
		<linearGradient id="SVGID_17_" gradientUnits="userSpaceOnUse" x1="769.3668" y1="163.928" x2="702.3668" y2="51.178" gradientTransform="matrix(0.9146 0 0 -0.9146 -49.8536 684.0549)">
		<stop  offset="0" style="stop-color:#3DDDCB"/>
		<stop  offset="5.434127e-02" style="stop-color:#3AD8C6"/>
		<stop  offset="0.4534" style="stop-color:#29B6A6"/>
		<stop  offset="0.7827" style="stop-color:#1FA192"/>
		<stop  offset="0.9995" style="stop-color:#1B998B"/>
	</linearGradient>
	<path class="st52" d="M651.2,539.5c-4.5-4.8-7.6,6.1-5.7,11.1C645.5,550.6,655.2,543.6,651.2,539.5z"/>
	
		<linearGradient id="SVGID_18_" gradientUnits="userSpaceOnUse" x1="785.701" y1="154.2216" x2="718.701" y2="41.4716" gradientTransform="matrix(0.9146 0 0 -0.9146 -49.8536 684.0549)">
		<stop  offset="0" style="stop-color:#3DDDCB"/>
		<stop  offset="5.434127e-02" style="stop-color:#3AD8C6"/>
		<stop  offset="0.4534" style="stop-color:#29B6A6"/>
		<stop  offset="0.7827" style="stop-color:#1FA192"/>
		<stop  offset="0.9995" style="stop-color:#1B998B"/>
	</linearGradient>
	<path class="st53" d="M660.1,557.5c1.3-0.4,2.8-0.2,3.6,0.9c0.5,0.8,0.4,1.9-0.1,2.8c-0.5,0.8-1.7,1.9-2.7,2.3
		c-5.6,2.1-9.4-1-9.4-1S658.1,558.2,660.1,557.5z"/>
	
		<linearGradient id="SVGID_19_" gradientUnits="userSpaceOnUse" x1="781.3544" y1="156.8046" x2="714.3544" y2="44.0546" gradientTransform="matrix(0.9146 0 0 -0.9146 -49.8536 684.0549)">
		<stop  offset="0" style="stop-color:#3DDDCB"/>
		<stop  offset="5.434127e-02" style="stop-color:#3AD8C6"/>
		<stop  offset="0.4534" style="stop-color:#29B6A6"/>
		<stop  offset="0.7827" style="stop-color:#1FA192"/>
		<stop  offset="0.9995" style="stop-color:#1B998B"/>
	</linearGradient>
	<path class="st54" d="M632.5,596.1c0.9,0,2,0.5,2.4,1.3c0.3,0.5,0.2,1.2,0,1.7c-0.2,0.5-0.6,1-1,1.5c-0.8,0.9-2,1.6-3.3,1.6
		c-3.2,0.5-6.3-1.6-6.3-1.6S630.1,596.1,632.5,596.1z"/>
	
		<linearGradient id="SVGID_20_" gradientUnits="userSpaceOnUse" x1="765.7906" y1="166.053" x2="698.7906" y2="53.303" gradientTransform="matrix(0.9146 0 0 -0.9146 -49.8536 684.0549)">
		<stop  offset="0" style="stop-color:#3DDDCB"/>
		<stop  offset="5.434127e-02" style="stop-color:#3AD8C6"/>
		<stop  offset="0.4534" style="stop-color:#29B6A6"/>
		<stop  offset="0.7827" style="stop-color:#1FA192"/>
		<stop  offset="0.9995" style="stop-color:#1B998B"/>
	</linearGradient>
	<path class="st55" d="M626.8,579.3c2.3-1.4,3.8-4.1,3.5-6.8c-0.1-0.6-0.3-1.4-0.6-1.9c-0.9-1.3-2.7-1.5-4.2-1
		c-1.5,0.5-2.6,1.6-3.7,2.7c-1.9,2-3.3,5.8-4.8,8C617,580.5,622.1,582.1,626.8,579.3z"/>
	<path class="st14" d="M662.7,547.1c-5.8-0.1-11.2,3.1-14.9,7.5c-3.8,4.3-6.1,9.7-8.2,15c-2.1,5.3-4.1,10.8-7.2,15.5
		c-3,4.7-7.6,8.9-13.2,9.5c-6.8,0.7-13.1-3.9-17.1-9.4s-6.7-11.9-10.8-17.3c-1.9-2.5-4.3-4.8-7.4-5.4c-4.1-0.8-8,1.6-11.5,3.8"/>
	<path class="st14" d="M660.5,560.3c-5.1,2.3-12.3,3.2-17.9,2.1"/>
	<path class="st14" d="M649,543.1c-1.2,1.9-2.5,3.8-3.1,5.9c-0.7,2.1-0.4,5,0.6,7"/>
	<path class="st14" d="M631,599.6c-2.5,1.4-5.5,1.6-8.2,0.9s-5.5-3.3-7-5.8"/>
	<path class="st14" d="M625.4,575.4c-4.8,2.7-8.8,5.1-13.2,8.4c-2,1.6-5,4.8-5.1,6.7"/>
</g>
<rect x="568" y="550.9" class="st22" width="34.1" height="54.9"/>
<rect x="522.3" y="566.7" class="st47" width="33.8" height="0.9"/>
<rect x="522.3" y="573.1" class="st44" width="67.7" height="0.9"/>
<rect x="522.3" y="577.7" class="st44" width="42.7" height="0.9"/>
<rect x="522.3" y="583.1" class="st44" width="57.4" height="0.9"/>
<g>
	<path class="st56" d="M5,618.7L4.2,610c4.7-0.4,9-2,9.9-3.5c0.1-0.2,0.4-0.7-0.3-2.2c-0.1-0.1-0.2-0.4-0.2-0.5
		c-3.8-9.4,2.5-17.7,6.4-20.7l5.4,6.9l-2.7-3.5l2.7,3.5c-0.3,0.2-6.3,5.2-3.6,10.9c2.1,4.6,1.1,8-0.2,10.1
		C18.2,616.6,9.7,618.2,5,618.7z"/>
	<path class="st57" d="M143.4,653.8c-0.8-2.1-1-4-0.8-5.3l8.6,1l0-0.2c0.1,0.1,0,3.3,5.7,5.8c4.1,1.8,6.7,4.2,7.7,7.4
		c1.6,4.7-0.8,9.2-2.5,12.1l-0.1,0.3l-7.6-4.2l0.1-0.3c0.9-1.7,2.2-4.1,1.8-5.2c-0.1-0.3-0.6-1.1-3-2.2
		C147.7,660.6,144.7,657,143.4,653.8z"/>
	<path class="st56" d="M190.3,529.6c-4.7-11.4,2.7-23.2,3-23.7l7.4,4.7c0,0.1-6.1,9.8-1.5,17.4l-7.5,4.5
		C191.2,531.5,190.7,530.6,190.3,529.6z"/>
	<path class="st58" d="M221.9,621.9l1-8.7c3.7,0.4,7.6-2.5,8.8-3.8l6.2,6.1C237.6,615.8,230.7,622.9,221.9,621.9z"/>
	<path class="st58" d="M294.7,522.8c8.5-5.3,15.5-7.2,20.8-5.7c4.2,1.2,5.8,4.1,6,4.7l-7.8,3.8c0.1,0.3,0.2,0.3,0.2,0.3
		c-0.7-0.9-4.8-1.7-14.5,4.3L294.7,522.8z"/>
	<path class="st57" d="M299.5,643.4c8.7-9.4,19.7-6.2,20.1-6l-2.5,8.3c-0.3-0.1-6.3-1.8-11.2,3.6L299.5,643.4z"/>
	<path class="st56" d="M282,703.3c0.6-0.8,5.7-8.2,13.3-7.9c4.7,0.2,8.7,3.2,11.8,8.9l-7.6,4.3c-1.6-2.9-3.3-4.5-4.6-4.5
		c-2-0.1-4.8,2.8-5.7,4.1L282,703.3z"/>
</g>
<g>
	<path class="st56" d="M308.3,141.2l2.3-8.4c4.6,1.3,9.1,1.3,10.5,0.2c0.1-0.1,0.6-0.5,0.5-2.1c0-0.1,0-0.4,0-0.6
		c-0.3-10.1,8.6-15.6,13.3-17.1l2.6,8.3l-1.3-4.2l1.3,4.2c-0.4,0.1-7.7,2.6-7.3,8.9c0.4,5.1-1.9,7.9-3.7,9.4
		C321.4,143.9,312.9,142.4,308.3,141.2z"/>
	<path class="st57" d="M425.4,223c0-2.2,0.5-4.1,1.1-5.3l7.7,4l0.1-0.2c0,0.1-1.2,3.1,3.3,7.5c3.2,3.1,4.8,6.3,4.6,9.6
		c-0.1,5-4,8.3-6.6,10.5l-0.2,0.2l-5.6-6.6l0.2-0.2c1.5-1.2,3.5-3.1,3.5-4.2c0-0.3-0.2-1.3-2-3.1C427,230.9,425.5,226.5,425.4,223z"
		/>
	<path class="st56" d="M513.1,123.4c-0.3-12.4,10.7-20.7,11.2-21.1l5.2,7c-0.1,0.1-9.2,7-7.6,15.8l-8.5,1.5
		C513.3,125.6,513.2,124.5,513.1,123.4z"/>
	<path class="st58" d="M510.1,220.9l4-7.8c3.3,1.7,8,0.3,9.5-0.4l3.7,7.9C527,220.8,518,225,510.1,220.9z"/>
	<path class="st58" d="M613.3,154c9.8-2,17.1-1.3,21.5,2c3.5,2.5,3.9,5.9,4,6.5l-8.6,0.8c0,0.3,0.1,0.4,0.1,0.4
		c-0.4-1-3.8-3.3-15.1-1.1L613.3,154z"/>
	<path class="st57" d="M575.1,268.5c11.5-5.7,20.6,1.2,21,1.5l-5.3,6.9c-0.2-0.2-5.3-3.9-11.7-0.6L575.1,268.5z"/>
	<path class="st56" d="M537.5,318.3c0.8-0.6,8.3-5.7,15.2-2.7c4.3,1.8,7,6.1,7.9,12.5l-8.6,1.3c-0.5-3.2-1.5-5.3-2.8-5.9
		c-1.8-0.8-5.5,0.9-6.8,1.9L537.5,318.3z"/>
</g>
<path class="st59" d="M202.9,137.1l1.9-15.7l14.1-7.3c1.6-0.8,1.6-3.1,0-3.9l-14.4-6.8l-2.6-15.7c-0.3-1.8-2.4-2.4-3.7-1.1L187.5,98
	l-15.7-2.4c-1.8-0.3-3.1,1.6-2.3,3.2l7.6,13.9L170,127c-0.8,1.6,0.6,3.4,2.4,3.1l15.5-2.9l11.3,11.2
	C200.6,139.7,202.7,138.8,202.9,137.1z"/>
</svg>
