<?xml version="1.0" encoding="utf-8"?>
<!-- Generator: Adobe Illustrator 22.0.0, SVG Export Plug-In . SVG Version: 6.00 Build 0)  -->
<svg version="1.1" id="圖層_1" xmlns="http://www.w3.org/2000/svg" xmlns:xlink="http://www.w3.org/1999/xlink" x="0px" y="0px"
	 viewBox="0 0 125.7 131.3" style="enable-background:new 0 0 125.7 131.3;" xml:space="preserve" width="115">
<style type="text/css">
	.st0{display:none;fill:#EEF3F9;}
	.st1{fill:#FFFFFF;}
	.st2{fill-rule:evenodd;clip-rule:evenodd;fill:#FFFFFF;}
	.st3{fill:#FFD124;}
	.st4{opacity:8.000000e-02;}
	.st5{opacity:0.2;}
	.st6{fill:#242449;}
	.st7{fill:#F17187;}
	.st8{fill:url(#);}
	.st9{fill:url(#SVGID_1_);}
	.st10{fill:#4A49CA;}
	.st11{fill:url(#SVGID_2_);}
	.st12{fill:url(#SVGID_3_);}
	.st13{fill:url(#SVGID_4_);}
	.st14{fill:none;stroke:#00AD9F;stroke-width:1.662;stroke-linecap:round;stroke-linejoin:round;stroke-miterlimit:10;}
	.st15{opacity:0.2238;fill:#E1EFFF;}
	.st16{fill:#3B62C1;}
	.st17{fill:url(#SVGID_5_);}
	.st18{fill:url(#SVGID_6_);}
	.st19{fill:url(#SVGID_7_);}
	.st20{opacity:0.2;fill:#5275A0;}
	.st21{fill:url(#SVGID_8_);}
	.st22{fill:#FAFAFA;}
	.st23{fill:#296EC1;}
	.st24{fill:#D2E2F5;}
	.st25{opacity:0.3417;fill:#D1EBFF;}
	.st26{fill:url(#SVGID_9_);}
	.st27{fill:#3CB1FF;}
	.st28{fill:#B6D0EF;}
	.st29{fill:url(#SVGID_10_);}
	.st30{fill:#DDDDDD;}
	.st31{fill:none;stroke:#A8A8A8;stroke-width:1.662;stroke-miterlimit:10;}
	.st32{fill:none;stroke:#3B2F7C;stroke-width:1.662;stroke-miterlimit:10;}
	.st33{fill:none;stroke:#3B2F7C;stroke-width:1.662;stroke-linecap:round;stroke-linejoin:round;stroke-miterlimit:10;}
	.st34{fill:url(#SVGID_11_);}
	.st35{fill:none;stroke:#FFDF68;stroke-width:1.662;stroke-miterlimit:10;}
	.st36{opacity:0.2412;fill:url(#SVGID_12_);}
	.st37{opacity:0.2412;fill:url(#SVGID_13_);}
	.st38{fill:none;stroke:#1D4E89;stroke-width:1.662;stroke-miterlimit:10;stroke-dasharray:6.648;}
	.st39{fill:#1D4E89;}
	.st40{fill:#D4EEFF;}
	.st41{fill:#FFF1BD;}
	.st42{fill:#282D3C;}
	.st43{fill:#B0B5B7;}
	.st44{fill:#333333;}
	.st45{fill:#555555;}
	.st46{fill:#515B79;}
	.st47{fill:#CACED0;}
	.st48{fill:#7A8387;}
	.st49{fill:#E5E7E8;}
	.st50{fill:#9ABEE9;}
	.st51{fill:#5275A0;}
	.st52{opacity:0.6;}
	.st53{display:none;opacity:0.2;}
	.st54{display:inline;}
	.st55{fill-rule:evenodd;clip-rule:evenodd;fill:none;stroke:#888888;stroke-width:0.75;stroke-miterlimit:10;}
	.st56{fill-rule:evenodd;clip-rule:evenodd;fill:#FFD124;}
	.st57{fill-rule:evenodd;clip-rule:evenodd;fill:#FFF1BD;}
	.st58{fill:#35D67C;}
	.st59{fill:#F7CC52;}
	.st60{fill:#FF5277;}
	.st61{fill-rule:evenodd;clip-rule:evenodd;fill:#888888;}
	.st62{fill:#888888;}
	.st63{fill:#F56D46;}
	.st64{opacity:0.6;fill:#FFFFFF;}
	.st65{fill-rule:evenodd;clip-rule:evenodd;fill:url(#SVGID_14_);}
	.st66{fill-rule:evenodd;clip-rule:evenodd;fill:none;stroke:#B6D0EF;stroke-miterlimit:10;}
	.st67{fill:url(#SVGID_15_);}
	.st68{fill:url(#SVGID_16_);}
	.st69{fill:url(#SVGID_17_);}
	.st70{fill:url(#SVGID_18_);}
	.st71{fill:url(#SVGID_19_);}
</style>
<g>
	<g>
		<g>
			<g>
				<g>
					<g>
						
							<ellipse transform="matrix(0.7071 -0.7071 0.7071 0.7071 -28.2141 63.3382)" class="st3" cx="62.3" cy="65.7" rx="57.3" ry="57.3"/>
					</g>
				</g>
				<g class="st4">
					<g>
						<path d="M73.2,9.4c8.5,6.3,15.3,15.1,19.3,25.7c11.1,29.6-3.8,62.6-33.4,73.7c-10.3,3.9-21,4.6-31,2.6
							c15.1,11.3,35.5,14.9,54.5,7.7c29.6-11.1,44.6-44.2,33.4-73.7C108.6,26.2,92.1,13.1,73.2,9.4z"/>
					</g>
				</g>
				<g class="st5">
					<g>
						<path class="st1" d="M18.2,88.8c-10.3-27.5,3.6-58.1,31-68.5c16.1-6,33.2-3.8,46.7,4.6C81.7,13.2,61.9,9.3,43.4,16.2
							c-27.5,10.3-41.4,41-31,68.5c4.3,11.4,12.1,20.5,21.7,26.4C27.2,105.4,21.6,97.8,18.2,88.8z"/>
					</g>
				</g>
			</g>
			<g>
				<g>
					<path class="st6" d="M43.7,85.3c5.6,11,18.6,16.2,30.4,11.8c11.8-4.4,18.1-17,15.1-28.9L43.7,85.3z"/>
				</g>
				<g>
					<path class="st7" d="M56,96.7c5.6,2.3,12,2.6,18.1,0.3c5.8-2.2,10.3-6.4,13-11.5l-0.4-0.4C68.7,83.4,56.2,96.5,56,96.7z"/>
				</g>
			</g>
		</g>
		<g>
			<g>
				<path class="st6" d="M72.3,51.9c0.1-4.4,2.8-8.2,6.9-9.7c4-1.5,8.5-0.5,11.4,2.6c0.6,0.6,0.6,1.5,0.2,2.1
					c-0.5,0.7-1.3,0.9-2.1,0.6c-4.1-1.8-9.6-2.3-13.1,5.1c-0.2,0.4-0.5,0.7-0.9,0.9c-0.3,0.1-0.7,0.1-1,0.1
					C72.9,53.4,72.3,52.7,72.3,51.9z"/>
			</g>
			<g>
				<path class="st6" d="M26.3,69.2c0.1-4.4,2.8-8.2,6.9-9.7c4-1.5,8.5-0.5,11.4,2.6c0.6,0.6,0.6,1.5,0.2,2.1
					c-0.5,0.7-1.3,0.9-2.1,0.6c-4.1-1.8-9.6-2.3-13.1,5.1c-0.2,0.4-0.5,0.7-0.9,0.9c-0.3,0.1-0.7,0.1-1,0.1
					C26.8,70.7,26.3,70,26.3,69.2z"/>
			</g>
		</g>
	</g>
	<g>
		<ellipse transform="matrix(0.8645 -0.5026 0.5026 0.8645 -38.0734 29.637)" class="st7" cx="35.9" cy="85.4" rx="10" ry="10"/>
	</g>
	<g>
		<ellipse transform="matrix(0.9444 -0.3288 0.3288 0.9444 -14.2297 36.5938)" class="st7" cx="101.1" cy="60.4" rx="10" ry="10"/>
	</g>
</g>
</svg>
