<?xml version="1.0" encoding="utf-8"?>
<!-- Generator: Adobe Illustrator 22.0.0, SVG Export Plug-In . SVG Version: 6.00 Build 0)  -->
<svg version="1.1" id="圖層_1" xmlns="http://www.w3.org/2000/svg" xmlns:xlink="http://www.w3.org/1999/xlink" x="0px" y="0px"
	 viewBox="0 0 92.2 95.1" style="enable-background:new 0 0 92.2 95.1;" xml:space="preserve" width="120px">
<style type="text/css">
	.st0{display:none;fill:#EEF3F9;}
	.st1{fill:#FFFFFF;}
	.st2{fill-rule:evenodd;clip-rule:evenodd;fill:#FFFFFF;}
	.st3{fill:#FFD124;}
	.st4{opacity:8.000000e-02;}
	.st5{opacity:0.2;}
	.st6{fill:#242449;}
	.st7{fill:#F17187;}
	.st8{fill:url(#);}
	.st9{fill:url(#SVGID_1_);}
	.st10{fill:#4A49CA;}
	.st11{fill:url(#SVGID_2_);}
	.st12{fill:url(#SVGID_3_);}
	.st13{fill:url(#SVGID_4_);}
	.st14{fill:none;stroke:#00AD9F;stroke-width:1.662;stroke-linecap:round;stroke-linejoin:round;stroke-miterlimit:10;}
	.st15{opacity:0.2238;fill:#E1EFFF;}
	.st16{fill:#3B62C1;}
	.st17{fill:url(#SVGID_5_);}
	.st18{fill:url(#SVGID_6_);}
	.st19{fill:url(#SVGID_7_);}
	.st20{opacity:0.2;fill:#5275A0;}
	.st21{fill:url(#SVGID_8_);}
	.st22{fill:#FAFAFA;}
	.st23{fill:#296EC1;}
	.st24{fill:#D2E2F5;}
	.st25{opacity:0.3417;fill:#D1EBFF;}
	.st26{fill:url(#SVGID_9_);}
	.st27{fill:#3CB1FF;}
	.st28{fill:#B6D0EF;}
	.st29{fill:url(#SVGID_10_);}
	.st30{fill:#DDDDDD;}
	.st31{fill:none;stroke:#A8A8A8;stroke-width:1.662;stroke-miterlimit:10;}
	.st32{fill:none;stroke:#3B2F7C;stroke-width:1.662;stroke-miterlimit:10;}
	.st33{fill:none;stroke:#3B2F7C;stroke-width:1.662;stroke-linecap:round;stroke-linejoin:round;stroke-miterlimit:10;}
	.st34{fill:url(#SVGID_11_);}
	.st35{fill:none;stroke:#FFDF68;stroke-width:1.662;stroke-miterlimit:10;}
	.st36{opacity:0.2412;fill:url(#SVGID_12_);}
	.st37{opacity:0.2412;fill:url(#SVGID_13_);}
	.st38{fill:none;stroke:#1D4E89;stroke-width:1.662;stroke-miterlimit:10;stroke-dasharray:6.648;}
	.st39{fill:#1D4E89;}
	.st40{fill:#D4EEFF;}
	.st41{fill:#FFF1BD;}
	.st42{fill:#282D3C;}
	.st43{fill:#B0B5B7;}
	.st44{fill:#333333;}
	.st45{fill:#555555;}
	.st46{fill:#515B79;}
	.st47{fill:#CACED0;}
	.st48{fill:#7A8387;}
	.st49{fill:#E5E7E8;}
	.st50{fill:#9ABEE9;}
	.st51{fill:#5275A0;}
	.st52{opacity:0.6;}
	.st53{display:none;opacity:0.2;}
	.st54{display:inline;}
	.st55{fill-rule:evenodd;clip-rule:evenodd;fill:none;stroke:#888888;stroke-width:0.75;stroke-miterlimit:10;}
	.st56{fill-rule:evenodd;clip-rule:evenodd;fill:#FFD124;}
	.st57{fill-rule:evenodd;clip-rule:evenodd;fill:#FFF1BD;}
	.st58{fill:#35D67C;}
	.st59{fill:#F7CC52;}
	.st60{fill:#FF5277;}
	.st61{fill-rule:evenodd;clip-rule:evenodd;fill:#888888;}
	.st62{fill:#888888;}
	.st63{fill:#F56D46;}
	.st64{opacity:0.6;fill:#FFFFFF;}
	.st65{fill-rule:evenodd;clip-rule:evenodd;fill:url(#SVGID_14_);}
	.st66{fill-rule:evenodd;clip-rule:evenodd;fill:none;stroke:#B6D0EF;stroke-miterlimit:10;}
	.st67{fill:url(#SVGID_15_);}
	.st68{fill:url(#SVGID_16_);}
	.st69{fill:url(#SVGID_17_);}
	.st70{fill:url(#SVGID_18_);}
	.st71{fill:url(#SVGID_19_);}
</style>
<g>
	<path class="st3" d="M11.6,60.4l10.6-7.1c0,0,6.9-19.1,5-23c-1.9-3.9-9.1-10.2-7.7-12.5c1.5-2.3,5.4-6,11.4-2.9
		c4.3,2.2,10.8,16.1,12.7,16.1c1.1,0,7.4-3.9,11.9-6.8c3-1.9,6.8-2,9.9-0.3l0,0c2.1,1.2,3.1,3.7,2.4,6l-1.1,3.6l3.5,1.3
		c2.6,1,4,3.9,3.1,6.6l-0.9,2.7l2.3,0.7c2.9,0.9,4.5,4.1,3.4,6.9l-0.9,2.3l0.6,0.3c2.3,1.3,3.3,4.2,2.3,6.6L79,63L50.6,82
		c-2.7,1.8-5.7,3-8.8,3.5l-11.1,5c-1.2,0.5-2.6,0.1-3.3-1L10.8,64C10,62.8,10.4,61.2,11.6,60.4z"/>
</g>
</svg>
