<?xml version="1.0" encoding="utf-8"?>
<!-- Generator: Adobe Illustrator 22.0.0, SVG Export Plug-In . SVG Version: 6.00 Build 0)  -->
<svg version="1.1" id="圖層_1" xmlns="http://www.w3.org/2000/svg" xmlns:xlink="http://www.w3.org/1999/xlink" x="0px" y="0px"
	 viewBox="0 0 332.2 239.7" style="enable-background:new 0 0 332.2 239.7;" xml:space="preserve" width="330px">
<style type="text/css">
	.st0{display:none;fill:#EEF3F9;}
	.st1{fill:#FFFFFF;}
	.st2{fill-rule:evenodd;clip-rule:evenodd;fill:#FFFFFF;}
	.st3{fill:#FFD124;}
	.st4{opacity:8.000000e-02;}
	.st5{opacity:0.2;}
	.st6{fill:#242449;}
	.st7{fill:#F17187;}
	.st8{fill:url(#);}
	.st9{fill:url(#SVGID_1_);}
	.st10{fill:#4A49CA;}
	.st11{fill:url(#SVGID_2_);}
	.st12{fill:url(#SVGID_3_);}
	.st13{fill:url(#SVGID_4_);}
	.st14{fill:none;stroke:#00AD9F;stroke-width:1.662;stroke-linecap:round;stroke-linejoin:round;stroke-miterlimit:10;}
	.st15{opacity:0.2238;fill:#E1EFFF;}
	.st16{fill:#3B62C1;}
	.st17{fill:url(#SVGID_5_);}
	.st18{fill:url(#SVGID_6_);}
	.st19{fill:url(#SVGID_7_);}
	.st20{opacity:0.2;fill:#5275A0;}
	.st21{fill:url(#SVGID_8_);}
	.st22{fill:#FAFAFA;}
	.st23{fill:#296EC1;}
	.st24{fill:#D2E2F5;}
	.st25{opacity:0.3417;fill:#D1EBFF;}
	.st26{fill:url(#SVGID_9_);}
	.st27{fill:#3CB1FF;}
	.st28{fill:#B6D0EF;}
	.st29{fill:url(#SVGID_10_);}
	.st30{fill:#DDDDDD;}
	.st31{fill:none;stroke:#A8A8A8;stroke-width:1.662;stroke-miterlimit:10;}
	.st32{fill:none;stroke:#3B2F7C;stroke-width:1.662;stroke-miterlimit:10;}
	.st33{fill:none;stroke:#3B2F7C;stroke-width:1.662;stroke-linecap:round;stroke-linejoin:round;stroke-miterlimit:10;}
	.st34{fill:url(#SVGID_11_);}
	.st35{fill:none;stroke:#FFDF68;stroke-width:1.662;stroke-miterlimit:10;}
	.st36{opacity:0.2412;fill:url(#SVGID_12_);}
	.st37{opacity:0.2412;fill:url(#SVGID_13_);}
	.st38{fill:none;stroke:#1D4E89;stroke-width:1.662;stroke-miterlimit:10;stroke-dasharray:6.648;}
	.st39{fill:#1D4E89;}
	.st40{fill:#D4EEFF;}
	.st41{fill:#FFF1BD;}
	.st42{fill:#282D3C;}
	.st43{fill:#B0B5B7;}
	.st44{fill:#333333;}
	.st45{fill:#555555;}
	.st46{fill:#515B79;}
	.st47{fill:#CACED0;}
	.st48{fill:#7A8387;}
	.st49{fill:#E5E7E8;}
	.st50{fill:#9ABEE9;}
	.st51{fill:#5275A0;}
	.st52{opacity:0.6;}
	.st53{display:none;opacity:0.2;}
	.st54{display:inline;}
	.st55{fill-rule:evenodd;clip-rule:evenodd;fill:none;stroke:#888888;stroke-width:0.75;stroke-miterlimit:10;}
	.st56{fill-rule:evenodd;clip-rule:evenodd;fill:#FFD124;}
	.st57{fill-rule:evenodd;clip-rule:evenodd;fill:#FFF1BD;}
	.st58{fill:#35D67C;}
	.st59{fill:#F7CC52;}
	.st60{fill:#FF5277;}
	.st61{fill-rule:evenodd;clip-rule:evenodd;fill:#888888;}
	.st62{fill:#888888;}
	.st63{fill:#F56D46;}
	.st64{opacity:0.6;fill:#FFFFFF;}
	.st65{fill-rule:evenodd;clip-rule:evenodd;fill:url(#SVGID_14_);}
	.st66{fill-rule:evenodd;clip-rule:evenodd;fill:none;stroke:#B6D0EF;stroke-miterlimit:10;}
	.st67{fill:url(#SVGID_15_);}
	.st68{fill:url(#SVGID_16_);}
	.st69{fill:url(#SVGID_17_);}
	.st70{fill:url(#SVGID_18_);}
	.st71{fill:url(#SVGID_19_);}
</style>
<g>
	<path class="st58" d="M17.3,233.9l-4.2-7.7c4.2-2.3,7.5-5.4,7.7-7.2c0-0.2,0.1-0.8-1.1-1.9c-0.1-0.1-0.3-0.3-0.4-0.4
		c-7.3-7.1-4.8-17.3-2.4-21.7l7.7,4.2l-3.9-2.1l3.9,2.1c-0.2,0.3-3.7,7.3,1,11.5c3.8,3.4,4.2,7,3.9,9.4
		C28.7,226.7,21.5,231.6,17.3,233.9z"/>
	<path class="st59" d="M159.2,210.8c-1.6-1.6-2.5-3.3-2.9-4.6l8.4-2.5l-0.1-0.2c0.1,0.1,1.3,3.1,7.6,3.1c4.5,0,7.9,1.2,10.1,3.7
		c3.4,3.7,2.9,8.8,2.6,12.2l0,0.3l-8.7-0.8l0-0.3c0.2-1.9,0.4-4.7-0.4-5.5c-0.2-0.2-1-0.8-3.6-0.8
		C165.9,215.4,161.7,213.3,159.2,210.8z"/>
	<path class="st58" d="M152.7,77.4c-8.9-8.7-6.8-22.5-6.7-23.1l8.7,1.4c0,0.1-1.7,11.5,5.6,16.7l-5.1,7.1
		C154.3,78.8,153.5,78.1,152.7,77.4z"/>
	<path class="st60" d="M218.9,149.9l-2.6-8.4c3.6-1.1,6-5.4,6.6-7l8.2,3.1C231,138,227.4,147.3,218.9,149.9z"/>
	<path class="st60" d="M246.4,29.2c5.7-8.3,11.4-12.9,16.9-13.6c4.3-0.6,7,1.5,7.4,1.9l-5.7,6.6c0.2,0.2,0.3,0.2,0.3,0.2
		c-1-0.5-5.1,0.3-11.7,9.8L246.4,29.2z"/>
	<path class="st59" d="M299.2,138.6c4.3-12.2,15.7-13.6,16.2-13.6l1,8.7c-0.3,0-6.5,0.9-8.9,7.8L299.2,138.6z"/>
	<path class="st58" d="M307,201c0.2-1,2-9.9,9.1-12.6c4.4-1.7,9.3-0.5,14.5,3.5l-5.3,7c-2.6-2-4.8-2.8-6.1-2.3
		c-1.9,0.7-3.3,4.5-3.6,6.1L307,201z"/>
</g>
</svg>
