<?xml version="1.0" encoding="utf-8"?>
<!-- Generator: Adobe Illustrator 22.0.0, SVG Export Plug-In . SVG Version: 6.00 Build 0)  -->
<svg version="1.1" id="圖層_1" xmlns="http://www.w3.org/2000/svg" xmlns:xlink="http://www.w3.org/1999/xlink" x="0px" y="0px"
	 viewBox="0 0 199 292" style="enable-background:new 0 0 199 292;" xml:space="preserve">
<style type="text/css">
	.st0{display:none;fill:#EEF3F9;}
	.st1{fill:#FFFFFF;}
	.st2{fill-rule:evenodd;clip-rule:evenodd;fill:#FFFFFF;}
	.st3{fill:#FFD124;}
	.st4{opacity:8.000000e-02;}
	.st5{opacity:0.2;}
	.st6{fill:#242449;}
	.st7{fill:#F17187;}
	.st8{fill:url(#);}
	.st9{fill:url(#SVGID_1_);}
	.st10{fill:#4A49CA;}
	.st11{fill:url(#SVGID_2_);}
	.st12{fill:url(#SVGID_3_);}
	.st13{fill:url(#SVGID_4_);}
	.st14{fill:none;stroke:#00AD9F;stroke-width:1.662;stroke-linecap:round;stroke-linejoin:round;stroke-miterlimit:10;}
	.st15{opacity:0.2238;fill:#E1EFFF;}
	.st16{fill:#3B62C1;}
	.st17{fill:url(#SVGID_5_);}
	.st18{fill:url(#SVGID_6_);}
	.st19{fill:url(#SVGID_7_);}
	.st20{opacity:0.2;fill:#5275A0;}
	.st21{fill:url(#SVGID_8_);}
	.st22{fill:#FAFAFA;}
	.st23{fill:#296EC1;}
	.st24{fill:#D2E2F5;}
	.st25{opacity:0.3417;fill:#D1EBFF;}
	.st26{fill:url(#SVGID_9_);}
	.st27{fill:#3CB1FF;}
	.st28{fill:#B6D0EF;}
	.st29{fill:url(#SVGID_10_);}
	.st30{fill:#DDDDDD;}
	.st31{fill:none;stroke:#A8A8A8;stroke-width:1.662;stroke-miterlimit:10;}
	.st32{fill:none;stroke:#3B2F7C;stroke-width:1.662;stroke-miterlimit:10;}
	.st33{fill:none;stroke:#3B2F7C;stroke-width:1.662;stroke-linecap:round;stroke-linejoin:round;stroke-miterlimit:10;}
	.st34{fill:url(#SVGID_11_);}
	.st35{fill:none;stroke:#FFDF68;stroke-width:1.662;stroke-miterlimit:10;}
	.st36{opacity:0.2412;fill:url(#SVGID_12_);}
	.st37{opacity:0.2412;fill:url(#SVGID_13_);}
	.st38{fill:none;stroke:#1D4E89;stroke-width:1.662;stroke-miterlimit:10;stroke-dasharray:6.648;}
	.st39{fill:#1D4E89;}
	.st40{fill:#D4EEFF;}
	.st41{fill:#FFF1BD;}
	.st42{fill:#282D3C;}
	.st43{fill:#B0B5B7;}
	.st44{fill:#333333;}
	.st45{fill:#555555;}
	.st46{fill:#515B79;}
	.st47{fill:#CACED0;}
	.st48{fill:#7A8387;}
	.st49{fill:#E5E7E8;}
	.st50{fill:#9ABEE9;}
	.st51{fill:#5275A0;}
	.st52{opacity:0.6;}
	.st53{display:none;opacity:0.2;}
	.st54{display:inline;}
	.st55{fill-rule:evenodd;clip-rule:evenodd;fill:none;stroke:#888888;stroke-width:0.75;stroke-miterlimit:10;}
	.st56{fill-rule:evenodd;clip-rule:evenodd;fill:#FFD124;}
	.st57{fill-rule:evenodd;clip-rule:evenodd;fill:#FFF1BD;}
	.st58{fill:#35D67C;}
	.st59{fill:#F7CC52;}
	.st60{fill:#FF5277;}
	.st61{fill-rule:evenodd;clip-rule:evenodd;fill:#888888;}
	.st62{fill:#888888;}
	.st63{fill:#F56D46;}
	.st64{opacity:0.6;fill:#FFFFFF;}
	.st65{fill-rule:evenodd;clip-rule:evenodd;fill:url(#SVGID_14_);}
	.st66{fill-rule:evenodd;clip-rule:evenodd;fill:none;stroke:#B6D0EF;stroke-miterlimit:10;}
	.st67{fill:url(#SVGID_15_);}
	.st68{fill:url(#SVGID_16_);}
	.st69{fill:url(#SVGID_17_);}
	.st70{fill:url(#SVGID_18_);}
	.st71{fill:url(#SVGID_19_);}
</style>
<g>
	<path class="st56" d="M52.1,34.4c24.8,14.1,54.6,29.3,94.1,41.5c-36.8-5.4-71.1-8.8-101.9-21.1C11.2,41.6,16,13.9,52.1,34.4z"/>
	<path class="st56" d="M168.1,247.7c-2.8-28.4-4-69.2,1.9-109.4c-10.1,35.1-18.9,77.7-18.6,110.9
		C151.7,277.9,170.8,275.1,168.1,247.7z"/>
	<path class="st56" d="M149.5,104.3c-32.5,15.6-72.3,34-104,51.4c-16.6,9.1-16.8,15.2-15,18.5c1.8,3.3,3.9,9.8,23-2.2
		C84.9,152.3,119.5,125.8,149.5,104.3z"/>
	<path class="st57" d="M127,176.7c4.9-10.9,19.2-37.3,27.8-51.1c-10.8,11.7-29,36.9-35,49.1C114.6,185.2,122.5,186.8,127,176.7z"/>
	<path class="st57" d="M75.7,95.3c11.9-0.3,41.8-3.1,57.8-5.6c-15,5.3-45.3,12.3-58.9,13.1C63,103.4,64.6,95.5,75.7,95.3z"/>
</g>
</svg>
