<?xml version="1.0" encoding="utf-8"?>
<!-- Generator: Adobe Illustrator 22.0.0, SVG Export Plug-In . SVG Version: 6.00 Build 0)  -->
<svg version="1.1" id="Capa_1" xmlns="http://www.w3.org/2000/svg" xmlns:xlink="http://www.w3.org/1999/xlink" x="0px" y="0px"
	 viewBox="0 0 512 512" style="enable-background:new 0 0 512 512;"  width="60" xml:space="preserve">
<style type="text/css">
	.st0{fill:url(#SVGID_1_);}
	.st1{fill:url(#SVGID_2_);}
</style>
<g>
	<linearGradient id="SVGID_1_" gradientUnits="userSpaceOnUse" x1="226.1306" y1="512" x2="226.1306" y2="1.8343">
		<stop  offset="0" style="stop-color:#3CB1FF"/>
		<stop  offset="1" style="stop-color:#1D4E89"/>
	</linearGradient>
	<path class="st0" d="M256,255c-13.2,0-23.9,10.7-23.9,23.9v17.9h-35.9c-13.2,0-23.9,10.7-23.9,23.9c0,13.2,10.7,23.9,23.9,23.9H256
		c13.2,0,23.9-10.7,23.9-23.9v-41.8C279.9,265.8,269.2,255,256,255z M187.4,320.7c0-4.9,4-8.9,8.9-8.9h35.9v8.9
		c0,3.1,0.6,6.1,1.7,8.9h-37.6C191.4,329.6,187.4,325.6,187.4,320.7z M264.9,320.7c0,4.9-4,8.9-8.9,8.9s-8.9-4-8.9-8.9v-41.8
		c0-4.9,4-8.9,8.9-8.9c4.9,0,8.9,4,8.9,8.9V320.7z"/>
	<linearGradient id="SVGID_2_" gradientUnits="userSpaceOnUse" x1="255.9994" y1="511.735" x2="255.9994" y2="1.5694">
		<stop  offset="0" style="stop-color:#3CB1FF"/>
		<stop  offset="1" style="stop-color:#1D4E89"/>
	</linearGradient>
	<path class="st1" d="M506.8,361.8L443.4,252c-7-12.1-19.5-19.3-33.5-19.3c0,0,0,0,0,0c-0.6,0-1.2,0-1.8,0.1c-2.3-4-4.8-8-7.5-11.8
		v-85h6.4c10.6,0,20.1-5.5,25.4-14.7c5.3-9.2,5.3-20.2,0-29.4l-18.6-32.3c-2.1-3.6-6.7-4.8-10.2-2.7c-3.6,2.1-4.8,6.7-2.7,10.2
		l18.6,32.3c2.6,4.5,2.6,9.9,0,14.4c-2.6,4.5-7.2,7.2-12.4,7.2h-13.9c-4.1,0-7.5,3.4-7.5,7.5v73.7c-13.3-14.6-28.9-26.7-46.1-36
		v-37.7c0-4.1-3.4-7.5-7.5-7.5h-13.9c-5.2,0-9.8-2.7-12.4-7.2c-2.6-4.5-2.6-9.9,0-14.4l44.4-76.9c2.6-4.5,7.2-7.2,12.4-7.2
		s9.8,2.7,12.4,7.2l10.8,18.7c2.1,3.6,6.7,4.8,10.2,2.7c3.6-2.1,4.8-6.7,2.7-10.2L388,14.9c-5.3-9.2-14.8-14.7-25.4-14.7
		s-20.1,5.5-25.4,14.7l-44.4,76.9c-5.3,9.2-5.3,20.2,0,29.4c5.3,9.2,14.8,14.7,25.4,14.7h6.4v23c-21.3-9-44.5-13.9-68.5-13.9
		c-29,0-56.3,7.1-80.4,19.5l-39.9-69.1c-7-12.1-19.5-19.3-33.5-19.3c0,0,0,0,0,0c-14,0-26.5,7.2-33.5,19.3L5.2,205.2
		c-7,12.1-7,26.6,0,38.7c7,12.1,19.5,19.3,33.5,19.3H51v221.4c0,15,12.2,27.1,27.1,27.1h48c15,0,27.1-12.2,27.1-27.1v-21.3
		c29.6,21.4,65.4,33.2,102.8,33.2c37,0,73-11.7,102.8-33.2v21.3c0,15,12.2,27.1,27.1,27.1h48c15,0,27.1-12.2,27.1-27.1v-64.8h12.3
		c14,0,26.5-7.2,33.5-19.3C513.7,388.3,513.7,373.9,506.8,361.8L506.8,361.8z M256,481.4c-48.1,0-93.2-21.3-123.9-58.3
		c-2.6-3.2-7.4-3.6-10.6-1c-3.2,2.6-3.6,7.4-1,10.6c5.5,6.6,11.4,12.8,17.7,18.5v33.5c0,6.7-5.4,12.1-12.1,12.1h-48
		c-6.7,0-12.1-5.4-12.1-12.1V255.7c0-4.1-3.4-7.5-7.5-7.5H38.8c-8.6,0-16.2-4.4-20.5-11.8c-4.3-7.4-4.3-16.3,0-23.7l63.4-109.8
		c4.3-7.4,11.9-11.8,20.5-11.8h0c8.6,0,16.2,4.4,20.5,11.8l39.9,69.1c-49.4,31.1-82.2,86.2-82.2,148.7c0,30.2,7.8,60,22.5,86.2
		c1.4,2.4,3.9,3.8,6.5,3.8c1.2,0,2.5-0.3,3.7-1c3.6-2,4.9-6.6,2.8-10.2c-13.5-23.9-20.6-51.2-20.6-78.8
		C95.3,232.1,167.4,160,256,160c56,0,107.7,29.1,136.9,76.5c-6.8,3.3-12.5,8.6-16.5,15.5l-1.5,2.6c-23.8-42.9-69.1-69.9-118.9-69.9
		c-75,0-136.1,61-136.1,136.1S181,456.8,256,456.8c34.9,0,67.9-13.1,93.3-37h9.5v24.5C330,468.3,293.6,481.4,256,481.4L256,481.4z
		 M313,400.5c4.1,7.2,10.2,12.6,17.4,15.9c-2.4,1.9-4.9,3.7-7.4,5.4l-4.3-7.4c-2.1-3.6-6.7-4.8-10.2-2.7c-3.6,2.1-4.8,6.7-2.7,10.2
		l4.3,7.4c-14.4,7.2-30.1,11.4-46.4,12.4v-19.5c0-4.1-3.4-7.5-7.5-7.5c-4.1,0-7.5,3.4-7.5,7.5v19.5c-16.6-1-32.3-5.4-46.4-12.5
		l4.3-7.4c2.1-3.6,0.8-8.2-2.7-10.2c-3.6-2.1-8.2-0.8-10.2,2.7l-4.3,7.4c-13.5-9-25-20.5-34-34l7.4-4.3c3.6-2.1,4.8-6.7,2.7-10.2
		c-2.1-3.6-6.7-4.8-10.2-2.7l-7.4,4.3c-7.1-14.1-11.4-29.8-12.4-46.4h19.5c4.1,0,7.5-3.4,7.5-7.5c0-4.1-3.4-7.5-7.5-7.5h-19.5
		c1-16.6,5.4-32.3,12.4-46.4l7.4,4.3c1.2,0.7,2.5,1,3.7,1c2.6,0,5.1-1.3,6.5-3.8c2.1-3.6,0.8-8.2-2.7-10.2l-7.4-4.3
		c9-13.5,20.5-25,34-34l4.3,7.4c1.4,2.4,3.9,3.8,6.5,3.8c1.3,0,2.6-0.3,3.7-1c3.6-2.1,4.8-6.7,2.7-10.2l-4.3-7.4
		c14.1-7.1,29.8-11.4,46.4-12.5v19.5c0,4.1,3.4,7.5,7.5,7.5c4.1,0,7.5-3.4,7.5-7.5v-19.4c16.4,1,32.2,5.3,46.4,12.4l-4.3,7.4
		c-2.1,3.6-0.8,8.2,2.7,10.2c1.2,0.7,2.5,1,3.7,1c2.6,0,5.1-1.3,6.5-3.8l4.3-7.4c13.4,8.9,25,20.4,34,34l-7.4,4.3
		c-3.6,2.1-4.8,6.7-2.7,10.2c1.4,2.4,3.9,3.8,6.5,3.8c1.3,0,2.6-0.3,3.7-1l7.4-4.3c0.5,1.1,1.1,2.1,1.6,3.2l-53,91.7
		C306,373.9,306,388.3,313,400.5L313,400.5z M493.8,393c-4.3,7.4-12,11.8-20.5,11.8h-19.8c-4.1,0-7.5,3.4-7.5,7.5v72.3
		c0,6.7-5.4,12.1-12.1,12.1h-48c-6.7,0-12.1-5.4-12.1-12.1v-72.3c0-4.1-3.4-7.5-7.5-7.5h-19.8c-8.6,0-16.2-4.4-20.5-11.8
		c-4.3-7.4-4.3-16.3,0-23.7l63.4-109.8c4.3-7.4,12-11.8,20.5-11.8c8.6,0,16.2,4.4,20.5,11.8l63.4,109.8
		C498,376.7,498,385.5,493.8,393L493.8,393z"/>
</g>
</svg>
