<?xml version="1.0" encoding="utf-8"?>
<!-- Generator: Adobe Illustrator 22.0.0, SVG Export Plug-In . SVG Version: 6.00 Build 0)  -->
<svg version="1.1" id="Capa_1" xmlns="http://www.w3.org/2000/svg" xmlns:xlink="http://www.w3.org/1999/xlink" x="0px" y="0px"
	 viewBox="0 0 512 512" style="enable-background:new 0 0 512 512;"  width="60"  xml:space="preserve">
<style type="text/css">
	.st0{fill:url(#SVGID_1_);}
	.st1{fill:url(#SVGID_2_);}
	.st2{fill:url(#SVGID_3_);}
	.st3{fill:url(#SVGID_4_);}
	.st4{fill:url(#SVGID_5_);}
	.st5{fill:url(#SVGID_6_);}
	.st6{fill:url(#SVGID_7_);}
</style>
<g>
	<linearGradient id="SVGID_1_" gradientUnits="userSpaceOnUse" x1="157.552" y1="510" x2="157.552" y2="-1.1653">
		<stop  offset="0" style="stop-color:#3CB1FF"/>
		<stop  offset="1" style="stop-color:#1D4E89"/>
	</linearGradient>
	<path class="st0" d="M158.4,425.7c-2.2-3.5-6.9-4.5-10.4-2.3s-4.5,6.9-2.3,10.4l5.1,8.1c3.1,4.8,4.7,10.3,4.7,16v46.6
		c0,4.1,3.4,7.5,7.5,7.5s7.5-3.4,7.5-7.5v-46.6c0-8.5-2.4-16.9-7-24.1L158.4,425.7z"/>
	<linearGradient id="SVGID_2_" gradientUnits="userSpaceOnUse" x1="256.0035" y1="510" x2="256.0035" y2="-1.1653">
		<stop  offset="0" style="stop-color:#3CB1FF"/>
		<stop  offset="1" style="stop-color:#1D4E89"/>
	</linearGradient>
	<path class="st1" d="M388.6,367.8l-47.5-28.1l-20.8-21c-0.2-0.2-0.3-0.3-0.5-0.5c10.2-6,19.5-13.6,27.3-22.6h0.3
		c10.4,0,19.2-7.1,21.7-16.7h11.4c25.4,0,46-20.6,46-46v-63.3v-3v-3c0-28-22.8-50.8-50.8-50.8h-0.5v-7.1c9-9.6,15.9-18.4,21-26.9
		c2.1-3.5,1-8.2-2.5-10.3c-3.5-2.1-8.2-1-10.3,2.5c-4.9,8-11.7,16.6-20.8,26.1c-21.3,16.9-48.5,26.2-76.8,26.2h-21.4
		c-28.9,0-56.8-9.4-78.6-26.6c-1.3-1-3-1.6-4.7-1.6c-4.1,0-7.5,3.4-7.5,7.5v24.6c0,17.3-6.7,33.5-18.9,45.7
		c-4.5,4.5-9.5,8.2-15.1,11.2c0,0,0,0,0,0c-6.8,3.7-14.2,6.1-22,7.1c-0.4,0.1-0.8,0.1-1.2,0.1v-91.3c0-14.8,12-26.9,26.7-27
		c4.1,0,7.4-3.3,7.5-7.4c0.6-28,23.8-50.7,51.8-50.7h192.9v7.6c0,7.2-0.4,13.1-1.2,18.6c-0.6,4.1,2.2,7.9,6.3,8.5
		c4.1,0.6,7.9-2.2,8.5-6.3c0.9-6.1,1.3-12.9,1.3-20.7V7.5c0-4.1-3.4-7.5-7.5-7.5H202.5c-17.6,0-34.2,6.8-46.8,19.1
		c-10.9,10.7-17.7,24.6-19.5,39.6c-19.7,3.5-34.7,20.8-34.7,41.4v99.2c0,4.1,3.4,7.5,7.5,7.5c3.5,0,7.1-0.2,10.6-0.7
		c5.5-0.7,10.9-2.1,16.1-3.9v19c0,9.5,1.2,18.9,3.5,28c0.9,3.4,3.9,5.6,7.3,5.6c0.6,0,1.2-0.1,1.9-0.2c4-1,6.4-5.1,5.4-9.1
		c-2-7.8-3-16-3-24.2v-26.2c5.3-3.2,10.2-7.1,14.6-11.5c15-15,23.3-35,23.3-56.3V117c22.2,13.8,48.6,21.3,75.8,21.3h21.4
		c26.7,0,52.6-7.4,74.4-21.1v3c0,0,0,0,0,0v92.6c0,0,0,0,0,0v8.3c0,9.9-1.5,19.6-4.4,29c-2.6-1.1-5.5-1.7-8.5-1.7h-34.1
		c-12.4,0-22.5,10.1-22.5,22.5v2.1c0,12.4,10.1,22.5,22.5,22.5h12.5c-8.1,6.9-17.3,12.4-27.2,16.3c-11.7,4.1-23.2,6.8-35.8,6.8
		h-14.5c-11.8,0-23.5-2.1-34.5-6.3c-18.9-7.1-34.9-19.8-46.3-36.6c-2.3-3.4-7-4.3-10.4-2c-3.4,2.3-4.3,7-2,10.4
		c9.6,14.3,22.2,25.9,36.8,34.4c0,0-0.1,0-0.1,0.1l-20.8,21l-47.5,28.1c-25.2,14.9-40.8,42.2-40.8,71.5v65.3c0,4.1,3.4,7.5,7.5,7.5
		s7.5-3.4,7.5-7.5v-65.3c0-23.9,12.8-46.4,33.4-58.5l42.2-24.9l32.2,49.3c1.1,1.7,2.9,2.9,5,3.3c2,0.3,4-0.1,5.8-1.4l16.7-12.6v15.9
		l-6.9,93.7c-0.3,4.1,2.8,7.7,6.9,8c0.2,0,0.4,0,0.6,0c3.9,0,7.2-3,7.5-6.9l6.4-87.1h17.2l1.1,15.4c0.3,4.1,3.9,7.2,8,6.9
		c4.1-0.3,7.2-3.9,6.9-8l-1.6-22v-15.9l16.7,12.6c1.3,1,2.9,1.5,4.5,1.5c2.5,0,4.6-1.1,6.3-3.4l32.2-49.3l42.2,24.9
		c20.6,12.2,33.4,34.6,33.4,58.5v65.3c0,4.1,3.4,7.5,7.5,7.5s7.5-3.4,7.5-7.5v-65.3C429.4,410,413.8,382.6,388.6,367.8L388.6,367.8z
		 M380.5,263.9h-11.8c-0.3-0.8-0.6-1.6-0.9-2.3c4.9-12.8,7.4-26.4,7.4-40.3v-0.8h0.5c14,0,26.6-5.7,35.8-14.8v27.3
		C411.5,250,397.6,263.9,380.5,263.9z M375.7,127.8c19.8,0,35.8,16.1,35.8,35.8v3v3c0,19.8-16.1,35.8-35.8,35.8h-0.5v-77.6
		L375.7,127.8L375.7,127.8z M305.7,273.1V271c0-4.1,3.4-7.5,7.5-7.5h34.1c4.1,0,7.5,3.4,7.5,7.5v2.1c0,4.1-3.4,7.5-7.5,7.5h-3.6
		c-0.1,0-0.1,0-0.2,0h-30.3C309.1,280.6,305.7,277.2,305.7,273.1z M225.2,331.3c7.6,1.6,15.3,2.4,23,2.4h14.5
		c10.7,0,21.4-1.5,31.6-4.5l0.2,0c0.4-0.1,0.9-0.3,1.3-0.4L256,358.1l-39.1-28.8c0.3,0.1,0.6,0.2,0.9,0.3
		C220.3,330.3,222.8,330.9,225.2,331.3L225.2,331.3z M213.6,390.1l-28.4-43.5l12.7-12.8l45.6,33.7l-7.6,5.7c0,0,0,0,0,0L213.6,390.1
		z M264.1,402.9h-16.1v-19.9l8.1-6.1l8.1,6.1V402.9z M298.4,390.1l-22.3-16.9c0,0,0,0,0,0l-7.6-5.7l45.6-33.7l12.7,12.8L298.4,390.1
		z"/>
	<linearGradient id="SVGID_3_" gradientUnits="userSpaceOnUse" x1="354.448" y1="510" x2="354.448" y2="-1.1653">
		<stop  offset="0" style="stop-color:#3CB1FF"/>
		<stop  offset="1" style="stop-color:#1D4E89"/>
	</linearGradient>
	<path class="st2" d="M364,423.4c-3.5-2.2-8.1-1.2-10.4,2.3l-5.1,8.1c-4.6,7.2-7,15.5-7,24.1v46.6c0,4.1,3.4,7.5,7.5,7.5
		s7.5-3.4,7.5-7.5v-46.6c0-5.7,1.6-11.2,4.7-16l5.1-8.1C368.5,430.3,367.5,425.6,364,423.4L364,423.4z"/>
	<linearGradient id="SVGID_4_" gradientUnits="userSpaceOnUse" x1="277.061" y1="510" x2="277.061" y2="-1.1653">
		<stop  offset="0" style="stop-color:#3CB1FF"/>
		<stop  offset="1" style="stop-color:#1D4E89"/>
	</linearGradient>
	<path class="st3" d="M283.1,464.8c-0.3-4.1-3.9-7.2-8-6.9c-4.1,0.3-7.2,3.9-6.9,8l2.9,39c0.3,3.9,3.6,6.9,7.5,6.9
		c0.2,0,0.4,0,0.6,0c4.1-0.3,7.2-3.9,6.9-8L283.1,464.8z"/>
	<linearGradient id="SVGID_5_" gradientUnits="userSpaceOnUse" x1="255.4469" y1="510" x2="255.4469" y2="-1.1653">
		<stop  offset="0" style="stop-color:#3CB1FF"/>
		<stop  offset="1" style="stop-color:#1D4E89"/>
	</linearGradient>
	<path class="st4" d="M255.7,268.4c0.1,0,0.2,0,0.3,0c14-0.1,26.7-6.7,33.9-17.7c2.3-3.5,1.3-8.1-2.2-10.4
		c-3.5-2.3-8.1-1.3-10.4,2.2c-4.4,6.8-12.5,10.9-21.5,10.9c-9.4,0.1-17.7-4.1-22.4-11c-2.3-3.4-7-4.4-10.4-2c-3.4,2.3-4.4,7-2,10.4
		C228.5,261.9,241.4,268.4,255.7,268.4L255.7,268.4z"/>
	<linearGradient id="SVGID_6_" gradientUnits="userSpaceOnUse" x1="207.602" y1="510" x2="207.602" y2="-1.1653">
		<stop  offset="0" style="stop-color:#3CB1FF"/>
		<stop  offset="1" style="stop-color:#1D4E89"/>
	</linearGradient>
	<path class="st5" d="M215.1,189.8v-16c0-4.1-3.4-7.5-7.5-7.5s-7.5,3.4-7.5,7.5v16c0,4.1,3.4,7.5,7.5,7.5S215.1,193.9,215.1,189.8z"
		/>
	<linearGradient id="SVGID_7_" gradientUnits="userSpaceOnUse" x1="303.292" y1="510" x2="303.292" y2="-1.1653">
		<stop  offset="0" style="stop-color:#3CB1FF"/>
		<stop  offset="1" style="stop-color:#1D4E89"/>
	</linearGradient>
	<path class="st6" d="M303.3,197.3c4.1,0,7.5-3.4,7.5-7.5v-16c0-4.1-3.4-7.5-7.5-7.5s-7.5,3.4-7.5,7.5v16
		C295.8,193.9,299.1,197.3,303.3,197.3z"/>
</g>
</svg>
