<?xml version="1.0" encoding="utf-8"?>
<!-- Generator: Adobe Illustrator 22.0.0, SVG Export Plug-In . SVG Version: 6.00 Build 0)  -->
<svg version="1.1" xmlns="http://www.w3.org/2000/svg" xmlns:xlink="http://www.w3.org/1999/xlink" x="0px" y="0px"
	 viewBox="0 0 562.2 260.7" style="enable-background:new 0 0 562.2 260.7;" xml:space="preserve" width="640px">
<style type="text/css">
	.st0{display:none;}
	.st1{display:inline;fill:#FFFFFF;}
	.st2{fill:#F5C5B3;}
	.st3{fill:#3CB1EF;}
	.st4{fill:#FEC4AD;}
	.st5{fill:url(#SVGID_1_);}
	.st6{fill:#E8D4E5;}
	.st7{fill:#222222;}
	.st8{fill:#133A50;}
	.st9{fill:url(#SVGID_2_);}
	.st10{fill:url(#SVGID_3_);}
	.st11{fill:url(#SVGID_4_);}
	.st12{fill:none;stroke:#DDDDDD;stroke-width:2;stroke-miterlimit:10;}
	.st13{fill:url(#SVGID_5_);}
	.st14{fill:url(#SVGID_6_);}
	.st15{fill:none;stroke:#194459;stroke-miterlimit:10;}
	.st16{fill:none;stroke:#FFFFFF;stroke-miterlimit:10;}
	.st17{fill:url(#SVGID_7_);}
	.st18{fill:url(#SVGID_8_);}
	.st19{fill:url(#SVGID_9_);}
	.st20{fill:url(#SVGID_10_);}
	.st21{fill:url(#SVGID_11_);}
	.st22{fill:url(#SVGID_12_);}
	.st23{fill:url(#SVGID_13_);}
	.st24{fill:#282D3C;}
	.st25{fill:#F67A56;}
	.st26{fill:#F89376;}
	.st27{fill:#F24716;}
	.st28{fill:#FFFFFF;}
	.st29{fill:#DDDDDD;}
	.st30{clip-path:url(#SVGID_15_);fill:#FCD772;}
	.st31{clip-path:url(#SVGID_15_);fill:#FFD71D;}
	.st32{opacity:0.7;clip-path:url(#SVGID_15_);fill:url(#SVGID_16_);}
	.st33{clip-path:url(#SVGID_15_);fill:url(#SVGID_17_);}
	.st34{clip-path:url(#SVGID_15_);fill:#FFF1BD;}
	.st35{fill:url(#SVGID_18_);}
	.st36{fill:#1D4E89;}
	.st37{fill:url(#SVGID_19_);}
	.st38{fill:#231F20;}
	.st39{fill:url(#SVGID_20_);}
	.st40{fill:#471A16;}
	.st41{fill:url(#SVGID_21_);}
</style>
<g id="BACKGROUND" class="st0">
	<rect x="-94.6" y="-123.3" class="st1" width="750" height="500"/>
</g>
<g id="OBJECTS">
	<path class="st2" d="M87.4,58c-0.1,0.3,4.5-2.5,4.5-2.5l1.9-3c0,0,1.9-1.2,3.2-1.9c1.3-0.7,3.8-4.7,3.8-4.7l-1-1.2
		c0,0-1.4,1.7-1.9,2c-0.5,0.3-1.4,0-1.4,0s0.3-1.3,1.1-3c0.8-1.8,3-4.7,3-4.7l-0.9-0.9c0,0-1.4,1.3-1.9,2c-0.5,0.7-1.5,2-1.5,2
		s1-2.4,1.6-3.3c0.6-0.9,1.3-2.1,1.3-2.1l-1-0.7c0,0-1.2,1.4-1.8,2.5c-0.6,1.1-1.7,2.9-1.7,2.9s0.8-2.7,1.3-3.5
		c0.4-0.8,0.6-1.2,0.6-1.2l-1.2-0.4c0,0-0.9,1.1-1.4,2.5c-0.5,1.4-0.9,2.1-0.9,2.1s0.3-2.3,0.7-3c0.4-0.7,0.4-1,0.4-1l-1-0.2
		c0,0-1.8,3.4-2.8,5.5c-1,2.1-1.7,4.9-2.3,6.5c-0.5,1.5-1.3,6.8-1.3,6.8L87.4,58z"/>
	<path class="st3" d="M115.7,78.1l-23.3-4c0,0-0.6-5.5-0.3-11.9c0.4-7,1.3-8.9,1.3-8.9l-6.3-0.9c0,0-1.2,5.5-2.1,9.4
		c-2,8.7-3.8,16.9-2.3,18.8c2.2,2.7,21.6,8,28.2,13C115,96.6,114.8,87,115.7,78.1z"/>
	<polygon class="st4" points="148.7,144.3 147.6,152.4 150,157.9 151.8,155.5 152.2,151 154.8,151.4 156.1,149.8 156,146.4 
		155.6,137.2 	"/>
	<linearGradient id="SVGID_1_" gradientUnits="userSpaceOnUse" x1="154.6085" y1="139.2954" x2="147.4418" y2="75.7956">
		<stop  offset="4.200000e-07" style="stop-color:#74C6FD"/>
		<stop  offset="1" style="stop-color:#21A4FB"/>
	</linearGradient>
	<path class="st5" d="M147.1,82.9c-1.8-0.7-7.7-0.2-7.7-0.2s-0.6,6.3,1.8,11.1c2.4,4.8,8.3,22.4,9,24.1c0.7,1.7-1.6,26.5-1.6,26.5
		l8.6-1.8c0,0,4.1-19.2,4.1-24c0-4.9-4.6-23.1-7.8-28.9C150.3,83.9,151.5,84.5,147.1,82.9z"/>
	<path class="st4" d="M133,65c0,0-1.9,8.3-0.4,10.2c0.9,1.1,4.5,5.1,4.5,5.1s-12.1,6.4-15.7,6.4s-2.3-7.1-2.3-7.1s3.9-3.1,4.5-4.6
		c0.6-1.6,0.9-6,0.9-6L133,65z"/>
	<g>
		<g>
			<path class="st2" d="M134.4,65.3c0,0-0.1-3,2.4-2.9c1.6,0,1.7,1.5,0.5,3.4c-0.5,0.8-0.6,2.6-1.2,3.2c-0.8,0.7-1.5-0.4-1.7-0.9
				C133.9,67.3,134.4,65.3,134.4,65.3z"/>
		</g>
		<g>
			<path class="st2" d="M120.9,65.3c0,0,0.1-3-2.4-2.9c-1.6,0-1.7,1.5-0.5,3.4c0.5,0.8,0.6,2.6,1.2,3.2c0.8,0.7,1.5-0.4,1.7-0.9
				C121.3,67.3,120.9,65.3,120.9,65.3z"/>
		</g>
		<path class="st2" d="M137,58c-0.1,1-0.3,1.6-0.5,3.1c-0.1,0.3-0.1,0.7-0.2,1.2c-0.5,3.6-1.2,8.5-1.5,9.2c-0.5,1.2-3,3.2-4.3,3.9
			c-1.2,0.7-4.3,0.6-5.5-0.1c-1.2-0.7-4-2.5-4.5-3.8c-0.3-0.7-1-5.8-1.5-9.5c-0.1-0.4-0.1-0.8-0.2-1.1c-0.2-1.4-0.4-2-0.5-3
			c-0.2-3,3.2-7.5,9.3-7.5C134.8,50.5,137.2,54.9,137,58z"/>
		<path class="st6" d="M121.4,54.1c0,0,5.1-2.3,11.1,0.4l2.1-1.4c0,0-3.1-1.6-7.6-1.6C122.6,51.6,121.4,54.1,121.4,54.1z"/>
		<g>
			<path class="st7" d="M136.5,61c-0.1,0.3-0.1,0.7-0.2,1.2c-0.5,3.6-1.2,8.5-1.5,9.2c-0.5,1.2-3,3.2-4.3,3.9
				c-1.2,0.7-4.3,0.6-5.5-0.1c-1.2-0.7-4-2.5-4.5-3.8c-0.3-0.7-1-5.8-1.5-9.5c-0.1-0.4-0.1-0.8-0.2-1.1l0.5-0.7c0,0,0.9,5.2,2.3,6.9
				c1.4,1.6,1.6,1.7,1.6,1.7s1.5-0.4,2.8-0.7c0.1,0,0.1,0,0.2-0.1c1.1-0.3,2.2-0.3,3.3,0c0.1,0,0.1,0,0.2,0l0.2,0.1l2.1,0.6
				c0,0,0.5-0.1,1.9-1.7c1.4-1.6,2-6.9,2-6.9L136.5,61z"/>
		</g>
		<path class="st7" d="M137.4,56c0,0.1-0.5,3.7-0.7,4.2c-0.3,0.9-0.5,1.5-0.5,1.5l-0.4-0.8c-0.7-1.5-1-3.1-1.1-4.7l-0.1-3.1l1-0.9
			C137.7,52.6,137.9,53.7,137.4,56z"/>
		<path class="st7" d="M121.5,53.3L121.5,53.3l-0.5,3.2c-0.2,1.5-0.7,2.9-1.5,4.1l0,0.1l-0.6,1c0,0-0.2-0.6-0.4-1.3
			c-0.2-0.6-0.6-3.6-0.7-4c0-0.1-0.1-0.3-0.1-0.4c-0.4-2.2,0-3.2,2-3.5L121.5,53.3z"/>
		<path class="st7" d="M135.7,52.3l-1,0.9l-1.9,0.7c-0.2-0.2-3.8-1.5-6.8-1.2c-3.9,0.3-4.4,1.4-4.5,1.5c0,0,0,0,0,0L121,54l-1.9-0.4
			l-0.4-0.1c0,0,0.4-1.7,0.8-2.2c1.5-2.3,5.7-3.8,9.5-3.4c0.1,0,0.3,0,0.4,0c3.5,0.5,5.1,2.1,5.1,2.1L135.7,52.3z"/>
	</g>
	<path class="st8" d="M145.1,248.2v7.6h-14.5c0,0,0.5-2.7,7.4-4l1-3.6H145.1z"/>
	<path class="st8" d="M123,248.2v7.6h-14.5c0,0,0.5-2.7,7.4-4l1-3.6H123z"/>
	<path class="st8" d="M142.7,135.6c0,0,2,24.4,2.1,44.2c0.1,19.9,1.3,70.1,1.3,70.1h-8c0,0-8.3-48.2-11.3-61
		c-3-12.8-10.8-53.1-10.8-53.1L142.7,135.6z"/>
	<path class="st8" d="M125.2,161.8c0,0-1.5,30.3-1.8,36.2c-0.3,6,0,51.9,0,51.9s-7.5,0.2-7.5,0c0-0.2-7.1-48.9-8-63.6
		c-0.9-14.7-0.4-32.1-1.6-34.1c-1.2-2,3.3-16.5,3.3-16.5l10.6,2.8L125.2,161.8z"/>
	<linearGradient id="SVGID_2_" gradientUnits="userSpaceOnUse" x1="127.5838" y1="85" x2="127.5838" y2="155.4289">
		<stop  offset="7.207540e-03" style="stop-color:#D4EEFF"/>
		<stop  offset="0.9892" style="stop-color:#F6FBFF"/>
	</linearGradient>
	<path class="st9" d="M122,76.8c0,0-3.3,7.6,1.7,8.4c8,1.3,10.4-8.9,10.4-8.9l8.8,4.5c0,0-0.2,54.7,3.3,71.4
		c2,9.7-31.4,5.1-36.3-3.5c-4.2-7.5,8-69.4,8-69.4L122,76.8z"/>
	<linearGradient id="SVGID_3_" gradientUnits="userSpaceOnUse" x1="137.9783" y1="148.0687" x2="138.9783" y2="67.069">
		<stop  offset="4.200000e-07" style="stop-color:#74C6FD"/>
		<stop  offset="1" style="stop-color:#21A4FB"/>
	</linearGradient>
	<path class="st10" d="M136.1,77.3c-0.2,0.3-12,34.8-8,67.3c0.9,7.6,14.7,1.3,18,1.3c0,0,1.6-24.2,2-33.3c0.4-9-3.9-12-3.5-16.4
		c0.4-4.4,5.2-12.3,5.2-12.3L136.1,77.3z"/>
	<g>
		<linearGradient id="SVGID_4_" gradientUnits="userSpaceOnUse" x1="109.5401" y1="146.6589" x2="118.0401" y2="71.4924">
			<stop  offset="4.200000e-07" style="stop-color:#74C6FD"/>
			<stop  offset="1" style="stop-color:#21A4FB"/>
		</linearGradient>
		<path class="st11" d="M116.4,148.1c1.3-22.6,1.9-69.8,1.9-69.8l-8-0.6c0,0-4,39.6-4,44.1c0,1.8,0.5,23.6-0.7,27.6
			C108.3,149.8,116.2,150.8,116.4,148.1z"/>
	</g>
	<path class="st12" d="M203.2,65c-6.3,2.1-12.7,4.4-17.6,8.8c-5,4.4-8.2,11.4-6.1,17.7c2.1,6.3,10.8,9.9,15.8,5.6
		c1.8-1.5,2.9-4.2,2-6.3c-1.9-4.3-8.6-2.3-11.8,1.2c-3.7,4.1-6.1,9.8-5.2,15.3c0.9,5.5,5.7,10.4,11.3,10.4c5.6,0,13.5-8.4,8.7-11.3
		c-6.1-3.7-13.8,5.1-16.8,11.5c-3,6.4-1.1,15.1,5,18.7c6.1,3.6,20.4-1,16.6-7c-4-6.3-15.6,2.8-17.2,10.1
		c-1.6,7.3,4.2,15.3,11.6,16.2c7.4,0.9,20.3-7.6,15.1-13c-7.4-7.8-19.8,12.1-16.2,22.3c3.6,10.2,18.3,14.3,26.6,7.3
		c1.6-1.3,3-3.2,2.7-5.2c-0.5-3.3-5-4.3-8.2-3.2c-8.3,2.8-12.1,14.5-7,21.6c5.1,7.1,17.4,7.3,22.7,0.2c1-1.4,1.8-3.1,1.5-4.8
		c-0.5-2.3-3.3-3.7-5.6-3.2c-2.4,0.4-4.3,2.2-5.6,4.2c-4.8,7-3.2,17.6,3.5,23c6.6,5.3,17.3,4.6,23.2-1.6c1.5-1.6,2.8-3.8,2.4-5.9
		c-0.5-2.5-3.2-4.2-5.7-4.1c-2.6,0.1-4.9,1.5-6.7,3.4c-7.5,7.8-4.3,22.8,5.7,26.8c10,4,29.8-7.1,22.8-15.3
		c-4.7-5.5-13.9,6.4-12.7,13.4c1.2,7.1,9.3,11.9,16.3,10.1c7-1.8,16.1-11.8,10.7-16.6c-3.8-3.4-10,3.8-11.1,8.7
		c-1.2,5,1.5,10.5,6,12.8c4.9,2.4,10.9,1,15.7-1.8c4.7-2.8,8.7-6.7,13.2-9.8c9.1-6.1,20.8-8.3,31.5-5.9"/>
	<linearGradient id="SVGID_5_" gradientUnits="userSpaceOnUse" x1="502.6614" y1="85.2613" x2="432.1616" y2="239.2612">
		<stop  offset="0" style="stop-color:#3DDDCB"/>
		<stop  offset="5.434127e-02" style="stop-color:#3AD8C6"/>
		<stop  offset="0.4534" style="stop-color:#29B6A6"/>
		<stop  offset="0.7827" style="stop-color:#1FA192"/>
		<stop  offset="0.9995" style="stop-color:#1B998B"/>
	</linearGradient>
	<path class="st13" d="M518.7,97.6c-10.1-6.5-100.4,69.7-97.1,129.8c0,0,17.6-23.7,32.9-35.3c15.3-11.6,16.8-23.7,16.8-35.7
		c0-12,22.9-7,25.5-20.3C501.3,112.5,527.8,103.4,518.7,97.6z"/>
	<g>
		<g>
			<linearGradient id="SVGID_6_" gradientUnits="userSpaceOnUse" x1="540.9565" y1="110.2397" x2="429.6231" y2="235.9064">
				<stop  offset="4.200000e-07" style="stop-color:#319188"/>
				<stop  offset="1" style="stop-color:#287870"/>
			</linearGradient>
			<path class="st14" d="M524.7,153.6c-14.6,8.8-10.3,20.6-18.9,27.5c-6.3,5-16.7,2.4-21.9,9.2c-5.9,7.7,0.8,18.2,1.3,27.5
				c0.7,12.8-10.7,22.4-22.3,26.2c-13.5,4.5-30.9,3.1-38.2-10.3c-8.7-15.8-2.2-39.6,13.1-47c3.7-1.8,8.4-2.3,11.4-5.9
				c5.1-6.2,1.8-15,4.2-22.8c2.3-7.6,9.8-13,16.8-15.4c7-2.4,14-2.9,20.8-5.6c9.2-3.8,17.3-12,25-17.6c6.9-5,31-14.3,34.9,2
				C554.5,136.3,536.9,146.2,524.7,153.6z"/>
		</g>
		<path class="st15" d="M526.2,129.9c0,0-59.6,30-107.2,126.6"/>
	</g>
	<path class="st16" d="M562.2,175c0,0-76.7-0.9-140.4,72.2"/>
	<g>
		<g>
			<linearGradient id="SVGID_7_" gradientUnits="userSpaceOnUse" x1="436.5638" y1="221.0431" x2="557.4516" y2="221.0431">
				<stop  offset="0" style="stop-color:#3DDDCB"/>
				<stop  offset="5.434127e-02" style="stop-color:#3AD8C6"/>
				<stop  offset="0.4534" style="stop-color:#29B6A6"/>
				<stop  offset="0.7827" style="stop-color:#1FA192"/>
				<stop  offset="0.9995" style="stop-color:#1B998B"/>
			</linearGradient>
			<path class="st17" d="M524.1,209.2c-7.3,2.9-9.3,15.2-17.2,16.8c-5.7,1.1-11.8-3.9-17.4-1.3c-6.3,3-5.2,11.8-7.8,17.9
				c-3.6,8.3-14.1,10.7-23,9.4c-10.3-1.5-21.5-8.1-22.2-19c-0.8-12.9,11-25.9,23.4-25.6c3,0.1,6.3,1.3,9.5,0
				c5.3-2.2,5.9-8.9,10-13.1c3.9-4.1,10.6-5,16-4.3c5.4,0.8,10.2,2.8,15.6,3.2c7.3,0.6,15.3-2,22.1-3c6.1-0.9,31.1-0.4,22.5,12.7
				C549.8,211.9,533.9,205.3,524.1,209.2z"/>
		</g>
		<linearGradient id="SVGID_8_" gradientUnits="userSpaceOnUse" x1="424.7366" y1="222.3664" x2="539.9117" y2="222.3664">
			<stop  offset="0" style="stop-color:#3DDDCB"/>
			<stop  offset="5.434127e-02" style="stop-color:#3AD8C6"/>
			<stop  offset="0.4534" style="stop-color:#29B6A6"/>
			<stop  offset="0.7827" style="stop-color:#1FA192"/>
			<stop  offset="0.9995" style="stop-color:#1B998B"/>
		</linearGradient>
		<path class="st18" d="M539.9,197.2c0,0-53.3,4.5-115.2,50.4"/>
	</g>
	<linearGradient id="SVGID_9_" gradientUnits="userSpaceOnUse" x1="542.0822" y1="235.182" x2="361.4156" y2="235.182">
		<stop  offset="4.200000e-07" style="stop-color:#319188"/>
		<stop  offset="1" style="stop-color:#287870"/>
	</linearGradient>
	<path class="st19" d="M366.4,254.4c0,0,12.1-21.2,14.1-23.4c12.5-13.8,29-14,45.8-10.5c4.9,1,17.8,7.8,22.4,6.8
		c3.6-0.7,8-14.6,19.7-13.9c11.7,0.7,12.4,14.6,12.4,14.6s7.3-16.1,19-14.6c11.7,1.5,11.7,12.4,2.9,20.4c0,0,18.6-5.6,36.6,3.1
		c18,8.6,9.4,20,9.4,20L366.4,254.4z"/>
	<linearGradient id="SVGID_10_" gradientUnits="userSpaceOnUse" x1="40.2152" y1="162.2931" x2="139.3085" y2="162.2931">
		<stop  offset="0" style="stop-color:#3DDDCB"/>
		<stop  offset="5.434127e-02" style="stop-color:#3AD8C6"/>
		<stop  offset="0.4534" style="stop-color:#29B6A6"/>
		<stop  offset="0.7827" style="stop-color:#1FA192"/>
		<stop  offset="0.9995" style="stop-color:#1B998B"/>
	</linearGradient>
	<path class="st20" d="M42.1,97.6c10.1-6.5,100.4,69.7,97.1,129.8c0,0-17.6-23.7-32.9-35.3c-15.3-11.6-16.8-23.7-16.8-35.7
		c0-12-22.9-7-25.5-20.3C59.5,112.5,33,103.4,42.1,97.6z"/>
	<g>
		<g>
			<linearGradient id="SVGID_11_" gradientUnits="userSpaceOnUse" x1="9.4656" y1="179.3073" x2="140.0952" y2="179.3073">
				<stop  offset="4.200000e-07" style="stop-color:#319188"/>
				<stop  offset="1" style="stop-color:#287870"/>
			</linearGradient>
			<path class="st21" d="M36.2,153.6c14.6,8.8,10.3,20.6,18.9,27.5c6.3,5,16.7,2.4,21.9,9.2c5.9,7.7-0.8,18.2-1.3,27.5
				C75,230.6,86.4,240.2,98,244.1c13.5,4.5,30.9,3.1,38.2-10.3c8.7-15.8,2.2-39.6-13.1-47c-3.7-1.8-8.4-2.3-11.4-5.9
				c-5.1-6.2-1.8-15-4.2-22.8c-2.3-7.6-9.8-13-16.8-15.4c-7-2.4-14-2.9-20.8-5.6c-9.2-3.8-17.3-12-25-17.6c-6.9-5-31-14.3-34.9,2
				C6.4,136.3,23.9,146.2,36.2,153.6z"/>
		</g>
		<path class="st15" d="M34.7,129.9c0,0,59.6,30,107.2,126.6"/>
	</g>
	<path class="st16" d="M-1.3,175c0,0,76.7-0.9,140.4,72.2"/>
	<g>
		<g>
			<linearGradient id="SVGID_12_" gradientUnits="userSpaceOnUse" x1="3.3795" y1="221.0431" x2="124.2673" y2="221.0431">
				<stop  offset="0" style="stop-color:#3DDDCB"/>
				<stop  offset="5.434127e-02" style="stop-color:#3AD8C6"/>
				<stop  offset="0.4534" style="stop-color:#29B6A6"/>
				<stop  offset="0.7827" style="stop-color:#1FA192"/>
				<stop  offset="0.9995" style="stop-color:#1B998B"/>
			</linearGradient>
			<path class="st22" d="M36.7,209.2c7.3,2.9,9.3,15.2,17.2,16.8c5.7,1.1,11.8-3.9,17.4-1.3c6.3,3,5.2,11.8,7.8,17.9
				c3.6,8.3,14.1,10.7,23,9.4c10.3-1.5,21.5-8.1,22.2-19c0.8-12.9-11-25.9-23.4-25.6c-3,0.1-6.3,1.3-9.5,0c-5.3-2.2-5.9-8.9-10-13.1
				c-3.9-4.1-10.6-5-16-4.3c-5.4,0.8-10.2,2.8-15.6,3.2c-7.3,0.6-15.3-2-22.1-3c-6.1-0.9-31.1-0.4-22.5,12.7
				C11.1,211.9,26.9,205.3,36.7,209.2z"/>
		</g>
		<path class="st15" d="M20.9,197.2c0,0,53.3,4.5,115.2,50.4"/>
	</g>
	<linearGradient id="SVGID_13_" gradientUnits="userSpaceOnUse" x1="13.4155" y1="235.182" x2="182.7489" y2="235.182">
		<stop  offset="4.200000e-07" style="stop-color:#319188"/>
		<stop  offset="1" style="stop-color:#287870"/>
	</linearGradient>
	<path class="st23" d="M194.4,254.4c0,0-12.1-21.2-14.1-23.4c-12.5-13.8-29-14-45.8-10.5c-4.9,1-17.8,7.8-22.4,6.8
		c-3.6-0.7-8-14.6-19.7-13.9C80.7,214.3,80,228.1,80,228.1s-7.3-16.1-19-14.6c-11.7,1.5-11.7,12.4-2.9,20.4c0,0-18.6-5.6-36.6,3.1
		c-18,8.6-9.4,20-9.4,20L194.4,254.4z"/>
	<g>
		<path class="st24" d="M325,256.3h-18.9c-2.1,0-3.8-1.6-4-3.7l-1.2-14.9h29.3l-1.2,14.9C328.9,254.7,327.1,256.3,325,256.3z"/>
		<path class="st24" d="M436.4,256.3h-18.9c-2.1,0-3.8-1.6-4-3.7l-1.2-14.9h29.3l-1.2,14.9C440.2,254.7,438.5,256.3,436.4,256.3z"/>
	</g>
	<path class="st25" d="M439.7,218.2H302.9l9.7-70.5c0.8-5.5,5.5-9.6,11-9.6H419c5.6,0,10.2,4.1,11,9.6L439.7,218.2z"/>
	<path class="st26" d="M421.2,204.5h-99.8l7.1-70.8c0.5-5.3,5-9.3,10.2-9.3h65.2c5.3,0,9.7,4,10.2,9.3L421.2,204.5z"/>
	<polygon class="st27" points="305.1,202.2 302.9,218.2 439.7,218.2 437.5,202.2 	"/>
	<polygon class="st26" points="454.5,245.5 288.1,245.5 291.2,209.4 451.4,209.4 	"/>
	
		<ellipse transform="matrix(0.838 -0.5456 0.5456 0.838 -31.7857 229.8558)" class="st27" cx="371.3" cy="168.5" rx="30.4" ry="30.4"/>
	
		<ellipse transform="matrix(0.9997 -2.338118e-02 2.338118e-02 0.9997 -3.8375 8.7271)" class="st28" cx="371.3" cy="168.5" rx="26.3" ry="26.3"/>
	<g>
		<g>
			<path class="st29" d="M378.6,190.1c-0.9,0-1.8-0.4-2.4-1c-0.2-0.2-0.3-0.3-0.4-0.5c-0.1-0.2-0.2-0.4-0.3-0.6
				c-0.1-0.2-0.1-0.4-0.2-0.6c0-0.2-0.1-0.4-0.1-0.7c0-0.9,0.4-1.8,1-2.4c0.8-0.8,2-1.2,3.1-0.9c0.2,0,0.4,0.1,0.6,0.2
				c0.2,0.1,0.4,0.2,0.6,0.3c0.2,0.1,0.4,0.3,0.5,0.4c0.6,0.6,1,1.5,1,2.4c0,0.2,0,0.4-0.1,0.7c0,0.2-0.1,0.4-0.2,0.6
				c-0.1,0.2-0.2,0.4-0.3,0.6c-0.1,0.2-0.3,0.4-0.4,0.5c-0.2,0.2-0.3,0.3-0.5,0.4c-0.2,0.1-0.4,0.2-0.6,0.3
				c-0.2,0.1-0.4,0.2-0.6,0.2C379.1,190.1,378.9,190.1,378.6,190.1z"/>
		</g>
		<g>
			<path class="st29" d="M368.1,191.3L368.1,191.3L368.1,191.3c-1.9-0.3-3.2-2-2.9-3.9l0,0c0.3-1.9,2-3.2,3.9-2.9l0,0
				c1.9,0.3,3.2,2,2.9,3.9l0,0c-0.2,1.7-1.7,2.9-3.4,2.9l0,0C368.4,191.4,368.2,191.3,368.1,191.3z M357.1,186.6L357.1,186.6
				L357.1,186.6c-1.5-1.2-1.7-3.3-0.6-4.8l0,0c1.2-1.5,3.3-1.7,4.8-0.6l0,0c1.5,1.2,1.7,3.3,0.6,4.8l0,0c-0.7,0.9-1.7,1.3-2.7,1.3
				l0,0C358.4,187.4,357.7,187.1,357.1,186.6z M349.9,177.1c-0.7-1.7,0.1-3.7,1.9-4.4l0,0c1.7-0.7,3.7,0.1,4.5,1.9l0,0
				c0.7,1.7-0.1,3.7-1.9,4.5l0,0c-0.4,0.2-0.8,0.2-1.3,0.2l0,0C351.7,179.2,350.4,178.4,349.9,177.1z M351.3,169.1
				c-1.9-0.3-3.2-2-2.9-3.9l0,0c0.3-1.9,2-3.2,3.9-2.9l0,0c1.9,0.3,3.2,2,2.9,3.9l0,0c-0.2,1.7-1.7,2.9-3.4,2.9l0,0
				C351.7,169.1,351.5,169.1,351.3,169.1z M353.7,159.1c-1.5-1.2-1.8-3.3-0.6-4.8l0,0l0,0l0,0c1.2-1.5,3.3-1.8,4.8-0.6l0,0
				c1.5,1.2,1.8,3.3,0.6,4.8l0,0c-0.7,0.9-1.7,1.3-2.7,1.3l0,0C355.1,159.8,354.3,159.5,353.7,159.1z M381.3,155.7
				c-1.5-1.2-1.8-3.3-0.6-4.8l0,0c1.2-1.5,3.3-1.8,4.8-0.6l0,0c1.5,1.2,1.8,3.3,0.6,4.8l0,0c-0.7,0.9-1.7,1.3-2.7,1.3l0,0
				C382.6,156.4,381.9,156.1,381.3,155.7z M360.7,151.5c-0.7-1.7,0.1-3.7,1.9-4.4l0,0l0,0l0,0c1.7-0.7,3.7,0.1,4.5,1.9l0,0
				c0.7,1.7-0.1,3.7-1.9,4.5l0,0c-0.4,0.2-0.8,0.2-1.3,0.2l0,0C362.6,153.7,361.3,152.9,360.7,151.5z M373.5,152.4
				c-1.9-0.3-3.2-2-2.9-3.9l0,0c0.3-1.9,2-3.2,3.9-2.9l0,0c1.9,0.3,3.2,2,2.9,3.9l0,0c-0.2,1.7-1.7,2.9-3.4,2.9l0,0
				C373.8,152.4,373.7,152.4,373.5,152.4z"/>
		</g>
		<g>
			<path class="st29" d="M389.5,164.5c-0.2,0-0.4,0-0.7-0.1c-0.2,0-0.4-0.1-0.6-0.2c-0.2-0.1-0.4-0.2-0.6-0.3
				c-0.2-0.1-0.4-0.3-0.5-0.4c-0.6-0.6-1-1.5-1-2.4c0-0.2,0-0.4,0.1-0.7c0-0.2,0.1-0.4,0.2-0.6c0.1-0.2,0.2-0.4,0.3-0.6
				c0.1-0.2,0.3-0.4,0.4-0.5c0.2-0.2,0.3-0.3,0.5-0.4c0.2-0.1,0.4-0.2,0.6-0.3c0.2-0.1,0.4-0.1,0.6-0.2c1.1-0.2,2.3,0.1,3.1,0.9
				c0.2,0.2,0.3,0.3,0.4,0.5c0.1,0.2,0.2,0.4,0.3,0.6c0.1,0.2,0.2,0.4,0.2,0.6c0,0.2,0.1,0.4,0.1,0.7c0,0.9-0.4,1.8-1,2.4
				C391.3,164.2,390.4,164.5,389.5,164.5z"/>
		</g>
	</g>
	<g>
		<path class="st27" d="M332,57.6c0,0-3.6-7.8,2.9-15.3c0,0,24.7,16,52.4,11.5c0,0,3,8.3-5.5,16.1C381.9,69.9,352.3,75.5,332,57.6z"
			/>
		<path class="st26" d="M374.4,22.1c-17.8-15-51.5-17.1-94.2-10.3c-36.7,5.9-74.1,19.8-86.6,39.4c-5.7,8.9-1.8,33.7-1.8,33.7
			C225.6,87,238,58,238,58s-2.3-8.3,5.3-11.9c26.5-12.8,67.6-17.1,82.9-13.4c8.2,2,8.8,9.6,8.8,9.6s20.9,23.7,52.3,11.1
			C387.3,53.4,382.5,28.9,374.4,22.1z"/>
		<path class="st27" d="M244.9,71.3c0,0,1-8.6-7.6-13.6c0,0-18.5,23-46.1,27.4c0,0-0.3,8.9,10.2,13.5
			C201.4,98.6,231.3,94.6,244.9,71.3z"/>
	</g>
	<g>
		<defs>
			<path id="SVGID_14_" d="M238.1,256.1H104.2c-7.9,0-14.2-6.4-14.2-14.2v-78.7c0-7.9,6.4-14.2,14.2-14.2h133.9
				c7.9,0,14.2,6.4,14.2,14.2v78.7C252.3,249.7,246,256.1,238.1,256.1z"/>
		</defs>
		<clipPath id="SVGID_15_">
			<use xlink:href="#SVGID_14_"  style="overflow:visible;"/>
		</clipPath>
		<path class="st30" d="M238.1,256.1H104.2c-7.9,0-14.2-6.4-14.2-14.2v-78.7c0-7.9,6.4-14.2,14.2-14.2h133.9
			c7.9,0,14.2,6.4,14.2,14.2v78.7C252.3,249.7,246,256.1,238.1,256.1z"/>
		<path class="st31" d="M252.3,163.2c0-7.9-6.4-14.2-14.2-14.2H104.2c-7.9,0-14.2,6.4-14.2,14.2l73.6,59.7c4.3,3.5,10.6,3.5,14.9,0
			L252.3,163.2z"/>
		<radialGradient id="SVGID_16_" cx="107.1551" cy="187.3676" r="67.1821" gradientUnits="userSpaceOnUse">
			<stop  offset="0" style="stop-color:#FFFFFF"/>
			<stop  offset="1" style="stop-color:#FFFFFF;stop-opacity:0"/>
		</radialGradient>
		<path class="st32" d="M99.5,245v-78.7c0-7.9,6.4-14.2,14.2-14.2h133.2c-2.4-1.9-5.5-3.2-8.8-3.2H104.2c-7.9,0-14.2,6.4-14.2,14.2
			v78.7c0,7.9,6.4,14.2,14.2,14.2h0.6C101.6,253.5,99.5,249.5,99.5,245z"/>
		<linearGradient id="SVGID_17_" gradientUnits="userSpaceOnUse" x1="171.1697" y1="148.9337" x2="171.1697" y2="215.8308">
			<stop  offset="0" style="stop-color:#FFD71D"/>
			<stop  offset="1" style="stop-color:#FEB200"/>
		</linearGradient>
		<path class="st33" d="M162.2,212.4L90,148.9h162.3l-72.2,63.5C175,217,167.3,217,162.2,212.4z"/>
		<path class="st34" d="M162.2,212.4L90,148.9h162.3l-72.2,63.5C175,217,167.3,217,162.2,212.4z"/>
	</g>
	<path class="st4" d="M300.9,84.1c0,0,4.6-13.3,4.9-14.8c1.9-8.7,2.4-27.4,2.3-31.4c-0.1-4-0.5-7.5-0.6-8c-0.1-0.5-2.6-3.2-2.6-3.2
		c0,0-0.8,0.1-0.8,0.1l0,0.5l-1.1-0.9l-0.9,0l-0.1,0.4l-1.3-0.6l-1.2,0c0,0,0.8,2.5,1.2,4.1c0.5,1.5,0,1.7,0,1.7s-1,0.4-1.4,0.3
		c-0.4-0.1-1.7-0.1-1.7-0.1s3.7,4.9,3.9,5.3c0.2,0.4,2.3,2.7,1.5,7c-1.4,7.8-5.3,19.4-5.3,19.4c0.1-0.3-5,14.4-5,14.4L300.9,84.1z"
		/>
	<linearGradient id="SVGID_18_" gradientUnits="userSpaceOnUse" x1="292.4804" y1="96.6119" x2="301.8138" y2="70.112">
		<stop  offset="7.207540e-03" style="stop-color:#D4EEFF"/>
		<stop  offset="0.9892" style="stop-color:#F6FBFF"/>
	</linearGradient>
	<path class="st35" d="M298.4,101.8c1.4-11.2,7.2-24.3,7.2-24.3s-8.8-1.7-11-4.9c0,0-3,7.4-4.8,11.1c-1.9,4.1-4.6,8.5-1.2,10.9
		C291.8,96.9,297.9,105.7,298.4,101.8z"/>
	<path class="st7" d="M264.8,249v7.2h13.9c0,0-0.5-2.6-7.1-3.8l-1-3.4H264.8z"/>
	<path class="st7" d="M285.9,249v7.2h13.9c0,0-0.5-2.6-7.1-3.8l-1-3.4H285.9z"/>
	<path class="st36" d="M267.1,141.6c0,0-1.9,20.2-2,39.1c-0.1,18.9-1.2,69.9-1.2,69.9h7.7c0,0,7.9-49.1,10.8-61.3
		c2.9-12.2,10.3-47.5,10.3-47.5L267.1,141.6z"/>
	<path class="st4" d="M278.9,74.8c0,0-0.5,3.9-0.9,5.8c-0.4,2-0.7,3-1,3.6c-0.7,1.3-4.7,5.4-4.7,5.4s12.7,6.7,16.4,6.7
		s2.4-7.5,2.4-7.5s-4.1-3.2-4.7-4.8c-0.6-1.6-0.9-6.3-0.9-6.3L278.9,74.8z"/>
	<path class="st36" d="M283.7,163.5c0,0,1.4,31.9,1.7,37.6c0.3,5.7,0,49.5,0,49.5s7.2,0.2,7.2,0c0-0.2,6.8-49.7,7.6-63.7
		c0.9-14,0.4-30.6,1.5-32.5c1.2-1.9-3.1-12.6-3.1-12.6l-10.1-0.4L283.7,163.5z"/>
	<linearGradient id="SVGID_19_" gradientUnits="userSpaceOnUse" x1="281.0634" y1="93" x2="281.0634" y2="153.6011">
		<stop  offset="7.207540e-03" style="stop-color:#D4EEFF"/>
		<stop  offset="0.9892" style="stop-color:#F6FBFF"/>
	</linearGradient>
	<path class="st37" d="M274.8,85.8c0,0-10.7-4.3-12.5-0.8c-1.3,2.7-0.2,19.8,0.4,24.6c0.5,4.2,3.4,39.2,3.4,39.2s4,6.2,23.3,3.7
		c7.4-1,11.1-4.6,11.1-4.6s-2.1-41.8-2.7-46c-0.6-4.2-2.6-10.7-2.6-10.7l-5.7-3.8c0,0,1.8,4-3.3,5.2C275.7,95,274.8,85.8,274.8,85.8
		z"/>
	<path class="st4" d="M289,60.2c1.2,0.5,3.3,1.6,3.6,2.6c0.2,1,1.1,4,1.2,5.7c0.1,1.8,0.4,5.1,0.4,7.2c0,2.1-1.3,6.3-1.7,6.8
		c-0.5,0.4-4,1.2-5.2,0.8c-1.2-0.3-8.2-4-8.6-8.4c0,0-1.2,0.7-3.5-3c-0.6-1,1.5-8.1,1.7-9.4c0.7-3.1,8.3-0.7,10-1.1
		C288.6,61,289,60.2,289,60.2z"/>
	<path class="st7" d="M292.6,62.8c0,0-5.4,3.4-7.4,3.5c-2.1,0.2-5.2,3-5.1,3.9c0.1,0.9-0.9,1.5-0.9,1.5s-1.3-2.1-2.4-1.9
		c-2.1,0.4-0.9,3,0.3,3.6c1.1,0.6,2.3,0.9,2.3,0.9s0.2,1.2,0.1,2.2c-0.1,1-0.9,2.6-0.9,2.6s-2.5-5.2-4.7-7.1
		c-5.3-4.6-1.5-13.2,3.7-14.8c2.1-0.7,7.9-1.1,10.7,0.2C292,59.2,292.6,62.8,292.6,62.8z"/>
	<path class="st38" d="M281.4,70.1c0.1,0.2,0.6,0.2,0.7,0.3c0.2,0.1,0.1,0.1,1.1,1.6c0.7,1.1,1.9,1.4,4.1,0.7c1.7-0.6,1.5-2,1.6-2.7
		c0.1-0.7,0.3-0.8,0.5-0.9c0.3,0,0.4,0,0.8,0.6c0.4,0.6,0.5,2.2,2.3,1.9c1.2-0.2,1.5-0.5,1.7-1.5c0.1-0.9,0.2-1.7,0.1-2.3
		c0-0.6-0.1-1-0.4-1.1c-0.4,0-0.9,0.1-1.5,0.2c-1.1,0.2-1.8,0.2-2.4,0.6c-0.6,0.4-0.5,0.7-0.8,0.7c-0.3,0.1-0.4-0.2-1-0.4
		c-0.7-0.2-3.5,0.3-4.6,0.5c-1.1,0.2-2.5,0.6-2.5,1C281.2,69.6,281.3,69.9,281.4,70.1z M290.5,68.6c0.1-0.5,0.1-0.5,1.4-0.8
		c1.3-0.3,1.4-0.2,1.7,0c0.3,0.2,0.5,1,0.3,2.1c-0.1,0.6-0.2,1.3-1.3,1.5c-1.2,0.2-1.4-0.4-1.7-1.2
		C290.6,69.4,290.5,68.8,290.5,68.6z M282.9,69.4c0.2-0.3,2-0.5,3.3-0.7c1.3-0.2,1.8-0.2,2,0.3c0.1,0.2,0.2,0.9,0.2,1.7
		c0,0.9-0.2,1.6-2.3,2c-1.5,0.3-2.2-0.1-2.8-1.2C282.8,70.5,282.7,69.7,282.9,69.4z M278.4,70.7l2.9-0.6l1-1.4c0,0-1.1,0.2-3,0.6
		c-0.9,0.2-1.8,0.8-1.8,0.8S278,70.3,278.4,70.7z"/>
	<path class="st4" d="M255.3,85.3c0,0-2.5-16.1-2.6-17.6c-0.1-8.9,4.4-20.8,5.3-24.7c0.9-3.9,1.5-3.3,1.7-3.8
		c0.2-0.5,6.6-1.5,6.6-1.5s1.7-0.7,2.1-0.8c0.4,0,2.1-0.5,2.1-0.5l-1,1.8c0,0-4,3.1-4.3,3.5c-0.3,0.4-2.8,2.1-2.9,6.6
		c-0.2,7.9-0.1,16.5-0.1,16.5c-0.1-0.3,3.8,16.4,3.8,16.4L255.3,85.3z"/>
	<linearGradient id="SVGID_20_" gradientUnits="userSpaceOnUse" x1="268.0068" y1="100.3299" x2="257.1735" y2="79.1633">
		<stop  offset="7.207540e-03" style="stop-color:#D4EEFF"/>
		<stop  offset="0.9892" style="stop-color:#F6FBFF"/>
	</linearGradient>
	<path class="st39" d="M262.7,109.6c-2.7-7.7-9-28.5-9-28.5s9.3-2.3,11.9-5.2c0,0,3.1,9.3,4.4,13.1c1.4,4.3,3.6,9,0,11
		C266.5,102,264,113.4,262.7,109.6z"/>
	<g>
		<path class="st36" d="M442,122.6c2.4,2.2,4.1,1.5,7.7,13.9c2.3,7.9,10.7,47.8,10.7,47.8l-5,2.2c-6.8-19.1-6.8-19-14.7-34.5
			c-3.8-7.5-5.5-14.9-5.5-14.9l-14.7-0.9c-9.2-3.8-6-17.2-6-17.2S439.6,120.4,442,122.6z"/>
		<path class="st36" d="M386.3,110.7l13.3-8.5l12.8,10l16,5.2c0,0,0,0-0.1,0c6.4,2.2,13.8,5.5,16,7.6c2.4,2.2,7.2,5.4,3.3,17.7
			c-2.4,7.9-13.1,47.7-13.1,47.7l-5.4-1c0,0,1.9-23.1,3.8-40.4c0.9-8.4,1.2-10.7,1.2-10.7s-35.7,3.9-47.2-2.2
			C379,132,386.3,117.2,386.3,110.7z"/>
		<path class="st7" d="M434.9,187.5c0,0-0.2,1.4-2.5,2.1c-2.3,0.7-3.9-1.3-3.9-1.3l-0.5,4.7l7.4,5.2h6.2l-3.3-3.7L434.9,187.5z"/>
		<path class="st7" d="M459.7,181c0,0,1.1,2-0.9,3.4c-2,1.3-4.1,0-4.1,0l1,4.7l17.5-5.5L459.7,181z"/>
	</g>
	<g>
		<path class="st4" d="M439.5,63c0,0.3-2.9-3.5-2.9-3.5l-0.7-3c0,0-1.2-1.6-2.1-2.5c-0.9-1-1.7-5-1.7-5l1.2-0.7c0,0,0.6,1.9,0.9,2.2
			c0.3,0.4,1.2,0.5,1.2,0.5s0.1-1.1,0-2.8c-0.1-1.7-1.1-4.8-1.1-4.8l1-0.5c0,0,0.7,1.5,0.9,2.2c0.2,0.7,0.6,2.1,0.6,2.1
			s-0.1-2.3-0.3-3.2c-0.2-0.9-0.4-2.2-0.4-2.2l1-0.3c0,0,0.5,1.5,0.7,2.6c0.2,1.1,0.5,2.9,0.5,2.9s0.1-2.5,0-3.3
			c-0.1-0.8-0.1-1.2-0.1-1.2l1.1,0c0,0,0.4,1.1,0.4,2.5c0,1.3,0.1,2,0.1,2s0.4-2,0.3-2.7c-0.1-0.7,0-0.9,0-0.9l0.8,0.1
			c0,0,0.5,3.4,0.6,5.4c0.2,2-0.1,4.6-0.1,6c0,1.4-0.1,2.6-0.1,2.6L439.5,63z"/>
		<path class="st4" d="M417,66.9c6.8,5.6,13.7,9.8,13.7,9.8s2.5-6.4,3.8-10.9c1.4-5.4,1.9-7.9,1.9-7.9l5.2-0.4
			c0,0-1.6,13.8-3.7,23.2c-2,9.1-4.5,7.5-6.6,7c-2.2-0.4-22.7-11.5-22.7-11.5l2.2-11.7C410.7,64.5,412.1,62.9,417,66.9z"/>
		<path class="st40" d="M395.3,33.8c1.1-0.6,6.4-1.1,9.7,1c6.3,3.9,3.3,14.6,2.9,17.1c-0.4,2.5,1.9,6.9,1.8,9.9c0,2.9-0.7,4-2.9,6.9
			c-0.7,0.8-0.8,2.3-0.8,2.3s-2.4-3.6-3-8.7c-0.5-5.1-1.6-3.9-4.1-9.5c-2.5-5.6-2.6-14-2.6-14L395.3,33.8z"/>
		<path class="st40" d="M400.6,37.4l-5.3-3.6c0,0-4.5-0.6-7.1,3.4c-2.6,4-3.5,9.8-4.1,14.2c-0.6,4.4-2.1,12.6-2,15.8
			c0.1,3.3,4.1,3.7,4.1,3.7l13.3-5.7c0,0-1.6-7-0.1-14.4C400.7,43.3,400.6,37.4,400.6,37.4z"/>
		<path class="st4" d="M405,38.5c0.3,1.7,1.6,6.5,1.7,9.6c0.1,3.1-0.2,8.2-2.3,9.7c-2.1,1.4-5.9,0.3-8.8-0.9c-2.8-1.2-3.5-3.2-4.1-5
			c-0.6-1.8-0.4-6.7,0.3-10.1c0.6-3.5,2.9-4.9,5.4-5.4C399.8,35.9,405,38.5,405,38.5z"/>
		<path class="st4" d="M393.5,50.1c0,0,0.7,7.7-0.9,11.4c-1.1,2.5-5.7,3.6-5.7,3.6s-0.2,7,4.4,13.7c4.6,6.7,18.8,9.2,18.8,9.2
			s2.8-5.6,4.3-11.9c1.5-6.3-2.5-11.1-2.5-11.1s-3.9-1.3-5.7-2c-4.5-1.7-4-8.8-4-8.8L393.5,50.1z"/>
		<linearGradient id="SVGID_21_" gradientUnits="userSpaceOnUse" x1="399.0844" y1="63.3333" x2="399.0844" y2="124.5">
			<stop  offset="7.207540e-03" style="stop-color:#D4EEFF"/>
			<stop  offset="0.9892" style="stop-color:#F6FBFF"/>
		</linearGradient>
		<path class="st41" d="M402.1,68c0,0-9.2-2.3-12-4.1l-9.1,5.4c0,0-5.4,5.1,3.8,18.6c0,0,3.5,12.3-2.2,33.9c0,0,1.5,5.6,10.1,2.6
			c7.4-2.6,7.5-4.5,14-6.2c9.5-2.4,12-3.9,12-3.9c-5-7.5-4.1-19.3-4.1-19.3s5.7-5.4,3.2-11c-3.5-8-4.7-19.4-4.7-19.4l-4.9-1.2
			c0,0-2.6,3.2-3.9,4.2C403.1,68.6,402.1,68,402.1,68z"/>
		<path class="st28" d="M406.1,62.9c0,0-1.1,4.2-4,5.1c0,0,1.1,5.7,3.8,4.7c3.8-1.4,2.3-9.3,2.3-9.3L406.1,62.9z"/>
		<path class="st28" d="M389,63.2c0,0,1.8,8.7,6.6,9.5c4.8,0.7,6.5-4.6,6.5-4.6s-10.2-3-11.2-6.1L389,63.2z"/>
		<path class="st40" d="M397.5,36.3c-0.9,0.1-1.5,4.3-1.6,6.6c-0.1,2.4-3.6,4.2-2.1,9.4c1.6,5.2,1.3,10.2,3.4,15.8
			c2.1,5.7-0.5,7.7-1.6,9.7c0,0-4.5-4.9-6-7.3c-2.4-3.9-6.4-2.9-6.4-2.9s6.8-13.2,6.6-16.8c-0.2-3.6-0.9-9,2-12.3
			C394.7,35.4,397.5,36.3,397.5,36.3z"/>
		<path class="st4" d="M394,46.9c0,0-1.9-2.1-3.1-1.8c-1.2,0.3-1.3,2.2-0.4,3.7c1,1.5,4.5,2.4,4.5,2.4L394,46.9z"/>
		<path class="st40" d="M398.3,42.8c1.7,0.2,2.7-0.1,5.4-0.4c3.4-0.4,4.9,0.5,4.9,0.5l-1.3-5.7c0,0-4-2.2-6.8-2.2
			c-3.6,0-6.8,1.4-5,2.6C397.3,38.8,398.3,42.8,398.3,42.8z"/>
		<g>
			<path class="st4" d="M388.7,75.7c-0.6,7.2-2.7,27.6-2.7,27.6c6.5,5.7,15.7,15.2,15.7,15.2s-2.6,5.2-3.7,4.3c-9-7-19.2-11.2-20-16
				c-1.2-8-1.6-28.2,1.3-34.8C381.7,66.8,389.4,68.1,388.7,75.7z"/>
			<path class="st4" d="M405.7,119c2.7,1,4.4,2,4.3,3c-0.1,0.7-2.4-0.6-3.8-0.5c0.5,1,1.7,2.5,3.3,3.3c1.8,0.9,2.8,2.1,1.8,3.2
				c-1,1-2.7,2.5-3.9,2c-1.2-0.5-5.3-3.4-6.8-4.2c-1.6-0.8-2.2-2.7-3-3.3c-0.8-0.5,1.5-4.6,1.5-4.6c0.4,0.1,2.7,0.6,2.7,0.6
				s1.8,0.3,2.2,0.2C404.4,118.5,405.7,119,405.7,119z"/>
		</g>
	</g>
</g>
<g id="DESIGNED_BY_FREEPIK">
</g>
</svg>
