<?xml version="1.0" encoding="utf-8"?>
<!-- Generator: Adobe Illustrator 22.0.0, SVG Export Plug-In . SVG Version: 6.00 Build 0)  -->
<svg version="1.1" id="圖層_1" xmlns="http://www.w3.org/2000/svg" xmlns:xlink="http://www.w3.org/1999/xlink" x="0px" y="0px"
	  style="enable-background:new 0 0 30 512;" xml:space="preserve">
<style type="text/css">
	.st0{fill:#00C300;}
</style>
<path class="st0" d="M25.5,245.2c-2.8-2.3-6.6-3.6-10.5-3.6s-7.7,1.3-10.5,3.6C1.6,247.5,0,250.7,0,254c0,3.1,1.4,6.1,4,8.4
	c2.3,2.1,5.4,3.4,8.8,3.8v3.3c0,0.5,0.4,0.9,0.9,0.9c1.5,0,5.6-1.9,9.1-4.5c2.1-1.6,3.7-3.3,4.9-5.1c1.5-2.2,2.2-4.5,2.2-6.7
	C30,250.7,28.4,247.5,25.5,245.2z M9.6,257.7h-3c-0.5,0-0.8-0.3-0.8-0.6v-6.1c0-0.4,0.4-0.6,0.9-0.6s0.9,0.3,0.9,0.6v5.2h2
	c0.4,0,0.6,0.3,0.6,0.8C10.3,257.4,10,257.7,9.6,257.7z M12.5,257c0,0.4-0.4,0.6-0.9,0.6c-0.5,0-0.9-0.3-0.9-0.6v-6.1
	c0-0.4,0.4-0.6,0.9-0.6s0.9,0.3,0.9,0.6V257z M18.4,257c0,0.4-0.4,0.6-0.9,0.6c-0.4,0-0.7-0.2-0.9-0.5l-1.5-2.9v2.7
	c0,0.4-0.4,0.6-0.9,0.6c-0.5,0-0.9-0.3-0.9-0.6v-6.1c0-0.4,0.4-0.6,0.9-0.6c0.6,0,0.8,0.2,1.1,0.8l1.3,2.6v-2.7
	c0-0.4,0.4-0.6,0.9-0.6s0.9,0.3,0.9,0.6V257z M22.3,253.2c0.4,0,0.6,0.3,0.6,0.8c0,0.4-0.2,0.7-0.6,0.7h-1.2v1.4h2.4
	c0.4,0,0.6,0.3,0.6,0.8c0,0.5-0.3,0.8-0.6,0.8h-3.4c-0.5,0-0.8-0.3-0.8-0.6v-6.1c0-0.4,0.3-0.6,0.8-0.6h3.4c0.4,0,0.6,0.3,0.6,0.8
	c0,0.5-0.3,0.8-0.6,0.8h-2.4v1.4H22.3z"/>
</svg>
