<?xml version="1.0" encoding="utf-8"?>
<!-- Generator: Adobe Illustrator 22.0.0, SVG Export Plug-In . SVG Version: 6.00 Build 0)  -->
<svg version="1.1" id="Capa_1" xmlns="http://www.w3.org/2000/svg" xmlns:xlink="http://www.w3.org/1999/xlink" x="0px" y="0px"
	 viewBox="0 0 505.3 505.3" style="enable-background:new 0 0 505.3 505.3;" xml:space="preserve">
<style type="text/css">
	.st0{fill:#53953F;}
	.st1{fill:#A0CCDA;}
	.st2{fill:#111111;}
</style>
<path class="st0" d="M241.4,332.3l20.9,21.4v0.5l-53.8,53.3c-26.6,26.6-69.5,26.6-96.1,0l-7.3-7.3l-7.3-7.3
	c-26.6-26.6-26.6-69.5,0-96.1l53.8-53.8l0,0l20.9,20.9L241.4,332.3z"/>
<path class="st1" d="M407,112.9c26.6,26.6,26.6,69.5,0,96.1l-53.8,53.8h-0.5L241.9,152.6l0,0l53.8-53.8c26.6-26.6,69.5-26.6,96.1,0
	l7.3,7.3L407,112.9z"/>
<g>
	<path class="st2" d="M285.3,267l-43.9,43.4l-46.5-46.5l43.4-43.9c6.3-6.3,6.3-16.2,0-21.9c-6.3-6.3-16.2-6.3-21.9,0L173,241.4
		L163,231l-14.1-13.6c-6.3-5.7-16.2-5.7-21.9,0.5s-5.7,16.2,0.5,21.9l2.6,2.6l-42.8,42.8c-15.7,15.7-24.6,37.1-24.6,59
		c0,20.4,7.3,39.7,20.9,55.4l-2.6,2.6c-26.6,26.6-26.6,71.1,0,98.2c3.1,3.1,7.3,4.7,11,4.7c4.2,0,7.8-1.6,11-4.7
		c6.3-6.3,6.3-16.2,0.5-21.9c-14.6-15.2-14.6-39.7,0-54.3l2.6-2.6c15.2,13.6,34.5,20.9,55.4,20.9c22.5,0,43.4-8.9,59-24.6l42.8-42.8
		l2.6,2.6c3.1,3.1,7.3,4.7,11.5,4.7c3.7,0,7.8-1.6,11-4.2c6.3-5.7,6.3-15.7,0.5-21.9l-14.1-14.6l-9.9-9.9l43.4-43.4
		c6.3-6.3,6.3-16.2,0-21.9C301.5,260.8,291.6,260.8,285.3,267z M197.5,396.6c-9.9,9.9-23,15.2-37.1,15.2s-27.2-5.2-37.1-15.2
		L108.7,382c-9.9-9.9-15.2-23-15.2-37.1s5.2-27.2,15.2-37.1l43.4-43.4l6.8,6.8c0.5,1.6,1.6,2.6,2.6,4.2c1,1,2.6,2.1,3.7,2.6
		l62.2,62.2c0.5,1.6,1.6,2.6,2.6,3.7s2.6,2.1,3.7,2.6l6.8,6.8L197.5,396.6z"/>
	<path class="st2" d="M424.3,103c26.6-26.6,26.6-71.1,0-98.2c-6.3-6.3-16.2-6.3-21.9-0.5c-6.3,6.3-6.3,16.2-0.5,21.9
		c14.6,15.2,14.6,39.7,0,54.3l-2.6,2.6c-15.2-13.6-34.5-20.9-55.4-20.9c-22.5,0-43.4,8.9-59,24.6l-42.8,43.4l-2.1-2.6
		c-5.7-6.3-15.7-6.3-21.9-0.5c-6.3,5.7-6.3,15.7-0.5,21.9l13.6,14.1l110.8,110.8l14.1,13.6c3.1,3.1,6.8,4.2,11,4.2
		c4.2,0,8.4-1.6,11.5-4.7c5.7-6.3,5.7-16.2-0.5-21.9l-2.6-1.6l42.8-42.8c15.7-15.7,24.6-37.1,24.6-59c0-20.4-7.3-39.7-20.9-55.4
		L424.3,103z M396,198.1l-43.4,43.4l-88.8-88.8l43.4-43.4c9.9-9.9,23-15.2,37.1-15.2s27.2,5.2,37.1,15.2l14.6,14.6
		c9.9,9.9,15.2,23,15.2,37.1C411.2,175.1,406,188.1,396,198.1z"/>
</g>
</svg>
