<?xml version="1.0" encoding="utf-8"?>
<!-- Generator: Adobe Illustrator 22.0.0, SVG Export Plug-In . SVG Version: 6.00 Build 0)  -->
<svg version="1.1" id="圖層_1" xmlns="http://www.w3.org/2000/svg" xmlns:xlink="http://www.w3.org/1999/xlink" x="0px" y="0px"
	 viewBox="0 0 512 512" style="enable-background:new 0 0 512 512;" xml:space="preserve">
<style type="text/css">
	.st0{fill:#A0CCDA;}
	.st1{fill:#FFDEA2;}
	.st2{fill:#111111;}
</style>
<path class="st0" d="M134,400.5c3.1,20.1-13,85,29.6,85h118.4c42.3,0,26.5-64.8,29.6-84.8C260.5,454.7,183.3,454.3,134,400.5
	L134,400.5z"/>
<path class="st1" d="M408.2,201.9c-24.1-1-32,18.5-42.8,23.3h-0.2c-2.5,1.1-6.3,1.1-8.8,0h-0.2c-2.1-1-3.6-1.8-6-5.4
	c0-0.2,0-0.2,0-0.2c-1.6-2.9-0.7,6.5-0.9-162.4c0-11.4-10.4-20.7-23.2-20.7c-12.7,0-34.7,9.3-34.7,20.7v155c0,5.8,6.4,10.3,0,10.3
	c-6.5,0-11.6-4.5-11.6-10.3V36.7c0-11.4-10.4-20.7-23.2-20.7c-12.7,0-23.2,9.3-23.2,20.7c-4.4,160.8,10.5,185.9-11.6,185.9
	c-21.3,0-7.2-22.1-11.6-165.3c0-11.4-10.4-20.7-23.2-20.7c-12.7,0-23.2,9.3-23.2,20.7v155c0,13.7-23.2,13.7-23.2,0V98.6
	c0-11.4-10.4-20.7-23.2-20.7s-23.1,9.3-23.1,20.7v216.9c0,51.3,39,83.5,41.2,83.5c0.9,0.6,1.9,1.5,2.8,2.3
	c48.6,38.2,120.8,36.6,167.7-1c26-15.5,48.9-77.3,125.5-145.7C457.8,229.1,424.2,201.9,408.2,201.9L408.2,201.9z"/>
<path class="st2" d="M90.7,229.3c-8.8,0-16-7.2-16-16V112c0-26.5,21.5-48,48-48s48,21.5,48,48v96c0,8.8-7.2,16-16,16s-16-7.2-16-16
	v-96c0-8.8-7.2-16-16-16s-16,7.2-16,16v101.3C106.7,222.2,99.5,229.3,90.7,229.3z"/>
<path class="st2" d="M218.7,234.7c-8.8,0-16-7.2-16-16V69.3c0-8.8-7.2-16-16-16s-16,7.2-16,16v149.3c0,8.8-7.2,16-16,16
	s-16-7.2-16-16V69.3c0-26.5,21.5-48,48-48s48,21.5,48,48v149.3C234.7,227.5,227.5,234.7,218.7,234.7z"/>
<path class="st2" d="M282.7,234.7c-8.8,0-16-7.2-16-16V48c0-8.8-7.2-16-16-16s-16,7.2-16,16v170.7c0,8.8-7.2,16-16,16s-16-7.2-16-16
	V48c0-26.5,21.5-48,48-48s48,21.5,48,48v170.7C298.7,227.5,291.5,234.7,282.7,234.7z"/>
<path class="st2" d="M346.7,243.6c-8.8,0-16-7.2-16-16V69.3c0-8.8-7.2-16-16-16c-8.8,0-16,7.2-16,16v149.3c0,8.8-7.2,16-16,16
	c-8.8,0-16-7.2-16-16V69.3c0-26.5,21.5-48,48-48s48,21.5,48,48v158.3C362.7,236.5,355.5,243.6,346.7,243.6z"/>
<path class="st2" d="M218.7,448c-43.1,0-144,0-144-117.3V207.4c0-8.8,7.2-16,16-16s16,7.2,16,16v123.3c0,71.1,42.9,85.3,112,85.3
	c49.6,0,79.6-5.4,96.4-33.7c24.9-42.1,54.5-79.7,93.1-118.4c0.4-0.3,34.7-35.9,17.2-56.1c-2.6-3-5.5-4.4-9.7-4.5
	c-15.7-0.6-38.1,16-44.8,22.9L358,238.9c-6.3,6.3-16.4,6.3-22.6,0s-6.3-16.4,0-22.6l12.6-12.6c8.4-8.6,39.7-32.5,68.6-32.4
	c13.1,0.4,24.5,5.8,32.9,15.5c29.6,34.2,2.2,78.7-18.7,99.6c-37.2,37.3-64.4,71.9-88.2,112.1C315.6,444.2,266.6,448,218.7,448z"/>
<path class="st2" d="M282.7,512h-128c-20.6,0-37.3-16.7-37.3-37.3v-58c0-8.8,7.2-16,16-16s16,7.2,16,16v58c0,2.9,2.4,5.3,5.3,5.3
	h128c2.9,0,5.3-2.4,5.3-5.3v-58.9c0-8.8,7.2-16,16-16c8.8,0,16,7.2,16,16v58.9C320,495.3,303.3,512,282.7,512z"/>
</svg>
