<?xml version="1.0" encoding="utf-8"?>
<!-- Generator: Adobe Illustrator 22.0.0, SVG Export Plug-In . SVG Version: 6.00 Build 0)  -->
<svg version="1.1" id="Capa_1" xmlns="http://www.w3.org/2000/svg" xmlns:xlink="http://www.w3.org/1999/xlink" x="0px" y="0px"
	 viewBox="0 0 512 512" style="enable-background:new 0 0 512 512;" xml:space="preserve">
<style type="text/css">
	.st0{fill:#82A23C;}
	.st1{fill:#53953F;}
	.st2{fill:#111111;}
</style>
<g>
	<g>
		<path class="st0" d="M508.4,313c-2.4,6-6.1,11.4-10.9,15.8l-0.6,0.6c-8.3,7.7-19.2,12-30.5,11.9h-61c-3.6,0-7-1.9-9-4.9L386.2,320
			l-43.1-68.9c-1.7-2.4-2.1-5.5-1.3-8.3c0.7-2.9,2.5-5.4,5.1-6.8l96-53.3c5.2-2.7,11.6-0.8,14.5,4.3l49.5,88.3
			C513.1,286.9,513.6,300.8,508.4,313z"/>
		<path class="st0" d="M278.7,87.3l-9,12.6l-47.6,66.3c-2,2.8-5.3,4.5-8.7,4.5c-1.8,0-3.5-0.4-5.1-1.3l-117.3-64
			c-2.7-1.5-4.7-4-5.3-7c-0.7-3.1,0-6.3,1.9-8.7l45.7-60.8c1.8-2.5,3.8-4.8,6-7C152,8.2,169.7,0.4,188.4,0c1,0,2,0,3,0.2
			c22.8,0.7,44,12.2,57,30.9l30.3,43.9C281.2,78.8,281.2,83.6,278.7,87.3z"/>
		<path class="st0" d="M210,295.9c-3.2,3-8,3.7-11.9,1.7L164.7,281l-19.4,39l-7.7,15.4c-1.8,3.6-5.5,5.9-9.6,6H45.7
			c-11.4,0.1-22.5-4.2-30.7-12.2l-0.4-0.4c-4.9-4.5-8.8-10-11.3-16.2c-3.3-8.3-4-17.5-2.1-26.2c0.8-3.8,2.1-7.4,3.8-10.9l35.4-70.6
			L3.2,167.5c-3.2-2.9-4.1-7.6-2.3-11.5c1.6-4,5.5-6.6,9.8-6.6h138.7c4.3,0,8.2,2.6,9.8,6.6l53.3,128
			C214.2,288.1,213.2,292.8,210,295.9z"/>
	</g>
</g>
<g>
	<g>
		<path class="st1" d="M213.4,330.7v128c0,5.9-4.8,10.7-10.7,10.7h-51.8c-24.5,0.1-47.4-12-61.2-32.2c-3-4.3-5.5-8.1-7.9-11.5
			l-0.9-0.9c0.2,0-4.1-6-8.1-11.9c-1.9-2.6-3.4-5.1-4.9-7c-5.5-8.1-8.5-12.2-7.3-10.5c-1.1-1.7-2.1-3-2.6-3.8l-0.2-0.2
			c-0.9-1.3-1.1-1.7-1.2-1.8l-0.3-0.3l-0.2-0.4c-14.9-21.5-28.8-41.6-41.2-59.5l-0.4-0.4c-4.1-5.5-7.7-11.1-11.3-16.2
			c-3.3-8.3-4-17.5-2.1-26.2l28.8,27.5c4.2,4.1,9.9,6.3,15.8,6.2h157C208.6,320,213.4,324.8,213.4,330.7z"/>
		<path class="st1" d="M447.2,57.4l-53.3,128c-1.6,4-5.5,6.6-9.8,6.6c-0.6,0-1.3,0-1.9-0.2l-117.3-21.3c-4.5-0.9-7.9-4.5-8.7-9
			c-0.6-4.6,1.8-9.1,6-11.1l31.6-15.8l-23.9-34.8l-38.8-56.7c-9.4-13.3-24.7-21.3-41-21.3h-50.8c10.5-11.2,24.5-18.5,39.7-20.9
			l9.6-0.6h3L329.2,0c17.9-0.1,34.6,8.8,44.6,23.7l24.5,37.1l34.3-17.1c3.9-2,8.7-1.3,11.9,1.7C447.8,48.5,448.9,53.3,447.2,57.4z"
			/>
		<path class="st1" d="M508.4,313l-10,14.5l-0.9,1.3l-0.6,0.6l-74.2,107.7c-13.9,20.2-36.9,32.3-61.4,32.2h-19.8v32
			c0,4.4-2.7,8.4-6.8,10c-1.2,0.4-2.5,0.6-3.8,0.6c-3,0-5.9-1.3-7.9-3.6l-85.3-96c-3.4-3.7-3.6-9.2-0.6-13.2l85.3-117.3
			c2.6-3.8,7.4-5.4,11.7-4.1c4.5,1.4,7.5,5.6,7.5,10.2v32h125c5.9,0.1,11.6-2.1,15.8-6.2l28.8-27.5C512.9,295.2,512,304.6,508.4,313
			z"/>
	</g>
</g>
<path class="st2" d="M202.7,469.3H151c-24.5,0-47.5-12-61.4-32.2l-74.8-108c-5.5-5.1-9.7-11.6-12.1-18.9c-3.8-11.5-3-23.9,2.5-34.7
	l35.3-70.8L3.2,167.6c-3.1-3.1-4-7.6-2.3-11.6c1.6-4,5.5-6.6,9.9-6.6h138.7c4.3,0,8.2,2.6,9.8,6.6l53.3,128
	c1.7,4.1,0.7,8.9-2.6,11.9c-3.3,3.1-8.1,3.7-12.1,1.7L164.8,281l-19.5,39h57.4c5.9,0,10.7,4.8,10.7,10.7v128
	C213.4,464.6,208.6,469.3,202.7,469.3z M49.1,341.3l58,83.7c10,14.4,26.3,23,43.9,23H192V341.3h-63.8c-0.2,0-0.3,0-0.4,0H49.1z
	 M30.7,314.8c1.3,1,2.7,1.9,4.2,2.7c3.3,1.7,7,2.5,10.8,2.5h75.7l29.1-58.1c2.6-5.3,9-7.4,14.3-4.8l17,8.5l-39.6-95H36.5l24.4,24.4
	c3.2,3.2,4.1,8.2,2,12.3l-38.8,77.7c-2.9,5.8-3.3,12.3-1.3,18.4c0.9,2.7,2.2,5.1,3.9,7.3c1.3,0.7,2.5,1.8,3.4,3.1L30.7,314.8z"/>
<path class="st2" d="M361.3,469.3c0,0-0.1,0-0.1,0h-30.4c-5.9,0-10.7-4.8-10.7-10.7s4.8-10.7,10.7-10.7h30.5c0,0,0.1,0,0.1,0
	c17.5,0,33.9-8.6,43.9-23L482,314c3.3-4.9,10-6.1,14.8-2.7c4.9,3.3,6.1,10,2.7,14.8l-76.8,111.1
	C408.7,457.3,385.8,469.3,361.3,469.3z"/>
<path class="st2" d="M405.4,341.3c0,0-0.1,0-0.2,0h-74.5c-5.9,0-10.7-4.8-10.7-10.7s4.8-10.7,10.7-10.7h55.4L343,251
	c-1.6-2.5-2-5.5-1.3-8.3s2.6-5.2,5.1-6.7l96-53.3c5.1-2.9,11.6-1,14.5,4.1l49.5,88.3c5.7,11.3,6.5,23.6,2.7,35.2
	c-3.9,11.5-12,20.9-22.8,26.3c-6.3,3.2-13.3,4.8-20.3,4.8h-60.9C405.5,341.3,405.4,341.3,405.4,341.3z M411.3,320h55.2
	c3.7,0,7.4-0.9,10.7-2.5c5.8-2.9,10-7.8,12.1-14c2-6.1,1.6-12.7-1.3-18.4l-44.1-78.6L367,249.2L411.3,320z"/>
<path class="st2" d="M384,192c-0.6,0-1.3,0-1.9-0.2l-117.3-21.3c-4.5-0.8-8-4.4-8.7-9c-0.6-4.5,1.7-9,5.8-11.1l31.7-15.9l-24-35
	L222,166.2c-3.1,4.4-9,5.8-13.8,3.2l-117.3-64c-2.7-1.5-4.7-4.1-5.3-7.1c-0.7-3,0-6.2,1.9-8.7l45.7-60.9C149,7.8,174.2-2,198.5,0.9
	c1.3-0.6,2.7-0.9,4.2-0.9h126.6c0,0,0.1,0,0.1,0c17.9,0,34.5,8.9,44.4,23.8l24.7,37.1l34.2-17.1c4-2,8.8-1.3,12,1.7
	c3.3,3.1,4.3,7.8,2.6,11.9l-53.3,128C392.2,189.5,388.3,192,384,192z M300.1,155.2l77.4,14.1l39-93.6l-17,8.5
	c-4.8,2.3-10.7,0.9-13.7-3.6l-29.9-45c-5.9-8.9-15.9-14.2-26.6-14.2c0,0,0,0,0,0h-88.9c3,3,5.7,6.3,8.1,9.7l69.8,101.5
	c1.7,2.5,2.3,5.7,1.5,8.7s-2.8,5.5-5.6,6.9L300.1,155.2z M112,92.6l98.2,53.6l46.6-65.2l-25.9-37.8c-3.1-4.5-6.8-8.3-11.1-11.6
	c-21.9-16.4-53-12-69.4,9.9L112,92.6z"/>
<path class="st2" d="M330.8,512c-3,0-5.9-1.3-8-3.6l-85.3-96c-3.3-3.8-3.6-9.3-0.7-13.4l85.3-117.3c2.7-3.8,7.6-5.3,11.9-3.9
	c4.4,1.4,7.4,5.5,7.4,10.2v42.7c0,5.9-4.8,10.7-10.7,10.7s-10.7-4.8-10.7-10.7v-9.9l-61,83.9l61,68.6v-14.6
	c0-5.9,4.8-10.7,10.7-10.7s10.7,4.8,10.7,10.7v42.7c0,4.4-2.7,8.4-6.9,10C333.3,511.8,332,512,330.8,512z"/>
</svg>
