<?xml version="1.0" encoding="utf-8"?>
<!-- Generator: Adobe Illustrator 22.0.0, SVG Export Plug-In . SVG Version: 6.00 Build 0)  -->
<svg version="1.1" id="圖層_1" xmlns="http://www.w3.org/2000/svg" xmlns:xlink="http://www.w3.org/1999/xlink" x="0px" y="0px"
	 viewBox="0 0 394 394" style="enable-background:new 0 0 394 394;" xml:space="preserve">
<style type="text/css">
	.st0{fill:#FFDEA2;}
	.st1{fill:#FFCC6F;}
	.st2{fill:#111111;}
</style>
<path class="st0" d="M74.5,286.6c-40.9,95.5,54.6,81.9,54.6,81.9l68.7,11.6c0-22.6,67.8-38.9,67.8-38.9c37.7,0,68.2-30.6,68.2-68.2
	c0-18.5-7.4-35.3-19.3-47.6L127.2,13.6c0,0-9.6,56.7-25.5,136.5C93.7,190.6,19.9,191.1,74.5,286.6"/>
<path class="st1" d="M320.2,313.9c7.4-42.5-150.1-95.5-236,29.9c-9.4,13.7-2.3,25.9,17.9,25.9c23.4,0,58.5,15,81.6,12.4
	c26.7-3,41.3-23.9,67-30.3C265.1,348.4,318.4,324,320.2,313.9z"/>
<g>
	<path class="st2" d="M211.7,322.4c0,0,24.6-109.6-79.3-2.5c-5.7,5.9-1.6,15.8,6.6,15.8c21.5,0,42.8-3.4,63.1-10.1L211.7,322.4z"/>
	<path class="st2" d="M197.8,394c-7.5,0-13.6-6.4-13.6-13.9c0-30.2,54.7-46.5,78.2-52.1c1.1-0.3,2.1-0.4,3.2-0.4
		c30.1,0,54.6-24.5,54.6-54.6c0-14.3-5.5-27.8-15.5-38.1L117,22.7c-5-5.6-4.5-14.3,1.2-19.3c5.6-5,14.3-4.5,19.3,1.2l187.2,211.8
		c14.5,14.9,22.8,35.2,22.8,56.6c0,44.6-35.8,81-80.2,81.9c-26.6,6.6-53.6,19-55.9,25.7C211.4,388.1,205.3,394,197.8,394z"/>
	<path class="st2" d="M109.5,382.2c-34.4,0-62.4-28-62.4-62.4c0-15.8,5.9-30.9,16.7-42.5c5.1-5.5,13.8-5.8,19.3-0.7
		c5.5,5.1,5.8,13.8,0.7,19.3c-6.1,6.5-9.4,15-9.4,23.9c0,19.3,15.7,35.1,35.1,35.1c4.7,0,9.3-0.9,13.6-2.7
		c6.9-2.9,14.9,0.3,17.9,7.3c2.9,6.9-0.3,15-7.3,17.9C126,380.5,117.9,382.2,109.5,382.2z"/>
</g>
</svg>
