<?xml version="1.0" encoding="utf-8"?>
<!-- Generator: Adobe Illustrator 22.0.0, SVG Export Plug-In . SVG Version: 6.00 Build 0)  -->
<svg version="1.1" id="Layer_1" xmlns="http://www.w3.org/2000/svg" xmlns:xlink="http://www.w3.org/1999/xlink" x="0px" y="0px"
	 viewBox="0 0 512 512" style="enable-background:new 0 0 512 512;" xml:space="preserve">
<style type="text/css">
	.st0{fill:#A0CCDA;}
	.st1{fill:#7BB8CC;}
	.st2{fill:#111111;}
</style>
<circle class="st0" cx="120" cy="120" r="104"/>
<path class="st1" d="M224,120c0,57.4-46.6,104-104,104c-8.3,0-16.3-1-24-2.8c45.9-10.8,80-52,80-101.2S141.9,29.6,96,18.8
	c7.7-1.8,15.7-2.8,24-2.8C177.4,16,224,62.6,224,120z"/>
<circle class="st0" cx="320" cy="248" r="176"/>
<circle class="st0" cx="224" cy="408" r="88"/>
<path class="st1" d="M312,408c0,48.6-39.4,88-88,88c-8.3,0-16.4-1.1-24-3.3c36.9-10.4,64-44.4,64-84.7s-27.1-74.2-64-84.7
	c7.6-2.2,15.7-3.3,24-3.3C272.6,320,312,359.4,312,408z"/>
<path class="st1" d="M496,248c0,97.2-78.8,176-176,176c-8.1,0-16.1-0.5-24-1.6c85.9-11.7,152-85.3,152-174.4S381.9,85.3,296,73.6
	c7.9-1.1,15.9-1.6,24-1.6C417.2,72,496,150.8,496,248z"/>
<path class="st2" d="M224,304c-57.3,0-104,46.7-104,104s46.7,104,104,104s104-46.7,104-104S281.3,304,224,304z M224,480
	c-39.7,0-72-32.3-72-72s32.3-72,72-72s72,32.3,72,72S263.7,480,224,480z"/>
<path class="st2" d="M224,352c-30.9,0-56,25.1-56,56c0,8.8,7.2,16,16,16s16-7.2,16-16c0-13.2,10.8-24,24-24c8.8,0,16-7.2,16-16
	S232.8,352,224,352z"/>
<path class="st2" d="M320,56c-126.1,0-218.3,120.1-185.4,242c2.3,8.5,11.1,13.6,19.6,11.3s13.6-11.1,11.3-19.6
	C138.1,188.1,214.9,88,320,88c88.2,0,160,71.8,160,160c0,75.1-51,139.2-124.1,155.9c-8.6,2-14,10.6-12,19.2c2,8.6,10.6,14,19.2,12
	C449.3,415.4,512,338.2,512,248C512,142.1,425.9,56,320,56L320,56z"/>
<path class="st2" d="M101,205.9C61,197.2,32,161,32,120c0-48.5,39.5-88,88-88c27.7,0,53.3,12.7,70.1,34.8c5.4,7,15.4,8.4,22.4,3
	c7-5.4,8.4-15.4,3-22.4C192.6,17.3,157.8,0,120,0C53.8,0,0,53.8,0,120c0,57.2,40.2,105.3,94.1,117.2c8.6,1.9,17.2-3.5,19.1-12.2
	C115.1,216.4,109.6,207.8,101,205.9L101,205.9z"/>
<path class="st2" d="M432,64h16v16c0,8.8,7.2,16,16,16s16-7.2,16-16V64h16c8.8,0,16-7.2,16-16s-7.2-16-16-16h-16V16
	c0-8.8-7.2-16-16-16s-16,7.2-16,16v16h-16c-8.8,0-16,7.2-16,16S423.2,64,432,64z"/>
<path class="st2" d="M88,344H72v-16c0-8.8-7.2-16-16-16s-16,7.2-16,16v16H24c-8.8,0-16,7.2-16,16s7.2,16,16,16h16v16
	c0,8.8,7.2,16,16,16s16-7.2,16-16v-16h16c8.8,0,16-7.2,16-16S96.8,344,88,344z"/>
<path class="st2" d="M320,120c-70.6,0-128,57.4-128,128c0,8.8,7.2,16,16,16s16-7.2,16-16c0-52.9,43.1-96,96-96c8.8,0,16-7.2,16-16
	S328.8,120,320,120z"/>
<path class="st2" d="M48,120c0,8.8,7.2,16,16,16s16-7.2,16-16c0-22.1,17.9-40,40-40c8.8,0,16-7.2,16-16s-7.2-16-16-16
	C80.3,48,48,80.3,48,120z"/>
</svg>
