<?xml version="1.0" encoding="utf-8"?>
<!-- Generator: Adobe Illustrator 22.0.0, SVG Export Plug-In . SVG Version: 6.00 Build 0)  -->
<svg version="1.1" id="Capa_1" xmlns="http://www.w3.org/2000/svg" xmlns:xlink="http://www.w3.org/1999/xlink" x="0px" y="0px"
	 viewBox="0 0 497.4 497.4" style="enable-background:new 0 0 497.4 497.4;" xml:space="preserve">
<style type="text/css">
	.st0{fill:#111111;}
	.st1{fill:#F7B05B;}
	.st2{fill:#F5992A;}
</style>
<path class="st0" d="M256.2,90.7c-8.8,0-14.6-5.9-14.6-14.6c0-42.4,33.6-76.1,76.1-76.1c8.8,0,14.6,5.9,14.6,14.6
	s-5.9,14.6-14.6,14.6c-26.3,0-46.8,20.5-46.8,46.8C270.9,84.8,263.6,90.7,256.2,90.7z"/>
<path class="st0" d="M241.6,90.7c-8.8,0-14.6-5.9-14.6-14.6c0-26.3-20.5-46.8-46.8-46.8c-8.8,0-14.6-5.9-14.6-14.6S171.4,0,180.2,0
	c42.4,0,76.1,33.6,76.1,76.1C256.2,84.8,250.4,90.7,241.6,90.7z"/>
<circle class="st1" cx="248.9" cy="134.6" r="76.1"/>
<path class="st0" d="M248.9,223.8c-49.7,0-90.7-41-90.7-90.7s41-90.7,90.7-90.7s90.7,41,90.7,90.7S298.7,223.8,248.9,223.8z
	 M248.9,73.1c-33.6,0-61.4,27.8-61.4,61.4s27.8,61.4,61.4,61.4s61.4-27.8,61.4-61.4S282.6,73.1,248.9,73.1z"/>
<path class="st0" d="M248.9,311.6c-1.5,0-4.4,0-5.9-1.5l-158-68.8c-5.9-2.9-8.8-7.3-8.8-13.2v-81.9c0-8.8,5.9-14.6,14.6-14.6
	s14.6,5.9,14.6,14.6v73.1l143.4,62.9l143.4-62.9v-73.1c0-8.8,5.9-14.6,14.6-14.6c8.8,0,14.6,5.9,14.6,14.6v81.9
	c0,5.9-2.9,11.7-8.8,13.2l-158,68.8C253.3,311.6,250.4,311.6,248.9,311.6z"/>
<path class="st0" d="M383.5,497.4c-8.8,0-14.6-5.9-14.6-14.6v-60l-120-52.7l-120,52.7v60c0,8.8-5.9,14.6-14.6,14.6
	s-14.6-5.9-14.6-14.6v-70.2c0-5.9,2.9-11.7,8.8-13.2l134.6-58.5c4.4-1.5,7.3-1.5,11.7,0l134.6,58.5c5.9,2.9,8.8,7.3,8.8,13.2v70.2
	C398.1,491.5,392.3,497.4,383.5,497.4z"/>
<path class="st0" d="M428.9,421.3l-17.6-68.8l-162.4-42.4L86.6,352.5L69,421.3c-1.5,7.3-10.2,13.2-17.6,10.2
	c-7.3-1.5-13.2-10.2-10.2-17.6l19-77.5c1.5-5.9,5.9-8.8,10.2-10.2L246,279.4c2.9,0,4.4,0,7.3,0l174.1,46.8
	c5.9,1.5,8.8,5.9,10.2,10.2l19,77.5c1.5,7.3-2.9,16.1-10.2,17.6C439.1,434.5,430.3,430.1,428.9,421.3z"/>
<ellipse class="st1" cx="248.9" cy="270.6" rx="112.6" ry="158"/>
<path class="st2" d="M335.2,169.7c-14.6-10.2-30.7-16.1-49.7-16.1c-62.9,0-112.6,70.2-112.6,158c0,38,8.8,73.1,26.3,100.9
	c-36.6-24.9-62.9-79-62.9-141.9c0-87.8,49.7-158,112.6-158C284,112.6,314.8,134.6,335.2,169.7z"/>
<path class="st0" d="M248.9,444.7c-70.2,0-127.3-77.5-127.3-172.6S178.7,99.5,248.9,99.5S376.2,177,376.2,272.1
	S319.1,444.7,248.9,444.7z M248.9,127.3c-54.1,0-98,64.4-98,143.4s43.9,143.4,98,143.4s98-64.4,98-143.4S303.1,127.3,248.9,127.3z"
	/>
<path class="st0" d="M248.9,307.2c-8.8,0-14.6-5.9-14.6-14.6v-87.8c0-8.8,5.9-14.6,14.6-14.6c8.8,0,14.6,5.9,14.6,14.6v87.8
	C263.6,301.3,257.7,307.2,248.9,307.2z"/>
<path class="st0" d="M248.9,358.4c-8.8,0-14.6-5.9-14.6-14.6v-1.5c0-8.8,5.9-14.6,14.6-14.6c8.8,0,14.6,5.9,14.6,14.6v1.5
	C263.6,352.5,257.7,358.4,248.9,358.4z"/>
</svg>
