<?xml version="1.0" encoding="utf-8"?>
<!-- Generator: Adobe Illustrator 22.0.0, SVG Export Plug-In . SVG Version: 6.00 Build 0)  -->
<svg version="1.1" id="Layer_1" xmlns="http://www.w3.org/2000/svg" xmlns:xlink="http://www.w3.org/1999/xlink" x="0px" y="0px"
	 viewBox="0 0 512 512" style="enable-background:new 0 0 512 512;" xml:space="preserve">
<style type="text/css">
	.st0{fill:#FFFFFF;}
</style>
<g>
	<path class="st0" d="M256,158.5c-53.7,0-97.5,43.7-97.5,97.5s43.7,97.5,97.5,97.5s97.5-43.7,97.5-97.5S309.7,158.5,256,158.5
		L256,158.5z"/>
	<path class="st0" d="M376.5,0h-241C60.8,0,0,60.8,0,135.5v241C0,451.2,60.8,512,135.5,512h241c74.7,0,135.5-60.8,135.5-135.5v-241
		C512,60.8,451.2,0,376.5,0z M256,383.5c-70.3,0-127.5-57.2-127.5-127.5S185.7,128.5,256,128.5S383.5,185.7,383.5,256
		S326.3,383.5,256,383.5z M409.2,124c-2.8,2.8-6.7,4.4-10.6,4.4c-3.9,0-7.8-1.6-10.6-4.4c-2.8-2.8-4.4-6.7-4.4-10.6
		c0-3.9,1.6-7.8,4.4-10.6c2.8-2.8,6.7-4.4,10.6-4.4s7.8,1.6,10.6,4.4c2.8,2.8,4.4,6.7,4.4,10.6C413.6,117.4,412,121.2,409.2,124z"/>
</g>
</svg>
