<?xml version="1.0" encoding="utf-8"?>
<!-- Generator: Adobe Illustrator 22.0.0, SVG Export Plug-In . SVG Version: 6.00 Build 0)  -->
<svg version="1.1" id="Capa_1" xmlns="http://www.w3.org/2000/svg" xmlns:xlink="http://www.w3.org/1999/xlink" x="0px" y="0px"
	 viewBox="0 0 512 512" style="enable-background:new 0 0 512 512;" xml:space="preserve">
<style type="text/css">
	.st0{fill:#82A23C;}
</style>
<g>
	<g>
		<g>
			<g>
				<path class="st0" d="M386,360c-3.8,0-7.7-1.5-10.6-4.4l-45.1-45.1c-16.1-16.1-16.1-42.3,0-58.4c15.2-15.2,39.5-16,55.7-2.4
					c16.2-13.6,40.5-12.8,55.7,2.4c16.1,16.1,16.1,42.3,0,58.4l-45.1,45.1C393.7,358.5,389.8,360,386,360z"/>
			</g>
			<g>
				<path class="st0" d="M216,395c-3.8,0-7.7-1.5-10.6-4.4l-45.1-45.1c-7.8-7.8-12.1-18.2-12.1-29.2s4.3-21.4,12.1-29.2
					c15.2-15.2,39.5-16.1,55.7-2.4c16.2-13.6,40.5-12.8,55.7,2.4c16.1,16.1,16.1,42.3,0,58.4l-45.1,45.1
					C223.7,393.5,219.8,395,216,395L216,395z"/>
			</g>
		</g>
		<g>
			<path class="st0" d="M497,512H15c-8.3,0-15-6.7-15-15v-70c0-8.3,6.7-15,15-15c23.6,0,36,6.1,46.9,11.6c9.5,4.7,16.9,8.4,33.5,8.4
				s24-3.7,33.5-8.4c10.9-5.4,23.2-11.6,46.9-11.6c23.6,0,35.9,6.1,46.8,11.6c9.4,4.7,16.9,8.4,33.5,8.4s24-3.7,33.5-8.4
				c10.9-5.4,23.2-11.6,46.8-11.6c23.6,0,36,6.1,46.9,11.6c9.5,4.7,16.9,8.4,33.5,8.4s24-3.7,33.5-8.4C461,418.1,473.4,412,497,412
				c8.3,0,15,6.7,15,15v70C512,505.3,505.3,512,497,512L497,512z"/>
		</g>
	</g>
	<g>
		<g>
			<path class="st0" d="M80.2,168.6c-4.1,7.2-13.3,9.6-20.5,5.5l-13-7.5c-7.2-4.1-9.6-13.3-5.5-20.5l80-138.6
				c4.1-7.2,13.3-9.6,20.5-5.5l13,7.5c7.2,4.1,9.6,13.3,5.5,20.5L80.2,168.6z"/>
			<path class="st0" d="M467.7,187.3c-10.3,17.9-33.3,24.1-51.2,13.7L376,177.7c0-5.9-0.7-11.9-2.3-17.8
				c-9.6-36-46.7-57.4-82.7-47.7l-60.2,16.1c-8,2.1-12.8,10.4-10.6,18.4s10.4,12.8,18.4,10.6l60.2-16.1c20-5.4,40.6,6.5,45.9,26.5
				c5.4,20-6.5,40.6-26.5,45.9l-72.5,19.4c-19.4,5.2-39.6,2.5-56.9-7.5l-80-46.2l75-129.9L206,62.2L316,59c2.8-0.1,5.5,0.6,7.9,2
				L454,136.1C471.9,146.5,478.1,169.4,467.7,187.3L467.7,187.3z"/>
		</g>
	</g>
</g>
</svg>
