<?xml version="1.0" encoding="utf-8"?>
<!-- Generator: Adobe Illustrator 22.0.0, SVG Export Plug-In . SVG Version: 6.00 Build 0)  -->
<svg version="1.1" id="OutlineExpand" xmlns="http://www.w3.org/2000/svg" xmlns:xlink="http://www.w3.org/1999/xlink" x="0px"
	 y="0px" viewBox="0 0 512 512" style="enable-background:new 0 0 512 512;" xml:space="preserve">
<style type="text/css">
	.st0{fill:#82A23C;}
</style>
<path class="st0" d="M456,204.7l10.5,7.1c1.3,0.9,2.9,1.4,4.5,1.4c0.5,0,1,0,1.5-0.1c2.1-0.4,3.9-1.6,5.1-3.4l18-26.5
	c2.5-3.7,1.5-8.6-2.1-11.1L260.5,14c-2.7-1.8-6.3-1.8-9,0l-233,158.1c-3.7,2.5-4.6,7.5-2.1,11.1l18,26.5c1.2,1.8,3,3,5.1,3.4
	c2.1,0.4,4.2-0.1,6-1.2l10.5-7.2v80c-4.7,2-8.5,5.8-10.5,10.8C32,328.8,16,372.5,16,392c0,28.7,16.7,51,40,55.2V480H16v16h480v-16
	h-40L456,204.7z M43.1,194.1l-9-13.3L256,30.3l221.9,150.6l-9,13.2L260.5,52.7c-1.4-0.9-2.9-1.4-4.5-1.4s-3.1,0.5-4.5,1.4
	L43.1,194.1z M32,392c0-13,10.3-46,28.3-90.4c0.9-2.3,2.9-2.5,3.7-2.5c0.8,0,2.8,0.2,3.7,2.5C85.7,346,96,379,96,392
	c0,23.2-13.5,40-32,40S32,415.2,32,392z M72,447.2c23.3-4.2,40-26.5,40-55.2c0-19.5-16-63.2-29.5-96.4c-2-5-5.8-8.8-10.5-10.8v-90.9
	L256,69l184,124.9v155.7l-1.3-2c-3-4.5-10.3-4.5-13.3,0l-16,24c-0.9,1.3-1.3,2.9-1.3,4.4v16h-16v-16c0-1.6-0.5-3.1-1.3-4.4l-16-24
	c-3-4.5-10.3-4.5-13.3,0l-16,24c-0.9,1.3-1.3,2.9-1.3,4.4v16h-16v-16c0-1.6-0.5-3.1-1.3-4.4l-16-24c-3-4.5-10.3-4.5-13.3,0l-16,24
	c-0.9,1.3-1.3,2.9-1.3,4.4v104h-48V328c0-4.4-3.6-8-8-8h-88c-4.4,0-8,3.6-8,8v152H72V447.2z M312,480h-16V378.4l8-12l8,12V480z
	 M328,408h16v16h-16V408z M328,440h16v40h-16V440z M376,480h-16V378.4l8-12l8,12V480z M392,408h16v16h-16V408z M392,440h16v40h-16
	V440z M216,480h-72V336h72V480z M424,480V378.4l8-12l8,12V480H424z"/>
<path class="st0" d="M232,264h48c17.6,0,32-14.4,32-32v-48c0-17.6-14.4-32-32-32h-48c-17.6,0-32,14.4-32,32v48
	C200,249.6,214.4,264,232,264z M216,232v-16h32v32h-16C223.2,248,216,240.8,216,232z M280,248h-16v-32h32v16
	C296,240.8,288.8,248,280,248z M296,184v16h-32v-32h16C288.8,168,296,175.2,296,184z M232,168h16v32h-32v-16
	C216,175.2,223.2,168,232,168z"/>
<path class="st0" d="M184,400h16v16h-16V400z"/>
</svg>
