<?xml version="1.0" encoding="utf-8"?>
<!-- Generator: Adobe Illustrator 22.0.0, SVG Export Plug-In . SVG Version: 6.00 Build 0)  -->
<svg version="1.1" id="Capa_1" xmlns="http://www.w3.org/2000/svg" xmlns:xlink="http://www.w3.org/1999/xlink" x="0px" y="0px"
	 viewBox="0 0 512 512" style="enable-background:new 0 0 512 512;" xml:space="preserve">
<style type="text/css">
	.st0{fill:#82A23C;}
</style>
<g>
	<g>
		<path class="st0" d="M511.6,499.3c-9.8-34.7-30.9-66-59.7-88.1c-17.5-13.5-37.1-23.2-57.9-28.9c0.9-10.3,9.5-18.5,20.1-18.5
			c5.5,0,10-4.5,10-10s-4.5-10-10-10c-12,0-22.8,5.3-30.2,13.7c-7.4-8.4-18.2-13.7-30.2-13.7c-5.5,0-10,4.5-10,10s4.5,10,10,10
			c9,0,16.7,5.9,19.2,14.1c-7.8-1.1-15.8-1.7-23.9-1.7c-6,0-12,0.3-18,1c-14-22.6-37.1-37.6-63.2-41.1c0.1-0.1,0.1-0.1,0.2-0.2
			l36.5-36.5c6.5,1.5,17.9,3.6,32.2,3.6c3.1,0,6.3-0.1,9.6-0.3c25.4-1.6,63-10.8,97.4-45.3c34.4-34.4,43.6-72,45.3-97.4
			c1.8-27.6-4.7-47.2-5-48c-1.1-3.2-3.8-5.7-7-6.5l-0.1,0c-10.6-3.1-23.4-4.9-36.1-5c0,0-0.1,0-0.1,0c-5.5,0-9.9,4.4-10,9.9
			c-0.1,5.5,4.4,10.1,9.9,10.1c11,0.1,19.8,1.6,25.8,3c1.5,6.8,3.7,19.9,2.6,36.2c-2.2,31.7-15.5,59.8-39.4,83.7
			s-52.1,37.1-83.7,39.4c-9.2,0.7-17.5,0.2-24.1-0.5l73.3-73.3c3.9-3.9,3.9-10.2,0-14.1c-3.9-3.9-10.2-3.9-14.1,0L307.8,268
			c-2.7-23.7-0.9-68,38.8-107.8c7.8-7.8,16.2-14.6,24.9-20.1c4.7-3,6.1-9.1,3.1-13.8c-3-4.7-9.1-6.1-13.8-3.1
			c-10,6.3-19.5,14-28.4,22.8c-34.4,34.4-43.6,72-45.3,97.4c-1.2,18.8,1.4,33.9,3.3,41.8L266,309.8V128.3c1.2,0,2.4,0,3.7,0
			c19.6,0,54.7-3.5,77.9-26.3c31.2-30.6,27-84,26.1-92.2c-0.1-2.4-1.1-4.7-2.9-6.5c-1.8-1.8-4.1-2.7-6.4-2.9
			c-4.8-0.4-58.7-4.3-90.6,26.9c-28.7,28.1-28.4,74.6-27.6,88.2c-0.2,0.7-0.2,1.4-0.2,2.2v38.2c-5.9-9.8-13.5-19.7-23.2-29.4
			c-32.8-32.8-68.6-41.6-92.8-43.1c-26.3-1.7-45,4.5-45.8,4.7c-3.2,1.1-5.7,3.8-6.5,7l0,0.1C74,108,58.3,174.9,116.4,232.9
			c32.8,32.8,68.6,41.6,92.8,43.1c3.2,0.2,6.2,0.3,9.2,0.3c11.6,0,21.2-1.4,27.6-2.7v62.3c-26.9,3-50.9,18.2-65.1,41.3
			c-6-0.6-12-1-18-1c-8.1,0-16,0.6-23.9,1.7c2.6-8.2,10.2-14.1,19.2-14.1c5.5,0,10-4.5,10-10s-4.5-10-10-10
			c-12,0-22.8,5.3-30.2,13.7c-7.4-8.4-18.2-13.7-30.2-13.7c-5.5,0-10,4.5-10,10s4.5,10,10,10c10.5,0,19.2,8.1,20.1,18.5
			c-20.8,5.7-40.3,15.4-57.9,28.9c-28.7,22.1-49.9,53.4-59.7,88.1c-0.8,3-0.2,6.2,1.7,8.7s4.8,4,8,4h492c3.1,0,6.1-1.5,8-4
			S512.5,502.3,511.6,499.3z M287.8,41.6C307.3,22.5,339.1,20,354.3,20c0.4,15.5-1.2,48.6-20.7,67.7c-14.6,14.4-36.6,18.9-53.2,20.1
			l30.1-30.1c3.9-3.9,3.9-10.2,0-14.1c-3.9-3.9-10.2-3.9-14.1,0l-29.6,29.6C268.3,77,273.4,55.8,287.8,41.6z M246,236.3
			c-0.1,1.8-0.3,3.5-0.4,5.2l-58.4-58.4c-3.9-3.9-10.2-3.9-14.1,0c-3.9,3.9-3.9,10.2,0,14.1l58.4,58.4
			c-22.6,2.4-63.8,0.2-100.9-36.9C85.7,174,91.7,123.7,95.7,105.7c6.5-1.4,18.8-3.4,33.9-2.4c29.9,2.1,56.5,14.7,79.1,37.2
			s35.1,49.2,37.2,79.1c0,0.3,0,0.5,0,0.8L246,236.3L246,236.3z M79.2,492L79.2,492c9.2-20.6,25.7-37.1,46.8-46.4
			c5.1-2.2,7.4-8.1,5.1-13.2c-2.2-5.1-8.1-7.4-13.2-5.1c-28.4,12.5-50,35.8-60.3,64.7H23.8c21.7-57,77.1-95.7,139-95.7
			c7.3,0,14.7,0.5,22,1.6c4.2,0.6,8.4-1.5,10.4-5.3c11.8-23,35.1-37.2,60.8-37.2s49.1,14.3,60.8,37.2c2,3.8,6.1,6,10.4,5.3
			c7.3-1.1,14.6-1.6,22-1.6c61.9,0,117.2,38.7,139,95.7H79.2z"/>
	</g>
</g>
<g>
	<g>
		<path class="st0" d="M412.1,112.8c-1.5-5.3-7-8.4-12.3-7L399,106c-5.3,1.5-8.4,7.1-6.9,12.4c1.3,4.4,5.3,7.2,9.6,7.2
			c0.9,0,1.8-0.1,2.8-0.4l0.6-0.2C410.5,123.6,413.6,118.1,412.1,112.8z"/>
	</g>
</g>
<g>
	<g>
		<path class="st0" d="M162.8,417.9l-0.6,0c-5.5,0-10,4.5-9.9,10.1c0,5.5,4.5,9.9,10,9.9c0,0,0,0,0.1,0l0.5,0c5.5,0,10-4.5,10-10
			S168.3,417.9,162.8,417.9z"/>
	</g>
</g>
</svg>
