<?xml version="1.0" encoding="utf-8"?>
<!-- Generator: Adobe Illustrator 22.0.0, SVG Export Plug-In . SVG Version: 6.00 Build 0)  -->
<svg version="1.1" id="Capa_1" xmlns="http://www.w3.org/2000/svg" xmlns:xlink="http://www.w3.org/1999/xlink" x="0px" y="0px"
	 viewBox="0 0 512 512" style="enable-background:new 0 0 512 512;" xml:space="preserve">
<style type="text/css">
	.st0{fill:#82A23C;}
</style>
<path class="st0" d="M338.5,357.8l22.4-36.4c0.2-0.4,0.6-0.6,1-0.8l40.5-13.8c0.7-0.2,1.2-0.8,1.2-1.6l4.5-42.6
	c0-0.4,0.2-0.8,0.5-1.1l30.5-30c0.5-0.5,0.7-1.3,0.4-1.9l-14.5-40.3c-0.1-0.4-0.1-0.8,0-1.2l14.5-40.3c0.2-0.7,0.1-1.4-0.4-1.9
	l-30.5-30c-0.3-0.3-0.5-0.7-0.5-1.1l-4.5-42.5c-0.1-0.7-0.6-1.3-1.2-1.6l-40.5-13.8c-0.4-0.1-0.7-0.4-1-0.8l-22.4-36.4
	c-0.4-0.6-1.1-0.9-1.8-0.9l-42.5,5.1c-0.4,0.1-0.9,0-1.2-0.3L257,0.6c-0.6-0.4-1.4-0.4-2,0l-36.1,23c-0.4,0.2-0.8,0.3-1.2,0.3
	l-42.5-5.1c-0.7-0.1-1.4,0.3-1.8,0.9L151,56.1c-0.2,0.4-0.6,0.6-1,0.8l-40.5,13.8c-0.7,0.2-1.2,0.8-1.2,1.6l-4.5,42.5
	c0,0.4-0.2,0.8-0.5,1.1l-30.5,30c-0.5,0.5-0.7,1.3-0.4,1.9l14.5,40.3c0.1,0.4,0.1,0.8,0,1.2l-14.5,40.3c-0.2,0.7-0.1,1.4,0.4,1.9
	l30.5,30c0.3,0.3,0.5,0.7,0.5,1.1l4.5,42.5c0.1,0.7,0.6,1.3,1.2,1.6l40.5,13.8c0.4,0.1,0.7,0.4,1,0.8l22.4,36.4
	c0.4,0.6,1.1,0.9,1.8,0.9l42.5-5.1c0.4-0.1,0.9,0,1.2,0.3l36.1,23c0.6,0.4,1.4,0.4,2,0l36.1-23c0.4-0.2,0.8-0.3,1.2-0.3l42.5,5.1
	C337.4,358.8,338.1,358.4,338.5,357.8z M126.6,188.7c0-68.8,54-125.3,121.9-129.2c78.8-4.6,141.3,58,136.8,136.8
	c-3.9,67.9-60.4,121.9-129.2,121.9C184.6,318.2,126.6,260.1,126.6,188.7L126.6,188.7z"/>
<path class="st0" d="M256,89.3c-54.8,0-99.4,44.6-99.4,99.4s44.6,99.4,99.4,99.4s99.4-44.6,99.4-99.4S310.8,89.3,256,89.3z"/>
<path class="st0" d="M211.3,384.6l-52.7,6.4l-27.8-45.2l-9.5-3.2L80.5,470.1l73.5-4l57.5,45.9l33.8-105.7L211.3,384.6z"/>
<path class="st0" d="M381.2,345.8l-27.8,45.2l-52.7-6.4l-34,21.7L300.5,512l57.5-45.9l73.5,4l-40.8-127.6L381.2,345.8z"/>
</svg>
