<?xml version="1.0" encoding="utf-8"?>
<!-- Generator: Adobe Illustrator 22.0.0, SVG Export Plug-In . SVG Version: 6.00 Build 0)  -->
<svg version="1.1" id="Layer_1" xmlns="http://www.w3.org/2000/svg" xmlns:xlink="http://www.w3.org/1999/xlink" x="0px" y="0px"
	 viewBox="0 0 512 512" style="enable-background:new 0 0 512 512;" xml:space="preserve">
<style type="text/css">
	.st0{fill:#82A23C;}
</style>
<circle class="st0" cx="189.3" cy="192" r="21.3"/>
<circle class="st0" cx="322.7" cy="192" r="21.3"/>
<path class="st0" d="M256,277.3c-46.8-0.8-89.1,27.7-106.1,71.3c-1.9,5.6,1.1,11.7,6.7,13.5c5.6,1.9,11.7-1.1,13.5-6.7l0,0
	c13.7-35.2,48.1-58,85.9-56.7c37.6-1,71.7,21.7,85.3,56.7c1.5,4.5,5.9,7.5,10.7,7.3c1.1,0.1,2.3,0.1,3.4,0c5.7-1.5,9.1-7.3,7.6-13
	c-0.1-0.4-0.2-0.7-0.3-1C345.6,304.8,303,276.4,256,277.3z"/>
<path class="st0" d="M256,32C132.3,32,32,132.3,32,256s100.3,224,224,224s224-100.3,224-224S379.7,32,256,32z M256,458.7
	c-111.9,0-202.7-90.7-202.7-202.7S144.1,53.3,256,53.3S458.7,144.1,458.7,256S367.9,458.7,256,458.7z"/>
</svg>
