<?xml version="1.0" encoding="utf-8"?>
<!-- Generator: Adobe Illustrator 22.0.0, SVG Export Plug-In . SVG Version: 6.00 Build 0)  -->
<svg version="1.1" id="Layer_1" xmlns="http://www.w3.org/2000/svg" xmlns:xlink="http://www.w3.org/1999/xlink" x="0px" y="0px"
	 viewBox="0 0 512 512" style="enable-background:new 0 0 512 512;" xml:space="preserve">
<style type="text/css">
	.st0{fill:#82A23C;}
</style>
<g>
	<path class="st0" d="M92.1,172.7c1.7,0,3.4-0.4,4.9-1.3l42.1-24.1c4.8-2.7,6.5-8.8,3.7-13.6c-2.7-4.8-8.8-6.5-13.6-3.7L87.2,154
		c-4.8,2.7-6.5,8.8-3.7,13.6C85.3,170.9,88.6,172.7,92.1,172.7L92.1,172.7z"/>
	<path class="st0" d="M87.2,75.8l42.1,24.1c1.6,0.9,3.3,1.3,5,1.3c3.5,0,6.8-1.8,8.7-5c2.7-4.8,1.1-10.9-3.7-13.6L97.1,58.4
		c-4.8-2.7-10.9-1.1-13.6,3.7C80.8,66.9,82.4,73,87.2,75.8L87.2,75.8z"/>
	<circle class="st0" cx="420.3" cy="349.3" r="10"/>
	<circle class="st0" cx="420.2" cy="208.7" r="10"/>
	<circle class="st0" cx="338" cy="61.5" r="10"/>
	<path class="st0" d="M507,340.5l-76.9-44l0-42.8c0-2.7-1-5.2-2.9-7.1s-4.4-2.9-7.1-2.9c-5.5,0-10,4.5-10,10l0,42.6l-72.5,41.4
		l-71.5-41l0.1-82.2l76.9-43.9c3.1-1.8,5-5.1,5-8.7l0-55.4c0-5.5-4.5-10-10-10c-5.5,0-10,4.5-10,10l0,49.6l-71.8,41l-72-41.2
		l0.1-87.9c0-3.6-1.9-6.9-5-8.7l-82.1-47c-3.1-1.8-6.9-1.8-9.9,0L5.1,59.2c-3.1,1.8-5,5.1-5,8.7L0,161.8c0,3.6,1.9,6.9,5,8.7
		l76.9,44l-0.1,87.9c0,3.6,1.9,6.9,5,8.7l76.3,43.7l-0.1,89.3c0,3.6,1.9,6.9,5,8.7l82.1,47c1.5,0.9,3.3,1.3,5,1.3
		c1.7,0,3.4-0.4,5-1.3l82.1-46.9c3.1-1.8,5-5.1,5-8.7l0.1-88.6l72.9-41.6L492,355v97c0,5.5,4.5,10,10,10s10-4.5,10-10V349.2
		C512,345.6,510.1,342.3,507,340.5L507,340.5z M20.1,73.7l72.1-41.2l72.1,41.3l-0.1,81.8l-72.5,41.4L20,156L20.1,73.7z M101.9,214.7
		l72.5-41.4l71.7,41.1l-0.1,82.3l-72.1,41.2l-72.1-41.3L101.9,214.7z M327.3,438.3l-72.1,41.2l-72.1-41.3l0.1-82.3l72.1-41.2
		l72.1,41.3L327.3,438.3z"/>
	<path class="st0" d="M292.4,412.2l-42.1,24.1c-4.8,2.7-6.5,8.8-3.7,13.6c1.8,3.2,5.2,5,8.7,5c1.7,0,3.4-0.4,4.9-1.3l42.1-24.1
		c4.8-2.7,6.5-8.8,3.7-13.6C303.3,411.1,297.2,409.4,292.4,412.2L292.4,412.2z"/>
	<path class="st0" d="M246.6,344.3c-2.7,4.8-1.1,10.9,3.7,13.6l42.1,24.1c1.6,0.9,3.3,1.3,5,1.3c3.5,0,6.8-1.8,8.7-5
		c2.7-4.8,1.1-10.9-3.7-13.6l-42.1-24.1C255.5,337.8,249.3,339.5,246.6,344.3L246.6,344.3z"/>
	<path class="st0" d="M213.2,363.3L213.2,363.3c-5.5,0-10,4.5-10,10l0,47.5c0,5.5,4.5,10,10,10h0c5.5,0,10-4.5,10-10l0-47.5
		C223.2,367.8,218.7,363.3,213.2,363.3z"/>
	<path class="st0" d="M467.3,364.7l-3-1.7c-1.5-0.9-3.2-1.3-5-1.3c-3.6,0-6.9,1.9-8.7,5c-2.3,4-1.6,9,1.7,12.1l0,61
		c0,5.5,4.5,10,10,10s10-4.5,10-10c0,0,0,0,0,0l0-66.5C472.4,369.8,470.5,366.5,467.3,364.7L467.3,364.7z"/>
</g>
</svg>
