<?xml version="1.0" encoding="utf-8"?>
<!-- Generator: Adobe Illustrator 22.0.0, SVG Export Plug-In . SVG Version: 6.00 Build 0)  -->
<svg version="1.1" id="Capa_1" xmlns="http://www.w3.org/2000/svg" xmlns:xlink="http://www.w3.org/1999/xlink" x="0px" y="0px"
	 viewBox="0 0 512 512" style="enable-background:new 0 0 512 512;" xml:space="preserve">
<style type="text/css">
	.st0{fill:#82A23C;}
</style>
<g>
	<g>
		<path class="st0" d="M273.2,70.5c-3.9,3.9-4,10.2-0.1,14.1c2,2,4.5,3,7.1,3c2.5,0,5.1-1,7-2.9l0,0c3.9-3.9,4-10.2,0.1-14.1
			C283.5,66.7,277.2,66.6,273.2,70.5L273.2,70.5z"/>
		<path class="st0" d="M496.6,311.9c-17.3-15.2-42.3-19.4-66.5-23.4c-2.9-0.5-5.8-1-8.7-1.5c-9.5-1.7-17.6-1.5-24.7,0.5l-11.2-19.3
			l10.6-6.2c4.8-2.8,6.4-8.9,3.6-13.7c-2.8-4.8-8.9-6.4-13.7-3.6l-10.6,6.2l-10.6-18.1l33.5-19.5c4.8-2.8,6.4-8.9,3.6-13.7
			c-2.8-4.8-8.9-6.4-13.7-3.6l-33.4,19.5l-10.6-18.1l56.3-32.9c4.8-2.8,6.4-8.9,3.6-13.7c-2.8-4.8-8.9-6.4-13.7-3.6l-56.3,32.9
			L323.5,162l33.4-19.5c4.8-2.8,6.4-8.9,3.6-13.7c-2.8-4.8-8.9-6.4-13.7-3.6l-33.4,19.5l-10.7-18.3c19.8-13.3,35.8-30.4,40.5-46.9
			c0.7-2.6,0.4-5.4-1-7.8C321.9,36.7,287.2,13.6,247,8.2c-18.5-2.5-30.3,4.4-37.2,21.7c-15.1,37.7-12,79.3,8.4,114.3
			c1.4,2.4,3.6,4,6.3,4.7c3.7,0.9,7.7,1.3,11.9,1.3c14.9,0,32.5-5.3,49.1-13.7l10.7,18.3l-33.6,19.6c-4.8,2.8-6.4,8.9-3.6,13.7
			c1.9,3.2,5.2,5,8.6,5c1.7,0,3.4-0.4,5-1.4l33.6-19.6l10.6,18.1l-56.4,32.9c-4.8,2.8-6.4,8.9-3.6,13.7c1.9,3.2,5.2,5,8.6,5
			c1.7,0,3.4-0.4,5-1.4l56.4-32.9l10.6,18.1l-33.5,19.6c-4.8,2.8-6.4,8.9-3.6,13.7c1.9,3.2,5.2,5,8.6,5c1.7,0,3.4-0.4,5-1.4
			l33.5-19.6l10.6,18.1l-10.7,6.2c-4.8,2.8-6.4,8.9-3.6,13.7c1.9,3.2,5.2,5,8.6,5c1.7,0,3.5-0.4,5-1.4l10.7-6.2l11.2,19.2
			c-5.3,5.2-9.3,12.2-12.5,21.3c-1,2.8-2,5.6-3,8.4c-8.3,23-17,46.8-12.2,69.3c3.4,15.9,13.1,26.9,25.4,28.7
			c0.9,0.1,2.1,0.2,3.4,0.2c7,0,18.9-3,28.6-20.5c12.4-22.3,17.7-31,24.1-34.3c0.3-0.2,0.7-0.4,1-0.6c6-3.9,16.7-4.3,41.6-4.1
			c23.9,0.2,31.3-12.6,33.4-18C513.6,336.5,508.8,322.7,496.6,311.9L496.6,311.9z M284.2,114.2C284.2,114.3,284.2,114.3,284.2,114.2
			c-0.1,0.1-0.2,0.1-0.2,0.1c-18.7,10.9-38,16.8-50.8,15.7c-15.2-28.7-17.1-62.3-4.9-92.7c3.5-8.7,6.6-10.5,16-9.3
			c32.5,4.4,60.8,22.4,78.3,49.8C317.3,89.5,302.8,103.3,284.2,114.2L284.2,114.2z M490.5,341c-1.2,3.2-6.9,5.2-14.6,5.2
			c-28.2-0.2-41.3,0-52.4,7.1c-11.6,6.2-18.3,17.5-31.9,42.1c-3.7,6.7-8.3,10.7-11.7,10.2c-3-0.4-7-4.7-8.8-13.1
			c-3.6-16.9,4.1-37.9,11.4-58.3c1-2.9,2.1-5.7,3.1-8.6c3.1-8.8,6.6-13.9,11.7-16.9h0c0,0,0,0,0,0s0,0,0,0c5.1-3,11.3-3.6,20.5-2
			c2.9,0.5,5.9,1,8.9,1.5c21.4,3.6,43.6,7.3,56.6,18.7C489.8,332.6,491.5,338.2,490.5,341L490.5,341z"/>
		<path class="st0" d="M137.5,267.8c2.6,0,5.3,0.2,8,0.7c3.5,0.6,7.1-0.6,9.4-3.4c2.3-2.7,3-6.4,1.8-9.8c-1.6-4.6-2.4-9.4-2.4-14.3
			c0-11.9,4.8-23,13.4-31.3c2.8-2.7,3.8-6.8,2.5-10.5c-6.4-18.2-15.6-27.5-24.5-36.5c-11.5-11.7-23.4-23.7-32.9-59.6
			c-1.3-5-6.3-8.2-11.4-7.3l-4.8,0.8l-3.9-35.5c10.9-7.2,16.6-20.1,14.2-33.6c-1.4-8.1-6.4-15.5-14.1-20.9C85.2,1.4,75.9-1,68.1,0.4
			C59.2,2,53.4,5.6,49.5,9.8c-5.1-2.6-11.8-4.1-20.6-2.5C21,8.7,13.1,14.1,7.7,21.7C2.4,29.3,0.3,37.9,1.7,46
			c2.4,13.5,12.1,23.7,24.8,26.7l8.4,34.8l-4.8,0.8c-5.1,0.9-8.7,5.6-8.2,10.7c0.9,10.4,1.1,19.4,0.4,27.7
			c-0.4,5.5,3.7,10.3,9.2,10.7c5.5,0.4,10.3-3.7,10.7-9.2c0.5-6.8,0.6-14,0.2-21.8l53.5-9.4c10.5,34.3,23.7,47.7,35.5,59.6
			c7.2,7.3,13,13.2,17.6,23.6c-9.6,11.4-14.9,25.6-14.9,40.7c0,2.3,0.1,4.6,0.4,6.8c-21,1-40.2,12.4-51.1,30.2c-2-0.2-4-0.3-6-0.3
			c-11.4,0-22.4,3-32,8.7c-14.3-11.9-22.2-28.2-24.3-49.8c-0.5-5.5-5.4-9.5-10.9-9c-5.5,0.5-9.5,5.4-9,10.9
			c2.9,29.9,15.7,52.9,38.2,68.4c1.7,1.2,3.7,1.8,5.7,1.8c2.1,0,4.3-0.7,6.1-2.1c7.6-5.8,16.7-8.9,26.3-8.9c3.2,0,6.3,0.3,9.3,1
			c4.6,1,9.3-1.3,11.3-5.6C105.1,277.7,120.5,267.8,137.5,267.8L137.5,267.8z M78.5,46c-4.3,1.6-7,5.9-6.5,10.5l4.8,43.7L54.7,104
			L44.3,61.3c-1.1-4.5-5.1-7.6-9.7-7.6c-6.8,0-12-4.4-13.2-11.1c-0.5-2.7,0.5-6.3,2.7-9.4c2.6-3.7,6-5.8,8.2-6.2
			c1.4-0.2,2.6-0.4,3.6-0.4c3.8,0,5.9,1.6,8.7,4.6c2.3,2.6,5.8,3.7,9.2,3.2c3.4-0.6,6.2-2.9,7.5-6.1c2-4.9,3.8-7.1,10.2-8.2
			c2.2-0.4,6,0.4,9.8,3c3.2,2.2,5.3,5.2,5.8,8C88.3,37.8,84.9,43.6,78.5,46L78.5,46z"/>
		<path class="st0" d="M224.2,304.1c-2.5,1.3-4.7,2.5-7,3.4c0.4-17.5,3.1-26.8,18.5-37.7c4.5-3.2,5.5-9.5,2.3-13.9
			c-3.2-4.5-9.5-5.5-13.9-2.3c-22.9,16.3-26.3,32.9-26.8,54.1c-2.4-0.9-4.7-2.1-7.2-3.5c-30.5-16.6-50.9-7.2-62.6,3.7
			c-2.1,1.9-3.2,4.6-3.2,7.4c0,2.8,1.2,5.5,3.3,7.4c8.2,7.4,13,18,13,29c0,20.2-15.1,36.9-35.2,38.8c-5.5,0.5-9.5,5.4-9,10.9
			c3,33.1,18.2,66.1,42.8,93.2c5.6,6.1,12.4,11.1,19.3,14.2c5,2.2,9.8,3.4,14.3,3.4c6.8,0,13.1-2.5,19-7.4c10-8.3,20.6-8.3,30.7,0
			c10,8.3,20.9,9.6,33.4,4.1c6.9-3.1,13.8-8.1,19.3-14.2c3.8-4.2,7.4-8.5,10.6-12.8c3-4.1,2.5-9.7-1.1-13.2
			c-7.8-7.4-12.1-17.5-12.1-28.3c0-20.6,16-37.7,36.5-38.9c5.2-0.3,9.3-4.6,9.4-9.8c0.5-28.4-8.1-54.8-25-76.3
			C276.3,293,251.7,289.1,224.2,304.1L224.2,304.1z M252.6,440.1c0,13,4.4,25.6,12.2,35.9c-1.4,1.7-2.9,3.3-4.4,5
			c-3.7,4-8.3,7.5-12.6,9.4c-5.6,2.5-8.3,2.3-12.5-1.2c-17.6-14.6-38.6-14.6-56.2,0c-4.1,3.4-6.8,3.7-12.5,1.2
			c-4.4-1.9-9-5.4-12.7-9.4c-19.4-21.3-32.2-46.8-36.5-72.5c25.2-7,43.1-29.8,43.1-56.9c0-12.5-4-24.6-11.2-34.6
			c6.4-2.6,16.4-3.4,31.2,4.7c5.7,3.1,14.2,7.7,26.7,7.7c12.5,0,21-4.7,26.7-7.7c24.8-13.5,36.9-3.2,43.9,5.7
			c12.3,15.7,19.3,34.7,20.5,55.2C272,388.7,252.6,412.3,252.6,440.1L252.6,440.1z"/>
		<path class="st0" d="M18.2,205.2c2.6,0,5.1-1,7.1-2.9c3.9-3.9,3.9-10.2,0-14.1c-3.9-3.9-10.2-3.9-14.1,0l0,0
			c-3.9,3.9-3.9,10.2,0,14.1C13.1,204.3,15.6,205.2,18.2,205.2z"/>
	</g>
</g>
</svg>
