<?xml version="1.0" encoding="utf-8"?>
<!-- Generator: Adobe Illustrator 22.0.0, SVG Export Plug-In . SVG Version: 6.00 Build 0)  -->
<svg version="1.1" id="Capa_1" xmlns="http://www.w3.org/2000/svg" xmlns:xlink="http://www.w3.org/1999/xlink" x="0px" y="0px"
	 viewBox="0 0 469.3 469.3" style="enable-background:new 0 0 469.3 469.3;" xml:space="preserve">
<style type="text/css">
	.st0{fill:#9DBF52;}
	.st1{fill:#82A23C;}
</style>
<path class="st0" d="M468.5,6.6c-1.6-4-5.5-6.6-9.9-6.6C44.8,0,0,171.6,0,245.3c0,95.7,72.9,160,181.3,160
	c137,0,165.7-130.3,181.1-200.4c15-71.3,51.2-136.4,103.8-186.8C469.2,15.2,470.2,10.6,468.5,6.6z"/>
<path class="st1" d="M10.7,469.3c-5.9,0-10.7-4.8-10.7-10.7c0-63.4,110-266.9,283.3-350.9c5.3-2.6,11.7-0.4,14.3,4.9
	c2.6,5.3,0.4,11.7-4.9,14.3l0,0C117.6,211.8,21.3,408.8,21.3,458.7C21.3,464.6,16.6,469.3,10.7,469.3z"/>
</svg>
