<?xml version="1.0" encoding="utf-8"?>
<!-- Generator: Adobe Illustrator 22.0.0, SVG Export Plug-In . SVG Version: 6.00 Build 0)  -->
<svg version="1.1" id="圖層_1" xmlns="http://www.w3.org/2000/svg" xmlns:xlink="http://www.w3.org/1999/xlink" x="0px" y="0px"
	 viewBox="0 0 512 512" style="enable-background:new 0 0 512 512;" xml:space="preserve">
<style type="text/css">
	.st0{fill:#82A23C;}
</style>
<g>
	<g>
		<path class="st0" d="M150.8,190.9c2.1-1.2,2.8-3.9,1.6-6c-0.6-1.1-1.6-1.8-2.7-2.1c-1.1-0.3-2.3-0.2-3.3,0.5
			c-2.1,1.2-2.8,3.9-1.6,6C146,191.4,148.7,192.1,150.8,190.9z"/>
		<path class="st0" d="M236.3,288.1c0-2-1.3-3.9-3.3-4.4l-36.5-9.8l-5.8-10.6l15.3-8.8c2.1-1.2,2.8-3.9,1.6-6
			c-1.2-2.1-3.9-2.8-6-1.6l-15.3,8.8l-4.4-7.6l22.9-13.2c2.1-1.2,2.8-3.9,1.6-6c-1.2-2.1-3.9-2.8-6-1.6l-22.9,13.2l-4.4-7.6
			l30.5-17.6c2.1-1.2,2.8-3.9,1.6-6c-1.2-2.1-3.9-2.8-6-1.6l-30.5,17.6l-5.6-9.7c21.9-13,33.1-22.6,33-28.3
			c-0.1-3.3-2.3-7.8-18.3-16.8c-7.5-4.2-47.7-24.6-57.2-19c-9.5,5.5-12,50.3-12.1,58.8c-0.2,18.5,2.6,22.8,5.4,24.5
			c0.4,0.2,0.9,0.5,1.4,0.6c5.9,1.6,19.5-3.6,40.2-15.3l5.6,9.7l-30.6,17.6c-2.1,1.2-2.8,3.9-1.6,6c1.2,2.1,3.9,2.8,6,1.6l30.5-17.6
			l4.4,7.6L146.9,258c-2.1,1.2-2.8,3.9-1.6,6c1.2,2.1,3.9,2.8,6,1.6l22.9-13.2l4.4,7.6l-15.3,8.8c-2.1,1.2-2.8,3.9-1.6,6
			c1.2,2.1,3.9,2.8,6,1.6l15.3-8.8l5.6,10.2l-9.9,36.8c-0.5,2,0.4,4.1,2.2,5c0.3,0.1,0.6,0.3,1,0.4c1.6,0.4,3.3,0,4.4-1.3
			c12-13.6,28.6-22.9,46.4-26.6C234.8,291.8,236.2,290.1,236.3,288.1z M155.2,198.5c-3.1,1.8-6.7,2.2-10,1.3c-3.3-0.9-6.2-3-8-6.1
			c-3.6-6.3-1.5-14.4,4.8-18c6.3-3.6,14.4-1.5,18,4.8C163.7,186.8,161.5,194.9,155.2,198.5z"/>
	</g>
	<path class="st0" d="M30.6,105.9c-11.8,0-21.5,5.6-29.6,17.1c-1,1.4-1.2,3.2-0.6,4.8c0.6,1.6,1.9,2.8,3.6,3.3
		c8.1,2.1,13.8,9.8,13.8,18.6c0,4.8-1.7,9.3-4.7,12.8c-1.7,2-1.7,4.9,0,6.9c3,3.5,4.7,8.1,4.7,12.8c0,5.6-2.4,10.9-6.4,14.6
		c-1.2,1.1-1.8,2.6-1.8,4.2c0.1,1.6,0.9,3.1,2.2,4c6.3,4.5,13.4,6.8,20.7,6.8c6.2,0,12.3-1.7,17.9-5c0,0,0,0,0,0
		c5.5,3.3,11.8,5,18,5c7.2,0,14.4-2.4,20.7-6.8c1.3-0.9,2.1-2.4,2.2-4s-0.6-3.1-1.8-4.2c-4.1-3.6-6.4-9-6.4-14.6
		c0-4.8,1.7-9.3,4.7-12.8c1.7-2,1.7-4.9,0-6.9c-3-3.5-4.7-8.1-4.7-12.8c0-8.8,5.6-16.4,13.8-18.6c1.7-0.5,3-1.7,3.6-3.3
		c0.6-1.6,0.4-3.4-0.6-4.8c-8.1-11.5-17.8-17.1-29.7-17.1c-4.8,0-9.9,1.9-14.3,4.2c-0.7-4.7-2.5-10.4-6.7-16.1
		c-1.8-2.3-5-2.8-7.4-1.1c-2.3,1.8-2.8,5-1.1,7.4c2.6,3.4,3.9,6.8,4.5,9.8C40.5,107.8,35.4,105.9,30.6,105.9L30.6,105.9z
		 M53.4,153.3c0-2.9,2.4-5.3,5.3-5.3c2.9,0,5.3,2.4,5.3,5.3v5.6c0,2.9-2.4,5.3-5.3,5.3c-2.9,0-5.3-2.4-5.3-5.3V153.3z M36.5,153.3
		c0-2.9,2.4-5.3,5.3-5.3s5.3,2.4,5.3,5.3v5.6c0,2.9-2.4,5.3-5.3,5.3s-5.3-2.4-5.3-5.3V153.3z"/>
</g>
<g>
	<path class="st0" d="M502.3,184.8c6.8,0,11.5-6.9,9-13.1c-9.1-22.4-31-38.2-56.6-38.2H443c-4.4-23.3-24.8-41.7-49.8-41.7h-20.5
		c-24.9,0-45.3,18.4-49.8,41.7h-11.8c-25.5,0-47.4,15.8-56.5,38.2c-2.6,6.3,2.2,13.1,9,13.1H502.3z M372.7,111.1h20.5
		c14,0,26,9.4,29.9,22.4h-80.4C346.7,120.5,358.6,111.1,372.7,111.1z"/>
	<g>
		<circle class="st0" cx="419" cy="287.7" r="10.1"/>
		<path class="st0" d="M276.5,204.1L290,393.3c1.1,15,13.7,26.8,28.8,26.8h128.3c15.1,0,27.7-11.8,28.8-26.8l13.5-189.3H276.5z
			 M382.9,312.1c3.7,0,6.7,2,6.7,4.5s-3,4.5-6.7,4.5c-3.7,0-6.7-2-6.7-4.5S379.2,312.1,382.9,312.1z M341.3,309.2
			c-8.7,0-15.7-9.6-15.7-21.5c0-11.9,7.1-21.5,15.7-21.5s15.7,9.6,15.7,21.5C357,299.6,349.9,309.2,341.3,309.2z M382.9,364.2
			c-5.2,0-9.5-4.2-9.5-9.5c0-5.3,4.2-9.5,9.5-9.5c5.2,0,9.5,4.2,9.5,9.5C392.4,360,388.1,364.2,382.9,364.2z M424.6,309.2
			c-8.7,0-15.7-9.6-15.7-21.5c0-11.9,7.1-21.5,15.7-21.5s15.7,9.6,15.7,21.5C440.3,299.6,433.3,309.2,424.6,309.2z"/>
		<circle class="st0" cx="335.7" cy="287.7" r="10.1"/>
	</g>
</g>
</svg>
