<?xml version="1.0" encoding="utf-8"?>
<!-- Generator: Adobe Illustrator 22.0.0, SVG Export Plug-In . SVG Version: 6.00 Build 0)  -->
<svg version="1.1" id="Capa_1" xmlns="http://www.w3.org/2000/svg" xmlns:xlink="http://www.w3.org/1999/xlink" x="0px" y="0px"
	 viewBox="0 0 512 512" style="enable-background:new 0 0 512 512;" xml:space="preserve">
<style type="text/css">
	.st0{fill:#82A23C;}
</style>
<g>
	<g>
		<g>
			<g>
				<path class="st0" d="M13.1,151.9c-0.1,0.4-0.2,0.7-0.2,1.1v70.8c0,3.6,2.9,6.4,6.4,6.4h193.1c3.6,0,6.4-2.9,6.4-6.4V153
					c0-0.4-0.2-0.7-0.2-1.1c7.6-2.6,13.1-9.7,13.1-18.2c0-10.6-8.7-19.3-19.3-19.3H90.1V108c0-3.6-2.9-6.4-6.4-6.4H45.1
					c-3.6,0-6.4,2.9-6.4,6.4v6.4H19.3C8.7,114.4,0,123.1,0,133.7C0,142.2,5.5,149.3,13.1,151.9z"/>
				<path class="st0" d="M212.5,243.2H19.3C8.7,243.2,0,251.8,0,262.5c0,8.4,5.4,15.5,12.9,18.1v72c0,3.6,2.9,6.4,6.4,6.4h193.1
					c3.6,0,6.4-2.9,6.4-6.4v-72c7.5-2.7,12.9-9.7,12.9-18.1C231.8,251.8,223.1,243.2,212.5,243.2z"/>
				<path class="st0" d="M212.5,371.9H19.3C8.7,371.9,0,380.6,0,391.2s8.7,19.3,19.3,19.3h193.1c10.6,0,19.3-8.7,19.3-19.3
					S223.1,371.9,212.5,371.9z"/>
			</g>
		</g>
	</g>
	<g>
		<g>
			<g>
				<path class="st0" d="M293.4,151.8c-0.1,0.4-0.2,0.7-0.2,1.1v70.8c0,3.6,2.9,6.4,6.4,6.4h193.1c3.6,0,6.4-2.9,6.4-6.4V153
					c0-0.4-0.2-0.7-0.2-1.1c7.6-2.6,13.1-9.7,13.1-18.2c0-10.6-8.7-19.3-19.3-19.3H370.4v-6.4c0-3.6-2.9-6.4-6.4-6.4h-38.6
					c-3.6,0-6.4,2.9-6.4,6.4v6.4h-19.3c-10.6,0-19.3,8.7-19.3,19.3C280.3,142.1,285.8,149.2,293.4,151.8z"/>
				<path class="st0" d="M492.7,243.1H299.6c-10.6,0-19.3,8.7-19.3,19.3c0,8.4,5.4,15.5,12.9,18.1v72c0,3.6,2.9,6.4,6.4,6.4h193.1
					c3.6,0,6.4-2.9,6.4-6.4v-72c7.5-2.7,12.9-9.7,12.9-18.1C512,251.7,503.3,243.1,492.7,243.1z"/>
				<path class="st0" d="M492.7,371.8H299.6c-10.6,0-19.3,8.7-19.3,19.3s8.7,19.3,19.3,19.3h193.1c10.6,0,19.3-8.7,19.3-19.3
					S503.3,371.8,492.7,371.8z"/>
			</g>
		</g>
	</g>
</g>
</svg>
