<?xml version="1.0" encoding="utf-8"?>
<!-- Generator: Adobe Illustrator 22.0.0, SVG Export Plug-In . SVG Version: 6.00 Build 0)  -->
<svg version="1.1" id="Layer_1" xmlns="http://www.w3.org/2000/svg" xmlns:xlink="http://www.w3.org/1999/xlink" x="0px" y="0px"
	 viewBox="0 0 512 512" style="enable-background:new 0 0 512 512;" xml:space="preserve">
<style type="text/css">
	.st0{fill:#82A23C;}
</style>
<g>
	<g>
		<path class="st0" d="M425.6,38.2C414.8,1.2,272.8,0,256,0S97.2,1.2,86.4,38.2c-0.6,1.4-1,2.9-1,4.5v426.7c0,1.6,0.4,3.1,1,4.5
			C97.2,510.8,239.2,512,256,512s158.8-1.2,169.6-38.2c0.6-1.4,1-2.9,1-4.5V42.7C426.7,41,426.3,39.6,425.6,38.2z M256,21.3
			c87.7,0,137.7,13.2,148.1,21.3C393.7,50.8,343.7,64,256,64S118.3,50.8,107.9,42.7C118.3,34.6,168.3,21.3,256,21.3z M405.3,468
			c-6.1,7.9-56.4,22.7-149.3,22.7c-94,0-144.6-15.2-149.3-21.3V65.4C149.3,84.5,242.6,85.3,256,85.3s106.7-0.8,149.3-19.9V468z"/>
	</g>
</g>
<path class="st0" d="M256,325.1c7.8,0,14.3-6,15-13.8l10.2-121.4c0.6-7-1.8-14-6.6-19.2c-4.8-5.2-11.5-8.2-18.6-8.2
	c-7.1,0-13.8,3-18.6,8.2c-4.8,5.2-7.2,12.2-6.6,19.2L241,311.3C241.7,319.1,248.2,325.1,256,325.1z"/>
<path class="st0" d="M256,344.1c-9,0-16.4,7.3-16.4,16.4c0,9,7.3,16.4,16.4,16.4c9,0,16.4-7.3,16.4-16.4
	C272.4,351.4,265,344.1,256,344.1z"/>
</svg>
