<?xml version="1.0" encoding="utf-8"?>
<!-- Generator: Adobe Illustrator 22.0.0, SVG Export Plug-In . SVG Version: 6.00 Build 0)  -->
<svg version="1.1" id="圖層_1" xmlns="http://www.w3.org/2000/svg" xmlns:xlink="http://www.w3.org/1999/xlink" x="0px" y="0px"
	 viewBox="0 0 512 512" style="enable-background:new 0 0 512 512;" xml:space="preserve">
<style type="text/css">
	.st0{fill:#82A23C;}
</style>
<path class="st0" d="M415.5,149c14.1,0,25.5-11.4,25.5-25.5S429.6,98,415.5,98S390,109.4,390,123.5C390.1,137.5,401.5,149,415.5,149
	z M415.5,115.1c4.7,0,8.5,3.8,8.5,8.5c0,4.7-3.8,8.5-8.5,8.5s-8.5-3.8-8.5-8.5C407.1,118.9,410.9,115.1,415.5,115.1z"/>
<path class="st0" d="M484.1,50.9c14.1,0,25.5-11.4,25.5-25.5S498.1,0,484.1,0s-25.5,11.4-25.5,25.5S470,50.9,484.1,50.9z M484.1,17
	c4.7,0,8.5,3.8,8.5,8.5s-3.8,8.5-8.5,8.5s-8.5-3.8-8.5-8.5S479.4,17,484.1,17z"/>
<path class="st0" d="M304.5,83.8c14.1,0,25.5-11.4,25.5-25.5s-11.4-25.5-25.5-25.5S279,44.2,279,58.3S290.5,83.8,304.5,83.8z
	 M304.5,49.8c4.7,0,8.5,3.8,8.5,8.5s-3.8,8.5-8.5,8.5S296,63,296,58.3S299.8,49.8,304.5,49.8z"/>
<g>
	<path class="st0" d="M388.7,256.5L404,230c7.3-12.6,0.2-29.1-13.4-33.4l-14.3-4.5l-22.7-20.7c-1.1-1-2.5-1.8-4-2.3l-29.3-9.3
		L297.7,139c-1.1-1-2.5-1.8-4-2.3l-29.3-9.3l-22.7-20.7c-1.1-1-2.5-1.8-4-2.3l-29.3-9.3L197.5,85c-5.2-4.8-12-6.9-19-6
		c-7.2,1-13.1,4.9-16.7,11.1c0,0-16.9,28.2-17.4,28.7c-32.9,34.7-56.9,65.9-75.5,98.2c-18.5,32-33.4,68.1-47,113.7
		c-0.3,0.9-16.4,30.2-16.4,30.2c-3.6,6.2-4,13.3-1.3,20c2.7,6.5,7.9,11.3,14.7,13.4l14.3,4.5l22.7,20.7c1.1,1,2.5,1.8,4,2.3
		l29.3,9.3l22.7,20.7c1.1,1,2.5,1.8,4,2.3l29.3,9.3l22.7,20.7c1.1,1,2.5,1.8,4,2.3l29.3,9.3l11.1,10.1c5.2,4.8,12,6.9,19,6
		c7.2-1,13.1-4.9,16.7-11.1c0,0,17.7-29.1,18.4-29.8c32.4-34.4,56.1-65.2,74.5-97C359.6,341.1,374.9,303.8,388.7,256.5L388.7,256.5z
		 M180.3,100.8c0.6-1,2-0.6,2.7,0l12.8,11.7c1.1,1,2.5,1.8,4,2.3l29.3,9.3l22.7,20.7c1.1,1,2.5,1.8,4,2.3l29.3,9.3l22.7,20.7
		c1.1,1,2.5,1.8,4,2.3l29.3,9.3l22.7,20.7c1.1,1,2.5,1.8,4,2.3c0,0,16.4,5.2,16.5,5.2c0.9,0.3,1.9,1.4,1.4,2.4l-12,20.8L168.4,121.5
		C168.4,121.5,180.2,100.9,180.3,100.8z M229.2,490c-0.6,1-2,0.6-2.7,0l-12.8-11.7c-1.1-1-2.5-1.8-4-2.3l-29.3-9.3L157.7,446
		c-1.1-1-2.5-1.8-4-2.3l-29.3-9.3l-22.7-20.7c-1.1-1-2.5-1.8-4-2.3l-29.3-9.3l-22.7-20.7c-1.1-1-2.5-1.8-4-2.3
		c0,0-16.4-5.2-16.5-5.2c-0.9-0.3-1.9-1.4-1.4-2.4l12-20.8L241,469.2C241.2,469.3,229.4,489.8,229.2,490L229.2,490z M254.4,452.2
		L44.1,330.8c12.6-41.2,26.4-74.1,43.2-103.2c16.9-29.2,38.5-57.6,67.8-89.1l210.3,121.4c-12.6,41.2-26.5,74.2-43.3,103.2
		C305.3,392.3,283.7,420.7,254.4,452.2L254.4,452.2z"/>
	<path class="st0" d="M267.3,275.3c-12-6.9-26-8.9-39.2-5.8c-3-20.7-12.3-36.1-27.4-44.8c-28.2-16.3-64.5-6.6-80.8,21.6
		s-6.6,64.5,21.6,80.8c0,0,71.6,41.4,71.9,41.6c25.7,14.9,58.8,6,73.6-19.7C301.9,323.2,293.1,290.2,267.3,275.3z M152.2,308.6
		c-18-10.4-24.2-33.6-13.8-51.6s33.6-24.2,51.6-13.8c12,6.9,18,21.3,17.8,42.8c0,0.1,0.8,55.2,0.8,55.2L152.2,308.6L152.2,308.6z
		 M230.1,352.9l-0.9-61.5c9-3.3,19-2.5,27.4,2.4c15.5,9,20.9,28.9,11.9,44.5C260.7,351.9,244.5,357.7,230.1,352.9L230.1,352.9z"/>
</g>
</svg>
