<?xml version="1.0" encoding="utf-8"?>
<!-- Generator: Adobe Illustrator 22.0.0, SVG Export Plug-In . SVG Version: 6.00 Build 0)  -->
<svg version="1.1" id="圖層_1" xmlns="http://www.w3.org/2000/svg" xmlns:xlink="http://www.w3.org/1999/xlink" x="0px" y="0px"
	 viewBox="0 0 511 511" style="enable-background:new 0 0 511 511;" xml:space="preserve">
<style type="text/css">
	.st0{fill:#82A23C;}
</style>
<g>
	<path class="st0" d="M445.5,38.5c-10.5,0-21.6,4.1-31.6,9.2c1.4-6.4,4.2-13.8,9.8-21.3c3.8-5.1,2.8-12.3-2.3-16.1
		s-12.3-2.8-16.1,2.3C396,25,392.1,37.5,390.6,47.7c-9.5-5-20.6-9.1-31.2-9.1c-25.9,0-47.1,12.2-64.8,37.3c-2.2,3-2.7,7-1.4,10.5
		c1.3,3.6,4.3,6.2,7.9,7.2c17.7,4.7,30,21.3,30,40.5c0,10.4-3.6,20.3-10.2,28c-3.7,4.3-3.7,10.7,0,15c6.6,7.7,10.2,17.6,10.2,28
		c0,12.3-5.1,23.9-14,31.9c-2.6,2.3-4,5.7-3.8,9.2c0.2,3.5,2,6.7,4.8,8.7c13.7,9.7,29.3,14.9,45.1,14.9c13.5,0,27.1-3.8,39.2-11
		c0.1,0,0.1,0,0.1,0c12.2,7.3,25.4,11,39,11c15.8,0,31.4-5.1,45.1-14.9c2.9-2,4.6-5.2,4.8-8.7c0.2-3.5-1.2-6.9-3.8-9.2
		c-8.9-8-14-19.6-14-31.9c0-10.4,3.6-20.3,10.2-28c3.7-4.3,3.7-10.7,0-15c-6.6-7.7-10.2-17.6-10.2-28c0-19.2,12.4-35.8,30-40.5
		c3.7-1,6.6-3.6,7.9-7.3c1.3-3.5,0.8-7.4-1.4-10.5C492.4,50.7,471.3,38.5,445.5,38.5L445.5,38.5z M450.7,134.1
		c0,12.7,3.6,25,10.6,35.6c-6.7,10.5-10.3,22.8-10.3,35.5c0,13.5,4.1,26.6,11.5,37.4c-6.6,2.9-13.5,4.3-20.6,4.3
		c-9.4,0-18.6-2.6-27.2-7.8c-3.6-2.2-7.7-3.3-11.8-3.3s-8.2,1-11.8,3.2c-8.7,5.2-18,7.8-27.5,7.8c-7.1,0-14-1.4-20.6-4.3
		c7.4-10.8,11.5-23.8,11.5-37.4c0-12.7-3.6-25-10.3-35.5c6.7-10.5,10.3-22.8,10.3-35.5c0-23.7-12.4-44.9-31.5-56.2
		c10.8-11.3,22.6-16.4,36.9-16.4c8.8,0,22.3,6.1,36.1,16.2c0,0.1,0.1,0.1,0.2,0.2c0.1,0.1,0.3,0.2,0.4,0.3c0.1,0,0.3,0.1,0.4,0.2
		s0.3,0.1,0.4,0.2c0.1,0.1,0.2,0.1,0.4,0.2c0.1,0.1,0.3,0.1,0.4,0.2c0.2,0.1,0.3,0.1,0.5,0.2c0.1,0.1,0.3,0.2,0.4,0.2
		s0.3,0.1,0.4,0.1c0.2,0,0.3,0.1,0.5,0.1c0.1,0,0.3,0.1,0.4,0.1c0.1,0,0.3,0.1,0.5,0.1c0.1,0,0.2,0,0.3,0c0.2,0.1,0.4,0.1,0.6,0.1
		c0.1,0,0.1,0,0.2,0c0.2,0,0.5,0,0.7,0s0.5,0,0.8,0c0.1,0,0.1,0,0.2,0c0.2,0,0.4-0.1,0.6-0.1c0.1,0,0.2,0,0.3,0
		c0.2,0,0.3-0.1,0.5-0.1c0.1-0.1,0.2-0.1,0.3-0.1l0,0h0.1c0.3-0.1,0.6-0.2,0.9-0.3c0.1,0,0.2-0.1,0.3-0.1c0.3-0.1,0.5-0.2,0.7-0.3
		c0.1-0.1,0.2-0.1,0.3-0.2c0.2-0.1,0.4-0.2,0.6-0.3c0.1-0.1,0.3-0.2,0.4-0.3c0.3-0.1,0.5-0.2,0.7-0.4c0-0.1,0.1-0.1,0.1-0.1l0,0
		c13.8-10.1,27.2-16.1,36-16.1c14.2,0,25.9,5.2,36.7,16.4C463.1,89.2,450.7,110.4,450.7,134.1L450.7,134.1z"/>
	<path class="st0" d="M384.2,130.5c-6.4,0-11.5,5.2-11.5,11.5v12.3c0,6.4,5.1,11.5,11.5,11.5s11.5-5.2,11.5-11.5V142
		C395.7,135.6,390.6,130.5,384.2,130.5z"/>
	<path class="st0" d="M421,130.5c-6.4,0-11.5,5.2-11.5,11.5v12.3c0,6.4,5.1,11.5,11.5,11.5c6.4,0,11.5-5.2,11.5-11.5V142
		C432.5,135.6,427.4,130.5,421,130.5z"/>
</g>
<g>
	<path class="st0" d="M164.1,201.1c-7.9,13.7-3.2,31,10.4,38.9c13.6,7.9,31.1,3.2,38.9-10.4c7.9-13.6,3.2-31.1-10.4-38.9
		C189.5,182.8,172,187.5,164.1,201.1z M197.1,220.1c-2.7,4.6-8.5,6.1-13,3.5c-4.6-2.7-6.1-8.5-3.5-13c2.7-4.6,8.5-6.1,13-3.5
		C198.1,209.7,199.6,215.5,197.1,220.1z"/>
	<path class="st0" d="M248.8,137.9c-4.9-2.8-12.2-3-23.5-0.5c-27.8,6.2-72.5,26.2-99.7,41.5c-34.4,19.4-39.1,29.2-39.3,36.3
		c-0.1,6.1,3.1,14.2,27.1,32.1c11.9,8.8,27.3,19,44.3,29.1l-12.1,20.9l-66-38.1c-4.6-2.6-10.4-1-13,3.5c-2.6,4.6-1,10.4,3.5,13
		l66,38.1l-9.5,16.4L77,301.6c-4.6-2.6-10.4-1-13,3.5c-2.6,4.6-1,10.4,3.5,13l49.6,28.6l-9.5,16.4L74.5,344c-4.6-2.6-10.4-1-13,3.5
		c-2.6,4.6-1,10.4,3.5,13l33.1,19.1L85,402.3L7,423.2c-4.2,1.1-7.1,5-7,9.4c0.2,4.4,3.3,8.1,7.6,9c38.2,7.8,73.4,28.1,99.3,57.3
		c2.4,2.8,6.1,3.8,9.5,2.9c0.7-0.2,1.3-0.4,2-0.8c3.9-2.1,5.8-6.6,4.7-10.8L101.9,411l12.7-21.9l32.6,18.8c4.6,2.6,10.4,1,13-3.5
		c2.6-4.6,1-10.4-3.5-13l-32.5-18.8l9.5-16.4l49,28.3c4.6,2.6,10.4,1,13-3.5c2.6-4.6,1-10.4-3.5-13l-49-28.2l9.5-16.4l65.3,37.7
		c4.6,2.6,10.4,1,13-3.5c2.6-4.6,1-10.4-3.5-13l-65.3-37.7l12.1-20.9c17.7,9.9,34.8,18.5,48.6,24.4c42.2,18,53,13,52.3-45.6
		c-0.3-23.4-2.8-51.8-6.9-75.7c-2.1-12.5-4.5-22.9-7-30.9C257.8,147.2,254.1,141,248.8,137.9z M96.4,462.6
		c-7.8-6.2-16.1-11.9-24.8-16.9s-17.7-9.4-27-13l40.8-10.9L96.4,462.6z M247,178.8c6,27.9,10,69.6,9.2,98c-0.4,14.7-2,21.2-2.9,23.9
		c-3.1-0.4-10.6-2.2-26.7-9.3c-14.6-6.5-32.6-15.8-50.8-26.3c-18.1-10.5-35.2-21.4-48.1-30.8c-14.2-10.3-19.5-16-21.4-18.5
		c1.8-2.1,6.7-6.7,19.2-14.4c24.2-15,62.3-32.4,89.5-41.1c15.7-5,22.3-5.5,24.5-5.4C240.7,156.8,243.6,162.7,247,178.8z"/>
</g>
</svg>
