<?xml version="1.0" encoding="utf-8"?>
<!-- Generator: Adobe Illustrator 22.0.0, SVG Export Plug-In . SVG Version: 6.00 Build 0)  -->
<svg version="1.1" id="Layer_1" xmlns="http://www.w3.org/2000/svg" xmlns:xlink="http://www.w3.org/1999/xlink" x="0px" y="0px"
	 viewBox="0 0 512 512" style="enable-background:new 0 0 512 512;" xml:space="preserve">
<style type="text/css">
	.st0{fill:#82A23C;}
</style>
<g>
	<g>
		<path class="st0" d="M233.6,267.9h-16.1c-4.6,0-8.3,3.7-8.3,8.3s3.7,8.3,8.3,8.3h16.1c4.6,0,8.3-3.7,8.3-8.3
			S238.2,267.9,233.6,267.9z"/>
		<path class="st0" d="M264.1,306.3h-14.5c-4.6,0-8.3,3.7-8.3,8.3c0,4.6,3.7,8.3,8.3,8.3h14.5c4.6,0,8.3-3.7,8.3-8.3
			C272.4,310,268.7,306.3,264.1,306.3L264.1,306.3z"/>
		<path class="st0" d="M321,326.5h-14.5c-4.6,0-8.3,3.7-8.3,8.3c0,4.6,3.7,8.3,8.3,8.3H321c4.6,0,8.3-3.7,8.3-8.3
			C329.2,330.2,325.5,326.5,321,326.5z"/>
		<path class="st0" d="M313,274.2c0-4.6-3.7-8.3-8.3-8.3h-14.5c-4.6,0-8.3,3.7-8.3,8.3s3.7,8.3,8.3,8.3h14.5
			C309.3,282.5,313,278.8,313,274.2z"/>
		<path class="st0" d="M361.5,290.2H347c-4.6,0-8.3,3.7-8.3,8.3c0,4.6,3.7,8.3,8.3,8.3h14.5c4.6,0,8.3-3.7,8.3-8.3
			C369.8,293.9,366.1,290.2,361.5,290.2z"/>
	</g>
	<g id="XMLID_65_">
		<g id="XMLID_8_">
			<path class="st0" d="M398.7,434.8c-6.4,0-10.4-7.3-7-12.7c1.7-2.7,5.3-4.5,7.9-6.3c3.7-2.6,8.9-1.7,11.5,2
				c2.6,3.7,1.7,8.9-2,11.5l-5.7,4C402,434.3,400.3,434.8,398.7,434.8L398.7,434.8z"/>
		</g>
		<path class="st0" d="M495.2,307c-14.8-14.9-37.9-17-55.1-5.1l-10.8,5.9l-50.8-50.1c-21-20.7-48.9-32.1-78.5-32.1h-26.2l0-8.2
			c2.5-6.5,10.5-21.6,22.1-35.1c10.2,4.7,19.9,7.1,29,7.1c20.8,0,34-14,49-26.4c8.4-6.9,17.1-13.4,26.1-19.5
			c5.8-3.9,24-12,13.7-21.2c-24.4-21.8-59.8-27-88.1-12.9c-36.5,18.2-41,58.4-41.3,61c-3.8,4.4-7.3,8.9-10.5,13.3l0.1-49
			c9.1-7.3,31.8-28.7,30.9-62.4c-0.8-31.6-22-60.5-52.7-71.8c-5.1-1.9-10.8,1.8-11.1,7.3c-0.6,10.3-1.7,20.8-3.3,31
			c-1.8,11.6-3.8,20.3-5.3,27.3c-3,13.1-4.9,21.8-2.1,33c3.3,13.4,12.5,25.4,27.2,35.8l-0.1,64.5c-1.6-2-3.3-4.1-5.1-6.2
			c-0.3-3.2-5-42.8-41.2-60.9c-28.3-14.1-63.7-8.9-88.1,12.9c-3.7,3.3-3.3,8.8-0.1,12.3c3.2,3.4,7.9,5.1,11.8,7.6
			c9.4,6.2,18.4,12.9,27.1,20c15.3,12.6,28.7,27.2,49.9,27.2c9.1,0,18.9-2.4,29.1-7.2c6.5,7.4,10.8,14.4,13.7,20.4h-9.8
			c-47,0-89.1,29.4-104.8,73.1l-1.1,3.1H95.9c-5.6-8.7-15.4-14.5-26.5-14.5H35.7c-17.4,0-31.5,14.1-31.5,31.5v116.7
			c0,17.4,14.1,31.5,31.5,31.5h33.7c12.9,0,24-7.8,28.9-18.9c9.1,1.2,17.9,4.5,25.7,9.8l43.2,29.2c24.4,16.5,52.1,24.8,79.9,24.8
			c25.1,0,50.2-6.8,72.9-20.3c0.2-0.1,0.3-0.2,0.5-0.3l60.2-42.1c3.7-2.6,4.6-7.8,2-11.5c-2.6-3.7-7.8-4.6-11.5-2l-60,41.9
			c-42.3,25.1-94,23.6-134.8-4.1l-43.2-29.2c-9.8-6.6-20.8-10.9-32.3-12.5v-113v-0.5h49.9c24.7,0,48.8,7.3,69.6,21.2l47.3,31.5
			c10.1,6.7,13.2,20.9,7.1,31.7c-6,10.4-18.6,14.2-28.8,8.6l-59.3-32.9c-4-2.2-9-0.8-11.2,3.2c-2.2,4-0.8,9,3.2,11.2l59.3,32.9
			c18.2,10.1,40.6,3.6,51.1-14.8c2-3.5,3.4-7.1,4.3-10.8l154.9-84c0.3-0.2,0.6-0.3,0.8-0.5c10.6-7.5,25.1-6.3,34.3,3
			c5.4,5.4,8.2,12.6,7.8,20.3c-0.3,7.5-3.6,14.4-9.3,19.3l-60,42c-8.7,6.1,0.7,19.7,9.5,13.5l60.3-42.2c0.2-0.1,0.4-0.3,0.6-0.5
			c9.2-7.8,14.8-19.3,15.4-31.4C508.3,327.5,503.7,315.6,495.2,307C480.4,292.1,503.7,315.6,495.2,307L495.2,307z M332.9,124.2
			c19-9.5,42.3-7.8,60.7,3.7c-5.8,3.8-11.4,7.8-16.9,11.9c-9.8,7.3-16.9,13.4-22.5,18.3c-9.3,8-13.9,12-21.3,13.9
			c-9,2.3-19.5,0.5-31.3-5.2C303.7,156.7,310.8,135.2,332.9,124.2L332.9,124.2z M203.5,194.8c-7.4-1.9-12.1-5.9-21.3-13.9
			c-5.6-4.9-12.7-10.9-22.5-18.3c-5.5-4.1-11.2-8.1-16.9-11.9c18.5-11.5,41.7-13.2,60.7-3.7c22.1,11,29.2,32.5,31.3,42.5
			C223,195.4,212.5,197.1,203.5,194.8L203.5,194.8z M69.4,450.5H35.7c-8.3,0-15-6.7-15-15V318.9c0-8.3,6.7-15,15-15h33.7
			c8.3,0,15,6.7,15,15v116.7C84.4,443.8,77.7,450.5,69.4,450.5z M246.2,95.1c-1.8-7.4-0.5-13.4,2.2-25.4c1.6-7.3,3.7-16.3,5.6-28.5
			c1-6.8,1.9-13.7,2.5-20.5c18.8,10.9,31.2,30.7,31.7,52c0.7,24.7-15,41-22.8,47.6C254.9,112.7,248.4,104.2,246.2,95.1L246.2,95.1z
			 M293.5,381.3c-2.2-9.6-7.9-18.3-16.6-24l-47.3-31.5c-22-14.7-47.3-22.8-73.4-23.8c13.9-36,49.1-60,88.3-60h55.3
			c25.3,0,49.1,9.7,66.9,27.3l47.3,46.6L293.5,381.3z"/>
	</g>
</g>
</svg>
