<?xml version="1.0" encoding="utf-8"?>
<!-- Generator: Adobe Illustrator 22.0.0, SVG Export Plug-In . SVG Version: 6.00 Build 0)  -->
<svg version="1.1" id="Capa_1" xmlns="http://www.w3.org/2000/svg" xmlns:xlink="http://www.w3.org/1999/xlink" x="0px" y="0px"
	 viewBox="0 0 65 65" style="enable-background:new 0 0 65 65;" xml:space="preserve">
<style type="text/css">
	.st0{fill:#82A23C;}
	.st1{fill:#3D6C33;}
</style>
<g>
	<path class="st0" d="M42.3,32.8c0.8-3.6,0.5-8.4,2.8-10.4c5-4.5,0.2-11.8,5.6-15.6c0,0-0.4-0.8-0.6-1.1c-2-2.5-5.6-2.4-7.9-5.7
		c-2.2,4.7-8,3.3-10.2,7c-2.2,3.9-5.5,6.9-7.8,10.6c-2.8,4.5-6.6,8.6-8,13.5c-1.7,5.6-3.1,11.7,0.6,17.7c1.7,2.7,2.6,5.6,5.7,6.9
		c2.3,1,3.2,3.1,3.5,5.4c0.2,1.7-0.5,4.1,2.3,3.8c2.1-0.2,2-2.4,1.9-4c-0.3-3.6,0.5-7.4,2.9-9.6C38.4,46.1,40.7,39.7,42.3,32.8z"/>
</g>
<g>
	<path class="st1" d="M28.5,48.6c0,1.1-0.6,1.6-1.7,1.6c-1,0-1.5-0.5-1.5-1.6V38.5l-4.5,9c-0.4,0.7-0.9,1-1.7,1
		c-0.8,0-1.3-0.3-1.7-1l-4.6-9.1v10.3c0,1.1-0.6,1.6-1.7,1.6c-1,0-1.5-0.5-1.5-1.6V32.9c0-1.1,0.5-1.6,1.5-1.6c0.9,0,1.5,0.3,1.8,1
		l6.1,12.1l6.2-12.1c0.3-0.7,0.8-1,1.5-1c1.1,0,1.7,0.5,1.7,1.6V48.6z"/>
	<path class="st1" d="M36,48.6c0,1.1-0.6,1.6-1.7,1.6c-1,0-1.5-0.5-1.5-1.6V32.9c0-1.1,0.5-1.6,1.5-1.6c1.1,0,1.7,0.5,1.7,1.6V48.6z
		"/>
	<path class="st1" d="M56.3,33.1c0,0.4-0.1,0.7-0.4,1c-0.3,0.3-0.6,0.4-1,0.4h-5.8v13.9c0,0.7-0.1,1.1-0.3,1.4
		c-0.2,0.3-0.6,0.4-1.2,0.4c-1.1,0-1.7-0.6-1.7-1.8V34.5h-5.3c-0.4,0-0.8-0.1-1-0.4c-0.3-0.3-0.4-0.7-0.4-1c0-0.9,0.5-1.4,1.4-1.4
		h14.2c0.4,0,0.7,0.2,1,0.5C56.1,32.4,56.3,32.8,56.3,33.1z"/>
</g>
</svg>
