<?xml version="1.0" encoding="utf-8"?>
<!-- Generator: Adobe Illustrator 22.0.0, SVG Export Plug-In . SVG Version: 6.00 Build 0)  -->
<svg version="1.1" id="Capa_1" xmlns="http://www.w3.org/2000/svg" xmlns:xlink="http://www.w3.org/1999/xlink" x="0px" y="0px"
	 viewBox="0 0 22.2 22.2" style="enable-background:new 0 0 22.2 22.2;" xml:space="preserve">
<style type="text/css">
	.st0{fill:#82A23C;}
</style>
<g>
	<path class="st0" d="M14.4,11.2c0.3-1.2,0.2-2.9,0.9-3.6c1.7-1.5,0.1-4,1.9-5.3c0,0-0.1-0.3-0.2-0.4c-0.7-0.8-1.9-0.8-2.7-1.9
		c-0.8,1.6-2.7,1.1-3.5,2.4C10.1,3.7,9,4.8,8.2,6C7.3,7.5,6,9,5.5,10.6c-0.6,1.9-1.1,4,0.2,6.1c0.6,0.9,0.9,1.9,2,2.4
		c0.8,0.3,1.1,1.1,1.2,1.8c0.1,0.6-0.2,1.4,0.8,1.3c0.7-0.1,0.7-0.8,0.6-1.4c-0.1-1.2,0.2-2.5,1-3.3C13.1,15.7,13.9,13.6,14.4,11.2z
		"/>
</g>
</svg>
