<?xml version="1.0" encoding="utf-8"?>
<!-- Generator: Adobe Illustrator 22.0.0, SVG Export Plug-In . SVG Version: 6.00 Build 0)  -->
<svg version="1.1" id="圖層_1" xmlns="http://www.w3.org/2000/svg" xmlns:xlink="http://www.w3.org/1999/xlink" x="0px" y="0px"
	 viewBox="0 0 100 100" style="enable-background:new 0 0 100 100;" xml:space="preserve">
<style type="text/css">
	.st0{fill:#56943E;}
	.st1{fill:#416D33;}
	.st2{fill:#81A13C;}
	.st3{fill:#3F3F41;stroke:#3F3F41;stroke-width:0.2077;stroke-miterlimit:10;}
	.st4{fill:#81A13C;stroke:#81A13C;stroke-width:0.2077;stroke-miterlimit:10;}
</style>
<path class="st0" d="M90.1,39L90.1,39c-0.1-0.1-0.2-0.2-0.3-0.3L67.7,16.6c-0.9-0.9-2.4-0.9-3.4,0l-7.9,7.9l24.8,24.8
	c0.6,0.6,1.5,0.8,2.3,0.6l2.1,6.9l6.8,15.4V46C92.6,46,92.8,41.7,90.1,39z"/>
<path class="st0" d="M52,0.7c-0.9-0.9-2.4-0.9-3.4,0L9.7,39.6c-0.1,0.1-0.2,0.2-0.3,0.3c-2.2,2.7-2,6.5-2,6.5v26.2l6.8-15.4l2.1-6.9
	c0.8,0.2,1.7,0,2.3-0.6L59.8,8.6L52,0.7z"/>
<path class="st1" d="M33.1,63.6c-2.9-8.8-12-20.1-12-20.1S11.9,54.7,9,63.6S6.1,80.3,19.9,80.8l0-4.1l-6.5-6l1.6-1.5l4.8,4.3
	l0.1-6.1l-6.5-5.9l1.5-1.5l4.9,4.4v-8.3H21h1.2v8.3l4.9-4.4l1.5,1.5l-6.5,5.9l0.1,6.1l4.8-4.3l1.6,1.5l-6.5,6l0,4.1
	C35.9,80.3,35.9,72.4,33.1,63.6z"/>
<path class="st1" d="M66.9,63.6c2.9-8.8,12-20.1,12-20.1s9.2,11.3,12,20.1s2.9,16.7-10.9,17.3l0-4.1l6.5-6l-1.6-1.5l-4.8,4.3
	L80,67.5l6.5-5.9L85,60.1l-4.9,4.4v-8.3h-1.2h-1.2v8.3l-4.9-4.4l-1.5,1.5l6.5,5.9l-0.1,6.1l-4.8-4.3l-1.6,1.5l6.5,6l0,4.1
	C64,80.3,64,72.4,66.9,63.6z"/>
<path class="st2" d="M67.2,56.1C63.1,43.5,50,27.3,50,27.3S36.9,43.5,32.8,56.1c-4.1,12.6-4.1,23.9,15.5,24.7l0-5.8l-9.3-8.6
	l2.4-2.1l6.8,6.1l0.1-8.7l-9.2-8.4l2.2-2.2l7,6.3V45.6H50h1.7v11.9l7-6.3l2.2,2.2l-9.2,8.4l0.1,8.7l6.8-6.1l2.4,2.1L51.6,75l0,5.8
	C71.3,80.1,71.3,68.8,67.2,56.1z"/>
<g>
	<path class="st3" d="M9.1,85.3c0.9-0.2,2.3-0.3,3.5-0.3c2,0,3.2,0.4,4.1,1.2c0.7,0.7,1.1,1.7,1.1,2.8c0,2-1.2,3.2-2.7,3.8v0.1
		c1.1,0.4,1.8,1.4,2.1,3c0.5,2.1,0.8,3.5,1.1,4.1h-1.9c-0.2-0.4-0.5-1.7-1-3.5c-0.4-2-1.2-2.8-2.9-2.9h-1.7v6.4H9.1V85.3z M10.9,92
		h1.9c2,0,3.2-1.1,3.2-2.8c0-1.9-1.3-2.7-3.3-2.8c-0.9,0-1.5,0.1-1.8,0.2V92z"/>
	<path class="st3" d="M27.8,92.9h-5.5v5.3h6.2v1.6h-8V85.1h7.7v1.6h-5.9v4.7h5.5V92.9z"/>
	<path class="st4" d="M46.2,99.2c-0.8,0.3-2.5,0.8-4.4,0.8c-2.2,0-3.9-0.6-5.3-2c-1.2-1.2-2-3.2-2-5.5c0-4.4,2.9-7.6,7.7-7.6
		c1.6,0,2.9,0.4,3.6,0.7l-0.4,1.6c-0.8-0.4-1.7-0.6-3.2-0.6c-3.5,0-5.7,2.2-5.7,5.9c0,3.7,2.2,6,5.5,6c1.2,0,2-0.2,2.5-0.4v-4.4
		h-2.9v-1.5h4.7V99.2z"/>
	<path class="st4" d="M49,85.3c0.9-0.2,2.3-0.3,3.5-0.3c2,0,3.2,0.4,4.1,1.2c0.7,0.7,1.1,1.7,1.1,2.8c0,2-1.2,3.2-2.7,3.8v0.1
		c1.1,0.4,1.8,1.4,2.1,3c0.5,2.1,0.8,3.5,1.1,4.1h-1.9c-0.2-0.4-0.5-1.7-1-3.5c-0.4-2-1.2-2.8-2.9-2.9h-1.7v6.4H49V85.3z M50.8,92
		h1.9c2,0,3.2-1.1,3.2-2.8c0-1.9-1.3-2.7-3.3-2.8c-0.9,0-1.5,0.1-1.8,0.2V92z"/>
	<path class="st4" d="M67.8,92.9h-5.5v5.3h6.2v1.6h-8V85.1h7.7v1.6h-5.9v4.7h5.5V92.9z"/>
	<path class="st4" d="M78.2,92.9h-5.5v5.3h6.2v1.6h-8V85.1h7.7v1.6h-5.9v4.7h5.5V92.9z"/>
	<path class="st4" d="M81.2,99.8V85.1h2l4.6,7.5c1.1,1.7,1.9,3.3,2.6,4.8l0,0c-0.2-2-0.2-3.8-0.2-6.1v-6.2h1.7v14.8H90l-4.5-7.5
		c-1-1.6-1.9-3.3-2.7-4.9l-0.1,0c0.1,1.9,0.1,3.6,0.1,6.1v6.3H81.2z"/>
</g>
</svg>
